<svg width="270" height="34" viewBox="0 0 270 34" fill="none" xmlns="http://www.w3.org/2000/svg">
<path d="M22.3752 5.02881L9.1566 16.4198V5.03752L4.82031 8.77562V25.16L28.1793 5.02881H22.3752Z" fill="#9C7EB7"/>
<path d="M17.9041 22.6559L22.8015 28.9721L27.0892 28.9296L18.1813 17.4214L4.81934 28.9296V28.9721H10.5752L17.9041 22.6559Z" fill="#15202A"/>
<path d="M33 33.5H0V0.5H33V33.5ZM1.11673 32.3833H31.8833V1.61673H1.11673V32.3833Z" fill="#15202A"/>
<path d="M52.458 11.1H55.365L49.874 23H46.508L41 11.1H43.907L48.191 20.943L52.458 11.1ZM59.5547 23.255C57.2257 23.255 55.8657 21.98 55.8657 19.94V13.939H58.4497V19.294C58.4497 20.382 59.0787 21.317 60.6767 21.317C62.2747 21.317 62.9887 20.348 62.9887 19.294V13.939H65.5727V23H62.9887V21.725C62.5977 22.269 61.4927 23.255 59.5547 23.255ZM67.6196 10.454H70.2036V23H67.6196V10.454ZM79.3914 23L76.5184 19.175L74.8354 20.739V23H72.2514V11.1H74.8354V17.883L79.0174 13.939H82.1624L78.2864 17.543L82.3834 23H79.3914ZM87.9127 13.701C90.5137 13.701 92.7917 14.449 92.7917 17.118V23H90.2077V21.793C89.8167 22.388 88.5077 23.255 86.4847 23.255C84.3597 23.255 82.8977 22.371 82.8977 20.586C82.8977 18.682 83.8837 17.152 90.2077 17.543V17.118C90.2077 16.166 89.7827 15.469 87.9127 15.469C86.3487 15.469 85.8557 15.928 85.7197 16.557H83.3057C83.5947 14.551 85.4307 13.701 87.9127 13.701ZM90.2077 20.348V19.073C86.7737 18.886 85.4987 19.209 85.4987 20.501C85.4987 21.351 86.1277 21.691 87.2497 21.691C88.6437 21.691 89.7317 21.147 90.2077 20.348ZM100.848 13.701C103.177 13.701 104.537 14.959 104.537 16.999V23H101.953V17.645C101.953 16.557 101.324 15.622 99.7256 15.622C98.1276 15.622 97.4136 16.591 97.4136 17.645V23H94.8296V13.939H97.4136V15.214C97.8046 14.67 98.9096 13.701 100.848 13.701ZM121.65 16.778C123.214 17.152 124.098 17.968 124.098 19.498C124.098 22.184 122.398 23 118.675 23H111.518V11.1H119.032C121.888 11.1 123.656 11.763 123.656 14.16C123.656 15.554 122.942 16.319 121.65 16.693V16.778ZM119.168 13.208H114.255V16.013H119.168C120.358 16.013 121.021 15.622 121.021 14.602C121.021 13.582 120.273 13.208 119.168 13.208ZM119.236 20.909C120.817 20.909 121.31 20.297 121.31 19.294C121.31 18.291 120.579 17.968 119.236 17.968H114.255V20.909H119.236ZM131.592 13.718C132.187 13.718 132.629 13.769 132.935 13.854V16.234H132.85C132.527 16.098 131.915 15.945 131.133 15.945C128.991 15.945 128.209 17.288 128.209 18.699V23H125.625V13.939H128.209V15.605C128.583 14.959 129.654 13.718 131.592 13.718ZM139.021 13.701C141.673 13.701 144.427 15.061 144.427 18.478C144.427 21.895 141.673 23.255 139.021 23.255C136.386 23.255 133.615 21.895 133.615 18.478C133.615 15.061 136.386 13.701 139.021 13.701ZM139.021 21.47C141.197 21.47 142.013 20.059 142.013 18.478C142.013 16.88 141.197 15.469 139.021 15.469C136.845 15.469 136.046 16.88 136.046 18.478C136.046 20.059 136.845 21.47 139.021 21.47ZM153.102 23L150.229 19.175L148.546 20.739V23H145.962V11.1H148.546V17.883L152.728 13.939H155.873L151.997 17.543L156.094 23H153.102ZM166.464 19.141H158.423C158.627 20.382 159.494 21.47 161.381 21.47C162.758 21.47 163.642 20.858 163.999 20.093H166.277C165.682 22.354 163.625 23.255 161.381 23.255C158.797 23.255 156.094 21.827 156.094 18.478C156.094 15.129 158.763 13.701 161.364 13.701C163.999 13.701 166.736 15.316 166.464 19.141ZM161.364 15.469C159.749 15.469 158.848 16.353 158.508 17.441H164.101C163.829 16.353 163.064 15.469 161.364 15.469ZM173.993 13.718C174.588 13.718 175.03 13.769 175.336 13.854V16.234H175.251C174.928 16.098 174.316 15.945 173.534 15.945C171.392 15.945 170.61 17.288 170.61 18.699V23H168.026V13.939H170.61V15.605C170.984 14.959 172.055 13.718 173.993 13.718ZM187.849 15.911C191.13 16.37 193.408 16.642 193.408 19.294C193.408 21.878 191.283 23.255 187.05 23.255C182.936 23.255 180.777 21.708 180.777 19.294H183.633C183.701 20.535 185.129 21.164 187.288 21.164C189.549 21.164 190.501 20.569 190.501 19.668C190.501 18.444 188.665 18.563 185.418 18.019C182.171 17.475 181.151 16.489 181.151 14.619C181.151 12.664 182.477 10.862 186.846 10.862C191.045 10.862 192.677 12.46 192.745 14.568H190.093C189.991 13.718 189.005 12.953 186.812 12.953C184.364 12.953 183.786 13.616 183.786 14.432C183.786 15.554 185.758 15.622 187.849 15.911ZM199.833 13.701C202.485 13.701 205.239 15.061 205.239 18.478C205.239 21.895 202.485 23.255 199.833 23.255C197.198 23.255 194.427 21.895 194.427 18.478C194.427 15.061 197.198 13.701 199.833 13.701ZM199.833 21.47C202.009 21.47 202.825 20.059 202.825 18.478C202.825 16.88 202.009 15.469 199.833 15.469C197.657 15.469 196.858 16.88 196.858 18.478C196.858 20.059 197.657 21.47 199.833 21.47ZM206.774 10.454H209.358V23H206.774V10.454ZM215.095 23.255C212.766 23.255 211.406 21.98 211.406 19.94V13.939H213.99V19.294C213.99 20.382 214.619 21.317 216.217 21.317C217.815 21.317 218.529 20.348 218.529 19.294V13.939H221.113V23H218.529V21.725C218.138 22.269 217.033 23.255 215.095 23.255ZM229.399 15.707H226.747V19.515C226.747 20.994 227.291 21.283 229.399 21.062V23C229.059 23.051 228.651 23.136 228.056 23.136C224.792 23.136 224.163 21.725 224.163 19.464V15.707H222.48V13.939H224.163V11.593H226.747V13.939H229.399V15.707ZM231.095 23V13.939H233.662V23H231.095ZM232.37 12.885C231.588 12.885 231.044 12.443 231.044 11.678C231.044 10.896 231.588 10.454 232.37 10.454C233.152 10.454 233.713 10.896 233.713 11.678C233.713 12.443 233.152 12.885 232.37 12.885ZM240.606 13.701C243.258 13.701 246.012 15.061 246.012 18.478C246.012 21.895 243.258 23.255 240.606 23.255C237.971 23.255 235.2 21.895 235.2 18.478C235.2 15.061 237.971 13.701 240.606 13.701ZM240.606 21.47C242.782 21.47 243.598 20.059 243.598 18.478C243.598 16.88 242.782 15.469 240.606 15.469C238.43 15.469 237.631 16.88 237.631 18.478C237.631 20.059 238.43 21.47 240.606 21.47ZM253.565 13.701C255.894 13.701 257.254 14.959 257.254 16.999V23H254.67V17.645C254.67 16.557 254.041 15.622 252.443 15.622C250.845 15.622 250.131 16.591 250.131 17.645V23H247.547V13.939H250.131V15.214C250.522 14.67 251.627 13.701 253.565 13.701ZM264.401 17.543C266.951 17.985 268.685 18.172 268.685 20.263C268.685 22.337 266.917 23.255 263.636 23.255C260.44 23.255 258.451 22.252 258.451 20.212H261.256C261.256 21.113 262.327 21.504 263.806 21.504C265.268 21.504 266.033 21.232 266.033 20.535C266.033 19.719 264.911 19.617 262.497 19.209C260.1 18.818 258.808 18.308 258.808 16.506C258.808 14.687 260.423 13.701 263.483 13.701C266.679 13.701 268.277 14.891 268.277 16.557H265.676C265.676 15.979 265.013 15.401 263.449 15.401C262.038 15.401 261.273 15.69 261.273 16.387C261.273 17.169 262.786 17.254 264.401 17.543Z" fill="#263340"/>
</svg>
