<?xml version="1.0" encoding="UTF-8"?>
<svg id="Layer_2" data-name="Layer 2" xmlns="http://www.w3.org/2000/svg" viewBox="0 0 502 220.89">
  <defs>
    <style>
      .cls-1 {
        fill: #fff;
      }

      .cls-2 {
        fill: #ec3825;
      }
    </style>
  </defs>
  <g id="Layer_2-2" data-name="Layer 2">
    <g>
      <g>
        <path class="cls-2" d="m340.62,6.59l-14.23-6.59-16.73,1.71c-.06.03-.12.05-.19.08l-24.97,21.24-3.62-4.03c-.08-.08-.17-.14-.28-.17l-20.29-4.84-.13-.02c-.18,0-19.2,1.88-19.2,1.88-.11,0-.22.08-.27.18l-23.44,41.59c-.08.15-.09.32-.03.48,0,0,6.87,16.9,6.88,16.93.09.22.32.35.54.35,0,0,4.27-.39,4.27-.39l.63-1.16-3.96.36,21.22-38.51s17.92,26.06,17.92,26.07c.03.04.07.07.11.11.09.07.2.1.31.13l12.07-.2-19.25,45.12c-.04.1-.03.22.02.31.06.1.16.16.27.17l24.45,1.92,17.97-4.9c.16-.04.29-.15.36-.3l33.36-73.71c.07-.15.06-.32,0-.46-.07-.15-.2-.25-.36-.3l-3.99-1.04,10.82-8.66c.28-.22.44-.56.44-.91V7.69c0-.47-.28-.91-.71-1.11m-79.1,8.82l18.66,4.45,3.34,3.73-9.84,8.37-12.16-16.56Zm71.64,15.12l-32.98,72.88-17.07,4.66,35.46-81.34,14.59,3.81Zm-4.41-2.29l-10.35-2.7-.1-.02h-.03s-.07,0-.17.03c-.06.02-.11.05-.2.11l-40.24,35.02-10.81.18,59.14-46.26,13.68,4.96-10.92,8.69Zm11.48-9.66l-13.79-5V1.24l13.79,6.38v10.96Z"/>
        <polygon class="cls-2" points="502 147.25 488.77 184.58 478.69 184.58 471.07 159.09 463.44 184.58 453.36 184.58 440.13 147.25 449.25 147.25 458.53 175.57 467.01 147.25 475.12 147.25 483.6 175.57 492.83 147.25 502 147.25"/>
        <polygon class="cls-2" points="422 184.58 388.72 184.58 388.72 147.25 421.47 147.25 418.03 153.86 397.31 153.86 397.31 162.13 419.98 162.13 416.54 168.69 397.31 168.69 397.31 177.97 418.56 177.97 422 184.58"/>
        <rect class="cls-2" x="356.67" y="147.25" width="8.59" height="37.33"/>
        <polygon class="cls-2" points="336.94 147.25 319.72 184.58 309.16 184.58 291.88 147.25 301 147.25 314.44 178.13 327.82 147.25 336.94 147.25"/>
      </g>
      <g>
        <path class="cls-1" d="m258.82,102.43l16.96-38.73c.04-.09.05-.18.02-.37-.01-.05-.03-.11-.09-.19l-1.03-1.32h0c-.46,0-.77.01-1.38.02l.9,1.15-12.65.84-14.2-18.93,6,.26c-.26-.38-.52-.76-.78-1.13l-6.37-.28c-.18,0-.34.09-.47.29l-16.17,29.78h0l-.63,1.16h0l-4.97,9.15-16.36-41.97,17.27,1.95.58-1.03-13.23-1.5,14.3-.41.63-1.12-31.95.91-15.08-1.02,42.79-1.98,5.28.24.61-1.07-4.22-.19-.69-.03,11.99-20.09,3.91.82.57-1.01-3.93-.82-72.88,6c-.11,0-.21.07-.26.16-.06.09-.07.21-.03.31l6.94,18s.01.05.04.06c.06.03.12.04.19.05l22.06,1.49-8.08.4c-.11,0-.21.06-.27.16-.06.09-.07.21-.03.31l23.27,60.49c.05.12.16.21.3.22l34.31,2.67,16.45-3.38c.17-.04.32-.15.39-.32m-16.64,2.53l19.47-40.03,12.75-.85-16.48,37.64-15.75,3.24Z"/>
        <path class="cls-1" d="m385.81,214.94c0,3.89-3.19,5.96-9.56,5.96s-9.43-2.33-9.43-5.96h4.29c.1,1.87,2.25,2.81,5.49,2.81s4.83-.9,4.83-2.25c0-1.84-2.76-1.66-7.64-2.48-4.88-.82-6.41-2.3-6.41-5.11s1.99-5.65,8.56-5.65,8.77,2.4,8.87,5.57h-3.99c-.15-1.28-1.64-2.43-4.93-2.43-3.68,0-4.55,1-4.55,2.22,0,1.69,2.96,1.79,6.11,2.22,4.93.69,8.36,1.1,8.36,5.09"/>
        <polygon class="cls-1" points="345.35 205.79 338.58 205.79 338.58 220.51 334.47 220.51 334.47 205.79 327.69 205.79 327.69 202.62 345.35 202.62 345.35 205.79"/>
        <polygon class="cls-1" points="305.46 220.51 289.51 220.51 289.51 202.62 305.2 202.62 305.2 205.79 293.63 205.79 293.63 209.75 304.49 209.75 304.49 212.89 293.63 212.89 293.63 217.34 305.46 217.34 305.46 220.51"/>
        <polygon class="cls-1" points="256.11 212.23 252.25 215.73 252.25 220.51 248.14 220.51 248.14 202.62 252.25 202.62 252.25 211.08 261.33 202.62 266.67 202.62 259 209.6 267.03 220.51 262.14 220.51 256.11 212.23"/>
        <path class="cls-1" d="m220.82,220.51l-3.78-6.06h-6.52v6.06h-4.12v-17.89h11.04c4.86,0,7.36,2.33,7.36,5.93,0,2.81-1.33,4.5-3.68,5.32l4.27,6.64h-4.57Zm-10.3-9.18h6.77c2.5,0,3.32-1.3,3.32-2.78s-.77-2.76-3.32-2.76h-6.77v5.55Z"/>
        <path class="cls-1" d="m178.3,217.01h-9.82l-1.53,3.5h-4.37l8.28-17.89h5.06l8.25,17.89h-4.37l-1.51-3.5Zm-1.38-3.14l-3.53-8.13-3.53,8.13h7.05Z"/>
        <polygon class="cls-1" points="140.35 202.62 140.35 220.51 136.23 220.51 136.23 206.38 130.22 220.51 126.31 220.51 120.31 206.38 120.31 220.51 116.19 220.51 116.19 202.62 122.61 202.62 128.26 216.37 133.93 202.62 140.35 202.62"/>
        <path class="cls-1" d="m267.25,164.39l1.43-3.03h-23.13c1.62-5.87,6.71-7.5,14-7.5h7.47l5.2-.08,3.44-6.54h-16.96c-11.22,0-21.74,3.53-22.47,17.15h31.01Z"/>
        <path class="cls-1" d="m267.03,177.97h-7.47c-7.28,0-12.37-1.65-14-7.5h18.81l1.44-3.03h-29.56c.72,13.61,11.24,17.14,22.46,17.14h16.96l-3.44-6.64-5.2.02Z"/>
        <path class="cls-1" d="m219.14,165.92c0,14.88-10.88,18.67-22.51,18.67h-16.96v-37.33h16.96c11.63,0,22.51,3.79,22.51,18.67m-8.8,0c0-9.6-5.65-12.05-14.56-12.05h-7.47v24.11h7.47c8.91,0,14.56-2.4,14.56-12.05"/>
        <path class="cls-1" d="m147.67,177.28h-20.48l-3.2,7.31h-9.12l17.28-37.33h10.56l17.23,37.33h-9.12l-3.15-7.31Zm-2.88-6.56l-7.36-16.96-7.36,16.96h14.72Z"/>
        <path class="cls-1" d="m88.26,184.58l-7.89-12.64h-13.6v12.64h-8.59v-37.33h23.04c10.13,0,15.36,4.85,15.36,12.37,0,5.87-2.77,9.39-7.68,11.09l8.91,13.87h-9.55Zm-21.49-19.15h14.13c5.23,0,6.93-2.72,6.93-5.81s-1.6-5.76-6.93-5.76h-14.13v11.57Z"/>
        <polygon class="cls-1" points="36.85 153.86 22.72 153.86 22.72 184.58 14.13 184.58 14.13 153.86 0 153.86 3.44 147.25 36.85 147.25 36.85 153.86"/>
      </g>
    </g>
  </g>
</svg>