<svg width="25" height="24" viewBox="0 0 25 24" fill="none" xmlns="http://www.w3.org/2000/svg">
<path d="M19.1625 8.20986C19.0695 8.11613 18.9589 8.04174 18.837 7.99097C18.7152 7.9402 18.5845 7.91406 18.4525 7.91406C18.3204 7.91406 18.1897 7.9402 18.0679 7.99097C17.946 8.04174 17.8354 8.11613 17.7425 8.20986L13.1625 12.7899C13.0695 12.8836 12.9589 12.958 12.837 13.0087C12.7152 13.0595 12.5845 13.0856 12.4525 13.0856C12.3204 13.0856 12.1897 13.0595 12.0679 13.0087C11.946 12.958 11.8354 12.8836 11.7425 12.7899L7.16245 8.20986C7.06949 8.11613 6.95889 8.04174 6.83703 7.99097C6.71517 7.9402 6.58446 7.91406 6.45245 7.91406C6.32044 7.91406 6.18974 7.9402 6.06788 7.99097C5.94602 8.04174 5.83542 8.11613 5.74245 8.20986C5.5562 8.39722 5.45166 8.65067 5.45166 8.91486C5.45166 9.17904 5.5562 9.4325 5.74245 9.61986L10.3325 14.2098C10.895 14.7716 11.6575 15.0872 12.4525 15.0872C13.2475 15.0872 14.01 14.7716 14.5725 14.2098L19.1625 9.61986C19.3487 9.4325 19.4532 9.17904 19.4532 8.91486C19.4532 8.65067 19.3487 8.39722 19.1625 8.20986Z" fill="#43586B"/>
</svg>
