<svg width="33" height="22" viewBox="0 0 33 22" fill="none" xmlns="http://www.w3.org/2000/svg">
<g clip-path="url(#clip0_1717_31060)">
<rect x="0.333252" width="32.004" height="21.2877" rx="4" fill="white"/>
<path d="M32.3372 0H0.333252V21.2877H32.3372V0Z" fill="#74ACDF"/>
<path d="M32.3372 7.09603H0.333252V14.1921H32.3372V7.09603Z" fill="white"/>
<path d="M16.2533 10.6997L17.4674 13.339C17.4674 13.339 17.4883 13.3894 17.522 13.3755C17.5558 13.3616 17.5348 13.3112 17.5348 13.3112L16.5228 10.5882M16.4938 11.6152C16.479 12.0165 16.7265 12.2373 16.6941 12.5957C16.6618 12.9542 16.8592 13.1569 16.9049 13.2963C16.9507 13.4357 16.8554 13.519 16.8965 13.5389C16.9376 13.5587 17.0275 13.4486 16.9982 13.2504C16.9689 13.0522 16.8181 12.9934 16.8535 12.5556C16.8889 12.1178 16.674 12.0158 16.7264 11.6165" fill="#F6B40E"/>
<path d="M16.2422 10.6439L16.3516 13.546C16.3516 13.546 16.3515 13.6005 16.388 13.6006C16.4245 13.6006 16.4245 13.546 16.4245 13.546L16.534 10.6439M16.1133 11.5816C15.9457 11.9468 16.0896 12.2452 15.9222 12.564C15.7549 12.8829 15.8595 13.1455 15.8483 13.2917C15.8371 13.438 15.7171 13.4786 15.7474 13.5126C15.7778 13.5467 15.9031 13.4792 15.952 13.2849C16.001 13.0907 15.8842 12.9787 16.0849 12.5878C16.2855 12.1968 16.1261 12.0206 16.3276 11.6716" fill="#F6B40E"/>
<path d="M16.2532 10.5882L15.2413 13.3111C15.2413 13.3111 15.2203 13.3615 15.254 13.3755C15.2877 13.3894 15.3086 13.339 15.3086 13.339L16.5228 10.6996M15.7745 11.4053C15.4796 11.6787 15.4981 12.0094 15.2212 12.24C14.9443 12.4707 14.9402 12.7532 14.8738 12.884C14.8074 13.0149 14.6809 13.0066 14.6959 13.0496C14.7109 13.0927 14.8525 13.0782 14.9722 12.9174C15.092 12.7566 15.027 12.6086 15.3624 12.324C15.6977 12.0394 15.618 11.8157 15.938 11.5702" fill="#F6B40E"/>
<path d="M16.2849 10.5409L14.3056 12.6702C14.3056 12.6702 14.2669 12.7087 14.2926 12.7345C14.3184 12.7603 14.3571 12.7216 14.3571 12.7216L16.4912 10.7468M15.5292 11.113C15.1519 11.253 15.0422 11.5656 14.6979 11.6729C14.3536 11.7804 14.2414 12.0398 14.1299 12.1353C14.0183 12.2309 13.9047 12.1749 13.902 12.2204C13.8994 12.2659 14.0357 12.3066 14.208 12.2037C14.3803 12.1009 14.3771 11.9394 14.7961 11.8045C15.215 11.6696 15.2272 11.4325 15.617 11.3279" fill="#F6B40E"/>
<path d="M16.3323 10.5093L13.687 11.7208C13.687 11.7208 13.6364 11.7416 13.6504 11.7753C13.6643 11.8089 13.7149 11.788 13.7149 11.788L16.4439 10.7783M15.4147 10.7494C15.0124 10.7346 14.7912 10.9815 14.4319 10.9492C14.0726 10.917 13.8695 11.1139 13.7298 11.1595C13.5901 11.2052 13.5065 11.1102 13.4866 11.1511C13.4668 11.1921 13.5771 11.2818 13.7758 11.2526C13.9744 11.2233 14.0334 11.0729 14.4722 11.1083C14.9109 11.1436 15.0131 10.9292 15.4134 10.9814" fill="#F6B40E"/>
<path d="M16.3881 10.4982L13.4796 10.6074C13.4796 10.6074 13.4248 10.6074 13.4248 10.6438C13.4248 10.6802 13.4795 10.6802 13.4795 10.6802L16.3881 10.7894M15.4483 10.3697C15.0823 10.2024 14.7832 10.346 14.4637 10.179C14.1441 10.0121 13.8809 10.1164 13.7344 10.1053C13.5877 10.0941 13.547 9.97438 13.513 10.0046C13.4788 10.0349 13.5464 10.1599 13.7411 10.2088C13.9359 10.2576 14.0481 10.1411 14.4399 10.3413C14.8317 10.5415 15.0084 10.3825 15.3581 10.5835" fill="#F6B40E"/>
<path d="M16.444 10.5093L13.715 9.49964C13.715 9.49964 13.6644 9.4787 13.6504 9.51233C13.6364 9.54595 13.687 9.56683 13.687 9.56683L16.3323 10.7783M15.6251 10.0317C15.351 9.73743 15.0196 9.75591 14.7885 9.47962C14.5573 9.20335 14.2741 9.19926 14.143 9.13298C14.0118 9.06671 14.0201 8.94054 13.977 8.95547C13.9339 8.97044 13.9484 9.11174 14.1095 9.2312C14.2707 9.35067 14.419 9.28589 14.7042 9.62047C14.9895 9.95503 15.2137 9.87552 15.4597 10.1948" fill="#F6B40E"/>
<path d="M16.4913 10.5409L14.3573 8.56604C14.3573 8.56604 14.3186 8.5274 14.2928 8.55312C14.267 8.57884 14.3057 8.61745 14.3057 8.61745L16.285 10.7467M15.9179 9.78691C15.7776 9.41043 15.4644 9.30095 15.3568 8.95744C15.2491 8.61391 14.9891 8.50202 14.8934 8.39071C14.7976 8.2794 14.8536 8.166 14.8081 8.16335C14.7625 8.16071 14.7217 8.29679 14.8248 8.4687C14.9279 8.64061 15.0898 8.63739 15.2249 9.0554C15.3601 9.4734 15.5978 9.48556 15.7026 9.87449" fill="#F6B40E"/>
<path d="M16.5228 10.5882L15.3088 7.94888C15.3088 7.94888 15.2879 7.89843 15.2542 7.91233C15.2205 7.92623 15.2414 7.97668 15.2414 7.97668L16.2533 10.6997M16.2824 9.67271C16.2972 9.27132 16.0497 9.05056 16.0821 8.69212C16.1144 8.33363 15.9171 8.13098 15.8713 7.99158C15.8255 7.85217 15.9208 7.76882 15.8798 7.74898C15.8387 7.72913 15.7488 7.83927 15.7781 8.03746C15.8074 8.23564 15.9581 8.29447 15.9227 8.73228C15.8873 9.17009 16.1022 9.27205 16.0499 9.67141" fill="#F6B40E"/>
<path d="M16.534 10.6439L16.4246 7.74191C16.4246 7.74191 16.4247 7.68733 16.3882 7.68729C16.3517 7.68726 16.3517 7.74188 16.3517 7.74188L16.2422 10.6439M16.6629 9.70627C16.8306 9.34108 16.6866 9.04264 16.854 8.72383C17.0213 8.40497 16.9168 8.1424 16.9279 7.99614C16.9391 7.84986 17.0591 7.80923 17.0288 7.77523C16.9984 7.7412 16.8731 7.80863 16.8242 8.00292C16.7753 8.19721 16.892 8.30914 16.6913 8.70009C16.4907 9.09104 16.6501 9.2673 16.4486 9.61628" fill="#F6B40E"/>
<path d="M16.523 10.6997L17.5349 7.97677C17.5349 7.97677 17.5559 7.92636 17.5222 7.91239C17.4885 7.89843 17.4676 7.9489 17.4676 7.9489L16.2534 10.5883M17.0017 9.88259C17.2966 9.6092 17.2781 9.27851 17.555 9.04789C17.8319 8.81719 17.836 8.53467 17.9024 8.40382C17.9688 8.27294 18.0953 8.28123 18.0803 8.23824C18.0653 8.1952 17.9237 8.20966 17.804 8.37047C17.6843 8.53128 17.7492 8.67927 17.4138 8.96384C17.0785 9.24843 17.1582 9.47214 16.8382 9.71762" fill="#F6B40E"/>
<path d="M16.4914 10.7469L18.4706 8.61768C18.4706 8.61768 18.5094 8.57912 18.4836 8.55335C18.4578 8.52759 18.4191 8.56622 18.4191 8.56622L16.285 10.5411M17.247 10.1748C17.6244 10.0349 17.7341 9.72227 18.0784 9.61492C18.4227 9.50751 18.5348 9.24807 18.6464 9.15254C18.7579 9.05698 18.8716 9.11292 18.8742 9.06749C18.8769 9.022 18.7405 8.98129 18.5682 9.08414C18.3959 9.187 18.3991 9.34851 17.9802 9.48338C17.5612 9.61827 17.549 9.85538 17.1592 9.95998" fill="#F6B40E"/>
<path d="M16.4439 10.7785L19.0892 9.56709C19.0892 9.56709 19.1397 9.54624 19.1258 9.51259C19.1119 9.47895 19.0613 9.49987 19.0613 9.49987L16.3322 10.5095M17.3615 10.5385C17.7638 10.5532 17.985 10.3063 18.3443 10.3386C18.7035 10.3709 18.9067 10.174 19.0464 10.1283C19.1861 10.0826 19.2696 10.1777 19.2895 10.1368C19.3094 10.0957 19.199 10.0061 19.0004 10.0353C18.8018 10.0645 18.7428 10.215 18.304 10.1796C17.8652 10.1443 17.763 10.3587 17.3628 10.3065" fill="#F6B40E"/>
<path d="M16.3881 10.7896L19.2966 10.6804C19.2966 10.6804 19.3513 10.6805 19.3514 10.6441C19.3514 10.6077 19.2966 10.6077 19.2966 10.6077L16.3881 10.4985M17.3278 10.9182C17.6938 11.0854 17.993 10.9418 18.3125 11.1088C18.6321 11.2758 18.8952 11.1714 19.0418 11.1826C19.1884 11.1937 19.2291 11.3135 19.2632 11.2832C19.2973 11.2529 19.2297 11.1279 19.035 11.0791C18.8403 11.0303 18.7281 11.1467 18.3363 10.9465C17.9444 10.7463 17.7678 10.9054 17.418 10.7044" fill="#F6B40E"/>
<path d="M16.3322 10.7786L19.0612 11.7882C19.0612 11.7882 19.1117 11.8092 19.1257 11.7755C19.1397 11.7419 19.0891 11.721 19.0891 11.721L16.4439 10.5096M17.1511 11.2562C17.4251 11.5504 17.7565 11.532 17.9877 11.8082C18.2189 12.0845 18.5021 12.0886 18.6332 12.1549C18.7644 12.2212 18.7561 12.3473 18.7992 12.3324C18.8423 12.3174 18.8278 12.1761 18.6666 12.0567C18.5055 11.9372 18.3571 12.002 18.0719 11.6674C17.7867 11.3328 17.5625 11.4123 17.3165 11.093" fill="#F6B40E"/>
<path d="M16.2848 10.747L18.4189 12.7218C18.4189 12.7218 18.4575 12.7605 18.4834 12.7347C18.5092 12.709 18.4704 12.6704 18.4704 12.6704L16.4912 10.5411M16.8582 11.501C16.9985 11.8774 17.3118 11.9869 17.4194 12.3304C17.527 12.674 17.7871 12.7858 17.8828 12.8972C17.9786 13.0085 17.9225 13.1219 17.968 13.1245C18.0136 13.1272 18.0544 12.9911 17.9514 12.8192C17.8483 12.6473 17.6864 12.6505 17.5512 12.2325C17.416 11.8145 17.1784 11.8023 17.0736 11.4134" fill="#F6B40E"/>
<path d="M16.4938 11.6152C16.479 12.0165 16.7265 12.2373 16.6941 12.5957C16.6618 12.9542 16.8592 13.1569 16.9049 13.2963C16.9507 13.4357 16.8554 13.519 16.8965 13.5389C16.9376 13.5587 17.0275 13.4486 16.9982 13.2504C16.9689 13.0522 16.8181 12.9934 16.8535 12.5556C16.8889 12.1178 16.674 12.0158 16.7264 11.6165M16.1133 11.5816C15.9457 11.9468 16.0896 12.2452 15.9222 12.564C15.7549 12.8829 15.8595 13.1455 15.8483 13.2917C15.8371 13.438 15.7171 13.4786 15.7474 13.5126C15.7778 13.5467 15.9031 13.4792 15.952 13.2849C16.001 13.0907 15.8842 12.9787 16.0849 12.5878C16.2855 12.1968 16.1261 12.0206 16.3276 11.6716M16.2532 10.5882L15.2413 13.3111C15.2413 13.3111 15.2203 13.3615 15.254 13.3755C15.2877 13.3894 15.3086 13.339 15.3086 13.339L16.5228 10.6996M15.7745 11.4053C15.4796 11.6787 15.4981 12.0094 15.2212 12.24C14.9443 12.4707 14.9402 12.7532 14.8738 12.884C14.8074 13.0149 14.6809 13.0066 14.6959 13.0496C14.7109 13.0927 14.8525 13.0782 14.9722 12.9174C15.092 12.7566 15.027 12.6086 15.3624 12.324C15.6977 12.0394 15.618 11.8157 15.938 11.5702M16.2849 10.5409L14.3056 12.6702C14.3056 12.6702 14.2669 12.7087 14.2926 12.7345C14.3184 12.7603 14.3571 12.7216 14.3571 12.7216L16.4912 10.7468M15.5292 11.113C15.1519 11.253 15.0422 11.5656 14.6979 11.6729C14.3536 11.7804 14.2414 12.0398 14.1299 12.1353C14.0183 12.2309 13.9047 12.1749 13.902 12.2204C13.8994 12.2659 14.0357 12.3066 14.208 12.2037C14.3803 12.1009 14.3771 11.9394 14.7961 11.8045C15.215 11.6696 15.2272 11.4325 15.617 11.3279M16.3323 10.5093L13.687 11.7208C13.687 11.7208 13.6364 11.7416 13.6504 11.7753C13.6643 11.8089 13.7149 11.788 13.7149 11.788L16.4439 10.7783M15.4147 10.7494C15.0124 10.7346 14.7912 10.9815 14.4319 10.9492C14.0726 10.917 13.8695 11.1139 13.7298 11.1595C13.5901 11.2052 13.5065 11.1102 13.4866 11.1511C13.4668 11.1921 13.5771 11.2818 13.7758 11.2526C13.9744 11.2233 14.0334 11.0729 14.4722 11.1083C14.9109 11.1436 15.0131 10.9292 15.4134 10.9814M16.3881 10.4982L13.4796 10.6074C13.4796 10.6074 13.4248 10.6074 13.4248 10.6438C13.4248 10.6802 13.4795 10.6802 13.4795 10.6802L16.3881 10.7894M15.4483 10.3697C15.0823 10.2024 14.7832 10.346 14.4637 10.179C14.1441 10.0121 13.8809 10.1164 13.7344 10.1053C13.5877 10.0941 13.547 9.97438 13.513 10.0046C13.4788 10.0349 13.5464 10.1599 13.7411 10.2088C13.9359 10.2576 14.0481 10.1411 14.4399 10.3413C14.8317 10.5415 15.0084 10.3825 15.3581 10.5835M16.444 10.5093L13.715 9.49964C13.715 9.49964 13.6644 9.4787 13.6504 9.51233C13.6364 9.54595 13.687 9.56683 13.687 9.56683L16.3323 10.7783M15.6251 10.0317C15.351 9.73743 15.0196 9.75591 14.7885 9.47962C14.5573 9.20335 14.2741 9.19926 14.143 9.13298C14.0118 9.06671 14.0201 8.94054 13.977 8.95547C13.9339 8.97044 13.9484 9.11174 14.1095 9.2312C14.2707 9.35067 14.419 9.28589 14.7042 9.62047C14.9895 9.95503 15.2137 9.87552 15.4597 10.1948M16.4913 10.5409L14.3573 8.56604C14.3573 8.56604 14.3186 8.5274 14.2928 8.55312C14.267 8.57884 14.3057 8.61745 14.3057 8.61745L16.285 10.7467M15.9179 9.78691C15.7776 9.41043 15.4644 9.30095 15.3568 8.95744C15.2491 8.61391 14.9891 8.50202 14.8934 8.39071C14.7976 8.2794 14.8536 8.166 14.8081 8.16335C14.7625 8.16071 14.7217 8.29679 14.8248 8.4687C14.9279 8.64061 15.0898 8.63739 15.2249 9.0554C15.3601 9.4734 15.5978 9.48556 15.7026 9.87449M16.2824 9.67271C16.2972 9.27132 16.0497 9.05056 16.0821 8.69212C16.1144 8.33363 15.9171 8.13098 15.8713 7.99158C15.8255 7.85217 15.9208 7.76882 15.8798 7.74898C15.8387 7.72913 15.7488 7.83927 15.7781 8.03746C15.8074 8.23564 15.9581 8.29447 15.9227 8.73228C15.8873 9.17009 16.1022 9.27205 16.0499 9.67141M16.6629 9.70627C16.8306 9.34108 16.6866 9.04264 16.854 8.72383C17.0213 8.40497 16.9168 8.1424 16.9279 7.99614C16.9391 7.84986 17.0591 7.80923 17.0288 7.77524C16.9984 7.7412 16.8731 7.80863 16.8242 8.00292C16.7753 8.19721 16.892 8.30914 16.6913 8.70009C16.4907 9.09104 16.6501 9.2673 16.4486 9.61628M16.523 10.6997L17.5349 7.97677C17.5349 7.97677 17.5559 7.92636 17.5222 7.91239C17.4885 7.89843 17.4676 7.9489 17.4676 7.9489L16.2534 10.5883M17.0017 9.88259C17.2966 9.6092 17.2781 9.27851 17.555 9.04789C17.8319 8.81719 17.836 8.53467 17.9024 8.40382C17.9688 8.27294 18.0953 8.28123 18.0803 8.23824C18.0653 8.1952 17.9237 8.20966 17.804 8.37047C17.6843 8.53128 17.7492 8.67927 17.4138 8.96384C17.0785 9.24843 17.1582 9.47214 16.8382 9.71762M16.4914 10.7469L18.4706 8.61768C18.4706 8.61768 18.5094 8.57912 18.4836 8.55335C18.4578 8.52759 18.4191 8.56622 18.4191 8.56622L16.285 10.5411M17.247 10.1748C17.6244 10.0349 17.7341 9.72227 18.0784 9.61492C18.4227 9.50751 18.5348 9.24807 18.6464 9.15254C18.7579 9.05698 18.8716 9.11292 18.8742 9.06749C18.8769 9.022 18.7405 8.98129 18.5682 9.08414C18.3959 9.187 18.3991 9.34851 17.9802 9.48338C17.5612 9.61827 17.549 9.85538 17.1592 9.95998M16.4439 10.7785L19.0892 9.56709C19.0892 9.56709 19.1397 9.54624 19.1258 9.51259C19.1119 9.47895 19.0613 9.49987 19.0613 9.49987L16.3322 10.5095M17.3615 10.5385C17.7638 10.5532 17.985 10.3063 18.3443 10.3386C18.7035 10.3709 18.9067 10.174 19.0464 10.1283C19.1861 10.0826 19.2696 10.1777 19.2895 10.1368C19.3094 10.0957 19.199 10.0061 19.0004 10.0353C18.8018 10.0645 18.7428 10.215 18.304 10.1796C17.8652 10.1443 17.763 10.3587 17.3628 10.3065M16.3881 10.7896L19.2966 10.6804C19.2966 10.6804 19.3513 10.6805 19.3514 10.6441C19.3514 10.6077 19.2966 10.6077 19.2966 10.6077L16.3881 10.4985M17.3278 10.9182C17.6938 11.0854 17.993 10.9418 18.3125 11.1088C18.6321 11.2758 18.8952 11.1714 19.0418 11.1826C19.1884 11.1937 19.2291 11.3135 19.2632 11.2832C19.2973 11.2529 19.2297 11.1279 19.035 11.0791C18.8403 11.0303 18.7281 11.1467 18.3363 10.9465C17.9444 10.7463 17.7678 10.9054 17.418 10.7044M16.3322 10.7786L19.0612 11.7882C19.0612 11.7882 19.1117 11.8092 19.1257 11.7755C19.1397 11.7419 19.0891 11.721 19.0891 11.721L16.4439 10.5096M17.1511 11.2562C17.4251 11.5504 17.7565 11.532 17.9877 11.8082C18.2189 12.0845 18.5021 12.0886 18.6332 12.1549C18.7644 12.2212 18.7561 12.3473 18.7992 12.3324C18.8423 12.3174 18.8278 12.1761 18.6666 12.0567C18.5055 11.9372 18.3571 12.002 18.0719 11.6674C17.7867 11.3328 17.5625 11.4123 17.3165 11.093M16.2848 10.747L18.4189 12.7218C18.4189 12.7218 18.4575 12.7605 18.4834 12.7347C18.5092 12.709 18.4704 12.6704 18.4704 12.6704L16.4912 10.5411M16.8582 11.501C16.9985 11.8774 17.3118 11.9869 17.4194 12.3304C17.527 12.674 17.7871 12.7858 17.8828 12.8972C17.9786 13.0085 17.9225 13.1219 17.968 13.1245C18.0136 13.1272 18.0544 12.9911 17.9514 12.8192C17.8483 12.6473 17.6864 12.6505 17.5512 12.2325C17.416 11.8145 17.1784 11.8023 17.0736 11.4134M16.2533 10.6997L17.4674 13.339C17.4674 13.339 17.4883 13.3894 17.522 13.3755C17.5558 13.3616 17.5348 13.3112 17.5348 13.3112L16.5228 10.5882L15.3088 7.94888C15.3088 7.94888 15.2879 7.89843 15.2542 7.91233C15.2205 7.92623 15.2414 7.97668 15.2414 7.97668L16.2533 10.6997ZM16.2422 10.6439L16.3516 13.546C16.3516 13.546 16.3515 13.6005 16.388 13.6006C16.4245 13.6006 16.4245 13.546 16.4245 13.546L16.534 10.6439L16.4246 7.74191C16.4246 7.74191 16.4247 7.68733 16.3882 7.68729C16.3517 7.68726 16.3517 7.74188 16.3517 7.74188L16.2422 10.6439Z" stroke="#85340A" stroke-width="0.047433"/>
<path d="M16.5719 11.683C16.5913 12.0685 16.8103 12.2392 16.7673 12.5905C16.8618 12.3127 16.634 12.0973 16.647 11.687M16.3206 10.6755L17.1521 12.4883L16.4554 10.6198" fill="#85340A"/>
<path d="M16.1593 11.6741C16.0294 12.0376 16.1663 12.279 15.9918 12.5871C16.1856 12.3665 16.0578 12.0806 16.2271 11.7065M16.3136 10.6474L16.3865 12.6396L16.4594 10.6473" fill="#85340A"/>
<path d="M15.7816 11.5084C15.5221 11.7946 15.556 12.0698 15.2766 12.2879C15.5403 12.1581 15.5319 11.8451 15.8318 11.5641M16.3178 10.6187L15.6211 12.4871L16.4526 10.6743" fill="#85340A"/>
<path d="M15.4961 11.211C15.1466 11.3763 15.0724 11.6436 14.7306 11.7383C15.024 11.7191 15.1363 11.4268 15.5211 11.2817M16.3328 10.5938L14.9725 12.054L16.436 10.6966" fill="#85340A"/>
<path d="M15.3465 10.8272C14.9601 10.8465 14.7891 11.0651 14.437 11.0222C14.7154 11.1164 14.9312 10.8892 15.3425 10.9021M16.3562 10.5765L14.5394 11.4061L16.4121 10.7109" fill="#85340A"/>
<path d="M15.3554 10.4156C14.991 10.2859 14.7492 10.4225 14.4403 10.2484C14.6614 10.4418 14.948 10.3143 15.3229 10.4832M16.3844 10.5694L14.3877 10.6422L16.3845 10.715" fill="#85340A"/>
<path d="M15.5215 10.0386C15.2346 9.7797 14.9588 9.81354 14.7402 9.5348C14.8703 9.79786 15.184 9.78948 15.4656 10.0887M16.4132 10.5737L14.5405 9.87855L16.3574 10.7082" fill="#85340A"/>
<path d="M15.8196 9.75381C15.6538 9.40507 15.386 9.331 15.291 8.99003C15.3103 9.28275 15.6033 9.39476 15.7487 9.77876M16.4382 10.5886L14.9747 9.23137L16.3351 10.6916" fill="#85340A"/>
<path d="M16.2041 9.60457C16.1848 9.2191 15.9657 9.04841 16.0088 8.69712C15.9143 8.97492 16.142 9.19027 16.1291 9.60057M16.4555 10.612L15.6239 8.7993L16.3207 10.6678" fill="#85340A"/>
<path d="M16.6167 9.61346C16.7467 9.24994 16.6098 9.00861 16.7843 8.70048C16.5905 8.92107 16.7183 9.20698 16.5489 9.58111M16.4625 10.6402L16.3896 8.64795L16.3166 10.6403" fill="#85340A"/>
<path d="M16.9945 9.77921C17.254 9.493 17.2201 9.21776 17.4995 8.9997C17.2358 9.12951 17.2442 9.44244 16.9443 9.72344M16.4582 10.6689L17.1549 8.80046L16.3234 10.6133" fill="#85340A"/>
<path d="M17.28 10.0766C17.6295 9.91126 17.7037 9.64402 18.0454 9.54923C17.7521 9.56848 17.6398 9.86081 17.2549 10.0059M16.4433 10.6938L17.8036 9.2336L16.3401 10.5909" fill="#85340A"/>
<path d="M17.4295 10.4603C17.8159 10.441 17.9869 10.2225 18.339 10.2654C18.0606 10.1712 17.8448 10.3984 17.4335 10.3855M16.4198 10.7111L18.2366 9.88144L16.3639 10.5767" fill="#85340A"/>
<path d="M17.4206 10.872C17.785 11.0017 18.0268 10.8651 18.3357 11.0392C18.1146 10.8458 17.828 10.9733 17.4531 10.8044M16.3916 10.7182L18.3883 10.6453L16.3915 10.5726" fill="#85340A"/>
<path d="M17.2545 11.249C17.5414 11.5079 17.8172 11.474 18.0358 11.7528C17.9057 11.4897 17.592 11.4981 17.3104 11.1988M16.3628 10.7139L18.2355 11.409L16.4186 10.5794" fill="#85340A"/>
<path d="M16.9564 11.5338C17.1222 11.8825 17.39 11.9566 17.485 12.2975C17.4657 12.0048 17.1727 11.8928 17.0273 11.5088M16.3378 10.699L17.8013 12.0562L16.4409 10.596" fill="#85340A"/>
<path d="M16.3881 11.8265C17.0427 11.8265 17.5734 11.297 17.5734 10.6438C17.5734 9.99065 17.0427 9.46116 16.3881 9.46116C15.7334 9.46116 15.2027 9.99065 15.2027 10.6438C15.2027 11.297 15.7334 11.8265 16.3881 11.8265Z" fill="#F6B40E"/>
<path fill-rule="evenodd" clip-rule="evenodd" d="M16.3881 9.49316C15.751 9.49316 15.2347 10.0084 15.2347 10.6438C15.2347 11.2792 15.751 11.7945 16.3881 11.7945C17.0251 11.7945 17.5414 11.2792 17.5414 10.6438C17.5414 10.0084 17.0251 9.49316 16.3881 9.49316ZM15.1707 10.6438C15.1707 9.97291 15.7158 9.42916 16.3881 9.42916C17.0603 9.42916 17.6054 9.97291 17.6054 10.6438C17.6054 11.3147 17.0603 11.8585 16.3881 11.8585C15.7158 11.8585 15.1707 11.3147 15.1707 10.6438Z" fill="#85340A"/>
<path d="M16.7921 10.3909C16.7112 10.3909 16.6337 10.4259 16.5881 10.4987C16.6793 10.5806 16.8807 10.5895 17.0175 10.4894C16.9582 10.4257 16.8731 10.3909 16.7921 10.3909ZM16.7908 10.4096C16.8696 10.4081 16.9432 10.4442 16.9535 10.4801C16.8623 10.5801 16.7166 10.5714 16.6255 10.4987C16.6654 10.435 16.7295 10.4107 16.7908 10.4096Z" fill="#843511"/>
<path d="M16.8075 10.3347C16.689 10.3347 16.6616 10.362 16.6069 10.4075C16.5522 10.453 16.5249 10.4439 16.5158 10.453C16.5067 10.4621 16.5157 10.4894 16.534 10.4802C16.5522 10.4711 16.5887 10.453 16.6433 10.4075C16.6981 10.362 16.7527 10.362 16.8075 10.362C16.9716 10.362 17.0628 10.4985 17.081 10.4893C17.0992 10.4802 16.9898 10.3347 16.8075 10.3347Z" fill="#85340A"/>
<path d="M17.1356 10.3892C16.9259 10.2073 16.6616 10.18 16.5156 10.3165C16.4799 10.3642 16.457 10.4152 16.4476 10.4685C16.4293 10.572 16.4617 10.684 16.5431 10.7987C16.5339 10.7986 16.5156 10.8077 16.5065 10.8168C16.4341 10.6787 16.4085 10.5368 16.4323 10.4019C16.4385 10.3667 16.4482 10.332 16.4608 10.2982C16.6614 10.1345 16.935 10.1163 17.1356 10.3892Z" fill="#85340A"/>
<path d="M16.7892 10.5618C16.8345 10.5618 16.8713 10.5251 16.8713 10.4799C16.8713 10.4347 16.8345 10.398 16.7892 10.398C16.7439 10.398 16.7072 10.4347 16.7072 10.4799C16.7072 10.5251 16.7439 10.5618 16.7892 10.5618Z" fill="#85340A"/>
<path d="M17.0264 10.5348C16.8714 10.6531 16.7164 10.644 16.6252 10.5894C16.5341 10.5348 16.5341 10.5167 16.5523 10.5167C16.5705 10.5167 16.5887 10.5348 16.6617 10.5712C16.7346 10.6076 16.8441 10.6076 17.0264 10.5348Z" fill="#85340A"/>
<path d="M16.2067 10.8073C16.1677 10.8144 16.14 10.8489 16.14 10.8885C16.14 10.9336 16.1775 10.9696 16.2227 10.9696C16.2495 10.9696 16.274 10.957 16.2894 10.935C16.3209 10.9587 16.3647 10.9612 16.3881 10.9616C16.3917 10.9617 16.3963 10.9616 16.3987 10.9616C16.4221 10.9612 16.4659 10.9587 16.4974 10.935C16.5128 10.957 16.5373 10.9696 16.5641 10.9696C16.6093 10.9696 16.6468 10.9336 16.6468 10.8885C16.6468 10.8489 16.6191 10.8144 16.5801 10.8073C16.602 10.815 16.6161 10.8361 16.6161 10.8592C16.6161 10.8893 16.5917 10.9137 16.5614 10.9137C16.5324 10.9137 16.5084 10.8907 16.5067 10.8618C16.4978 10.8796 16.4626 10.9323 16.3934 10.935C16.3242 10.9323 16.289 10.8796 16.2801 10.8618C16.2784 10.8907 16.2544 10.9137 16.2254 10.9137C16.1951 10.9137 16.1707 10.8893 16.1707 10.8592C16.1707 10.8361 16.1848 10.815 16.2067 10.8073Z" fill="#85340A"/>
<path d="M16.2959 11.0496C16.2046 11.0496 16.1686 11.132 16.0865 11.1866C16.1321 11.1684 16.168 11.1326 16.2319 11.0961C16.2957 11.0598 16.3501 11.1041 16.3865 11.1041H16.3879C16.4243 11.1041 16.4787 11.0598 16.5426 11.0961C16.6064 11.1326 16.6436 11.1685 16.6892 11.1866C16.6072 11.132 16.5698 11.0496 16.4785 11.0496C16.4603 11.0496 16.4243 11.0594 16.3879 11.0775H16.3865C16.3501 11.0593 16.3141 11.0496 16.2959 11.0496Z" fill="#85340A"/>
<path d="M16.2651 11.1573C16.2291 11.1589 16.1815 11.1661 16.1131 11.1866C16.2773 11.1502 16.3135 11.2053 16.3865 11.2053H16.3878C16.4608 11.2053 16.497 11.1502 16.6612 11.1866C16.4788 11.1319 16.4425 11.1679 16.3878 11.1679H16.3865C16.3523 11.1679 16.3252 11.1546 16.2651 11.1573Z" fill="#85340A"/>
<path d="M16.1214 11.1854C16.1108 11.1855 16.0992 11.1856 16.0867 11.1867C16.2782 11.2049 16.1861 11.3144 16.3867 11.3144H16.388C16.5886 11.3144 16.4979 11.2049 16.6894 11.1867C16.4888 11.1685 16.5522 11.2865 16.388 11.2865H16.3867C16.2328 11.2865 16.2802 11.1834 16.1214 11.1854Z" fill="#85340A"/>
<path d="M16.5523 11.4808C16.5523 11.3904 16.4788 11.3171 16.3882 11.3171C16.2976 11.3171 16.2241 11.3904 16.2241 11.4808C16.2421 11.405 16.3101 11.3514 16.3882 11.3514C16.4664 11.3514 16.5343 11.405 16.5523 11.4808Z" fill="#85340A"/>
<path d="M15.6511 10.3892C15.8609 10.2073 16.1252 10.18 16.2712 10.3165C16.3069 10.3642 16.3298 10.4152 16.3391 10.4685C16.3575 10.572 16.3251 10.684 16.2437 10.7987C16.2529 10.7986 16.2712 10.8077 16.2803 10.8168C16.3527 10.6787 16.3783 10.5368 16.3545 10.4019C16.3483 10.3667 16.3386 10.332 16.3259 10.2982C16.1254 10.1345 15.8517 10.1163 15.6511 10.3892Z" fill="#85340A"/>
<path d="M15.9793 10.3347C16.0978 10.3347 16.1251 10.362 16.1799 10.4075C16.2346 10.453 16.2619 10.4439 16.271 10.453C16.2801 10.4621 16.271 10.4894 16.2528 10.4802C16.2346 10.4711 16.1981 10.453 16.1434 10.4075C16.0887 10.362 16.0341 10.362 15.9793 10.362C15.8152 10.362 15.724 10.4985 15.7058 10.4893C15.6876 10.4802 15.797 10.3347 15.9793 10.3347Z" fill="#85340A"/>
<path d="M15.9737 10.3909C15.8927 10.3909 15.8152 10.4259 15.7697 10.4987C15.8608 10.5806 16.0622 10.5895 16.199 10.4894C16.1398 10.4257 16.0546 10.3909 15.9737 10.3909ZM15.9723 10.4096C16.0511 10.4081 16.1248 10.4442 16.135 10.4801C16.0439 10.5801 15.8982 10.5714 15.807 10.4987C15.8469 10.435 15.9111 10.4107 15.9723 10.4096Z" fill="#843511"/>
<path d="M15.9844 10.5618C16.0297 10.5618 16.0665 10.5251 16.0665 10.4799C16.0665 10.4347 16.0297 10.398 15.9844 10.398C15.9391 10.398 15.9023 10.4347 15.9023 10.4799C15.9023 10.5251 15.9391 10.5618 15.9844 10.5618Z" fill="#85340A"/>
<path d="M15.7604 10.5348C15.9154 10.6531 16.0704 10.644 16.1615 10.5894C16.2527 10.5348 16.2527 10.5167 16.2345 10.5167C16.2163 10.5167 16.1981 10.5348 16.1251 10.5712C16.0522 10.6076 15.9427 10.6076 15.7604 10.5348Z" fill="#85340A"/>
</g>
<defs>
<clipPath id="clip0_1717_31060">
<rect x="0.333252" width="32.004" height="21.2877" rx="4" fill="white"/>
</clipPath>
</defs>
</svg>
