<svg width="33" height="22" viewBox="0 0 33 22" fill="none" xmlns="http://www.w3.org/2000/svg">
<g clip-path="url(#clip0_1717_31008)">
<rect x="0.0356445" y="0.28772" width="32.004" height="21.2877" rx="4" fill="white"/>
<path d="M32.0396 0.28772H0.0356445V21.5754H32.0396V0.28772Z" fill="#009B3A"/>
<path d="M3.48941 10.9316L16.11 18.9905L28.7306 10.9316L16.11 2.87265L3.48941 10.9316Z" fill="#FEDF00"/>
<path d="M16.11 16.2535C19.0493 16.2535 21.432 13.8708 21.432 10.9316C21.432 7.99234 19.0493 5.60964 16.11 5.60964C13.1708 5.60964 10.7881 7.99234 10.7881 10.9316C10.7881 13.8708 13.1708 16.2535 16.11 16.2535Z" fill="#002776"/>
<path d="M10.9574 9.59565C11.6499 9.47357 12.3563 9.41101 13.0691 9.41101C16.0745 9.41101 18.9653 10.5232 21.1912 12.5198C21.2761 12.2477 21.3398 11.9662 21.3803 11.6774C19.0614 9.73008 16.1209 8.65073 13.0691 8.65073C12.4538 8.65073 11.843 8.69461 11.2409 8.78063C11.1253 9.04193 11.0301 9.31428 10.9574 9.59565Z" fill="white"/>
<path d="M13.2699 9.28385L13.7258 9.29977L13.7291 9.2057L13.3601 9.19281L13.3646 9.06255L13.6541 9.07266L13.6571 8.98583L13.3676 8.97572L13.3712 8.87441L13.7185 8.88654L13.7218 8.79247L13.2876 8.77731L13.2699 9.28385Z" fill="#009B3A"/>
<path fill-rule="evenodd" clip-rule="evenodd" d="M12.8653 9.28599L12.6264 9.29016L12.6176 8.78339L12.8565 8.77922C12.885 8.77872 12.9134 8.78384 12.9399 8.7943C12.9664 8.80475 12.9907 8.82033 13.0112 8.84015C13.0317 8.85996 13.0481 8.88363 13.0595 8.90979C13.0709 8.93595 13.077 8.96409 13.0775 8.99261L13.0787 9.06501C13.0792 9.09353 13.0741 9.12187 13.0637 9.14841C13.0532 9.17495 13.0376 9.19918 13.0178 9.2197C12.998 9.24022 12.9743 9.25663 12.9482 9.26801C12.922 9.27938 12.8939 9.28549 12.8653 9.28599ZM12.8565 9.192L12.7189 9.1944L12.7133 8.87586L12.8509 8.87346C12.8874 8.87282 12.9226 8.8867 12.9489 8.91205C12.9751 8.93739 12.9902 8.97213 12.9908 9.00861L12.9916 9.05205C12.9922 9.08853 12.9784 9.12377 12.953 9.15001C12.9277 9.17626 12.8929 9.19136 12.8565 9.192Z" fill="#009B3A"/>
<path fill-rule="evenodd" clip-rule="evenodd" d="M12.0794 9.32389L11.9859 9.33015L11.956 8.82257L12.2439 8.80331C12.2858 8.8005 12.3273 8.8146 12.3592 8.8425C12.3911 8.8704 12.4107 8.90982 12.4138 8.95209C12.4169 8.99436 12.4032 9.03601 12.3757 9.06788C12.3673 9.07754 12.358 9.08605 12.3478 9.09331C12.4018 9.13561 12.4098 9.24452 12.4139 9.30087L12.3275 9.30665C12.324 9.25839 12.3176 9.17157 12.267 9.12206L12.0656 9.13554L12.0794 9.32389ZM12.2531 9.02836L12.0588 9.04137L12.0492 8.91097L12.2435 8.89797C12.2607 8.89682 12.2777 8.90258 12.2907 8.914C12.3038 8.92541 12.3118 8.94154 12.3131 8.95883C12.3143 8.97612 12.3087 8.99316 12.2975 9.0062C12.2862 9.01924 12.2702 9.02721 12.2531 9.02836Z" fill="#009B3A"/>
<path fill-rule="evenodd" clip-rule="evenodd" d="M11.722 9.28257C11.6854 9.33496 11.6311 9.36853 11.571 9.3759C11.511 9.38327 11.4501 9.36384 11.4019 9.32188C11.3536 9.27992 11.3219 9.21887 11.3137 9.15216C11.3056 9.08545 11.3215 9.01854 11.3582 8.96616C11.3949 8.91377 11.4492 8.8802 11.5092 8.87283C11.5693 8.86546 11.6301 8.88489 11.6784 8.92685C11.7266 8.96881 11.7583 9.02986 11.7665 9.09657C11.7747 9.16328 11.7587 9.23019 11.722 9.28257ZM11.6479 9.22462C11.6266 9.25733 11.5948 9.27814 11.5595 9.28247C11.5243 9.2868 11.4884 9.2743 11.4598 9.24771C11.4313 9.22112 11.4123 9.18262 11.4072 9.14069C11.402 9.09876 11.4111 9.05682 11.4324 9.02411C11.4537 8.99139 11.4855 8.97058 11.5207 8.96626C11.556 8.96193 11.5918 8.97443 11.6204 9.00102C11.649 9.02761 11.6679 9.06611 11.6731 9.10804C11.6782 9.14997 11.6692 9.19191 11.6479 9.22462Z" fill="#009B3A"/>
<path d="M13.9995 9.31879L13.9129 9.31122L13.9571 8.8063L14.0833 8.81734L14.154 9.17241L14.2853 8.83501L14.4115 8.84605L14.3674 9.35098L14.2808 9.3434L14.3111 8.99717L14.1798 9.33457L14.1005 9.32763L14.0298 8.97256L13.9995 9.31879Z" fill="#009B3A"/>
<path d="M14.9631 9.42961L15.3377 9.49398L15.3524 9.40835L15.0634 9.35869L15.083 9.24451L15.3185 9.28498L15.3332 9.19934L15.0978 9.15888L15.1112 9.08038L15.3913 9.12851L15.4061 9.04288L15.0403 8.98003L14.9631 9.42961Z" fill="#009B3A"/>
<path fill-rule="evenodd" clip-rule="evenodd" d="M16.0167 9.64223L15.9256 9.61866L16.0595 9.12977L16.3399 9.20229C16.3808 9.21286 16.4158 9.23926 16.4373 9.27566C16.4587 9.31206 16.4648 9.35549 16.4542 9.39639C16.4436 9.43729 16.4172 9.47232 16.3808 9.49376C16.3444 9.51521 16.301 9.52131 16.2601 9.51073L16.0638 9.45997L16.0167 9.64223ZM16.2767 9.41779L16.0874 9.36884L16.12 9.24266L16.3093 9.2916C16.326 9.29593 16.3404 9.30673 16.3491 9.32162C16.3579 9.33651 16.3604 9.35428 16.3561 9.37101C16.3518 9.38774 16.341 9.40207 16.3261 9.41084C16.3112 9.41962 16.2934 9.42211 16.2767 9.41779Z" fill="#009B3A"/>
<path fill-rule="evenodd" clip-rule="evenodd" d="M16.5475 9.789L16.6363 9.8164L16.6947 9.63521L16.8859 9.69421L16.8881 9.69487C16.9158 9.75917 16.889 9.84245 16.8741 9.8888L16.9561 9.91412C16.9737 9.85967 17.0077 9.75423 16.973 9.6955C16.9846 9.69235 16.9958 9.68788 17.0066 9.68209C17.0441 9.66203 17.0725 9.62792 17.0856 9.58726C17.0987 9.5466 17.0954 9.50272 17.0765 9.46528C17.0576 9.42783 17.0246 9.39989 16.9847 9.38759L16.7115 9.3033L16.5475 9.789ZM16.7239 9.54462L16.9083 9.60151C16.9246 9.60654 16.9424 9.60476 16.9577 9.59656C16.973 9.58835 16.9846 9.5744 16.99 9.55776C16.9953 9.54113 16.994 9.52318 16.9863 9.50786C16.9785 9.49254 16.965 9.48111 16.9487 9.47608L16.7643 9.41918L16.7239 9.54462Z" fill="#009B3A"/>
<path fill-rule="evenodd" clip-rule="evenodd" d="M17.5505 10.0496C17.4938 10.0791 17.4301 10.0838 17.3734 10.0627C17.3167 10.0415 17.2718 9.99614 17.2483 9.93664C17.2249 9.87715 17.225 9.80836 17.2485 9.7454C17.2721 9.68244 17.3171 9.63048 17.3739 9.60094C17.4306 9.57141 17.4943 9.56671 17.5509 9.5879C17.6076 9.60908 17.6526 9.65441 17.676 9.71391C17.6994 9.7734 17.6993 9.8422 17.6758 9.90515C17.6523 9.96811 17.6072 10.0201 17.5505 10.0496ZM17.5114 9.96395C17.4774 9.98314 17.4397 9.98692 17.4064 9.97448C17.3731 9.96204 17.3471 9.93439 17.334 9.89761C17.3209 9.86083 17.3219 9.81794 17.3367 9.77836C17.3515 9.73879 17.3789 9.70578 17.4129 9.6866C17.4469 9.66741 17.4847 9.66363 17.5179 9.67607C17.5512 9.68851 17.5773 9.71616 17.5903 9.75294C17.6034 9.78972 17.6024 9.83261 17.5876 9.87219C17.5728 9.91176 17.5454 9.94477 17.5114 9.96395Z" fill="#009B3A"/>
<path d="M18.9229 10.7654L19.3199 10.9901L19.3663 10.9081L19.0449 10.7263L19.1091 10.6129L19.3611 10.7555L19.4039 10.6799L19.1518 10.5372L19.2018 10.449L19.5043 10.6202L19.5506 10.5382L19.1725 10.3243L18.9229 10.7654Z" fill="#009B3A"/>
<path d="M19.7238 11.1428C19.6627 11.1039 19.6351 11.0563 19.6624 11.0136L19.5662 10.9523C19.4978 11.059 19.6027 11.1644 19.6729 11.2092C19.7554 11.2617 19.8789 11.3104 19.9499 11.1989C20.0069 11.1095 19.9202 11.0262 19.8497 10.9585C19.801 10.9117 19.76 10.8723 19.7793 10.8434C19.8075 10.7991 19.846 10.8129 19.8933 10.843C19.9422 10.8742 19.9742 10.9182 19.945 10.964L20.0382 11.0233C20.1068 10.919 20.0186 10.8284 19.9636 10.7934L19.9566 10.7889C19.8971 10.7506 19.7595 10.6622 19.6777 10.7873C19.6214 10.8737 19.7014 10.9522 19.7703 11.0197C19.8222 11.0707 19.8679 11.1155 19.844 11.1529C19.8265 11.1803 19.7849 11.1817 19.7238 11.1428Z" fill="#009B3A"/>
<path d="M20.2061 11.3731C20.1766 11.4144 20.2017 11.4634 20.2607 11.5054C20.3196 11.5475 20.3612 11.5483 20.3802 11.5218C20.406 11.4857 20.3627 11.4385 20.3135 11.3849C20.2482 11.3139 20.1725 11.2314 20.2333 11.1479C20.3215 11.0273 20.4542 11.1228 20.5116 11.1641L20.5184 11.169C20.5715 11.2069 20.6549 11.3019 20.5809 11.4025L20.491 11.3384C20.5225 11.2942 20.4928 11.2486 20.4457 11.2149C20.4 11.1823 20.3623 11.1666 20.3318 11.2093C20.311 11.2372 20.3499 11.2787 20.3961 11.3279C20.4629 11.3993 20.5451 11.487 20.4836 11.5733C20.4068 11.6808 20.286 11.6258 20.2064 11.569C20.1386 11.5207 20.0394 11.4098 20.1132 11.3069L20.2061 11.3731Z" fill="#009B3A"/>
<path fill-rule="evenodd" clip-rule="evenodd" d="M20.8928 11.9986C20.8297 12.0091 20.7677 11.9939 20.7203 11.9563C20.673 11.9186 20.6442 11.8616 20.6403 11.7978C20.6364 11.734 20.6578 11.6686 20.6996 11.616C20.7414 11.5633 20.8004 11.5279 20.8634 11.5173C20.9265 11.5067 20.9885 11.5219 21.0359 11.5596C21.0832 11.5973 21.112 11.6543 21.1159 11.7181C21.1198 11.7819 21.0984 11.8473 21.0566 11.8999C21.0148 11.9525 20.9558 11.988 20.8928 11.9986ZM20.8821 11.9051C20.8439 11.9128 20.8067 11.9047 20.7789 11.8826C20.7511 11.8605 20.7349 11.8261 20.7339 11.7871C20.7328 11.7481 20.747 11.7076 20.7733 11.6745C20.7996 11.6415 20.8358 11.6186 20.8741 11.6108C20.9124 11.6031 20.9495 11.6112 20.9773 11.6333C21.0051 11.6554 21.0213 11.6897 21.0224 11.7287C21.0234 11.7678 21.0092 11.8083 20.9829 11.8413C20.9566 11.8744 20.9204 11.8973 20.8821 11.9051Z" fill="#009B3A"/>
<path d="M18.1417 10.3006C18.0839 10.3276 18.0211 10.3297 17.9669 10.3065C17.9122 10.2832 17.8707 10.236 17.8516 10.1753C17.8325 10.1147 17.8372 10.0456 17.8648 9.98319C17.8924 9.92079 17.9406 9.87024 17.9988 9.84264C18.057 9.81504 18.1204 9.81266 18.175 9.83602C18.2297 9.85938 18.2712 9.90658 18.2903 9.96722C18.3009 10.0007 18.3042 10.0368 18.3003 10.0729L18.208 10.0332C18.2072 10.023 18.2055 10.0129 18.2028 10.0033C18.1924 9.96586 18.1685 9.93712 18.1364 9.9234C18.1043 9.90968 18.0666 9.9121 18.0316 9.93013C17.9966 9.94816 17.9672 9.98032 17.9499 10.0195C17.9325 10.0588 17.9287 10.1018 17.9391 10.1393C17.9495 10.1767 17.9734 10.2054 18.0055 10.2192C18.0376 10.2329 18.0753 10.2305 18.1103 10.2124C18.1241 10.2053 18.137 10.196 18.1487 10.1849L18.0753 10.1533L18.105 10.0857L18.192 10.1231L18.1923 10.1224L18.2773 10.159L18.277 10.1596L18.2801 10.161L18.28 10.1613L18.2801 10.1613L18.1777 10.3946L18.1127 10.3666L18.1417 10.3006Z" fill="#009B3A"/>
<path fill-rule="evenodd" clip-rule="evenodd" d="M18.4326 10.5193L18.3493 10.4782L18.5863 10.0235L18.8427 10.15C18.8801 10.1685 18.9083 10.2013 18.9212 10.2414C18.934 10.2814 18.9304 10.3253 18.9112 10.3635C18.892 10.4017 18.8587 10.4309 18.8186 10.4449C18.8071 10.4489 18.7952 10.4515 18.7833 10.4528C18.8081 10.5164 18.7584 10.6151 18.7327 10.6661L18.6557 10.6281C18.6776 10.5847 18.7169 10.5067 18.6997 10.4388L18.6977 10.4378L18.5183 10.3493L18.4326 10.5193ZM18.7341 10.3496L18.5611 10.2642L18.6204 10.1465L18.7934 10.2319C18.8087 10.2394 18.8203 10.2529 18.8255 10.2693C18.8308 10.2856 18.8293 10.3036 18.8215 10.3192C18.8136 10.3348 18.8 10.3468 18.7836 10.3525C18.7672 10.3582 18.7494 10.3572 18.7341 10.3496Z" fill="#009B3A"/>
<path d="M17.6272 9.46428L17.6266 9.46595L17.6309 9.46154L17.7607 9.36705L17.8901 9.4613L17.8947 9.46595L17.8941 9.46418L17.8955 9.46517L17.8927 9.45993L17.8431 9.30898L17.9751 9.21338L17.9761 9.21288L17.9758 9.21288L17.9776 9.21161L17.9698 9.21281L17.8122 9.21096L17.7607 9.05258L17.7092 9.21095L17.5514 9.21281L17.5437 9.21161L17.5454 9.21288L17.5451 9.21288L17.5461 9.21338L17.6782 9.30902L17.6285 9.46012L17.6258 9.46524L17.6272 9.46428Z" fill="white"/>
<path d="M11.6317 10.1593L11.6312 10.161L11.6355 10.1566L11.7653 10.062L11.8948 10.1564L11.8994 10.161L11.8988 10.1593L11.9002 10.1603L11.8974 10.155L11.8478 10.004L11.9798 9.90839L11.9808 9.90789L11.9805 9.90788L11.9823 9.90662L11.9745 9.90781L11.8168 9.90596L11.7654 9.74766L11.714 9.90596L11.556 9.90781L11.5483 9.90662L11.5501 9.90788L11.5497 9.90789L11.5508 9.90839L11.6828 10.004L11.6331 10.1551L11.6304 10.1603L11.6317 10.1593Z" fill="white"/>
<path d="M12.1023 12.3984L12.1028 12.3967L12.1015 12.3977L12.1042 12.3925L12.1538 12.2414L12.0218 12.1458L12.0207 12.1453L12.0211 12.1453L12.0193 12.144L12.027 12.1452L12.1849 12.1434L12.2364 11.985L12.2879 12.1434L12.4455 12.1452L12.4533 12.144L12.4515 12.1453L12.4518 12.1453L12.4508 12.1458L12.3188 12.2414L12.3684 12.3923L12.3712 12.3976L12.3698 12.3966L12.3704 12.3984L12.3658 12.3937L12.2364 12.2994L12.1066 12.394L12.1023 12.3984Z" fill="white"/>
<path d="M11.473 12.8454L11.4735 12.8439L11.4724 12.8448L11.4746 12.8405L11.516 12.7145L11.4061 12.6349L11.4051 12.6345L11.4055 12.6345L11.404 12.6334L11.4104 12.6344L11.5417 12.6329L11.5845 12.501L11.6274 12.6329L11.759 12.6344L11.7655 12.6334L11.764 12.6345L11.7643 12.6345L11.7633 12.6349L11.6532 12.7147L11.6946 12.8405L11.6968 12.8448L11.6957 12.8439L11.6962 12.8454L11.6925 12.8416L11.5846 12.7631L11.4767 12.8416L11.473 12.8454Z" fill="white"/>
<path d="M12.6937 11.9756L12.694 11.9747L12.6933 11.9752L12.6947 11.9725L12.7182 11.901L12.654 11.8545L12.6574 11.855L12.733 11.8541L12.7575 11.7787L12.782 11.8541L12.8573 11.855L12.8608 11.8545L12.8601 11.855L12.8597 11.8552L12.7968 11.9008L12.8205 11.9729L12.8217 11.9752L12.8211 11.9748L12.8214 11.9756L12.8193 11.9735L12.7575 11.9285L12.6959 11.9733L12.6937 11.9756Z" fill="white"/>
<path d="M13.0955 13.3938L13.0958 13.3926L13.0949 13.3933L13.0968 13.3896L13.1299 13.2891L13.042 13.2255L13.0413 13.2251L13.0415 13.2251L13.0404 13.2243L13.0455 13.2251L13.1503 13.2238L13.1846 13.1183L13.2189 13.2238L13.3243 13.2251L13.3294 13.2243L13.3283 13.2251L13.3284 13.2251L13.3279 13.2254L13.2397 13.2893L13.2727 13.3897L13.2746 13.3934L13.2737 13.3927L13.2741 13.3939L13.271 13.3908L13.1847 13.3279L13.0985 13.3907L13.0955 13.3938Z" fill="white"/>
<path d="M18.6785 15.0434L18.6781 15.0446L18.6812 15.0415L18.7674 14.9787L18.8537 15.0415L18.8568 15.0446L18.8564 15.0434L18.8573 15.0441L18.8554 15.0404L18.8224 14.9399L18.9105 14.8761L18.9111 14.8758L18.9109 14.8758L18.9121 14.875L18.9069 14.8758L18.8016 14.8745L18.7673 14.769L18.733 14.8746L18.6279 14.8758L18.6228 14.875L18.624 14.8758L18.6237 14.8758L18.6245 14.8762L18.7125 14.9399L18.6795 15.0404L18.6775 15.0441L18.6785 15.0434Z" fill="white"/>
<path d="M19.7056 12.9832L19.705 12.9849L19.7093 12.9805L19.8391 12.886L19.9687 12.9803L19.9732 12.985L19.9726 12.9832L19.974 12.9842L19.9712 12.979L19.9216 12.8279L20.0536 12.7323L20.0546 12.7318L20.0543 12.7318L20.056 12.7306L20.0483 12.7318L19.8906 12.7299L19.8391 12.5715L19.7877 12.7299L19.6298 12.7318L19.6221 12.7306L19.6238 12.7318L19.6235 12.7318L19.6245 12.7323L19.7566 12.828L19.7069 12.9791L19.7042 12.9842L19.7056 12.9832Z" fill="white"/>
<path d="M19.9452 13.4233L19.9447 13.4247L19.9484 13.4209L20.0563 13.3424L20.1642 13.4209L20.1679 13.4247L20.1675 13.4233L20.1686 13.4241L20.1663 13.4198L20.125 13.294L20.2351 13.2143L20.2361 13.2138L20.2358 13.2138L20.2372 13.2127L20.2308 13.2137L20.0991 13.2122L20.0562 13.0803L20.0134 13.2122L19.8822 13.2137L19.8758 13.2127L19.8772 13.2138L19.8769 13.2138L19.8779 13.2143L19.9878 13.2938L19.9463 13.4198L19.9441 13.4241L19.9452 13.4233Z" fill="white"/>
<path d="M18.6627 14.5398L18.6631 14.5384L18.662 14.5392L18.6643 14.5349L18.7057 14.4089L18.5959 14.3293L18.5949 14.3288L18.5952 14.3288L18.5937 14.3278L18.6002 14.3288L18.7316 14.3272L18.7745 14.1953L18.8173 14.3272L18.9488 14.3288L18.9552 14.3278L18.9537 14.3288L18.9541 14.3288L18.9531 14.3293L18.8432 14.4089L18.8846 14.5348L18.8868 14.5391L18.8857 14.5383L18.8862 14.5397L18.8825 14.5359L18.7745 14.4573L18.6664 14.536L18.6627 14.5398Z" fill="white"/>
<path d="M20.4383 12.805L20.5434 12.8038L20.5777 12.6983L20.612 12.8038L20.7172 12.805L20.7224 12.8042L20.7212 12.8051L20.7214 12.8051L20.7209 12.8054L20.6324 12.8694L20.6654 12.9698L20.6674 12.9735L20.6664 12.9728L20.6668 12.9739L20.6637 12.9708L20.5775 12.908L20.4913 12.9707L20.4883 12.9739L20.4887 12.9727L20.4877 12.9734L20.4896 12.9697L20.5227 12.8691L20.4348 12.8055L20.434 12.8051L20.4343 12.8051L20.4331 12.8042L20.4383 12.805Z" fill="white"/>
<path d="M19.1636 13.9201L19.2687 13.9189L19.303 13.8133L19.3372 13.9188L19.4425 13.9201L19.4477 13.9193L19.4465 13.9201L19.4467 13.9201L19.4462 13.9204L19.3579 13.9843L19.391 14.0848L19.3929 14.0885L19.3919 14.0878L19.3923 14.089L19.3893 14.0858L19.303 14.023L19.2169 14.0858L19.2138 14.0889L19.2142 14.0877L19.2132 14.0884L19.2152 14.0847L19.2482 13.9843L19.1602 13.9206L19.1594 13.9202L19.1597 13.9202L19.1585 13.9193L19.1636 13.9201Z" fill="white"/>
<path d="M19.5562 13.6409L19.6876 13.6393L19.7305 13.5074L19.7733 13.6393L19.9048 13.6409L19.9112 13.6399L19.9097 13.6409L19.9101 13.641L19.9091 13.6414L19.7991 13.7211L19.8405 13.847L19.8428 13.8512L19.8416 13.8504L19.8421 13.8519L19.8384 13.8481L19.7304 13.7694L19.6224 13.8481L19.6187 13.8519L19.6191 13.8504L19.618 13.8512L19.6203 13.847L19.6617 13.721L19.5519 13.6414L19.5509 13.641L19.5512 13.6409L19.5497 13.6399L19.5562 13.6409Z" fill="white"/>
<path d="M18.6137 13.8187L18.7188 13.8175L18.753 13.712L18.7873 13.8175L18.8926 13.8187L18.8978 13.8179L18.8966 13.8188L18.8968 13.8188L18.8962 13.8191L18.8078 13.8831L18.8408 13.9835L18.8427 13.9871L18.8417 13.9865L18.8421 13.9876L18.8391 13.9845L18.7528 13.9217L18.6667 13.9844L18.6637 13.9876L18.6641 13.9864L18.6631 13.9871L18.665 13.9834L18.6981 13.8828L18.6102 13.8192L18.6094 13.8188L18.6097 13.8188L18.6085 13.8179L18.6137 13.8187Z" fill="white"/>
<path d="M13.9714 11.3017L13.9709 11.3031L13.9746 11.2993L14.0826 11.2207L14.1906 11.2993L14.1943 11.3031L14.1938 11.3016L14.1949 11.3024L14.1927 11.2981L14.1513 11.1723L14.2612 11.0927L14.2622 11.0922L14.2618 11.0922L14.2633 11.0912L14.2569 11.0921L14.1255 11.0906L14.0826 10.9586L14.0398 11.0905L13.9083 11.0921L13.9019 11.0911L13.9034 11.0921L13.903 11.0921L13.904 11.0926L14.014 11.1722L13.9725 11.2982L13.9703 11.3025L13.9714 11.3017Z" fill="white"/>
<path d="M17.4693 10.7859L17.4689 10.7871L17.4719 10.784L17.5581 10.7212L17.6444 10.784L17.6474 10.7872L17.647 10.786L17.648 10.7867L17.646 10.783L17.613 10.6825L17.7012 10.6186L17.7018 10.6184L17.7016 10.6184L17.7028 10.6175L17.6976 10.6183L17.5923 10.6171L17.558 10.5115L17.5237 10.6171L17.4187 10.6183L17.4135 10.6175L17.4147 10.6184L17.4144 10.6184L17.4152 10.6187L17.5033 10.6825L17.4702 10.7829L17.4683 10.7866L17.4693 10.7859Z" fill="white"/>
<path d="M15.9764 13.5045L15.9759 13.5062L15.9802 13.5018L16.11 13.4073L16.2396 13.5016L16.2441 13.5063L16.2435 13.5045L16.2449 13.5055L16.2421 13.5002L16.1925 13.3491L16.3244 13.2536L16.3254 13.2531L16.3251 13.2531L16.3268 13.2518L16.3191 13.253L16.1614 13.2512L16.11 13.0928L16.0585 13.2512L15.9007 13.253L15.893 13.2518L15.8947 13.2531L15.8944 13.2531L15.8954 13.2536L16.0275 13.3492L15.9778 13.5004L15.9751 13.5055L15.9764 13.5045Z" fill="white"/>
<path d="M16.6143 12.4169L16.6138 12.4183L16.6176 12.4145L16.7255 12.3359L16.8334 12.4144L16.8371 12.4182L16.8366 12.4168L16.8377 12.4176L16.8355 12.4133L16.7941 12.2874L16.904 12.2078L16.905 12.2073L16.9046 12.2073L16.9061 12.2062L16.8997 12.2072L16.7682 12.2057L16.7254 12.0738L16.6825 12.2058L16.5511 12.2073L16.5446 12.2063L16.5461 12.2074L16.5458 12.2074L16.5468 12.2079L16.6568 12.2876L16.6155 12.4134L16.6132 12.4177L16.6143 12.4169Z" fill="white"/>
<path d="M15.9989 11.9389L15.9985 11.9404L16.0022 11.9366L16.1101 11.858L16.218 11.9365L16.2217 11.9403L16.2212 11.9389L16.2223 11.9397L16.2201 11.9354L16.1787 11.8096L16.2889 11.7299L16.2899 11.7294L16.2895 11.7294L16.291 11.7283L16.2845 11.7293L16.1529 11.7278L16.11 11.5959L16.0672 11.7278L15.936 11.7294L15.9296 11.7284L15.931 11.7294L15.9307 11.7294L15.9317 11.7299L16.0415 11.8094L16.0001 11.9355L15.9978 11.9397L15.9989 11.9389Z" fill="white"/>
<path d="M15.4853 12.3861L15.4849 12.3873L15.488 12.3842L15.5743 12.3214L15.6606 12.3843L15.6637 12.3874L15.6633 12.3862L15.6643 12.3869L15.6623 12.3832L15.6293 12.2827L15.7175 12.2189L15.718 12.2186L15.7178 12.2186L15.719 12.2178L15.7139 12.2186L15.6086 12.2173L15.5743 12.1118L15.54 12.2173L15.435 12.2186L15.4298 12.2178L15.431 12.2186L15.4307 12.2186L15.4315 12.219L15.5193 12.2826L15.4863 12.3831L15.4843 12.3868L15.4853 12.3861Z" fill="white"/>
<path d="M15.7786 12.7204L15.7783 12.7213L15.7805 12.719L15.8421 12.6742L15.9038 12.7191L15.9059 12.7212L15.9056 12.7204L15.9062 12.7209L15.905 12.7185L15.8813 12.6465L15.9442 12.6009L15.9446 12.6007L15.9453 12.6002L15.9418 12.6007L15.8665 12.5998L15.842 12.5244L15.8176 12.5998L15.742 12.6007L15.7385 12.6002L15.8028 12.6467L15.7793 12.7182L15.7778 12.7209L15.7786 12.7204Z" fill="white"/>
<path d="M16.0654 15.1563L16.0653 15.1568L16.0665 15.1555L16.1102 15.1237L16.1535 15.1553L16.1549 15.1568L16.1547 15.1562L16.1551 15.1565L16.1543 15.1549L16.1377 15.1044L16.1816 15.0726L16.1821 15.0723L16.1819 15.0723L16.1825 15.0719L16.1799 15.0723L16.1271 15.0717L16.11 15.019L16.0928 15.0718L16.0405 15.0724L16.0379 15.072L16.0825 15.1043L16.0658 15.1551L16.0651 15.1566L16.0654 15.1563Z" fill="white"/>
<path d="M17.5917 14.6686L17.5913 14.6701L17.595 14.6663L17.7029 14.5877L17.8108 14.6662L17.8145 14.67L17.814 14.6686L17.8151 14.6694L17.8129 14.6651L17.7715 14.5391L17.8814 14.4596L17.8824 14.4591L17.8821 14.4591L17.8835 14.458L17.8771 14.459L17.7456 14.4575L17.7027 14.3256L17.6599 14.4575L17.5285 14.459L17.522 14.458L17.5235 14.4591L17.5232 14.4591L17.5242 14.4596L17.6343 14.5393L17.5929 14.6651L17.5906 14.6694L17.5917 14.6686Z" fill="white"/>
<path d="M13.8404 13.9389L13.8399 13.9406L13.8442 13.9362L13.974 13.8417L14.1035 13.936L14.108 13.9406L14.1074 13.9389L14.1088 13.9398L14.106 13.9346L14.0564 13.7837L14.1884 13.688L14.1895 13.6876L14.1891 13.6875L14.1909 13.6863L14.1832 13.6875L14.0255 13.6856L13.974 13.5273L13.9226 13.6856L13.7647 13.6874L13.757 13.6862L13.7588 13.6875L13.7584 13.6875L13.7595 13.688L13.8915 13.7836L13.8418 13.9348L13.8391 13.9399L13.8404 13.9389Z" fill="white"/>
<path d="M13.2329 12.8949L13.2324 12.8963L13.2361 12.8925L13.3442 12.8138L13.4522 12.8925L13.4559 12.8963L13.4555 12.8949L13.4566 12.8957L13.4543 12.8914L13.4129 12.7654L13.5228 12.6858L13.5238 12.6853L13.5235 12.6853L13.5249 12.6842L13.5185 12.6852L13.3871 12.6837L13.3442 12.5518L13.3013 12.6838L13.1698 12.6853L13.1634 12.6843L13.1649 12.6854L13.1645 12.6854L13.1655 12.6859L13.2754 12.7654L13.234 12.8914L13.2318 12.8957L13.2329 12.8949Z" fill="white"/>
<path d="M18.0196 14L18.1247 13.9987L18.159 13.8932L18.1933 13.9987L18.2986 13.9999L18.3037 13.9991L18.3026 13.9999L18.3028 13.9999L18.3022 14.0002L18.214 14.0641L18.247 14.1646L18.2489 14.1683L18.248 14.1676L18.2484 14.1688L18.2453 14.1657L18.1591 14.1029L18.0729 14.1656L18.0698 14.1687L18.0702 14.1675L18.0693 14.1682L18.0712 14.1645L18.1042 14.0642L18.0161 14.0004L18.0154 14L18.0156 14L18.0145 13.9992L18.0196 14Z" fill="white"/>
<path d="M17.2486 13.8683L17.1436 13.8696L17.1384 13.8688L17.1396 13.8696L17.1394 13.8696L17.1401 13.87L17.228 13.9336L17.1949 14.0342L17.193 14.0378L17.1939 14.0372L17.1935 14.0383L17.1966 14.0352L17.2829 13.9724L17.3693 14.0353L17.3724 14.0384L17.372 14.0372L17.3729 14.0379L17.371 14.0342L17.3379 13.9337L17.4261 13.8699L17.4267 13.8696L17.4265 13.8696L17.4276 13.8688L17.4225 13.8696L17.3172 13.8683L17.2829 13.7628L17.2486 13.8683Z" fill="white"/>
</g>
<defs>
<clipPath id="clip0_1717_31008">
<rect x="0.0356445" y="0.28772" width="32.004" height="21.2877" rx="4" fill="white"/>
</clipPath>
</defs>
</svg>
