<svg width="33" height="22" viewBox="0 0 33 22" fill="none" xmlns="http://www.w3.org/2000/svg">
<g clip-path="url(#clip0_1717_31010)">
<rect x="0.332031" width="32.004" height="21.2877" rx="4" fill="white"/>
<path d="M0.330627 -3.05176e-05H32.3346V21.2877H0.330627V-3.05176e-05Z" fill="#EE1C25"/>
<path d="M3.26672 8.49108L5.28494 2.43634L7.30316 8.49108L1.92123 4.79096H8.64864L3.26672 8.49108Z" fill="#FFFF00"/>
<path d="M12.0201 2.55262L9.94311 3.0129L11.3285 1.39846L11.1927 3.57128L10.0401 1.64768L12.0201 2.55262Z" fill="#FFFF00"/>
<path d="M14.1169 5.20855L12.024 4.82725L13.9271 3.87651L12.9591 5.82656L12.6428 3.60649L14.1169 5.20855Z" fill="#FFFF00"/>
<path d="M13.8109 8.93602L12.0555 7.73426L14.1809 7.64239L12.5018 9.0281L13.1184 6.87204L13.8109 8.93602Z" fill="#FFFF00"/>
<path d="M11.171 11.3711L10.0159 9.58454L12.0119 10.3207L9.92789 10.9504L11.3294 9.19976L11.171 11.3711Z" fill="#FFFF00"/>
</g>
<defs>
<clipPath id="clip0_1717_31010">
<rect x="0.332031" width="32.004" height="21.2877" rx="4" fill="white"/>
</clipPath>
</defs>
</svg>
