<svg width="56" height="57" viewBox="0 0 56 57" fill="none" xmlns="http://www.w3.org/2000/svg">
<g id="Group 41">
<path id="Ellipse 11" d="M56 28.5C56 43.964 43.464 56.5 28 56.5C12.536 56.5 0 43.964 0 28.5C0 13.036 12.536 0.5 28 0.5C43.464 0.5 56 13.036 56 28.5Z" fill="#ECF1F7"/>
<g id="dvr">
<mask id="mask0_2386_42190" style="mask-type:alpha" maskUnits="userSpaceOnUse" x="16" y="16" width="24" height="25">
<rect id="Bounding box" x="16" y="16.5" width="24" height="24" fill="#D9D9D9"/>
</mask>
<g mask="url(#mask0_2386_42190)">
<path id="dvr_2" d="M23 30.3077C23.2256 30.3077 23.4166 30.2295 23.5731 30.0731C23.7295 29.9166 23.8077 29.7256 23.8077 29.5C23.8077 29.2743 23.7295 29.0833 23.5731 28.9269C23.4166 28.7705 23.2256 28.6923 23 28.6923C22.7743 28.6923 22.5833 28.7705 22.4269 28.9269C22.2705 29.0833 22.1923 29.2743 22.1923 29.5C22.1923 29.7256 22.2705 29.9166 22.4269 30.0731C22.5833 30.2295 22.7743 30.3077 23 30.3077ZM23 26.3077C23.2256 26.3077 23.4166 26.2295 23.5731 26.0731C23.7295 25.9166 23.8077 25.7256 23.8077 25.5C23.8077 25.2743 23.7295 25.0833 23.5731 24.9269C23.4166 24.7705 23.2256 24.6923 23 24.6923C22.7743 24.6923 22.5833 24.7705 22.4269 24.9269C22.2705 25.0833 22.1923 25.2743 22.1923 25.5C22.1923 25.7256 22.2705 25.9166 22.4269 26.0731C22.5833 26.2295 22.7743 26.3077 23 26.3077ZM25.0577 30.25H33.75V28.75H25.0577V30.25ZM25.0577 26.25H33.75V24.75H25.0577V26.25ZM24.5 37V35H20.3077C19.8026 35 19.375 34.825 19.025 34.475C18.675 34.125 18.5 33.6974 18.5 33.1923V21.8077C18.5 21.3026 18.675 20.875 19.025 20.525C19.375 20.175 19.8026 20 20.3077 20H35.6923C36.1974 20 36.625 20.175 36.975 20.525C37.325 20.875 37.5 21.3026 37.5 21.8077V33.1923C37.5 33.6974 37.325 34.125 36.975 34.475C36.625 34.825 36.1974 35 35.6923 35H31.5V37H24.5ZM20.3077 33.5H35.6923C35.7692 33.5 35.8397 33.4679 35.9038 33.4038C35.9679 33.3397 36 33.2692 36 33.1923V21.8077C36 21.7308 35.9679 21.6602 35.9038 21.5961C35.8397 21.532 35.7692 21.5 35.6923 21.5H20.3077C20.2308 21.5 20.1602 21.532 20.0961 21.5961C20.032 21.6602 20 21.7308 20 21.8077V33.1923C20 33.2692 20.032 33.3397 20.0961 33.4038C20.1602 33.4679 20.2308 33.5 20.3077 33.5Z" fill="#15202A"/>
</g>
</g>
</g>
</svg>
