<svg width="56" height="57" viewBox="0 0 56 57" fill="none" xmlns="http://www.w3.org/2000/svg">
<g id="Group 41">
<path id="Ellipse 11" d="M56 28.5C56 43.964 43.464 56.5 28 56.5C12.536 56.5 0 43.964 0 28.5C0 13.036 12.536 0.5 28 0.5C43.464 0.5 56 13.036 56 28.5Z" fill="#ECF1F7"/>
<g id="tv_signin">
<mask id="mask0_2386_42184" style="mask-type:alpha" maskUnits="userSpaceOnUse" x="16" y="16" width="24" height="25">
<rect id="Bounding box" x="16" y="16.5" width="24" height="24" fill="#D9D9D9"/>
</mask>
<g mask="url(#mask0_2386_42184)">
<path id="tv_signin_2" d="M24.3461 31.1538H31.6538V30.7961C31.6538 30.1295 31.324 29.6057 30.6644 29.225C30.0048 28.8442 29.1166 28.6538 28 28.6538C26.8833 28.6538 25.9952 28.8442 25.3356 29.225C24.676 29.6057 24.3461 30.1295 24.3461 30.7961V31.1538ZM28 27.3461C28.4859 27.3461 28.899 27.1759 29.2394 26.8356C29.5798 26.4952 29.75 26.082 29.75 25.5961C29.75 25.1102 29.5798 24.6971 29.2394 24.3567C28.899 24.0163 28.4859 23.8462 28 23.8462C27.5141 23.8462 27.1009 24.0163 26.7606 24.3567C26.4202 24.6971 26.25 25.1102 26.25 25.5961C26.25 26.082 26.4202 26.4952 26.7606 26.8356C27.1009 27.1759 27.5141 27.3461 28 27.3461ZM24.5 37V35H20.3077C19.8026 35 19.375 34.825 19.025 34.475C18.675 34.125 18.5 33.6974 18.5 33.1923V21.8077C18.5 21.3026 18.675 20.875 19.025 20.525C19.375 20.175 19.8026 20 20.3077 20H35.6923C36.1974 20 36.625 20.175 36.975 20.525C37.325 20.875 37.5 21.3026 37.5 21.8077V33.1923C37.5 33.6974 37.325 34.125 36.975 34.475C36.625 34.825 36.1974 35 35.6923 35H31.5V37H24.5ZM20.3077 33.5H35.6923C35.7692 33.5 35.8397 33.4679 35.9038 33.4038C35.9679 33.3397 36 33.2692 36 33.1923V21.8077C36 21.7308 35.9679 21.6602 35.9038 21.5961C35.8397 21.532 35.7692 21.5 35.6923 21.5H20.3077C20.2308 21.5 20.1602 21.532 20.0961 21.5961C20.032 21.6602 20 21.7308 20 21.8077V33.1923C20 33.2692 20.032 33.3397 20.0961 33.4038C20.1602 33.4679 20.2308 33.5 20.3077 33.5Z" fill="#15202A"/>
</g>
</g>
</g>
</svg>
