<svg width="56" height="57" viewBox="0 0 56 57" fill="none" xmlns="http://www.w3.org/2000/svg">
<g id="Group 41">
<path id="Ellipse 11" d="M56 28.5C56 43.964 43.464 56.5 28 56.5C12.536 56.5 0 43.964 0 28.5C0 13.036 12.536 0.5 28 0.5C43.464 0.5 56 13.036 56 28.5Z" fill="#ECF1F7"/>
<g id="devices">
<mask id="mask0_2386_42178" style="mask-type:alpha" maskUnits="userSpaceOnUse" x="16" y="16" width="24" height="25">
<rect id="Bounding box" x="16" y="16.5" width="24" height="24" fill="#D9D9D9"/>
</mask>
<g mask="url(#mask0_2386_42178)">
<path id="devices_2" d="M18.5 36V33.75H20.5V22.8077C20.5 22.3106 20.677 21.885 21.031 21.531C21.385 21.177 21.8106 21 22.3077 21H36.5V22.5H22.3077C22.218 22.5 22.1442 22.5288 22.0865 22.5865C22.0288 22.6442 22 22.718 22 22.8077V33.75H27.7403V36H18.5ZM31.0288 36C30.7727 36 30.5581 35.9133 30.3849 35.7401C30.2116 35.5668 30.125 35.3522 30.125 35.0961V25.5961C30.125 25.34 30.2116 25.1254 30.3849 24.9522C30.5581 24.7789 30.7727 24.6923 31.0288 24.6923H36.6057C36.8618 24.6923 37.0765 24.7789 37.2497 24.9522C37.4229 25.1254 37.5096 25.34 37.5096 25.5961V35.0961C37.5096 35.3522 37.4229 35.5668 37.2497 35.7401C37.0765 35.9133 36.8618 36 36.6057 36H31.0288ZM31.625 33.75H36.0096V26.1923H31.625V33.75Z" fill="#15202A"/>
</g>
</g>
</g>
</svg>
