<svg width="37" height="27" viewBox="0 0 37 27" fill="none" xmlns="http://www.w3.org/2000/svg">
<g clip-path="url(#clip0_3666_68978)">
<rect x="1" y="1" width="35" height="25" rx="4" fill="white"/>
<mask id="mask0_3666_68978" style="mask-type:luminance" maskUnits="userSpaceOnUse" x="0" y="1" width="36" height="26">
<path d="M0.994873 1.00024H35.9949V26.0002H0.994873V1.00024Z" fill="white"/>
</mask>
<g mask="url(#mask0_3666_68978)">
<path fill-rule="evenodd" clip-rule="evenodd" d="M-1.18872 1.00037H38.1863V26.0004H-1.18872V1.00037Z" fill="white"/>
<path d="M15.5592 10.8088H22.2413V11.7694H15.5592V10.8088ZM13.29 14.303H25.29V15.2914H13.29V14.303ZM18.7332 13.2589H19.833V18.2844C19.833 18.9109 19.6798 19.2171 19.1787 19.3842C18.6914 19.5513 17.9536 19.5652 16.7703 19.5652C16.7007 19.2589 16.4919 18.8134 16.3109 18.5211C17.2576 18.5489 18.1624 18.5489 18.413 18.535C18.6636 18.5211 18.7332 18.4654 18.7332 18.2705V13.2589ZM21.9211 10.8088H22.1996L22.4362 10.7531L23.1183 11.2682C22.1996 12.2844 20.8214 13.3703 19.5406 14.0246C19.4153 13.8297 19.1369 13.5652 18.9699 13.426C20.0557 12.8413 21.2947 11.7972 21.9211 11.0176V10.8088ZM18.7054 6.75775H19.8051V8.99905H18.7054V6.75775ZM13.4293 8.28907H25.1091V11.5605H24.0371V9.27747H14.4594V11.5605H13.4293V8.28907Z" fill="#BC002D"/>
</g>
</g>
<rect x="0.5" y="0.5" width="36" height="26" rx="4.5" stroke="#E5E5E5" stroke-linejoin="round"/>
<defs>
<clipPath id="clip0_3666_68978">
<rect x="1" y="1" width="35" height="25" rx="4" fill="white"/>
</clipPath>
</defs>
</svg>
