<svg width="26" height="18" viewBox="0 0 26 18" fill="none" xmlns="http://www.w3.org/2000/svg">
<g clip-path="url(#clip0_13770_56772)">
<rect x="1" y="1.01813" width="24" height="15.9638" rx="4" fill="white"/>
<mask id="mask0_13770_56772" style="mask-type:luminance" maskUnits="userSpaceOnUse" x="0" y="1" width="25" height="16">
<path d="M0.999023 1.01794H25.0002V16.9817H0.999023V1.01794Z" fill="white"/>
</mask>
<g mask="url(#mask0_13770_56772)">
<path fill-rule="evenodd" clip-rule="evenodd" d="M0.999023 1.0177H25.0037V16.9815H0.999023V1.0177Z" fill="white"/>
<path fill-rule="evenodd" clip-rule="evenodd" d="M4.84863 5.87463L7.07266 2.57041L7.60233 2.92041L5.3783 6.22464L4.84863 5.87463ZM5.64313 6.39964L7.86716 3.09542L8.39683 3.44542L6.1728 6.74965L5.64313 6.39964ZM6.43763 6.92465L8.66166 3.62042L9.19133 3.97043L6.9673 7.27465L6.43763 6.92465Z" fill="#000008"/>
<path fill-rule="evenodd" clip-rule="evenodd" d="M16.7891 13.8376L19.0131 10.5334L19.5428 10.8834L17.3187 14.1877L16.7891 13.8376ZM17.5836 14.3627L19.8076 11.0584L20.3373 11.4084L18.1132 14.7127L17.5836 14.3627ZM18.3781 14.8877L20.6021 11.5834L21.1318 11.9334L18.9077 15.2377L18.3781 14.8877Z" fill="#000008"/>
<path fill-rule="evenodd" clip-rule="evenodd" d="M17.6045 11.9805L20.3182 13.7903L17.6045 11.9805Z" fill="#000008"/>
<path d="M17.6045 11.9805L20.3182 13.7903" stroke="white" stroke-width="0.434962"/>
<path fill-rule="evenodd" clip-rule="evenodd" d="M9.73438 6.81787C10.3304 5.93147 11.2412 5.30566 12.2663 5.07812C13.2913 4.85058 14.3468 5.03994 15.2004 5.60455C16.054 6.16916 16.6359 7.06277 16.818 8.08879C17.0001 9.11481 16.7676 10.1892 16.1715 11.0756L9.73438 6.81787Z" fill="#CD2E3A"/>
<path fill-rule="evenodd" clip-rule="evenodd" d="M9.80127 6.76733C9.20751 7.64963 8.97586 8.71905 9.15728 9.74033C9.3387 10.7616 9.91833 11.6511 10.7687 12.2131C11.619 12.7751 12.6703 12.9636 13.6915 12.7371C14.7126 12.5106 15.6198 11.8877 16.2136 11.0054C16.5105 10.5642 16.6263 10.0295 16.5356 9.51887C16.4449 9.00823 16.155 8.56349 15.7299 8.2825C15.3047 8.0015 14.779 7.90725 14.2685 8.0205C13.7579 8.13374 13.3043 8.4452 13.0074 8.88635L9.80127 6.76733Z" fill="#0047A0"/>
<path d="M12.9607 8.87411C13.577 7.95842 13.3611 6.74329 12.4785 6.16002C11.5958 5.57676 10.3807 5.84624 9.76438 6.76193C9.14806 7.67761 9.36395 8.89275 10.2466 9.47601C11.1292 10.0593 12.3443 9.78979 12.9607 8.87411Z" fill="#CD2E3A"/>
<path fill-rule="evenodd" clip-rule="evenodd" d="M7.07861 15.2391L4.85458 11.9349L5.38425 11.5849L7.60828 14.8891L7.07861 15.2391ZM7.87311 14.7141L5.64908 11.4099L6.17875 11.0599L8.40278 14.3641L7.87311 14.7141ZM8.66761 14.1891L6.44358 10.8849L6.97325 10.5349L9.19728 13.8391L8.66761 14.1891Z" fill="#000008"/>
<path fill-rule="evenodd" clip-rule="evenodd" d="M19.019 7.27618L16.795 3.97196L17.3247 3.62195L19.5487 6.92618L19.019 7.27618ZM19.8135 6.75118L17.5895 3.44695L18.1192 3.09695L20.3432 6.40117L19.8135 6.75118ZM20.608 6.22617L18.384 2.92194L18.9137 2.57194L21.1377 5.87616L20.608 6.22617Z" fill="#000008"/>
<path fill-rule="evenodd" clip-rule="evenodd" d="M6.62061 13.1584L7.43471 12.6154L6.62061 13.1584ZM17.611 5.82872L18.5608 5.19529L17.611 5.82872ZM19.3749 4.65235L20.189 4.10941L19.3749 4.65235Z" fill="#000008"/>
<path d="M6.62061 13.1584L7.43471 12.6154M17.611 5.82872L18.5608 5.19529M19.3749 4.65235L20.189 4.10941" stroke="white" stroke-width="0.434962"/>
</g>
</g>
<rect x="1" y="1.01813" width="24" height="15.9638" rx="4" stroke="#E5E5E5" stroke-linejoin="round"/>
<defs>
<clipPath id="clip0_13770_56772">
<rect x="1" y="1.01813" width="24" height="15.9638" rx="4" fill="white"/>
</clipPath>
</defs>
</svg>
