<svg width="32" height="23" viewBox="0 0 32 23" fill="none" xmlns="http://www.w3.org/2000/svg">
<g clip-path="url(#clip0_1717_30976)">
<rect x="-0.00195312" y="0.850464" width="32.004" height="21.2877" rx="4" fill="white"/>
<mask id="mask0_1717_30976" style="mask-type:luminance" maskUnits="userSpaceOnUse" x="-1" y="0" width="33" height="23">
<path d="M-0.00195312 0.850098H31.9989V22.1378H-0.00195312V0.850098Z" fill="white"/>
</mask>
<g mask="url(#mask0_1717_30976)">
<path fill-rule="evenodd" clip-rule="evenodd" d="M-2.00064 0.850075H34.0038V22.1378H-2.00064V0.850075Z" fill="#165D31"/>
<path fill-rule="evenodd" clip-rule="evenodd" d="M8.07818 6.86958C8.04428 7.37805 7.99344 8.26786 8.42987 8.36108C8.95105 8.41193 8.66292 7.47974 8.85359 7.31025C8.88749 7.22551 8.95105 7.22551 8.95528 7.33144V8.1238C8.95528 8.37803 9.12477 8.4543 9.25189 8.50515C9.38748 8.49667 9.4807 8.50515 9.53155 8.63226L9.59934 10.0009C9.59934 10.0009 9.9129 10.0941 9.92984 9.23395C9.94256 8.72548 9.82815 8.306 9.89595 8.20854C9.89595 8.11109 10.0231 8.10685 10.1078 8.15346C10.2434 8.24668 10.3027 8.36532 10.5146 8.32295C10.8366 8.22973 11.0315 8.07295 11.0358 7.82719C11.0294 7.58568 10.9791 7.34734 10.8875 7.12382C10.9044 7.08144 10.8281 6.96704 10.8451 6.92467C10.9002 7.01788 10.9891 7.00941 11.0061 6.92467C10.951 6.7467 10.8663 6.57298 10.7307 6.50094C10.6163 6.39925 10.4468 6.4162 10.3917 6.62806C10.3578 6.86958 10.4764 7.15348 10.6502 7.39076C10.6883 7.47974 10.7392 7.63228 10.718 7.76787C10.6247 7.82296 10.5315 7.79753 10.451 7.71702C10.451 7.71702 10.1968 7.52635 10.1968 7.47974C10.2646 7.04755 10.2095 6.9967 10.1714 6.87382C10.1459 6.70857 10.0654 6.65348 10.0019 6.54332C9.93832 6.47552 9.85357 6.47552 9.8112 6.54332C9.6968 6.73823 9.75188 7.15771 9.83239 7.34839C9.89171 7.52211 9.98069 7.63228 9.93832 7.63228C9.90442 7.72974 9.83239 7.70431 9.7773 7.58991C9.7153 7.34914 9.68538 7.10124 9.68832 6.85263C9.66714 6.65772 9.64171 6.24247 9.51036 6.13231C9.43409 6.03061 9.31969 6.08146 9.27731 6.17468C9.26613 6.36397 9.27038 6.55386 9.29002 6.74247C9.37477 7.05602 9.40443 7.33568 9.4468 7.65347C9.45951 8.08143 9.20104 7.8399 9.21376 7.62381C9.26934 7.35213 9.265 7.07161 9.20104 6.80179C9.15867 6.69162 9.11206 6.6662 9.00613 6.68314C8.92562 6.68314 8.718 6.90772 8.65868 7.28907C8.65868 7.28907 8.60783 7.48398 8.58665 7.6577C8.55699 7.85262 8.42987 7.99668 8.33665 7.63228C8.26038 7.36534 8.20953 6.71704 8.08242 6.86958H8.07818Z" fill="white"/>
<path fill-rule="evenodd" clip-rule="evenodd" d="M9.49644 8.94988L8.14053 9.60242C8.15325 9.2931 8.78035 8.73802 9.21255 8.73379C9.48797 8.73802 9.42017 8.83972 9.49221 8.94988H9.49644Z" fill="white"/>
<path fill-rule="evenodd" clip-rule="evenodd" d="M9.255 9.37366C8.54315 11.2168 10.9287 11.4753 11.1956 9.44993C11.2211 9.36518 11.3228 9.28468 11.3397 9.42027C11.2846 11.255 9.49229 11.3779 9.18721 10.8016C9.11544 10.6033 9.07957 10.3938 9.08128 10.183C9.03891 9.8228 8.84823 9.96263 8.81857 10.3186C8.78891 10.5177 8.79739 10.5728 8.79739 10.7635C8.8906 12.2126 11.1999 11.5897 11.577 10.3948C11.7761 9.73382 11.5431 9.24654 11.649 9.24654C11.8778 9.4923 12.1999 9.28044 12.2719 9.19569C12.3016 9.15332 12.3778 9.12366 12.4287 9.17875C12.6066 9.30586 12.9202 9.24654 12.988 9.02197C13.0261 8.7974 13.0558 8.56859 13.0643 8.33554C12.916 8.37791 12.81 8.40757 12.7973 8.47113L12.7677 8.66604C12.7549 8.7296 12.6321 8.7296 12.6236 8.64909C12.5685 8.39486 12.3397 8.3652 12.1999 8.75502C12.1109 8.83129 11.9414 8.84824 11.9245 8.73384C11.9456 8.47113 11.8397 8.43723 11.6278 8.56011L11.4245 7.02624C11.5092 7.02624 11.5939 7.0898 11.6745 6.98811C11.5897 6.71269 11.399 6.15338 11.2931 6.111C11.2465 6.05168 11.2041 6.08982 11.1363 6.10677C11.0262 6.14066 10.9245 6.23388 10.9584 6.42032C11.0855 7.21692 11.1702 7.82284 11.3016 8.62367C11.3228 8.71265 11.2465 8.83553 11.1448 8.82282C10.9753 8.70841 10.9329 8.47537 10.6363 8.48384C10.4245 8.48384 10.1872 8.71689 10.1575 8.93722C10.1194 9.11519 10.1067 9.30586 10.1575 9.4584C10.3058 9.63636 10.4838 9.61942 10.6406 9.58128C10.7677 9.5262 10.8736 9.39908 10.9202 9.42874C10.9499 9.46688 10.9245 9.8906 10.3143 10.2126C9.94567 10.3821 9.64907 10.416 9.49229 10.1152C9.39483 9.92449 9.50076 9.20841 9.255 9.37366Z" fill="white"/>
<path fill-rule="evenodd" clip-rule="evenodd" d="M12.2945 7.50127C12.4344 7.45043 13.1123 6.67078 13.1123 6.67078L13.0106 6.58604C12.9725 6.55637 12.9767 6.52248 13.0106 6.49282C13.1801 6.39112 13.125 6.17926 13.0403 6.07757C12.9828 6.04952 12.9195 6.0353 12.8555 6.03604C12.7915 6.03677 12.7285 6.05245 12.6717 6.08181C12.553 6.19621 12.5276 6.37841 12.6208 6.48858C12.7098 6.53095 12.7988 6.62417 12.7394 6.67502C12.4598 6.97162 11.7013 7.48432 11.7903 7.50127C11.8073 7.5267 12.2776 7.5267 12.2903 7.50127H12.2945ZM8.18444 10.2555C7.93021 10.6622 7.90902 11.2682 8.04885 11.4504C8.12512 11.5351 8.248 11.5732 8.33698 11.5436C8.49799 11.4758 8.57003 11.1495 8.53189 11.0351C8.47681 10.9504 8.43444 10.9377 8.37935 11.0054C8.26918 11.2343 8.22258 11.0775 8.20986 10.9504C8.19772 10.7351 8.20909 10.5191 8.24376 10.3063C8.27342 10.1283 8.24376 10.1792 8.18444 10.2555ZM19.0783 9.60717C18.8326 9.07328 18.4893 8.54786 18.3834 8.34872C18.0532 7.82671 17.7027 7.31785 17.3326 6.82332C17.0699 6.50977 17.7648 6.95467 17.2478 6.32757L16.8707 6.00977C16.786 5.95045 16.5826 5.84029 16.5487 6.01825C16.5318 6.17926 16.5402 6.26401 16.5657 6.39536C16.5868 6.4801 16.714 6.62841 16.7775 6.71315C17.6462 7.86375 18.4092 9.09046 19.0571 10.3783C19.1673 10.3233 19.1419 9.69615 19.0783 9.60717Z" fill="white"/>
<path fill-rule="evenodd" clip-rule="evenodd" d="M17.9989 11.378C17.948 11.4331 18.1175 11.6662 18.3379 11.6662C18.7023 11.6238 19.0243 11.4204 19.3209 10.878C19.4414 10.6976 19.5183 10.4916 19.5455 10.2764C19.5814 9.24774 19.4989 8.21841 19.2997 7.20862C19.287 7.12388 19.2997 7.02218 19.3082 6.99676C19.3336 6.9671 19.4141 6.99676 19.4565 6.92473C19.52 6.86117 19.287 6.33152 19.1599 6.13237C19.1175 6.03915 19.0963 5.97983 19.0201 6.14084C18.928 6.31851 18.8842 6.51721 18.8929 6.7171C19.0667 7.92471 19.1217 8.97977 19.2319 10.1874C19.2446 10.306 19.2277 10.4755 19.1472 10.5433C18.8274 10.8993 18.4361 11.1837 17.9989 11.378ZM22.9352 11.3738C22.6725 11.5263 22.6725 11.7001 22.8844 11.7043C23.2488 11.6619 23.681 11.6323 23.9776 11.1831C24.0824 10.9716 24.1429 10.7409 24.1556 10.5052C24.2089 9.49239 24.1421 8.47685 23.9564 7.4798C23.9479 7.39506 23.9098 7.19591 23.9225 7.17048C23.9479 7.11116 24.0666 7.17472 24.109 7.10693C24.1683 7.04337 23.7996 6.5688 23.6683 6.36541C23.6259 6.2722 23.609 6.21287 23.5285 6.37389C23.4431 6.55319 23.4164 6.75482 23.4522 6.95015C23.6471 8.26369 23.7912 9.24672 23.8208 10.4077C23.8039 10.5179 23.7996 10.5772 23.7488 10.717C23.6344 10.8611 23.5073 11.0475 23.3886 11.1365C23.27 11.2213 23.0158 11.306 22.9352 11.3738Z" fill="white"/>
<path fill-rule="evenodd" clip-rule="evenodd" d="M23.1294 10.2003C23.1294 9.89101 23.1336 9.62831 23.1251 9.39526C23.1224 9.19789 23.0791 9.00319 22.998 8.82324C22.9217 8.64951 22.9683 8.50968 22.9302 8.32325C22.8963 8.13681 22.9048 7.85715 22.8539 7.64105C22.837 7.55631 22.7946 7.28089 22.8073 7.25123C22.8285 7.19191 22.909 7.25123 22.9514 7.18343C23.0107 7.11988 22.7395 6.42074 22.6039 6.22159C22.5573 6.13261 22.4641 6.16227 22.3582 6.30633C22.2523 6.40379 22.2904 6.61989 22.3328 6.82751C22.5912 8.19613 22.7904 9.43763 22.748 10.7385C22.7311 10.8486 23.1294 10.408 23.1294 10.2003ZM21.193 8.50545C21.0277 8.49697 20.6845 8.17918 20.5828 7.99698C20.5661 7.95245 20.5591 7.90492 20.562 7.85747C20.5649 7.81002 20.5778 7.76371 20.5997 7.72156C20.6633 7.67919 20.7565 7.63682 20.8285 7.67919C20.8285 7.67919 20.9006 7.78088 20.8879 7.79359C20.9726 7.83597 21.015 7.81478 21.0235 7.77664C21.0277 7.71309 20.998 7.67495 20.998 7.60716C21.0362 7.41224 21.2523 7.38258 21.337 7.50546C21.3963 7.58173 21.4218 7.73851 21.426 7.84444C21.426 7.89952 21.3413 7.83597 21.2862 7.84444C21.2396 7.86139 21.2268 7.92071 21.2226 7.97156C21.2141 8.11138 21.1972 8.33596 21.193 8.50121V8.50545ZM18.1506 10.5393C18.193 10.1241 18.1337 9.38255 18.1294 9.13679C18.1068 8.50475 18.0545 7.87413 17.9727 7.24699C17.9218 6.89107 18.1167 7.28513 18.0913 7.0775C18.0277 6.72582 17.8328 6.48429 17.5998 6.1665C17.5278 6.06057 17.5278 6.03939 17.4134 6.19193C17.2862 6.47582 17.3964 6.67497 17.4303 6.89954C17.5956 7.62834 17.693 8.29782 17.7396 8.96306C17.7884 9.65412 17.7941 10.3475 17.7566 11.0393C17.8837 11.0435 18.0786 10.8401 18.1506 10.5393Z" fill="white"/>
<path fill-rule="evenodd" clip-rule="evenodd" d="M23.6915 9.87383C23.3991 9.38231 22.9627 8.8569 22.844 8.65775C22.4511 8.10906 22.0384 7.57482 21.6068 7.05608C21.2466 6.67473 21.7763 6.99252 21.539 6.69592C21.3398 6.47982 21.2847 6.40779 21.111 6.27643C21.0263 6.22135 20.9754 6.11542 20.9415 6.29762C20.928 6.45544 20.9252 6.61399 20.933 6.77219C20.933 6.84422 21.0093 6.98405 21.0771 7.06879C21.9542 8.14928 22.9161 9.25096 23.6872 10.6365C23.7974 10.5814 23.7593 9.95857 23.6872 9.87383H23.6915Z" fill="white"/>
<path fill-rule="evenodd" clip-rule="evenodd" d="M10.4978 8.97171C10.4766 9.00987 10.43 9.05652 10.4469 9.10317C10.4766 9.14558 10.5063 9.1583 10.5572 9.1583C10.6038 9.1583 10.6717 9.17102 10.6844 9.14558C10.7099 9.11589 10.7268 9.06076 10.7099 9.00563C10.659 8.87841 10.5233 8.9293 10.4978 8.97171Z" fill="#165D31"/>
<path fill-rule="evenodd" clip-rule="evenodd" d="M20.3101 16.0811C20.6999 16.098 20.9541 16.1022 21.2973 16.1404L21.7041 16.098C22.1532 16.0556 22.1702 16.7378 22.1702 16.7378C22.1702 17.1404 22.0134 17.1615 21.8143 17.2039C21.6999 17.2209 21.6448 17.1361 21.5812 17.0514C21.4854 17.0821 21.3833 17.0879 21.2846 17.0683C21.1194 17.0599 20.9584 17.0599 20.7973 17.0471C20.6279 17.0344 20.5346 17.0683 20.3609 17.0514C20.327 17.1065 20.2762 17.1827 20.1745 17.1615C20.0897 17.1488 19.9838 16.9073 20.0135 16.7166C20.077 16.581 20.0558 16.6277 20.0558 16.5683C18.4626 16.526 16.8567 16.4539 15.2974 16.4751C14.0771 16.4794 12.8737 16.5302 11.6661 16.581C11.0221 16.5726 10.5306 16.4709 10.1916 15.9751C10.2255 15.9751 11.8356 16.0641 12.306 16.0344C13.1746 16.026 13.9712 15.9539 14.8568 15.9285C16.6025 15.9582 18.3355 15.9582 20.0812 16.0811C19.9118 15.9667 19.9118 15.6997 20.166 15.6319C20.1872 15.615 20.1999 15.7633 20.238 15.759C20.4457 15.7463 20.3524 16.026 20.3101 16.0811ZM13.2932 6.45411C13.0305 7.20834 13.4458 8.03883 13.7339 7.95832C13.9458 8.04307 14.0729 7.64477 14.1576 7.21257C14.2212 7.08969 14.2636 7.07698 14.2932 7.14054C14.2847 7.7168 14.3356 7.84815 14.4839 8.02188C14.8144 8.27611 15.0898 8.05578 15.111 8.03459L15.3652 7.77612C15.4246 7.71256 15.5008 7.71256 15.5813 7.76341C15.6618 7.83544 15.6491 7.95832 15.8186 8.04307C15.9627 8.10239 16.2635 8.06002 16.3356 7.93714C16.4288 7.77188 16.4542 7.7168 16.4966 7.65748C16.5644 7.5685 16.6788 7.60663 16.6788 7.63629C16.6661 7.68714 16.5983 7.73375 16.6449 7.82697C16.7296 7.88629 16.7466 7.84815 16.7932 7.83544C16.9627 7.7507 17.0898 7.3863 17.0898 7.3863C17.094 7.25071 17.0177 7.25918 16.9669 7.29308L16.8355 7.38206C16.7508 7.39477 16.594 7.44986 16.5135 7.32698C16.433 7.18291 16.433 6.97529 16.3737 6.82699C16.3737 6.81851 16.2635 6.59394 16.3652 6.58123C16.4161 6.5897 16.522 6.61936 16.5389 6.53038C16.5898 6.4414 16.4288 6.1914 16.3144 6.06429C16.2169 5.95836 16.0813 5.94565 15.95 6.05581C15.8567 6.14056 15.8695 6.23378 15.8525 6.32276C15.8364 6.38652 15.8357 6.4532 15.8505 6.51729C15.8652 6.58138 15.8949 6.64105 15.9373 6.6914C16.0305 6.86936 16.1957 7.1024 16.1406 7.43291C16.1406 7.43291 16.0432 7.58545 15.8737 7.56426C15.8017 7.55155 15.6873 7.52189 15.6279 7.06427C15.5813 6.72529 15.6364 6.24225 15.4923 6.01768C15.4373 5.87785 15.3991 5.7465 15.272 5.97954C15.2381 6.07276 15.0898 6.21259 15.1957 6.49648C15.296 6.75231 15.3253 7.03046 15.2805 7.30155C15.2169 7.39477 15.2042 7.42443 15.1237 7.51341C15.0135 7.64053 14.8907 7.60663 14.7974 7.56002C14.7127 7.50494 14.6449 7.47528 14.6025 7.2846C14.611 6.988 14.628 6.50072 14.5729 6.39903C14.4924 6.23801 14.361 6.29733 14.3059 6.34818C14.0539 6.62819 13.8851 6.97308 13.8186 7.34393C13.7424 7.58968 13.6619 7.51765 13.6068 7.4202C13.4712 7.29308 13.4585 6.28886 13.2932 6.45411Z" fill="white"/>
<path fill-rule="evenodd" clip-rule="evenodd" d="M14.09 8.09818C14.2129 8.01343 14.1578 7.95411 14.3357 8.13207C14.5654 8.53851 14.6988 8.99224 14.7256 9.45832C14.7171 9.56849 14.7934 9.63628 14.8315 9.61086C14.8484 9.35663 15.4713 9.0007 16.0433 8.94986C16.1281 8.92867 16.0857 8.76342 16.0984 8.67867C16.0645 8.36088 16.2764 8.07275 16.573 8.05157C16.9798 8.11089 17.1154 8.32699 17.1238 8.65325C17.0772 9.28883 16.4162 9.39476 16.0476 9.44561C15.9925 9.4668 15.9671 9.49222 16.0476 9.52188L17.5984 9.53035L17.6789 9.57273C17.6874 9.6151 17.6535 9.5812 17.5942 9.68289C17.5088 9.83277 17.4555 9.99867 17.4374 10.1702C16.9755 10.3227 16.4967 10.382 16.0137 10.4456C15.8442 10.5303 15.7594 10.6447 15.7933 10.7719C15.8527 10.9117 16.2255 11.0558 16.2255 11.06C16.2976 11.1024 16.3781 11.2083 16.2044 11.4244C15.4501 11.3905 14.8612 11.0685 14.6578 10.6151C14.5984 10.5685 14.5307 10.6151 14.4883 10.6744C14.1917 11.0558 13.9035 11.3947 13.3993 11.5812C13.1027 11.6574 12.7934 11.5346 12.6493 11.3396C12.5519 11.2252 12.5561 11.1024 12.5222 11.0769C12.357 11.149 10.9587 11.7422 11.1366 11.4625C11.4756 11.1024 12.0688 10.8312 12.5858 10.4753C12.6239 10.3524 12.6917 9.9456 12.8951 9.81425C12.9078 9.81425 12.8654 10.0515 12.8697 10.1532C12.8697 10.238 12.8612 10.2676 12.8781 10.2464C12.9163 10.2253 13.5434 9.7295 13.5985 9.57696C13.6578 9.49222 13.6112 9.27188 13.6112 9.26341C13.4925 8.95833 13.3273 8.93291 13.268 8.78037C13.2129 8.58122 13.2383 8.35241 13.3527 8.28461C13.4544 8.19563 13.573 8.20411 13.6874 8.3058C13.8146 8.4202 13.9247 8.64478 13.9586 8.81003C13.9374 8.87359 13.7891 8.76766 13.7468 8.79732C13.8283 8.89104 13.8826 9.00537 13.9035 9.12782C13.9883 9.47527 13.9629 9.61086 13.8781 9.83543C13.5985 10.4244 13.2425 10.5981 12.929 10.8185C12.9205 10.8185 12.9163 10.9668 13.0307 11.0473C13.0731 11.0896 13.2383 11.1108 13.429 11.0473C13.8363 10.8211 14.1657 10.4769 14.3739 10.06C14.4099 9.74279 14.3751 9.42154 14.2722 9.11934C14.1493 8.83545 14.0052 8.43292 14.0052 8.42444C14.001 8.24648 14.0137 8.18716 14.09 8.09818ZM10.0307 6.46261C10.2087 6.54736 10.5477 6.50922 10.5307 6.22109L10.5222 6.08974C10.4884 6.00499 10.3867 6.02618 10.3655 6.11092C10.357 6.14058 10.3782 6.18719 10.3528 6.19991C10.3358 6.21685 10.2807 6.20838 10.2807 6.12787C10.2807 6.10245 10.2638 6.07703 10.2511 6.06008C10.2426 6.0516 10.2341 6.0516 10.2129 6.0516C10.1875 6.0516 10.1875 6.05584 10.1748 6.07703C10.1706 6.09821 10.1621 6.1194 10.1621 6.14482C10.1621 6.17448 10.1451 6.18296 10.1282 6.18719C10.1028 6.18719 10.107 6.18719 10.0858 6.17872C10.0773 6.16601 10.0646 6.16177 10.0646 6.13635L10.0519 6.06855C10.0434 6.05584 10.0265 6.04737 10.0095 6.04313C9.91209 6.04313 9.90361 6.15753 9.91209 6.19991C9.90361 6.20838 9.89938 6.40753 10.0307 6.46261Z" fill="white"/>
<path fill-rule="evenodd" clip-rule="evenodd" d="M15.2649 8.67483C15.4429 8.75957 15.8709 8.71296 15.7649 8.43754L15.7565 8.30195C15.7183 8.21721 15.6209 8.23839 15.5997 8.32737C15.5912 8.3528 15.6124 8.39941 15.5827 8.41212C15.57 8.42907 15.5107 8.42059 15.5149 8.34432C15.5149 8.3189 15.498 8.28924 15.4853 8.27229C15.4726 8.26805 15.4683 8.26382 15.4429 8.26382C15.4217 8.26382 15.4217 8.27229 15.409 8.29348C15.4005 8.31466 15.3963 8.33585 15.3963 8.36127C15.3921 8.3867 15.3794 8.39517 15.3582 8.40364C15.337 8.40364 15.3412 8.40364 15.3243 8.39093C15.3116 8.37822 15.2988 8.37398 15.2988 8.3528L15.2861 8.285C15.2777 8.27229 15.2607 8.26382 15.2438 8.25958C15.1463 8.25958 15.1378 8.36975 15.1421 8.41212C15.1378 8.42059 15.1336 8.62398 15.2692 8.67483H15.2649ZM18.3157 7.75959C18.4937 7.84433 18.8284 7.8062 18.8157 7.5223L18.8073 7.38671C18.7691 7.30197 18.6717 7.32315 18.6505 7.4079C18.642 7.43756 18.6632 7.48417 18.6335 7.50112C18.6208 7.51383 18.5615 7.50535 18.5657 7.42485C18.5657 7.39942 18.5488 7.374 18.5361 7.35705C18.5234 7.34858 18.5191 7.34858 18.4937 7.34858C18.4725 7.34858 18.4725 7.35705 18.4598 7.37824L18.4471 7.4418C18.4429 7.47146 18.4301 7.48417 18.409 7.48417C18.3878 7.48417 18.392 7.48417 18.3751 7.47569C18.3624 7.46298 18.3496 7.45875 18.3496 7.43756C18.3496 7.41637 18.3454 7.38248 18.3369 7.36553C18.3285 7.35282 18.3115 7.34858 18.2946 7.34434C18.1971 7.34434 18.1886 7.45451 18.1929 7.49688C18.1886 7.50535 18.1844 7.7045 18.32 7.75959H18.3157ZM19.8962 10.0604C19.5869 10.4121 19.7225 10.9926 19.7945 11.1197C19.8962 11.3231 19.9767 11.4544 20.1759 11.5561C20.3581 11.6875 20.5021 11.607 20.5784 11.5138C20.7606 11.3231 20.7649 10.8358 20.8496 10.7426C20.9089 10.5646 21.0615 10.5943 21.1335 10.6748C21.2009 10.7705 21.2912 10.8477 21.3962 10.8994C21.5657 11.0477 21.7691 11.0773 21.9725 10.9417C22.1081 10.8612 22.197 10.7638 22.2775 10.5646C22.3623 10.3273 22.3199 9.22566 22.2987 8.57313L22.1208 7.66213C22.1208 7.65366 22.0996 7.22994 22.0784 7.13248C22.0784 7.09011 22.0657 7.0774 22.1081 7.08163C22.1547 7.12401 22.1589 7.12401 22.1928 7.13672C22.2352 7.14519 22.2775 7.06469 22.2479 6.99689L21.8242 6.20877C21.7903 6.17487 21.7437 6.14097 21.6886 6.21724C21.6561 6.24666 21.6302 6.28266 21.6127 6.32283C21.5951 6.36301 21.5863 6.40646 21.5869 6.45029C21.5996 6.63673 21.6292 6.8274 21.642 7.01384L21.8114 7.97145C21.8665 8.6494 21.8792 9.20871 21.9343 9.8909C21.9259 10.179 21.8369 10.429 21.7521 10.4672C21.7521 10.4672 21.625 10.5392 21.5403 10.4587C21.4767 10.4333 21.2267 10.0392 21.2267 10.0392C21.0996 9.9248 21.0149 9.95446 20.9259 10.0392C20.6716 10.285 20.5615 10.7341 20.3877 11.0477C20.3454 11.1197 20.2183 11.1748 20.0827 11.0434C19.7352 10.5646 19.9386 9.88667 19.8962 10.0604ZM18.3963 6.09013C18.5573 6.15368 18.6674 6.47995 18.6335 6.64096C18.5996 6.83164 18.5149 7.0435 18.4556 7.01808C18.3878 6.99265 18.4979 6.82316 18.4344 6.6452C18.4005 6.52656 18.1802 6.3147 18.2056 6.25538C18.1632 6.12402 18.2988 6.0647 18.3963 6.08589V6.09013Z" fill="white"/>
<path fill-rule="evenodd" clip-rule="evenodd" d="M20.4142 10.2549C20.4438 9.8651 20.3888 9.62781 20.3803 9.399C20.3718 9.17019 20.1218 7.42446 20.071 7.25497C20.0074 6.92447 20.3125 7.2126 20.2786 7.01769C20.1727 6.78041 19.9142 6.42872 19.8337 6.22109C19.7828 6.13635 19.804 6.05161 19.6939 6.19991C19.599 6.45993 19.5656 6.73838 19.5964 7.01345C19.8591 8.38207 20.1261 9.51765 20.0837 10.8185C20.2108 10.8185 20.3506 10.5346 20.4142 10.2549ZM23.143 6.64058C23.2913 6.71261 23.376 7.11938 23.3591 7.23379C23.3294 7.44565 23.2531 7.67446 23.198 7.6448C23.1345 7.61937 23.2107 7.33124 23.1811 7.24226C23.1472 7.11515 22.948 6.88634 22.9692 6.81854C22.9269 6.67448 23.054 6.61515 23.143 6.64058ZM12.3084 9.51765C12.4482 9.57273 12.533 9.86933 12.5203 9.95408C12.4864 10.1109 12.4143 10.2803 12.3592 10.2549C12.3042 10.238 12.372 10.0261 12.3465 9.95832C12.3338 9.80154 12.1389 9.71679 12.1431 9.649C12.1092 9.52188 12.2279 9.5007 12.3126 9.51765H12.3084Z" fill="white"/>
<path fill-rule="evenodd" clip-rule="evenodd" d="M15.6831 9.96675C15.8612 9.97523 15.9503 10.1194 15.7849 10.1788C15.6153 10.2339 15.4584 10.2806 15.4541 10.518C15.5177 10.8573 15.3693 10.7386 15.2845 10.6962C15.1827 10.6198 14.8944 10.4417 14.852 10.06C14.8477 9.97099 14.9198 9.89042 15.0343 9.89042C15.2039 9.93707 15.4584 9.94131 15.6831 9.96675Z" fill="#165D31"/>
<path fill-rule="evenodd" clip-rule="evenodd" d="M8.58226 5.99226C8.78565 6.05158 8.79836 6.35666 8.78565 6.44564C8.75598 6.60666 8.68395 6.78038 8.63311 6.7592C8.57378 6.73801 8.63311 6.51768 8.60345 6.44988C8.57378 6.35666 8.40006 6.1787 8.41701 6.12785C8.37887 6.02192 8.50175 5.97108 8.58226 5.99226ZM12.6457 7.41596C12.4847 7.50071 12.4254 7.75494 12.5229 7.90748C12.6161 8.0346 12.7602 7.98799 12.7771 7.98799C12.9339 8.00494 13.0271 7.69562 13.0271 7.69562C13.0271 7.69562 13.0313 7.61088 12.8491 7.77613C12.7686 7.78884 12.7644 7.75918 12.7432 7.71681C12.7238 7.63614 12.7312 7.55134 12.7644 7.47529C12.7941 7.39902 12.7347 7.36512 12.6457 7.41596ZM13.8322 5.87362C13.7474 5.9287 13.5906 6.09395 13.5864 6.28039C13.5822 6.38632 13.561 6.38632 13.6288 6.44988C13.6839 6.52615 13.7305 6.52191 13.8322 6.46683C13.8575 6.45088 13.8793 6.42983 13.896 6.40503C13.9128 6.38023 13.9242 6.35222 13.9296 6.32276C13.955 6.20412 13.8025 6.38208 13.7856 6.24649C13.7517 6.11938 13.8491 6.06853 13.9423 5.94989C13.9423 5.86514 13.9423 5.81006 13.8279 5.87362H13.8322ZM14.7813 6.04311C14.7439 6.1974 14.7213 6.35488 14.7135 6.51344C14.6881 6.63208 14.8406 6.68293 14.9042 6.53039C15.0059 6.25497 15.0059 6.13633 15.0144 6.02192C14.9847 5.83972 14.8618 5.84396 14.7813 6.04311ZM20.7982 9.10661C20.8151 9.08543 21.6456 8.49645 21.6456 8.49645C21.7303 8.46679 21.7092 8.80153 21.671 8.7973C21.4135 9.04552 21.1172 9.25017 20.7939 9.40322C20.7515 9.43288 20.7134 9.17864 20.7939 9.10661H20.7982ZM21.5481 9.09814C21.6964 9.17017 21.7558 9.59813 21.7388 9.71253C21.7388 9.94134 21.599 10.1193 21.5397 10.0939C21.4803 10.0642 21.5481 9.80999 21.5185 9.72101C21.4846 9.59389 21.3617 9.36085 21.3829 9.29305C21.3405 9.14898 21.4592 9.07271 21.5524 9.09814H21.5481ZM16.633 10.9371C16.7017 10.8569 16.7816 10.7869 16.8703 10.7295C16.955 10.6871 17.0313 10.7634 17.027 10.7591C17.0397 10.8439 16.9762 10.9159 16.9974 11.0261C17.0143 11.0684 17.027 11.1193 17.1075 11.1023C17.2389 10.9964 17.3618 10.9879 17.4889 10.9837C17.5948 10.9879 17.5991 11.1617 17.5313 11.1617C17.2897 11.2125 17.1838 11.2803 17.0101 11.3439C16.9253 11.3947 16.8575 11.3311 16.8575 11.3269C16.8575 11.3227 16.8109 11.2803 16.8406 11.1701C16.8491 11.0854 16.8152 11.0345 16.7389 11.043C16.6881 11.0769 16.6372 11.0939 16.6118 11.0303C16.5991 10.9879 16.5948 10.9625 16.633 10.9371ZM22.421 11.1659C22.4549 11.2083 22.4803 11.2506 22.4168 11.3269L22.26 11.4625C22.2346 11.5049 22.2176 11.5811 22.3024 11.6023C22.4549 11.6447 22.8108 11.4117 22.8108 11.4074C22.8701 11.365 22.8532 11.2803 22.8447 11.2803C22.8108 11.2422 22.7346 11.2676 22.6837 11.2591C22.6583 11.2591 22.5778 11.2506 22.6159 11.1744C22.6444 11.1369 22.6672 11.0955 22.6837 11.0515C22.7049 11.0006 22.6837 10.9667 22.599 10.9371C22.51 10.9201 22.4719 10.9286 22.3744 10.9371C22.3235 10.9456 22.3066 10.971 22.2939 11.0345C22.2981 11.132 22.3574 11.1278 22.421 11.1617V11.1659Z" fill="white"/>
<path fill-rule="evenodd" clip-rule="evenodd" d="M16.6632 8.75958C16.642 8.80195 16.5658 8.80195 16.4937 8.75958C16.4217 8.71721 16.3793 8.64941 16.4048 8.61128C16.4302 8.57314 16.5022 8.57314 16.5743 8.61128C16.6463 8.64941 16.6844 8.72145 16.6632 8.75958ZM12.8921 6.48844C12.8497 6.50115 12.7904 6.46301 12.765 6.40369C12.7396 6.34437 12.7523 6.29352 12.7947 6.28081C12.837 6.2681 12.8921 6.31047 12.9218 6.36556C12.9514 6.42064 12.9345 6.47996 12.8879 6.49267L12.8921 6.48844Z" fill="#165D31"/>
<path fill-rule="evenodd" clip-rule="evenodd" d="M20.3526 16.611C20.7509 16.628 21.1238 16.611 21.5179 16.6322C21.5899 16.6958 21.5391 16.8441 21.4925 16.8356L21.162 16.8229C21.1577 16.6958 20.8357 16.717 20.8442 16.8271C20.6704 16.8483 20.5137 16.8229 20.3357 16.8144C20.2848 16.7509 20.2933 16.6365 20.3526 16.611Z" fill="#165D31"/>
</g>
</g>
<defs>
<clipPath id="clip0_1717_30976">
<rect x="-0.00195312" y="0.850464" width="32.004" height="21.2877" rx="4" fill="white"/>
</clipPath>
</defs>
</svg>
