<svg width="32" height="32" viewBox="0 0 32 32" fill="none" xmlns="http://www.w3.org/2000/svg">
<rect y="4.57153" width="32" height="22.8571" rx="4" fill="white"/>
<mask id="mask0_2_689" style="mask-type:luminance" maskUnits="userSpaceOnUse" x="0" y="4" width="32" height="24">
<rect y="4.57153" width="32" height="22.8571" rx="4" fill="white"/>
</mask>
<g mask="url(#mask0_2_689)">
<path fill-rule="evenodd" clip-rule="evenodd" d="M32 4.57153H0V6.09534H32V4.57153ZM32 7.61915H0V9.14296H32V7.61915ZM0 10.6668H32V12.1906H0V10.6668ZM32 13.7144H0V15.2382H32V13.7144ZM0 16.762H32V18.2858H0V16.762ZM32 19.8096H0V21.3334H32V19.8096ZM0 22.8572H32V24.3811H0V22.8572ZM32 25.9049H0V27.4287H32V25.9049Z" fill="#D02F44"/>
<rect y="4.57153" width="13.7143" height="10.6667" fill="#46467F"/>
<g filter="url(#filter0_d_2_689)">
<path fill-rule="evenodd" clip-rule="evenodd" d="M2.28571 7.61927C2.7065 7.61927 3.04761 7.27815 3.04761 6.85736C3.04761 6.43658 2.7065 6.09546 2.28571 6.09546C1.86492 6.09546 1.5238 6.43658 1.5238 6.85736C1.5238 7.27815 1.86492 7.61927 2.28571 7.61927ZM5.33333 7.61927C5.75412 7.61927 6.09523 7.27815 6.09523 6.85736C6.09523 6.43658 5.75412 6.09546 5.33333 6.09546C4.91254 6.09546 4.57142 6.43658 4.57142 6.85736C4.57142 7.27815 4.91254 7.61927 5.33333 7.61927ZM9.14285 6.85736C9.14285 7.27815 8.80174 7.61927 8.38095 7.61927C7.96016 7.61927 7.61904 7.27815 7.61904 6.85736C7.61904 6.43658 7.96016 6.09546 8.38095 6.09546C8.80174 6.09546 9.14285 6.43658 9.14285 6.85736ZM11.4286 7.61927C11.8494 7.61927 12.1905 7.27815 12.1905 6.85736C12.1905 6.43658 11.8494 6.09546 11.4286 6.09546C11.0078 6.09546 10.6667 6.43658 10.6667 6.85736C10.6667 7.27815 11.0078 7.61927 11.4286 7.61927ZM4.57142 8.38117C4.57142 8.80196 4.23031 9.14308 3.80952 9.14308C3.38873 9.14308 3.04761 8.80196 3.04761 8.38117C3.04761 7.96038 3.38873 7.61927 3.80952 7.61927C4.23031 7.61927 4.57142 7.96038 4.57142 8.38117ZM6.85714 9.14308C7.27793 9.14308 7.61904 8.80196 7.61904 8.38117C7.61904 7.96038 7.27793 7.61927 6.85714 7.61927C6.43635 7.61927 6.09523 7.96038 6.09523 8.38117C6.09523 8.80196 6.43635 9.14308 6.85714 9.14308ZM10.6667 8.38117C10.6667 8.80196 10.3255 9.14308 9.90476 9.14308C9.48397 9.14308 9.14285 8.80196 9.14285 8.38117C9.14285 7.96038 9.48397 7.61927 9.90476 7.61927C10.3255 7.61927 10.6667 7.96038 10.6667 8.38117ZM11.4286 10.6669C11.8494 10.6669 12.1905 10.3258 12.1905 9.90498C12.1905 9.48419 11.8494 9.14308 11.4286 9.14308C11.0078 9.14308 10.6667 9.48419 10.6667 9.90498C10.6667 10.3258 11.0078 10.6669 11.4286 10.6669ZM9.14285 9.90498C9.14285 10.3258 8.80174 10.6669 8.38095 10.6669C7.96016 10.6669 7.61904 10.3258 7.61904 9.90498C7.61904 9.48419 7.96016 9.14308 8.38095 9.14308C8.80174 9.14308 9.14285 9.48419 9.14285 9.90498ZM5.33333 10.6669C5.75412 10.6669 6.09523 10.3258 6.09523 9.90498C6.09523 9.48419 5.75412 9.14308 5.33333 9.14308C4.91254 9.14308 4.57142 9.48419 4.57142 9.90498C4.57142 10.3258 4.91254 10.6669 5.33333 10.6669ZM3.04761 9.90498C3.04761 10.3258 2.7065 10.6669 2.28571 10.6669C1.86492 10.6669 1.5238 10.3258 1.5238 9.90498C1.5238 9.48419 1.86492 9.14308 2.28571 9.14308C2.7065 9.14308 3.04761 9.48419 3.04761 9.90498ZM3.80952 12.1907C4.23031 12.1907 4.57142 11.8496 4.57142 11.4288C4.57142 11.008 4.23031 10.6669 3.80952 10.6669C3.38873 10.6669 3.04761 11.008 3.04761 11.4288C3.04761 11.8496 3.38873 12.1907 3.80952 12.1907ZM7.61904 11.4288C7.61904 11.8496 7.27793 12.1907 6.85714 12.1907C6.43635 12.1907 6.09523 11.8496 6.09523 11.4288C6.09523 11.008 6.43635 10.6669 6.85714 10.6669C7.27793 10.6669 7.61904 11.008 7.61904 11.4288ZM9.90476 12.1907C10.3255 12.1907 10.6667 11.8496 10.6667 11.4288C10.6667 11.008 10.3255 10.6669 9.90476 10.6669C9.48397 10.6669 9.14285 11.008 9.14285 11.4288C9.14285 11.8496 9.48397 12.1907 9.90476 12.1907ZM12.1905 12.9526C12.1905 13.3734 11.8494 13.7145 11.4286 13.7145C11.0078 13.7145 10.6667 13.3734 10.6667 12.9526C10.6667 12.5318 11.0078 12.1907 11.4286 12.1907C11.8494 12.1907 12.1905 12.5318 12.1905 12.9526ZM8.38095 13.7145C8.80174 13.7145 9.14285 13.3734 9.14285 12.9526C9.14285 12.5318 8.80174 12.1907 8.38095 12.1907C7.96016 12.1907 7.61904 12.5318 7.61904 12.9526C7.61904 13.3734 7.96016 13.7145 8.38095 13.7145ZM6.09523 12.9526C6.09523 13.3734 5.75412 13.7145 5.33333 13.7145C4.91254 13.7145 4.57142 13.3734 4.57142 12.9526C4.57142 12.5318 4.91254 12.1907 5.33333 12.1907C5.75412 12.1907 6.09523 12.5318 6.09523 12.9526ZM2.28571 13.7145C2.7065 13.7145 3.04761 13.3734 3.04761 12.9526C3.04761 12.5318 2.7065 12.1907 2.28571 12.1907C1.86492 12.1907 1.5238 12.5318 1.5238 12.9526C1.5238 13.3734 1.86492 13.7145 2.28571 13.7145Z" fill="url(#paint0_linear_2_689)"/>
</g>
</g>
<defs>
<filter id="filter0_d_2_689" x="1.5238" y="6.09546" width="10.6666" height="9.61914" filterUnits="userSpaceOnUse" color-interpolation-filters="sRGB">
<feFlood flood-opacity="0" result="BackgroundImageFix"/>
<feColorMatrix in="SourceAlpha" type="matrix" values="0 0 0 0 0 0 0 0 0 0 0 0 0 0 0 0 0 0 127 0" result="hardAlpha"/>
<feOffset dy="2"/>
<feColorMatrix type="matrix" values="0 0 0 0 0 0 0 0 0 0 0 0 0 0 0 0 0 0 0.06 0"/>
<feBlend mode="normal" in2="BackgroundImageFix" result="effect1_dropShadow_2_689"/>
<feBlend mode="normal" in="SourceGraphic" in2="effect1_dropShadow_2_689" result="shape"/>
</filter>
<linearGradient id="paint0_linear_2_689" x1="1.5238" y1="6.09546" x2="1.5238" y2="13.7145" gradientUnits="userSpaceOnUse">
<stop stop-color="white"/>
<stop offset="1" stop-color="#F0F0F0"/>
</linearGradient>
</defs>
</svg>
