<?xml version="1.0" encoding="UTF-8"?>
<svg id="Layer_2" data-name="Layer 2" xmlns="http://www.w3.org/2000/svg" viewBox="0 0 652.99 99.5">
  <defs>
    <style>
      .cls-1 {
        fill: #fff;
      }

      .cls-2 {
        fill: #ff0400;
      }

      .cls-3 {
        fill: red;
      }
    </style>
  </defs>
  <g id="Layer_3" data-name="Layer 3">
    <g>
      <g>
        <path class="cls-2" d="m502.74,16.23l-15.68,33.99h-9.61l-15.73-33.99h8.3l12.23,28.11,12.19-28.11h8.3Z"/>
        <path class="cls-2" d="m528.51,16.23v33.99h-7.82V16.23h7.82Z"/>
        <path class="cls-2" d="m580.17,50.21h-30.3V16.23h29.81l-3.13,6.02h-18.86v7.52h20.63l-3.13,5.97h-17.5v8.45h19.35l3.13,6.02Z"/>
        <path class="cls-2" d="m652.99,16.23l-12.04,33.99h-9.18l-6.94-23.21-6.94,23.21h-9.18l-12.04-33.99h8.3l8.45,25.78,7.72-25.78h7.38l7.72,25.78,8.4-25.78h8.35Z"/>
        <path class="cls-3" d="m161.47,5.99l-12.96-5.99-15.23,1.56-.17.07-22.73,19.34-3.29-3.67c-.07-.08-.16-.13-.26-.15l-18.47-4.41h-.12c-.16-.01-17.48,1.7-17.48,1.7-.1,0-.2.07-.25.16l-21.34,37.86c-.07.13-.08.29-.03.43,0,0,6.25,15.38,6.27,15.41.08.2.29.31.49.31,0,0,3.89-.36,3.89-.36l.57-1.06-3.6.33,19.32-35.06s16.31,23.72,16.32,23.73c.03.04.06.07.1.1.08.07.18.09.28.12l10.99-.18-17.52,41.07c-.04.09-.03.2.02.29.05.09.14.14.24.15l22.26,1.75,16.36-4.46c.15-.04.26-.14.32-.28l30.36-67.1c.06-.13.06-.29,0-.42-.06-.13-.18-.23-.33-.27l-3.64-.95,9.85-7.89c.25-.2.4-.51.4-.83V7c0-.43-.25-.83-.64-1.01Zm-72.01,8.03l16.99,4.05,3.05,3.4-8.96,7.62-11.07-15.07Zm65.22,13.76l-30.02,66.34-15.54,4.24,32.28-74.05,13.28,3.47Zm-4.02-2.09l-9.42-2.46h-.09s-.02-.01-.02-.01c-.03,0-.07,0-.16.03-.05.02-.1.04-.18.1l-36.63,31.88-9.84.17,53.84-42.11,12.45,4.51-9.94,7.91Zm10.45-8.79l-12.55-4.55V1.13l12.55,5.81v9.98Z"/>
      </g>
      <g>
        <path class="cls-1" d="m229.56,22.25h-12.87v27.97h-7.82v-27.97h-12.87l3.13-6.02h30.42v6.02Z"/>
        <path class="cls-1" d="m276.36,50.21l-7.19-11.51h-12.38v11.51h-7.82V16.23h20.97c9.22,0,13.98,4.42,13.98,11.26,0,5.34-2.52,8.55-6.99,10.1l8.11,12.62h-8.69Zm-19.57-17.43h12.87c4.76,0,6.31-2.48,6.31-5.29s-1.46-5.24-6.31-5.24h-12.87v10.54Z"/>
        <path class="cls-1" d="m330.44,43.56h-18.64l-2.91,6.65h-8.3l15.73-33.99h9.61l15.68,33.99h-8.3l-2.86-6.65Zm-2.62-5.97l-6.7-15.44-6.7,15.44h13.4Z"/>
        <path class="cls-1" d="m395.49,33.22c0,13.55-9.9,16.99-20.49,16.99h-15.44V16.23h15.44c10.58,0,20.49,3.45,20.49,16.99Zm-8.01,0c0-8.74-5.15-10.97-13.25-10.97h-6.8v21.94h6.8c8.11,0,13.25-2.18,13.25-10.97Z"/>
        <g>
          <path class="cls-1" d="m439.29,31.83l1.31-2.76h-21.05c1.47-5.35,6.11-6.82,12.74-6.82h6.8l4.73-.07,3.13-5.95h-15.44c-10.21,0-19.79,3.21-20.45,15.61h28.23Z"/>
          <path class="cls-1" d="m439.09,44.19h-6.8c-6.63,0-11.26-1.51-12.74-6.82h17.12l1.31-2.76h-26.91c.66,12.39,10.24,15.6,20.45,15.6h15.44l-3.13-6.04-4.73.02Z"/>
        </g>
        <g>
          <path class="cls-1" d="m323.77,66.63v16.29h-3.75v-12.87l-5.47,12.87h-3.56l-5.47-12.87v12.87h-3.75v-16.29h5.84l5.14,12.52,5.17-12.52h5.84Z"/>
          <path class="cls-1" d="m358.32,79.73h-8.93l-1.4,3.19h-3.98l7.54-16.29h4.61l7.51,16.29h-3.98l-1.37-3.19Zm-1.26-2.86l-3.21-7.4-3.21,7.4h6.42Z"/>
          <path class="cls-1" d="m397.03,82.92l-3.44-5.51h-5.93v5.51h-3.75v-16.29h10.05c4.42,0,6.7,2.12,6.7,5.4,0,2.56-1.21,4.09-3.35,4.84l3.89,6.05h-4.16Zm-9.38-8.35h6.16c2.28,0,3.02-1.19,3.02-2.54s-.7-2.51-3.02-2.51h-6.16v5.05Z"/>
          <path class="cls-1" d="m429.15,75.38l-3.51,3.19v4.35h-3.75v-16.29h3.75v7.7l8.26-7.7h4.86l-6.98,6.35,7.31,9.93h-4.44l-5.49-7.54Z"/>
          <path class="cls-1" d="m474.08,82.92h-14.52v-16.29h14.28v2.88h-10.54v3.61h9.89v2.86h-9.89v4.05h10.77v2.88Z"/>
          <path class="cls-1" d="m510.39,69.52h-6.16v13.4h-3.75v-13.4h-6.17v-2.88h16.08v2.88Z"/>
          <path class="cls-1" d="m547.22,77.85c0,3.54-2.91,5.42-8.7,5.42s-8.58-2.12-8.58-5.42h3.91c.09,1.7,2.05,2.56,5,2.56s4.4-.81,4.4-2.05c0-1.67-2.51-1.51-6.96-2.26-4.44-.74-5.84-2.09-5.84-4.65s1.81-5.14,7.79-5.14,7.98,2.19,8.07,5.07h-3.63c-.14-1.16-1.49-2.21-4.49-2.21-3.35,0-4.14.91-4.14,2.02,0,1.54,2.7,1.63,5.56,2.02,4.49.63,7.61,1,7.61,4.63Z"/>
        </g>
        <path class="cls-1" d="m87.01,93.24l15.44-35.26c.03-.08.05-.17.01-.34,0-.04-.02-.1-.08-.17l-.93-1.2h0c-.42,0-.7.01-1.25.02l.82,1.05-11.51.77-12.92-17.24,5.46.24c-.24-.35-.48-.69-.71-1.03l-5.8-.25c-.16,0-.31.08-.43.27l-14.72,27.11h0s-.57,1.06-.57,1.06h0s-4.52,8.33-4.52,8.33l-14.89-38.21,15.72,1.77.53-.94-12.04-1.36,13.02-.37h0s.57-1.02.57-1.02l-29.08.83-13.72-.93,38.95-1.8,4.8.22.55-.98-3.84-.18-.63-.03,10.91-18.29,3.56.75.52-.92-3.58-.75L.29,19.85c-.1,0-.19.06-.24.15-.05.08-.06.19-.03.28l6.32,16.38s.01.05.03.06c.05.02.11.04.17.04l20.08,1.36-7.36.37c-.1,0-.19.06-.25.14-.06.08-.07.19-.03.28l21.18,55.07c.04.11.15.19.27.2l31.23,2.43,14.98-3.08c.16-.03.29-.14.36-.29Zm-15.15,2.31l17.73-36.44,11.61-.77-15,34.27-14.34,2.95Z"/>
      </g>
    </g>
  </g>
</svg>