<svg width="160" height="38" viewBox="0 0 160 38" fill="none" xmlns="http://www.w3.org/2000/svg">
<path d="M60.5222 23.8745L51.8391 1.06535H56.8107L63.0958 18.5248L69.4115 1.06535H74.3907L65.7458 23.8745H60.5222Z" fill="#43586B"/>
<path d="M82.2949 24.2271C80.294 24.2271 78.7361 23.6676 77.6211 22.5409C76.4985 21.4219 75.941 19.7741 75.941 17.5974V7.07422H80.7064V17.4901C80.7064 18.6244 80.9737 19.4445 81.5159 19.9504C82.0581 20.4562 82.8676 20.7092 83.9521 20.7092C84.7769 20.7092 85.5329 20.5405 86.2279 20.211C86.9228 19.8814 87.5109 19.4675 88.0073 18.9693V7.06656H92.7727V23.8592H88.3586L88.1829 22.265C87.4727 22.8322 86.6479 23.2997 85.6933 23.6676C84.7387 24.0355 83.6084 24.2194 82.2872 24.2194L82.2949 24.2271Z" fill="#43586B"/>
<path d="M128.865 24.2271C127.811 24.2271 126.825 24.0355 125.917 23.6446C125.016 23.2537 124.282 22.6789 123.725 21.9125C123.175 21.146 122.9 20.1803 122.9 19.023C122.9 17.3675 123.481 16.0492 124.649 15.0528C125.81 14.0565 127.536 13.566 129.819 13.566H134.76V13.1061C134.76 12.0637 134.47 11.3356 133.897 10.9064C133.324 10.4849 132.164 10.2703 130.422 10.2703C128.513 10.2703 126.68 10.5692 124.916 11.1517V7.78701C125.695 7.48044 126.642 7.22751 127.757 7.02824C128.872 6.82896 130.094 6.72933 131.408 6.72933C133.928 6.72933 135.868 7.24284 137.25 8.26987C138.624 9.29689 139.312 10.9447 139.312 13.2134V23.8745H135.18L134.936 22.3493C134.271 22.9395 133.462 23.3994 132.5 23.7289C131.537 24.0585 130.323 24.2271 128.865 24.2271ZM130.17 21.077C131.232 21.077 132.148 20.9008 132.92 20.5482C133.699 20.1956 134.31 19.7434 134.753 19.1993V16.5397H129.918C128.063 16.5397 127.131 17.3062 127.131 18.839C127.131 20.3719 128.139 21.0694 130.17 21.0694V21.077Z" fill="#43586B"/>
<path d="M155.235 13.3514V28.5651L160 23.8745V13.1061C160 10.9371 159.496 9.32755 158.48 8.29286C157.472 7.2505 155.861 6.73699 153.646 6.73699C152.493 6.73699 151.393 6.9286 150.347 7.31948C149.301 7.71037 148.438 8.16257 147.75 8.68374L147.575 7.08955H143.161V23.8822H147.926V11.9794C148.423 11.4812 149.041 11.075 149.782 10.7378C150.523 10.4082 151.256 10.2396 151.989 10.2396C153.241 10.2396 154.089 10.4772 154.547 10.9524C155.005 11.4276 155.235 12.2247 155.235 13.359V13.3514Z" fill="#43586B"/>
<path d="M122.091 7.08189H116.653L110.406 13.1367V0H110.376L105.641 4.65994V23.8745H110.406V18.3485L112.354 16.4708L117.432 23.8745H122.48L115.355 13.9568L122.091 7.08189Z" fill="#43586B"/>
<path d="M96.8355 4.56797V23.8745H101.494V0H101.479L96.8355 4.56797Z" fill="#43586B"/>
<path d="M25.6751 5.21178L10.5083 18.3332V5.22711L5.52909 9.52682V28.3965L32.3345 5.21178H25.6751Z" fill="#263340"/>
<path d="M20.5432 25.5147L26.1639 32.7882L31.082 32.7346L20.8639 19.4829L5.52909 32.7346V32.7882H12.135L20.5432 25.5147Z" fill="#43586B"/>
<path d="M37.8636 38H0V0H37.8636V38ZM1.28299 36.7124H36.5806V1.28762H1.28299V36.7124Z" fill="#43586B"/>
<path d="M124.427 37.885V30.5272H127.864C128.437 30.5272 128.91 30.6345 129.285 30.8568C129.651 31.0791 129.926 31.378 130.109 31.7612C130.293 32.1444 130.384 32.5736 130.384 33.0641C130.384 33.5547 130.277 33.9992 130.071 34.3747C129.865 34.758 129.567 35.0492 129.185 35.2638C128.803 35.4708 128.345 35.5781 127.826 35.5781H125.97V37.885H124.427ZM125.962 34.3518H127.497C127.94 34.3518 128.269 34.2368 128.498 33.9992C128.719 33.7693 128.834 33.455 128.834 33.0565C128.834 32.6273 128.727 32.3054 128.513 32.0754C128.299 31.8532 127.979 31.7382 127.559 31.7382H125.962V34.3518Z" fill="#43586B"/>
<path d="M131.24 32.4663H132.66L132.729 33.0258C132.973 32.8725 133.271 32.7346 133.638 32.6119C133.996 32.4893 134.355 32.3973 134.699 32.359V33.524C134.493 33.5547 134.271 33.6006 134.027 33.662C133.783 33.7233 133.554 33.7923 133.332 33.8689C133.111 33.9455 132.927 34.0222 132.775 34.1065V37.8927H131.24V32.4663Z" fill="#43586B"/>
<path d="M135.982 37.885V33.6083H135.173L135.31 32.4663H137.517V37.885H135.982ZM135.86 31.4699V30.259H137.532V31.4699H135.86Z" fill="#43586B"/>
<path d="M138.831 37.885V32.4663H140.251L140.305 32.9952C140.564 32.7959 140.847 32.6426 141.152 32.5276C141.458 32.4127 141.794 32.359 142.145 32.359C142.527 32.359 142.817 32.4127 143.031 32.5276C143.245 32.6426 143.397 32.8036 143.512 33.0182C143.764 32.8189 144.047 32.6579 144.375 32.5353C144.696 32.4127 145.078 32.3513 145.521 32.3513C146.147 32.3513 146.605 32.5123 146.895 32.8342C147.193 33.1561 147.338 33.6543 147.338 34.3134V37.8774H145.826V34.482C145.826 34.1218 145.75 33.8689 145.597 33.7079C145.444 33.547 145.2 33.4703 144.871 33.4703C144.413 33.4703 144.039 33.6313 143.733 33.9609C143.772 34.0912 143.787 34.2444 143.787 34.4284V37.8697H142.351V34.4744C142.351 34.1371 142.298 33.8842 142.183 33.7233C142.069 33.5623 141.847 33.4703 141.519 33.4703C141.29 33.4703 141.076 33.5317 140.877 33.6466C140.679 33.7616 140.495 33.8996 140.335 34.0528V37.8697H138.823L138.831 37.885Z" fill="#43586B"/>
<path d="M151.233 38C150.301 38 149.56 37.7624 149.011 37.2949C148.461 36.8274 148.193 36.1146 148.193 35.1642C148.193 34.3058 148.423 33.616 148.881 33.1101C149.339 32.6043 150.026 32.3513 150.935 32.3513C151.767 32.3513 152.409 32.5736 152.852 33.0105C153.295 33.4474 153.516 34.0222 153.516 34.735V35.716H149.606C149.69 36.1529 149.889 36.4441 150.202 36.6051C150.515 36.766 150.966 36.8427 151.538 36.8427C151.829 36.8427 152.119 36.812 152.424 36.766C152.722 36.7124 152.982 36.6434 153.196 36.5591V37.6551C152.944 37.7701 152.653 37.8544 152.317 37.9157C151.981 37.9693 151.615 38 151.225 38H151.233ZM149.614 34.7656H152.18V34.4667C152.18 34.1525 152.088 33.9072 151.905 33.7309C151.722 33.5547 151.416 33.4627 150.981 33.4627C150.469 33.4627 150.118 33.5623 149.919 33.7693C149.721 33.9762 149.614 34.3058 149.614 34.7656Z" fill="#43586B"/>
</svg>
