<svg width="306" height="71" viewBox="0 0 306 71" fill="none" xmlns="http://www.w3.org/2000/svg">
<path d="M46.5768 11.4258L19.0605 35.1376V11.4439L10.0339 19.2253V53.3316L58.6588 11.4258H46.5768Z" fill="#9C7EB7"/>
<path d="M37.2696 48.1191L47.4642 61.267L56.3897 61.1785L37.8466 37.2227L10.032 61.1785V61.267H22.0135L37.2696 48.1191Z" fill="white"/>
<path d="M68.6939 70.6939H0V2H68.6939V70.6939ZM2.32462 68.3693H66.3693V4.32462H2.32462V68.3693Z" fill="white"/>
<path d="M131.173 2.65513H140.687L122.716 41.6016H111.7L93.6733 2.65513H103.187L117.208 34.8694L131.173 2.65513ZM154.399 42.4361C146.777 42.4361 142.326 38.2633 142.326 31.5868V11.9466H150.783V29.4725C150.783 33.0333 152.841 36.0934 158.071 36.0934C163.301 36.0934 165.638 32.9221 165.638 29.4725V11.9466H174.095V41.6016H165.638V37.4287C164.359 39.2091 160.742 42.4361 154.399 42.4361ZM180.794 0.540891H189.251V41.6016H180.794V0.540891ZM219.321 41.6016L209.918 29.0831L204.41 34.2017V41.6016H195.953V2.65513H204.41V24.8546L218.097 11.9466H228.39L215.705 23.7418L229.113 41.6016H219.321ZM247.21 11.1677C255.722 11.1677 263.178 13.6158 263.178 22.3509V41.6016H254.721V37.6513C253.441 39.5986 249.157 42.4361 242.536 42.4361C235.581 42.4361 230.797 39.543 230.797 33.701C230.797 27.4696 234.024 22.4622 254.721 23.7418V22.3509C254.721 19.2352 253.33 16.954 247.21 16.954C242.091 16.954 240.477 18.4563 240.032 20.5148H232.132C233.078 13.9496 239.087 11.1677 247.21 11.1677ZM254.721 32.9221V28.7492C243.482 28.1372 239.309 29.1943 239.309 33.4228C239.309 36.2047 241.368 37.3175 245.04 37.3175C249.602 37.3175 253.163 35.537 254.721 32.9221ZM289.543 11.1677C297.165 11.1677 301.616 15.2849 301.616 21.9614V41.6016H293.159V24.0757C293.159 20.5148 291.101 17.4548 285.871 17.4548C280.641 17.4548 278.304 20.6261 278.304 24.0757V41.6016H269.847V11.9466H278.304V16.1195C279.584 14.3391 283.2 11.1677 289.543 11.1677Z" fill="white"/>
<path d="M110.088 61.7266C111.972 62.2782 112.984 63.3813 112.984 65.3577C112.984 68.2763 111.329 70.0918 106.756 70.0918H96.8508V54.0049H107.031C110.892 54.0049 112.386 55.4757 112.386 58.1186C112.386 59.8652 111.628 60.9912 110.088 61.6117V61.7266ZM106.985 56.372H99.6775V60.8533H106.985C109.077 60.8533 109.697 59.9111 109.697 58.6242C109.697 57.2453 108.985 56.372 106.985 56.372ZM107.077 67.7247C109.536 67.7247 110.088 66.5987 110.088 65.2198C110.088 63.8409 109.238 63.0595 107.077 63.0595H99.6775V67.7247H107.077ZM123.262 57.4981C123.814 57.4981 124.136 57.5211 124.618 57.59V60.3937H124.526C124.044 60.2558 123.423 60.1639 122.642 60.1639C119.539 60.1639 118.367 61.9564 118.367 63.8639V70.0918H115.518V57.8428H118.367V60.1409C118.919 59.2447 120.619 57.4981 123.262 57.4981ZM132.784 57.4981C136.369 57.4981 139.816 59.4515 139.816 63.9788C139.816 68.5061 136.369 70.4365 132.784 70.4365C129.199 70.4365 125.775 68.5061 125.775 63.9788C125.775 59.4515 129.199 57.4981 132.784 57.4981ZM132.784 68.3452C136.07 68.3452 137.196 66.116 137.196 63.9788C137.196 61.8186 136.07 59.5894 132.784 59.5894C129.498 59.5894 128.372 61.8186 128.372 63.9788C128.372 66.116 129.498 68.3452 132.784 68.3452ZM151.764 70.0918L147.605 64.5303L144.962 67.0123V70.0918H142.112V54.0049H144.962V63.7949L151.282 57.8428H154.821L149.604 62.6918L155.119 70.0918H151.764ZM162.473 57.4981C166.357 57.4981 169.482 59.7962 169.16 64.8751H158.129C158.451 66.9664 159.945 68.3452 162.519 68.3452C164.909 68.3452 165.92 67.1962 166.334 66.3229H168.816C168.195 68.8278 165.805 70.4365 162.519 70.4365C159.026 70.4365 155.579 68.4371 155.579 63.9788C155.579 59.5894 158.957 57.4981 162.473 57.4981ZM158.198 62.8067H166.633C166.265 60.8763 164.932 59.5894 162.473 59.5894C160.198 59.5894 158.635 60.8763 158.198 62.8067ZM179.234 57.4981C179.786 57.4981 180.107 57.5211 180.59 57.59V60.3937H180.498C180.016 60.2558 179.395 60.1639 178.614 60.1639C175.511 60.1639 174.339 61.9564 174.339 63.8639V70.0918H171.489V57.8428H174.339V60.1409C174.891 59.2447 176.591 57.4981 179.234 57.4981ZM197.415 60.8074C201.966 61.4279 204.7 62.1173 204.7 65.2428C204.7 68.2763 202.425 70.4365 196.795 70.4365C190.797 70.4365 188.407 68.2073 188.407 65.3117H191.44C191.532 66.9893 193.417 68.0465 196.887 68.0465C199.874 68.0465 201.759 67.3111 201.759 65.5875C201.759 63.6571 199.093 63.8179 194.612 63.0825C190.751 62.462 188.958 61.221 188.958 58.6012C188.958 55.7975 191.004 53.6832 196.312 53.6832C201.828 53.6832 203.919 56.1882 203.919 58.4863H201.023C200.886 57.3142 199.668 56.0732 196.243 56.0732C192.658 56.0732 191.808 57.1534 191.808 58.3944C191.808 60.1409 193.968 60.3248 197.415 60.8074ZM213.084 57.4981C216.669 57.4981 220.116 59.4515 220.116 63.9788C220.116 68.5061 216.669 70.4365 213.084 70.4365C209.499 70.4365 206.074 68.5061 206.074 63.9788C206.074 59.4515 209.499 57.4981 213.084 57.4981ZM213.084 68.3452C216.37 68.3452 217.496 66.116 217.496 63.9788C217.496 61.8186 216.37 59.5894 213.084 59.5894C209.797 59.5894 208.671 61.8186 208.671 63.9788C208.671 66.116 209.797 68.3452 213.084 68.3452ZM222.412 53.1317H225.238V70.0918H222.412V53.1317ZM238.078 57.8428H240.905V70.0918H238.078V68.2073C237.503 69.0117 235.941 70.4365 233.39 70.4365C230.195 70.4365 228.449 68.621 228.449 65.7713V57.8428H231.275V64.921C231.275 66.9893 232.402 68.1384 234.631 68.1384C236.86 68.1384 238.078 66.8514 238.078 64.921V57.8428ZM251.887 60.003H248.187V65.5185C248.187 67.5868 249.014 68.1614 251.887 67.8626V70.0688C251.473 70.1837 250.853 70.2756 250.278 70.2756C246.555 70.2756 245.36 68.7589 245.36 65.5185V60.003H242.97V57.8428H245.36V54.6714H248.187V57.8428H251.887V60.003ZM254.639 70.0918V57.8428H257.466V70.0918H254.639ZM256.041 56.1422C255.168 56.1422 254.547 55.6366 254.547 54.7633C254.547 53.89 255.168 53.3844 256.041 53.3844C256.937 53.3844 257.558 53.89 257.558 54.7633C257.558 55.6366 256.937 56.1422 256.041 56.1422ZM266.766 57.4981C270.351 57.4981 273.799 59.4515 273.799 63.9788C273.799 68.5061 270.351 70.4365 266.766 70.4365C263.181 70.4365 259.757 68.5061 259.757 63.9788C259.757 59.4515 263.181 57.4981 266.766 57.4981ZM266.766 68.3452C270.053 68.3452 271.179 66.116 271.179 63.9788C271.179 61.8186 270.053 59.5894 266.766 59.5894C263.48 59.5894 262.354 61.8186 262.354 63.9788C262.354 66.116 263.48 68.3452 266.766 68.3452ZM283.609 57.4981C286.804 57.4981 288.55 59.3136 288.55 62.1633V70.0918H285.724V63.0136C285.724 60.9453 284.597 59.7962 282.368 59.7962C280.139 59.7962 278.921 61.0832 278.921 63.0136V70.0918H276.094V57.8428H278.921V59.7273C279.496 58.9229 281.058 57.4981 283.609 57.4981ZM298.217 62.9217C301.687 63.5192 303.641 63.9788 303.641 66.3918C303.641 69.2415 301.274 70.4365 297.183 70.4365C293.46 70.4365 290.61 69.1496 290.61 66.3688H293.529C293.529 67.7017 294.839 68.2993 297.413 68.2993C299.918 68.2993 300.814 67.6788 300.814 66.7595C300.814 65.4036 298.769 65.3806 295.643 64.8061C292.472 64.2086 291.07 63.4732 291.07 61.29C291.07 58.831 293.368 57.4981 296.976 57.4981C300.906 57.4981 303.02 59.0608 303.02 61.336H300.377C300.377 60.5546 299.55 59.5894 296.93 59.5894C294.471 59.5894 293.621 60.2099 293.621 61.1521C293.621 62.3931 296.034 62.554 298.217 62.9217Z" fill="white"/>
</svg>
