<svg xmlns="http://www.w3.org/2000/svg" width="331" height="58" fill="none"><path fill="url(#a)" d="M35.169 8.184a8.647 8.647 0 0 0-11.694-3.578 8.647 8.647 0 0 0-3.573 11.695L37.708 49.79a8.647 8.647 0 0 0 11.694 3.577 8.647 8.647 0 0 0 3.573-11.695z"/><path fill="url(#b)" d="M19.619 7.838 3.655 42.073a8.647 8.647 0 0 0 4.18 11.492 8.647 8.647 0 0 0 11.49-4.185L35.29 15.146a8.647 8.647 0 0 0-4.18-11.492 8.647 8.647 0 0 0-11.491 4.184"/><path fill="url(#c)" d="m87.09 8.395-15.705 33.68a8.647 8.647 0 0 0 4.18 11.491 8.647 8.647 0 0 0 11.49-4.184l15.706-33.68c2.018-4.329.146-9.474-4.18-11.492A8.647 8.647 0 0 0 87.09 8.395"/><path fill="url(#d)" d="M102.701 7.82a8.647 8.647 0 1 0-15.267 8.118l17.999 33.851a8.647 8.647 0 0 0 11.694 3.578c4.216-2.242 5.815-7.478 3.573-11.695z"/><path fill="url(#e)" d="m53.22 8.395-15.706 33.68a8.647 8.647 0 0 0 4.18 11.492 8.647 8.647 0 0 0 11.491-4.185l15.705-33.68a8.647 8.647 0 0 0-4.18-11.491 8.647 8.647 0 0 0-11.49 4.184"/><path fill="url(#f)" d="M68.838 7.818a8.647 8.647 0 0 0-11.694-3.577 8.647 8.647 0 0 0-3.573 11.695l17.999 33.85a8.647 8.647 0 0 0 11.693 3.578 8.647 8.647 0 0 0 3.574-11.695z"/><path fill="#ECF1F7" d="M162.477 42.723h-2.894V23.982l-9.867 18.74h-1.944l-9.903-18.74v18.74h-2.894V17.207h2.627l11.121 21.03 11.121-21.03h2.627v25.523zM188.191 42.687h-2.93v-3.05c-1.599 2.36-3.965 3.544-7.085 3.544q-3.39 0-5.469-2.212c-1.385-1.474-2.074-3.4-2.074-5.79V23.94h2.93v10.706q0 2.63 1.427 4.226c.951 1.064 2.205 1.6 3.75 1.6 2.009 0 3.59-.655 4.761-1.962 1.165-1.308 1.754-3.157 1.754-5.54v-9.03h2.93v18.742zM199.27 37.926q.001 1.143.725 1.83c.481.459 1.129.684 1.944.684q1.106.002 2.246-.612l.613 2.437q-1.641.952-3.317.951-2.326 0-3.715-1.408-1.39-1.408-1.391-3.733v-24.68h2.895zM221.138 41.736q-2.133 1.488-4.345 1.486c-1.902 0-3.418-.553-4.535-1.658q-1.677-1.66-1.677-4.702V26.39h-4.077v-2.437h4.077v-6.74h2.931v6.74h6.705v2.437h-6.705v10.283q-.001 1.792.933 2.8.936 1.008 2.532 1.01c1.064 0 2.134-.38 3.198-1.141l.951 2.401zM229.953 16.896q.588.57.588 1.373c0 .535-.19 1.023-.57 1.391q-.571.553-1.445.553c-.582 0-1.028-.184-1.408-.553q-.571-.552-.571-1.39c0-.56.19-.993.571-1.374q.57-.57 1.408-.57t1.427.57m-2.877 25.827V23.946h2.93v18.777zM266.544 42.723h-3.958V26.419l-8.762 16.304h-2.514l-8.761-16.304v16.304h-3.959V17.206h3.578l10.402 19.311 10.438-19.311h3.542v25.523zM293.511 42.723l-2.514-5.944H278.58l-2.514 5.944h-4.422l11.24-25.523h3.81l11.24 25.523h-4.423m-8.725-20.53-4.613 10.853h9.219zM330.994 42.723h-3.958V26.419l-8.762 16.304h-2.514l-8.761-16.304v16.304h-3.959V17.206h3.578l10.402 19.311 10.438-19.311H331v25.523z"/><defs><linearGradient id="a" x1="50.237" x2="22.639" y1="52.89" y2="5.083" gradientUnits="userSpaceOnUse"><stop offset=".4" stop-color="#8D0000"/><stop offset="1" stop-color="#530000"/></linearGradient><linearGradient id="b" x1="19.472" x2="19.472" y1="54.382" y2="2.848" gradientUnits="userSpaceOnUse"><stop stop-color="#BC0000"/><stop offset=".27" stop-color="#B60000"/><stop offset=".62" stop-color="#A60000"/><stop offset="1" stop-color="#8D0000"/></linearGradient><linearGradient id="c" x1="66.402" x2="107.742" y1="40.822" y2="16.957" gradientUnits="userSpaceOnUse"><stop offset=".4" stop-color="#8D0000"/><stop offset="1" stop-color="#530000"/></linearGradient><linearGradient id="d" x1="117.975" x2="90.169" y1="52.884" y2="4.726" gradientUnits="userSpaceOnUse"><stop stop-color="#BC0000"/><stop offset=".27" stop-color="#B60000"/><stop offset=".62" stop-color="#A60000"/><stop offset="1" stop-color="#8D0000"/></linearGradient><linearGradient id="e" x1="36.698" x2="69.705" y1="28.891" y2="28.891" gradientUnits="userSpaceOnUse"><stop stop-color="red"/><stop offset=".18" stop-color="#EC0000"/><stop offset=".5" stop-color="#D10000"/><stop offset=".78" stop-color="#C10000"/><stop offset="1" stop-color="#BC0000"/></linearGradient><linearGradient id="f" x1="52.411" x2="87.546" y1="28.638" y2="28.748" gradientUnits="userSpaceOnUse"><stop stop-color="red"/><stop offset=".22" stop-color="#F70000"/><stop offset=".55" stop-color="#E20000"/><stop offset=".96" stop-color="#C00000"/><stop offset="1" stop-color="#BC0000"/></linearGradient></defs></svg>