<svg width="250" height="212" viewBox="0 0 250 212" fill="none" xmlns="http://www.w3.org/2000/svg">
<g clip-path="url(#clip0_379_31453)">
<path d="M199.566 77.8354C199.566 64.3304 196.052 51.058 189.37 39.3226C182.689 27.5873 173.069 17.7929 161.457 10.9023C149.845 4.01167 136.64 0.261914 123.14 0.0216028C109.641 -0.218709 96.3107 3.0587 84.4608 9.53168C72.6109 16.0047 62.649 25.4504 55.5541 36.9405C48.4591 48.4307 44.4755 61.5696 43.9947 75.066C43.5139 88.5624 46.5524 101.952 52.8117 113.918C59.071 125.884 68.3355 136.015 79.6947 143.315C82.3328 145.003 84.5049 147.326 86.0117 150.072C87.5186 152.818 88.3119 155.898 88.3189 159.03V179.813C88.3189 180.787 88.7058 181.721 89.3943 182.41C90.0829 183.099 91.0168 183.485 91.9906 183.485H151.507C152.479 183.484 153.411 183.096 154.098 182.407C154.785 181.719 155.171 180.786 155.171 179.813V159.03C155.165 155.913 155.944 152.844 157.436 150.108C158.929 147.371 161.086 145.054 163.71 143.372C174.706 136.337 183.754 126.646 190.021 115.192C196.287 103.739 199.57 90.8916 199.566 77.8354Z" fill="#FFD255"/>
<path d="M153.713 183.486H90.3265C88.6209 183.486 87.2383 184.869 87.2383 186.575V186.582C87.2383 188.288 88.6209 189.671 90.3265 189.671H153.713C155.419 189.671 156.802 188.288 156.802 186.582V186.575C156.802 184.869 155.419 183.486 153.713 183.486Z" fill="url(#paint0_linear_379_31453)"/>
<path d="M153.713 189.67H90.3265C88.6209 189.67 87.2383 191.053 87.2383 192.759V192.766C87.2383 194.472 88.6209 195.855 90.3265 195.855H153.713C155.419 195.855 156.802 194.472 156.802 192.766V192.759C156.802 191.053 155.419 189.67 153.713 189.67Z" fill="url(#paint1_linear_379_31453)"/>
<path d="M152.532 195.848H91.5077C89.1498 195.848 87.2383 197.76 87.2383 200.119V203.948C87.2383 206.306 89.1498 208.218 91.5077 208.218H152.532C154.89 208.218 156.802 206.306 156.802 203.948V200.119C156.802 197.76 154.89 195.848 152.532 195.848Z" fill="#5B4EFC"/>
<path d="M172.299 49.1667C172.135 49.5937 171.793 49.5937 171.53 49.6934C170.134 50.2187 168.769 50.8198 167.438 51.494C165.792 52.3067 164.457 53.6368 163.639 55.2805C162.92 56.6887 162.285 58.1385 161.739 59.6221C161.668 59.8142 161.625 60.0918 161.404 60.1132C161.184 60.1345 161.105 59.8071 161.02 59.6078C160.479 58.3409 159.96 57.0741 159.405 55.8214C158.532 53.7615 156.895 52.1208 154.837 51.2449C153.826 50.7965 152.809 50.3624 151.798 49.9211C151.284 49.7736 150.801 49.5323 150.375 49.2094C152.88 48.0635 155.584 47.3944 157.491 45.4514C159.398 43.5084 160.138 40.7753 161.333 38.1348C162.507 40.8038 163.212 43.5297 165.183 45.4728C167.154 47.4158 169.851 48.1062 172.299 49.1667Z" fill="white"/>
<path d="M174.412 66.6042C174.356 66.7466 174.242 66.7466 174.156 66.7822C173.669 66.9556 173.194 67.16 172.733 67.3942C172.179 67.6685 171.73 68.1157 171.452 68.6683C171.208 69.143 170.994 69.6327 170.812 70.1344C170.812 70.1985 170.769 70.2981 170.698 70.3052C170.627 70.3124 170.598 70.1985 170.563 70.1344C170.385 69.7074 170.207 69.2732 170.022 68.8533C169.726 68.1584 169.173 67.6049 168.478 67.3088L167.453 66.8604C167.282 66.8116 167.12 66.732 166.977 66.6256C167.849 66.3454 168.665 65.9142 169.389 65.3516C169.977 64.6147 170.427 63.7782 170.719 62.8818C170.994 63.7805 171.433 64.6203 172.014 65.3587C172.729 65.9208 173.542 66.3433 174.412 66.6042Z" fill="white"/>
<path d="M80.5336 120.483C80.5336 120.554 80.4553 120.547 80.4055 120.568C80.1631 120.655 79.9256 120.755 79.6939 120.867C79.4202 121.004 79.1981 121.227 79.0606 121.5C78.94 121.731 78.8331 121.969 78.7404 122.212C78.7404 122.248 78.7404 122.29 78.6906 122.298C78.6408 122.305 78.6408 122.241 78.6195 122.212C78.5341 121.999 78.4487 121.785 78.3562 121.579C78.2118 121.231 77.9354 120.954 77.5877 120.81L77.0825 120.589C76.9973 120.568 76.9174 120.529 76.8477 120.476C77.281 120.338 77.686 120.123 78.0431 119.842C78.3285 119.479 78.5455 119.066 78.6835 118.625C78.8216 119.068 79.0385 119.483 79.3239 119.849C79.6841 120.134 80.0944 120.349 80.5336 120.483Z" fill="white"/>
<path d="M98.2724 195.55C98.2724 195.635 98.1728 195.635 98.1158 195.656C97.8267 195.763 97.544 195.887 97.2691 196.026C96.9313 196.197 96.657 196.471 96.4863 196.809C96.344 197.101 96.2088 197.393 96.095 197.699C96.095 197.742 96.095 197.799 96.0309 197.806C95.9669 197.813 95.9669 197.742 95.9455 197.699C95.8388 197.436 95.7321 197.179 95.6182 196.916C95.4371 196.492 95.0976 196.155 94.6718 195.977L94.0457 195.706C93.9411 195.672 93.8426 195.622 93.7539 195.557C94.2905 195.391 94.7921 195.128 95.234 194.781C95.5873 194.33 95.855 193.819 96.0238 193.272C96.1881 193.823 96.4562 194.338 96.8137 194.788C97.2502 195.127 97.7444 195.385 98.2724 195.55Z" fill="white"/>
<path d="M119.576 179.101C117.868 171.984 116.466 164.404 118.523 157.265C119.313 154.316 120.774 151.591 122.792 149.301C123.796 148.17 124.976 147.208 126.286 146.454C126.815 146.117 127.408 145.893 128.028 145.798C128.648 145.702 129.281 145.737 129.887 145.899C130.385 146.072 130.843 146.344 131.233 146.698C131.623 147.053 131.937 147.483 132.157 147.963C132.331 148.416 132.381 148.907 132.302 149.386C132.223 149.866 132.018 150.315 131.708 150.689C131.368 151.14 130.913 151.494 130.392 151.714C129.989 151.87 129.548 151.904 129.125 151.813C127.934 151.42 126.924 150.612 126.279 149.536C124.251 146.625 123.162 143.13 122.437 139.685C121.683 135.967 121.29 132.184 121.262 128.39C121.127 119.415 122.558 110.518 124.002 101.686C124.134 101.14 124.053 100.564 123.775 100.076C123.497 99.5885 123.044 99.2247 122.508 99.0593C122.237 98.9848 121.955 98.9643 121.676 98.9992C121.398 99.034 121.129 99.1233 120.885 99.2621C120.641 99.401 120.427 99.5865 120.255 99.8082C120.083 100.03 119.956 100.283 119.882 100.554C118.388 109.693 116.872 118.924 116.993 128.219C117.014 132.769 117.527 137.303 118.523 141.742C119.455 145.749 120.971 149.948 123.689 153.13C124.918 154.641 126.638 155.674 128.549 156.048C129.571 156.199 130.614 156.117 131.6 155.808C132.586 155.498 133.489 154.97 134.242 154.262C134.966 153.611 135.55 152.818 135.956 151.932C136.362 151.046 136.581 150.086 136.601 149.112C136.621 148.138 136.441 147.17 136.072 146.268C135.703 145.367 135.152 144.55 134.455 143.87C131.466 140.852 127.104 140.931 123.646 143.094C120.38 145.217 117.774 148.213 116.125 151.742C111.784 160.781 113.222 170.859 115.492 180.261C116.132 182.93 120.252 181.799 119.605 179.122L119.576 179.101Z" fill="#4674FF"/>
<path d="M116.952 109.607L123.356 101.721L120.004 101.287L125.178 110.319C125.463 110.808 125.93 111.163 126.477 111.307C127.024 111.451 127.606 111.372 128.095 111.088C128.576 110.793 128.924 110.325 129.067 109.779C129.21 109.234 129.137 108.655 128.864 108.162L123.74 99.1091C123.121 98.013 121.264 97.6073 120.389 98.6821L113.985 106.568C113.598 106.975 113.383 107.515 113.383 108.077C113.383 108.638 113.598 109.179 113.985 109.586C114.767 110.298 116.255 110.511 117.009 109.586L116.952 109.607Z" fill="#4674FF"/>
<path d="M93.4219 208.218H151.13V209.079C151.13 209.44 151.059 209.797 150.921 210.131C150.783 210.464 150.581 210.767 150.326 211.022C150.071 211.277 149.768 211.48 149.435 211.618C149.102 211.756 148.744 211.827 148.384 211.827H96.1685C95.8078 211.827 95.4507 211.756 95.1174 211.618C94.7842 211.48 94.4814 211.277 94.2264 211.022C93.9713 210.767 93.769 210.464 93.631 210.131C93.4929 209.797 93.4219 209.44 93.4219 209.079V208.218Z" fill="#4674FF"/>
<path d="M91.5781 198.688L91.7133 204.745C91.7133 205.028 91.8258 205.3 92.0259 205.5C92.2261 205.7 92.4976 205.813 92.7807 205.813C93.0638 205.813 93.3353 205.7 93.5354 205.5C93.7356 205.3 93.848 205.028 93.848 204.745L93.7128 198.688C93.7128 198.405 93.6004 198.134 93.4002 197.933C93.2001 197.733 92.9286 197.621 92.6455 197.621C92.3624 197.621 92.0909 197.733 91.8907 197.933C91.6906 198.134 91.5781 198.405 91.5781 198.688Z" fill="#B9D9FF"/>
<path d="M97.8242 199.051V204.382C97.8242 204.665 97.9367 204.937 98.1368 205.137C98.337 205.337 98.6085 205.45 98.8916 205.45C99.1747 205.45 99.4461 205.337 99.6463 205.137C99.8465 204.937 99.9589 204.665 99.9589 204.382V199.051C99.9571 198.769 99.844 198.498 99.6443 198.298C99.4445 198.099 99.1741 197.986 98.8916 197.984C98.6102 197.989 98.3419 198.103 98.1429 198.302C97.9439 198.501 97.8297 198.77 97.8242 199.051Z" fill="#B9D9FF"/>
<path d="M104.543 198.945C104.721 200.787 104.799 202.638 104.778 204.489C104.778 204.772 104.89 205.044 105.09 205.244C105.291 205.444 105.562 205.557 105.845 205.557C106.128 205.557 106.4 205.444 106.6 205.244C106.8 205.044 106.913 204.772 106.913 204.489C106.934 202.638 106.855 200.787 106.678 198.945C106.678 198.661 106.565 198.39 106.365 198.19C106.165 197.989 105.893 197.877 105.61 197.877C105.327 197.877 105.056 197.989 104.856 198.19C104.655 198.39 104.543 198.661 104.543 198.945Z" fill="#B9D9FF"/>
<path d="M111.793 199.051C111.902 200.826 111.954 202.603 111.95 204.382C111.95 204.665 112.062 204.937 112.262 205.137C112.462 205.337 112.734 205.45 113.017 205.45C113.3 205.45 113.571 205.337 113.772 205.137C113.972 204.937 114.084 204.665 114.084 204.382C114.084 202.603 114.032 200.826 113.928 199.051C113.928 198.768 113.815 198.497 113.615 198.296C113.415 198.096 113.143 197.984 112.86 197.984C112.577 197.984 112.306 198.096 112.106 198.296C111.905 198.497 111.793 198.768 111.793 199.051Z" fill="#B9D9FF"/>
<path d="M119.066 198.909L119.401 204.524C119.401 204.807 119.513 205.079 119.713 205.279C119.914 205.479 120.185 205.592 120.468 205.592C120.751 205.592 121.023 205.479 121.223 205.279C121.423 205.079 121.536 204.807 121.536 204.524L121.201 198.909C121.201 198.626 121.089 198.354 120.888 198.154C120.688 197.954 120.417 197.841 120.134 197.841C119.851 197.841 119.579 197.954 119.379 198.154C119.179 198.354 119.066 198.626 119.066 198.909Z" fill="#B9D9FF"/>
<path d="M125.891 199.229L126.204 204.211C126.204 204.495 126.316 204.766 126.516 204.966C126.717 205.166 126.988 205.279 127.271 205.279C127.554 205.279 127.826 205.166 128.026 204.966C128.226 204.766 128.338 204.495 128.338 204.211L128.025 199.229C128.025 198.946 127.913 198.675 127.713 198.474C127.513 198.274 127.241 198.162 126.958 198.162C126.675 198.162 126.403 198.274 126.203 198.474C126.003 198.675 125.891 198.946 125.891 199.229Z" fill="#B9D9FF"/>
<path d="M131.328 199.158C131.437 200.866 131.599 202.572 131.812 204.275C131.819 204.556 131.934 204.824 132.133 205.022C132.331 205.221 132.599 205.336 132.879 205.343C133.399 205.343 134.018 204.866 133.947 204.275C133.733 202.577 133.572 200.871 133.463 199.158C133.463 198.875 133.35 198.603 133.15 198.403C132.95 198.203 132.679 198.09 132.395 198.09C132.112 198.09 131.841 198.203 131.641 198.403C131.441 198.603 131.328 198.875 131.328 199.158Z" fill="#B9D9FF"/>
<path d="M137.887 199.044C138.107 200.923 138.363 202.802 138.655 204.667C138.732 204.94 138.913 205.172 139.16 205.312C139.406 205.452 139.698 205.489 139.972 205.414C140.239 205.331 140.465 205.15 140.604 204.907C140.743 204.664 140.784 204.377 140.719 204.105C140.576 203.229 140.448 202.361 140.335 201.485L140.292 201.172C140.242 200.831 140.292 201.386 140.292 201.037L140.206 200.411C140.15 199.955 140.093 199.5 140.043 199.044C140.034 198.764 139.919 198.497 139.72 198.299C139.522 198.101 139.256 197.985 138.975 197.977C138.449 197.977 137.837 198.453 137.908 199.044H137.887Z" fill="#B9D9FF"/>
<path d="M144.766 199.364L144.958 202.047L145.05 203.343C145.1 203.948 145.107 204.688 145.762 204.994C146.008 205.129 146.296 205.164 146.568 205.093C146.839 205.021 147.073 204.848 147.221 204.61C147.361 204.365 147.399 204.074 147.327 203.801C147.256 203.528 147.079 203.295 146.836 203.151C146.954 203.215 147.052 203.31 147.121 203.425C147.19 203.54 147.226 203.671 147.228 203.805V203.713C147.228 203.606 147.228 203.499 147.228 203.393L147.185 202.838L147.1 201.677L146.936 199.364C146.93 199.083 146.816 198.814 146.617 198.615C146.418 198.416 146.15 198.302 145.869 198.297C145.586 198.298 145.316 198.412 145.116 198.611C144.916 198.811 144.803 199.082 144.801 199.364H144.766Z" fill="#B9D9FF"/>
<path d="M151.085 199.371L151.854 204.631C151.929 204.904 152.109 205.135 152.354 205.276C152.599 205.416 152.89 205.453 153.163 205.379C153.426 205.289 153.644 205.103 153.776 204.859C153.908 204.615 153.943 204.331 153.875 204.062L153.106 198.802C153.031 198.53 152.851 198.298 152.606 198.158C152.361 198.018 152.07 197.981 151.797 198.055C151.529 198.139 151.303 198.322 151.164 198.566C151.026 198.81 150.985 199.098 151.05 199.371H151.085Z" fill="#B9D9FF"/>
<path d="M99.8184 193.272C99.8184 193.308 99.7686 193.308 99.7473 193.322C99.6157 193.368 99.4873 193.422 99.363 193.486C99.2085 193.562 99.0835 193.687 99.0072 193.841C98.9407 193.971 98.8814 194.104 98.8294 194.24V194.29C98.8294 194.29 98.8294 194.29 98.7938 194.24L98.6443 193.891C98.605 193.795 98.547 193.708 98.4737 193.635C98.4004 193.562 98.3133 193.504 98.2174 193.464L97.9328 193.343C97.8874 193.325 97.8443 193.301 97.8047 193.272C98.0471 193.198 98.2738 193.079 98.4736 192.923C98.6296 192.72 98.7499 192.491 98.8294 192.247C98.8994 192.506 99.0204 192.748 99.1851 192.959C99.377 193.098 99.5911 193.204 99.8184 193.272Z" fill="white"/>
<path d="M223.452 146.176H165.438C162.926 146.176 160.891 148.212 160.891 150.724V162.845C160.891 165.357 162.926 167.393 165.438 167.393H223.452C225.963 167.393 227.999 165.357 227.999 162.845V150.724C227.999 148.212 225.963 146.176 223.452 146.176Z" fill="#353535"/>
<path d="M223.452 168.439H165.438C162.926 168.439 160.891 170.476 160.891 172.987V185.108C160.891 187.62 162.926 189.656 165.438 189.656H223.452C225.963 189.656 227.999 187.62 227.999 185.108V172.987C227.999 170.476 225.963 168.439 223.452 168.439Z" fill="#2D2D2D"/>
<path d="M223.452 190.695H165.438C162.926 190.695 160.891 192.732 160.891 195.243V207.364C160.891 209.876 162.926 211.912 165.438 211.912H223.452C225.963 211.912 227.999 209.876 227.999 207.364V195.243C227.999 192.732 225.963 190.695 223.452 190.695Z" fill="#212121"/>
<path d="M223.452 123.92H165.438C162.926 123.92 160.891 125.956 160.891 128.468V140.589C160.891 143.101 162.926 145.137 165.438 145.137H223.452C225.963 145.137 227.999 143.101 227.999 140.589V128.468C227.999 125.956 225.963 123.92 223.452 123.92Z" fill="#545454"/>
<path d="M224.704 144.44H164.192C163.426 144.44 162.805 145.061 162.805 145.828V145.835C162.805 146.601 163.426 147.223 164.192 147.223H224.704C225.471 147.223 226.092 146.601 226.092 145.835V145.828C226.092 145.061 225.471 144.44 224.704 144.44Z" fill="#141414"/>
<path d="M224.704 166.354H164.192C163.426 166.354 162.805 166.975 162.805 167.742V167.749C162.805 168.516 163.426 169.137 164.192 169.137H224.704C225.471 169.137 226.092 168.516 226.092 167.749V167.742C226.092 166.975 225.471 166.354 224.704 166.354Z" fill="#141414"/>
<path d="M224.704 188.61H164.192C163.426 188.61 162.805 189.231 162.805 189.998V190.005C162.805 190.771 163.426 191.393 164.192 191.393H224.704C225.471 191.393 226.092 190.771 226.092 190.005V189.998C226.092 189.231 225.471 188.61 224.704 188.61Z" fill="#141414"/>
<path d="M163.922 123.92C164.349 123.92 163.552 131.094 165.395 133.308C167.131 135.393 170.091 134.454 170.959 128.788C170.959 128.788 172.503 125.543 174.432 128.44C175.143 129.486 174.14 138.767 178.957 139.571C185.212 140.61 183.476 131.92 186.607 131.223C190.876 130.276 190.428 137.827 197.38 135.393C204.332 132.959 204.688 128.788 210.252 129.486C215.127 130.091 211.64 140.959 216.856 140.959C222.072 140.959 217.567 129.486 221.723 127.393C225.878 125.301 224.854 123.92 224.854 123.92H163.922Z" fill="#141414"/>
<path d="M218.485 156.81C218.443 156.909 218.364 156.909 218.3 156.931C217.967 157.057 217.642 157.201 217.325 157.365C216.931 157.558 216.611 157.876 216.415 158.269C216.244 158.604 216.092 158.949 215.959 159.301C215.959 159.351 215.959 159.415 215.881 159.422C215.803 159.429 215.81 159.351 215.789 159.301C215.66 159.002 215.539 158.696 215.404 158.397C215.196 157.905 214.806 157.513 214.316 157.301L213.604 156.988C213.484 156.952 213.371 156.897 213.27 156.824C213.888 156.627 214.466 156.321 214.977 155.92C215.388 155.401 215.7 154.809 215.895 154.176C216.086 154.813 216.398 155.408 216.813 155.927C217.311 156.323 217.878 156.622 218.485 156.81Z" fill="white"/>
<path d="M212.369 161.244C212.369 161.286 212.32 161.286 212.298 161.301C212.162 161.35 212.029 161.407 211.9 161.471C211.74 161.553 211.611 161.682 211.53 161.841C211.466 161.977 211.402 162.119 211.345 162.261C211.345 162.261 211.345 162.304 211.345 162.311C211.345 162.318 211.345 162.311 211.309 162.261C211.274 162.212 211.202 162.012 211.153 161.891C211.067 161.691 210.906 161.532 210.704 161.45L210.413 161.322C210.363 161.307 210.318 161.283 210.277 161.251C210.535 161.176 210.777 161.052 210.989 160.888C211.155 160.674 211.282 160.433 211.366 160.176C211.441 160.435 211.567 160.677 211.736 160.888C211.924 161.044 212.139 161.164 212.369 161.244Z" fill="white"/>
<path d="M178.846 135.522C178.846 135.564 178.796 135.564 178.768 135.571C178.632 135.621 178.504 135.685 178.369 135.749C178.211 135.826 178.083 135.954 178.006 136.112C177.934 136.25 177.873 136.393 177.821 136.539V136.582C177.821 136.582 177.821 136.582 177.786 136.532L177.629 136.169C177.543 135.97 177.385 135.81 177.188 135.721L176.889 135.593C176.84 135.582 176.793 135.56 176.754 135.529C177.011 135.449 177.252 135.323 177.465 135.159C177.631 134.946 177.757 134.705 177.835 134.447C177.917 134.704 178.042 134.944 178.206 135.159C178.395 135.317 178.612 135.44 178.846 135.522Z" fill="white"/>
<path d="M213.219 197.535C213.219 197.535 213.219 197.535 213.176 197.535L212.963 197.635C212.875 197.676 212.805 197.747 212.763 197.834C212.726 197.908 212.693 197.984 212.664 198.062L212.578 197.863C212.533 197.753 212.446 197.666 212.336 197.621L212.173 197.549L212.102 197.514C212.236 197.466 212.363 197.399 212.479 197.315C212.564 197.197 212.632 197.068 212.678 196.93C212.721 197.071 212.791 197.201 212.884 197.315C212.98 197.409 213.094 197.484 213.219 197.535Z" fill="white"/>
<path d="M218.672 200.646C218.672 200.646 218.672 200.646 218.636 200.646L218.416 200.738C218.333 200.785 218.264 200.854 218.216 200.937C218.181 201.016 218.145 201.087 218.117 201.165L218.031 200.966C217.984 200.858 217.898 200.771 217.789 200.724L217.633 200.66C217.633 200.66 217.583 200.66 217.555 200.624C217.691 200.58 217.818 200.512 217.932 200.425C218.023 200.31 218.092 200.18 218.138 200.041C218.181 200.179 218.249 200.31 218.337 200.425C218.435 200.517 218.548 200.592 218.672 200.646Z" fill="white"/>
<path d="M43.9093 27.0886C43.7527 27.5156 43.4112 27.5085 43.1479 27.6082C41.7608 28.1398 40.4022 28.7433 39.0777 29.416C37.4323 30.2242 36.0992 31.5525 35.285 33.1953C34.5676 34.6066 33.9333 36.0587 33.3851 37.544C33.314 37.7362 33.2713 38.0137 33.0578 38.0351C32.7376 38.0707 32.759 37.729 32.6665 37.5226C32.1257 36.2629 31.6062 34.996 31.0583 33.7362C30.1681 31.6785 28.5154 30.0459 26.4473 29.1811L23.4231 27.843C22.9084 27.6971 22.4256 27.4556 22 27.1313C24.5047 25.9854 27.2087 25.3092 29.1513 23.3662C31.0939 21.4232 31.7983 18.6972 33.0009 16.0496C34.175 18.7257 34.8794 21.4516 36.8434 23.3947C38.8073 25.3377 41.4686 26.0281 43.9093 27.0886Z" fill="#2D2D2D"/>
<path d="M224.734 93.1308C224.628 93.4155 224.4 93.4083 224.222 93.4795C223.293 93.8319 222.383 94.2334 221.497 94.6823C220.398 95.2209 219.508 96.1064 218.963 97.2019C218.486 98.1399 218.063 99.1047 217.697 100.092C217.654 100.22 217.619 100.412 217.476 100.426C217.334 100.44 217.277 100.22 217.22 100.084C216.857 99.2446 216.508 98.3976 216.146 97.5578C215.561 96.1873 214.47 95.0958 213.1 94.5115L211.079 93.629C210.739 93.5326 210.418 93.3759 210.133 93.1663C211.805 92.3977 213.605 91.9493 214.9 90.6539C216.195 89.3586 216.665 87.5436 217.462 85.7856C218.245 87.565 218.714 89.3443 220.024 90.6753C221.333 92.0062 223.105 92.4261 224.734 93.1308Z" fill="#2D2D2D"/>
<path d="M29.4053 52.8036C29.3555 52.9459 29.2417 52.9388 29.1563 52.9744C28.6945 53.1475 28.2431 53.3471 27.8043 53.5723C27.2625 53.8332 26.8221 54.2662 26.5519 54.8036C26.3135 55.2654 26.1021 55.7407 25.9186 56.227C25.9186 56.2911 25.9186 56.3836 25.8119 56.3907C25.7052 56.3979 25.7123 56.2911 25.6838 56.227C25.5059 55.8071 25.3352 55.3872 25.1502 54.9744C24.8619 54.2948 24.321 53.7538 23.6416 53.4655L22.6454 53.0313C22.4765 52.9808 22.3175 52.9014 22.1758 52.7965C23.031 52.5283 23.8311 52.1089 24.5382 51.558C25.1028 50.837 25.5319 50.0195 25.8048 49.1453C26.0715 50.0242 26.5012 50.8451 27.0714 51.5652C27.7653 52.1201 28.5569 52.5401 29.4053 52.8036Z" fill="#2D2D2D"/>
<path d="M55.5005 154.084C55.4507 154.226 55.3368 154.226 55.2514 154.262C54.7897 154.432 54.3383 154.63 53.8995 154.852C53.3549 155.12 52.9144 155.56 52.6471 156.105C52.4073 156.566 52.1958 157.042 52.0138 157.529C52.0138 157.593 52.0138 157.685 51.9071 157.692C51.8003 157.699 51.8074 157.593 51.779 157.521C51.6011 157.109 51.4303 156.689 51.2453 156.276C50.9589 155.602 50.4237 155.064 49.751 154.774L48.7548 154.333C48.586 154.285 48.4271 154.208 48.2852 154.105C49.1407 153.834 49.9409 153.413 50.6476 152.86C51.2049 152.138 51.6246 151.32 51.8857 150.447C52.151 151.326 52.5808 152.147 53.1523 152.867C53.8521 153.416 54.6486 153.828 55.5005 154.084Z" fill="#2D2D2D"/>
</g>
<defs>
<linearGradient id="paint0_linear_379_31453" x1="87.2383" y1="186.575" x2="156.802" y2="186.575" gradientUnits="userSpaceOnUse">
<stop stop-color="#00BCCD"/>
<stop offset="0.23" stop-color="#08B3CA"/>
<stop offset="0.58" stop-color="#1F9CC1"/>
<stop offset="1" stop-color="#4279B3"/>
</linearGradient>
<linearGradient id="paint1_linear_379_31453" x1="156.802" y1="192.759" x2="87.2383" y2="192.759" gradientUnits="userSpaceOnUse">
<stop stop-color="#00BCCD"/>
<stop offset="0.23" stop-color="#08B3CA"/>
<stop offset="0.58" stop-color="#1F9CC1"/>
<stop offset="1" stop-color="#4279B3"/>
</linearGradient>
<clipPath id="clip0_379_31453">
<rect width="206" height="212" fill="white" transform="translate(22)"/>
</clipPath>
</defs>
</svg>
