<svg width="250" height="212" viewBox="0 0 250 212" fill="none" xmlns="http://www.w3.org/2000/svg">
<g clip-path="url(#clip0_379_31458)">
<g clip-path="url(#clip1_379_31458)">
<path d="M82.3145 72.0957L82.4828 73.4828L84.1122 72.3516L82.3145 72.0957Z" fill="#459D5D"/>
<path d="M249.993 55.3096L249.845 53.8889L247.879 55.7002L249.993 55.3096Z" fill="#459D5D"/>
<path d="M93.9323 132.399C110.871 124.465 117.94 103.809 109.721 86.2645C101.503 68.7197 81.1088 60.9291 64.1702 68.8638C47.2315 76.7984 40.1625 97.4536 48.3811 114.998C56.5997 132.543 76.9937 140.334 93.9323 132.399Z" fill="#DBB048"/>
<path d="M97.0822 129.911C112.963 122.471 119.175 102.218 110.957 84.673C102.738 67.1282 83.2013 58.936 67.32 66.3754C51.4388 73.8147 45.2269 94.0683 53.4455 111.613C61.6641 129.158 81.2009 137.35 97.0822 129.911Z" fill="#FFF781"/>
<path d="M95.0771 125.63C108.82 119.193 114.196 101.668 107.085 86.4868C99.9736 71.306 83.068 64.2182 69.3251 70.6559C55.5822 77.0935 50.2062 94.6187 57.3174 109.8C64.4286 124.98 81.3342 132.068 95.0771 125.63Z" stroke="#DBB048" stroke-miterlimit="10"/>
<path d="M205.825 92.8348C213.785 81.7534 215.556 69.4076 209.781 65.2595C204.006 61.1115 192.872 66.732 184.913 77.8134C176.953 88.8947 175.181 101.241 180.956 105.389C186.731 109.537 197.865 103.916 205.825 92.8348Z" fill="#DBB048"/>
<path d="M202.996 90.7971C210.956 79.7157 213.361 67.8253 208.369 64.2392C203.376 60.653 192.876 66.7291 184.916 77.8104C176.957 88.8918 174.551 100.782 179.544 104.368C184.536 107.954 195.036 101.878 202.996 90.7971Z" fill="#FFF781"/>
<path d="M201.038 89.2863C207.065 80.896 208.885 71.8924 205.103 69.1762C201.322 66.4601 193.371 71.0598 187.344 79.4501C181.317 87.8404 179.497 96.844 183.278 99.5602C187.06 102.276 195.011 97.6766 201.038 89.2863Z" stroke="#DBB048" stroke-miterlimit="10"/>
<path d="M85.8108 93.2452L78.0069 93.6492C77.4792 93.7528 76.932 93.6425 76.4856 93.3426C76.0392 93.0427 75.7302 92.5778 75.6267 92.0501C75.5231 91.5224 75.6334 90.9751 75.9333 90.5288C76.2332 90.0824 76.6981 89.7734 77.2258 89.6699L81.5755 88.1549C82.3733 87.8753 83.2367 87.8424 84.0534 88.0606C84.294 88.1194 84.5475 88.094 84.7717 87.9886C84.9959 87.8833 85.1772 87.7043 85.2856 87.4815L86.7871 84.4583C86.8586 84.3132 86.8977 84.1544 86.9018 83.9927C86.9059 83.831 86.8749 83.6704 86.8109 83.5219C86.7469 83.3733 86.6514 83.2405 86.531 83.1325C86.4107 83.0244 86.2683 82.9438 86.1138 82.8962C84.054 82.1892 81.8173 82.1892 79.7575 82.8962L78.66 79.7517C78.561 79.4755 78.3568 79.2497 78.0918 79.1235C77.8269 78.9974 77.5229 78.9812 77.246 79.0784L75.152 79.8123C74.8769 79.9128 74.6522 80.1172 74.5263 80.3817C74.4003 80.6461 74.3832 80.9494 74.4786 81.2263L75.5829 84.3708L75.4146 84.4314C74.4181 84.7815 73.5054 85.3352 72.7346 86.0574C71.9639 86.7795 71.3519 87.6542 70.9377 88.6258C70.5234 89.5974 70.316 90.6446 70.3287 91.7007C70.3413 92.7569 70.5737 93.7988 71.011 94.7602C71.7096 96.179 72.8161 97.3567 74.1885 98.1425C75.5609 98.9283 77.1367 99.2862 78.7139 99.1705L86.1205 98.7934C86.6473 98.6899 87.1937 98.7998 87.6394 99.0991C88.0852 99.3984 88.3938 99.8624 88.4973 100.389C88.6009 100.916 88.491 101.462 88.1917 101.908C87.8924 102.354 87.4284 102.663 86.9015 102.766L82.5518 104.288C81.7535 104.564 80.891 104.597 80.074 104.382C79.8333 104.322 79.5793 104.347 79.3548 104.452C79.1304 104.558 78.9491 104.738 78.8418 104.961L77.3403 107.984C77.2688 108.129 77.2297 108.288 77.2256 108.45C77.2214 108.612 77.2525 108.772 77.3165 108.921C77.3805 109.069 77.476 109.202 77.5963 109.31C77.7167 109.418 77.8591 109.499 78.0136 109.547C80.0711 110.253 82.3056 110.253 84.3631 109.547L85.4674 112.691C85.5664 112.967 85.7706 113.193 86.0355 113.319C86.3005 113.445 86.6045 113.462 86.8813 113.364L88.9754 112.63C89.2516 112.531 89.4774 112.327 89.6036 112.062C89.7297 111.797 89.746 111.493 89.6487 111.216L88.5512 108.058C90.0497 107.536 91.3542 106.57 92.292 105.289C93.2298 104.009 93.7568 102.474 93.8032 100.888C93.8044 99.8546 93.5957 98.8323 93.1897 97.8825C92.7837 96.9328 92.1889 96.0754 91.4414 95.3626C90.6939 94.6498 89.8094 94.0963 88.8415 93.7358C87.8735 93.3753 86.8424 93.2152 85.8108 93.2654V93.2452Z" fill="#DBB048"/>
<path d="M156.704 163.722C173.141 163.722 186.466 150.398 186.466 133.961C186.466 117.525 173.141 104.2 156.704 104.2C140.268 104.2 126.943 117.525 126.943 133.961C126.943 150.398 140.268 163.722 156.704 163.722Z" fill="#FFF781"/>
<path d="M156.704 157.595C169.757 157.595 180.338 147.014 180.338 133.961C180.338 120.909 169.757 110.327 156.704 110.327C143.652 110.327 133.07 120.909 133.07 133.961C133.07 147.014 143.652 157.595 156.704 157.595Z" stroke="#DBB048" stroke-miterlimit="10"/>
<path d="M156.584 80.7008C176.047 80.7008 191.826 64.9224 191.826 45.4588C191.826 25.9952 176.047 10.2168 156.584 10.2168C137.12 10.2168 121.342 25.9952 121.342 45.4588C121.342 64.9224 137.12 80.7008 156.584 80.7008Z" fill="#FFF781"/>
<path d="M156.582 73.4493C172.041 73.4493 184.572 60.9176 184.572 45.459C184.572 30.0004 172.041 17.4688 156.582 17.4688C141.123 17.4688 128.592 30.0004 128.592 45.459C128.592 60.9176 141.123 73.4493 156.582 73.4493Z" stroke="#DBB048" stroke-miterlimit="10"/>
<path d="M167.497 56.2859C167.46 56.1697 167.4 56.0621 167.32 55.9694C167.241 55.8768 167.144 55.8009 167.035 55.7464C166.926 55.6918 166.807 55.6596 166.685 55.6516C166.563 55.6437 166.441 55.6602 166.326 55.7001C165.236 56.0934 164.108 56.3666 162.959 56.5148C160.947 56.7516 158.912 56.3612 157.13 55.397C155.349 54.4328 153.909 52.9419 153.007 51.1282L161.599 50.1115C161.805 50.0893 161.997 49.9968 162.143 49.8497C162.289 49.7026 162.38 49.5097 162.4 49.3035L162.636 47.1017C162.65 46.9634 162.633 46.8236 162.586 46.6929C162.538 46.5622 162.462 46.444 162.362 46.3473C162.262 46.2506 162.141 46.1779 162.009 46.1348C161.877 46.0917 161.737 46.0792 161.599 46.0984L151.438 47.2835C151.215 46.2315 151.093 45.1605 151.075 44.0852L162.171 42.7856C162.378 42.762 162.57 42.6682 162.716 42.5199C162.862 42.3717 162.952 42.1779 162.972 41.9709L163.201 39.6614C163.215 39.5259 163.199 39.389 163.153 39.2608C163.107 39.1325 163.033 39.0163 162.936 38.9206C162.839 38.825 162.721 38.7523 162.593 38.708C162.464 38.6638 162.327 38.649 162.191 38.6649L151.735 39.8836C152.29 38.0728 153.369 36.4669 154.835 35.2686C156.302 34.0702 158.091 33.3332 159.976 33.1503C160.941 33.0565 161.913 33.0565 162.878 33.1503C163.11 33.1701 163.34 33.101 163.523 32.9573C163.705 32.8135 163.826 32.6057 163.861 32.376L164.373 28.9151C164.393 28.7904 164.387 28.663 164.355 28.5409C164.323 28.4188 164.266 28.3047 164.187 28.2059C164.108 28.1071 164.01 28.0257 163.898 27.967C163.787 27.9082 163.664 27.8734 163.538 27.8647C162.192 27.7652 160.84 27.79 159.498 27.9388C156.095 28.2932 152.89 29.7119 150.339 31.993C147.788 34.2741 146.022 37.3015 145.291 40.6445L142.786 40.934C142.545 40.9627 142.325 41.0859 142.175 41.2765C142.025 41.4672 141.956 41.7097 141.985 41.9507L142.247 44.1996C142.261 44.32 142.298 44.4365 142.357 44.5422C142.416 44.648 142.495 44.7409 142.591 44.8156C142.686 44.8902 142.795 44.9451 142.912 44.9769C143.029 45.0087 143.151 45.0169 143.271 45.0009L144.9 44.8124C144.942 45.8857 145.062 46.9545 145.257 48.0107L143.641 48.1992C143.522 48.2125 143.406 48.2495 143.3 48.308C143.195 48.3665 143.102 48.4454 143.028 48.54C142.953 48.6346 142.898 48.743 142.866 48.8591C142.834 48.9751 142.825 49.0964 142.84 49.2159L143.089 51.3638C143.121 51.6003 143.243 51.8152 143.431 51.9634C143.618 52.1115 143.855 52.1814 144.092 52.1584L146.368 51.889C147.685 55.2275 150.088 58.0249 153.19 59.8294C156.292 61.6339 159.911 62.3401 163.464 61.8341C165.022 61.6482 166.551 61.2705 168.016 60.7096C168.235 60.6261 168.414 60.4614 168.516 60.2496C168.617 60.0378 168.633 59.7951 168.561 59.5717L167.497 56.2859Z" fill="#DBB048"/>
<path d="M31.7349 187.78L30.7249 187.901C33.0681 181.579 33.7616 169.472 32.1659 155.811C30.4354 140.997 26.5234 128.601 22.4363 123.639L24.2206 123.43L23.9041 120.69L18.4232 121.363C13.1309 121.982 10.7001 138.418 12.9962 158.08C15.2922 177.741 21.4397 193.133 26.7388 192.527L32.213 191.854L31.7349 187.78Z" fill="#FFF781"/>
<path d="M32.2195 191.888C37.5124 191.27 39.9421 174.831 37.6464 155.17C35.3507 135.509 29.1989 120.071 23.9059 120.689C18.613 121.307 16.1833 137.747 18.479 157.408C20.7748 177.069 26.9266 192.506 32.2195 191.888Z" fill="#DBB048"/>
<path d="M31.6052 183.875C35.5869 183.41 37.4144 171.041 35.6872 156.248C33.9599 141.455 29.3318 129.84 25.3501 130.305C21.3684 130.77 19.5409 143.139 21.2682 157.932C22.9955 172.725 27.6235 184.34 31.6052 183.875Z" stroke="#FFF781" stroke-width="0.5" stroke-miterlimit="10"/>
<path d="M118.607 2.41221L118.604 2.40638C117.211 -0.00575401 114.127 -0.832217 111.714 0.560432L75.1412 21.676C72.7291 23.0686 71.9026 26.153 73.2953 28.5652L73.2986 28.571C74.6913 30.9831 77.7757 31.8096 80.1878 30.417L116.761 9.30139C119.173 7.90874 120 4.82435 118.607 2.41221Z" fill="#DBB048"/>
<path d="M157.001 133.524L158.476 131.544C160.159 129.282 162.139 127.289 163.977 125.161C164.65 124.4 165.324 123.659 165.997 122.898C166.124 122.725 166.301 122.595 166.505 122.526C166.709 122.458 166.929 122.454 167.135 122.515C167.949 122.717 168.771 122.892 169.586 123.094C170.4 123.296 170.643 123.908 170.044 124.562C167.476 127.363 164.904 130.164 162.327 132.965C161.883 133.443 161.883 133.436 162.502 133.584C163.337 133.779 164.172 133.968 165 134.17C165.122 134.179 165.239 134.216 165.344 134.278C165.449 134.341 165.537 134.427 165.603 134.529C165.668 134.632 165.708 134.749 165.721 134.87C165.733 134.991 165.717 135.113 165.674 135.227C165.593 135.665 165.485 136.096 165.371 136.527C165.196 137.2 164.899 137.368 164.239 137.2C162.819 136.877 161.398 136.527 159.984 136.203C159.84 136.153 159.684 136.15 159.538 136.193C159.391 136.237 159.263 136.325 159.169 136.446C158.678 137.011 158.085 137.483 157.984 138.311C157.944 138.708 157.984 138.863 158.395 138.951C160.072 139.328 161.762 139.718 163.405 140.115C164.26 140.311 164.421 140.567 164.233 141.422C164.145 141.806 164.064 142.196 163.957 142.573C163.95 142.697 163.914 142.817 163.851 142.924C163.788 143.031 163.701 143.121 163.596 143.187C163.491 143.253 163.372 143.293 163.248 143.303C163.125 143.313 163 143.294 162.886 143.246C161.183 142.856 159.472 142.472 157.776 142.048C157.284 141.927 157.102 142.048 157.015 142.539C156.59 144.479 156.126 146.411 155.668 148.35C155.473 149.185 155.176 149.374 154.321 149.185C153.648 149.03 152.975 148.882 152.301 148.714C151.628 148.546 151.392 148.209 151.554 147.509C152.005 145.542 152.449 143.57 152.934 141.604C153.049 141.132 152.934 140.93 152.463 140.829C150.887 140.493 149.325 140.109 147.75 139.745C146.706 139.496 146.585 139.307 146.82 138.284C146.901 137.954 146.975 137.611 147.056 137.287C147.224 136.614 147.507 136.459 148.147 136.614C149.817 136.991 151.514 137.375 153.156 137.786C153.628 137.907 153.789 137.786 153.938 137.314C154.207 136.439 153.803 135.705 153.567 134.931C153.5 134.695 153.251 134.695 153.055 134.648L148.948 133.692C148.16 133.503 148.006 133.241 148.187 132.44C148.275 132.056 148.356 131.665 148.457 131.288C148.618 130.648 148.901 130.46 149.541 130.615C150.376 130.797 151.211 130.999 152.045 131.194C152.645 131.335 152.645 131.329 152.483 130.77L149.278 119.868C148.989 118.892 149.406 118.448 150.403 118.67C151.184 118.845 151.965 119.04 152.752 119.215C152.964 119.25 153.16 119.348 153.315 119.495C153.47 119.643 153.576 119.834 153.621 120.044C154.416 122.959 155.244 125.854 156.025 128.797C156.409 130.204 156.55 131.658 156.819 133.093C156.887 133.153 156.941 133.268 157.001 133.524Z" fill="#DBB048"/>
<path d="M231.577 186.735C237.638 168.333 228.149 148.672 210.383 142.82C192.617 136.969 173.301 147.143 167.24 165.545C161.179 183.947 170.668 203.608 188.434 209.459C206.2 215.311 225.516 205.137 231.577 186.735Z" fill="#DBB048"/>
<path d="M225.57 185.716C231.631 167.314 223.041 147.949 206.384 142.462C189.727 136.976 171.311 147.446 165.25 165.848C159.189 184.25 167.779 203.615 184.436 209.102C201.093 214.588 219.509 204.118 225.57 185.716Z" fill="#FFF781"/>
<path d="M221.509 184.378C226.753 168.456 219.319 151.699 204.905 146.952C190.491 142.204 174.554 151.263 169.31 167.186C164.066 183.108 171.5 199.865 185.914 204.612C200.328 209.36 216.264 200.301 221.509 184.378Z" stroke="#DBB048" stroke-miterlimit="10"/>
<path d="M185.166 187.511C182.311 185.19 179.456 182.87 176.601 180.549C175.753 179.876 175.726 179.532 176.42 178.677C176.723 178.293 177.032 177.909 177.349 177.532C177.43 177.394 177.542 177.276 177.677 177.189C177.812 177.101 177.965 177.046 178.125 177.029C178.284 177.011 178.446 177.031 178.596 177.087C178.747 177.143 178.882 177.233 178.992 177.351C179.497 177.741 179.995 178.132 180.466 178.549C180.796 178.845 181.032 178.845 181.321 178.482C183.449 175.842 185.588 173.21 187.738 170.584C188.008 170.26 188.008 170.038 187.664 169.776C187.321 169.513 186.829 169.102 186.432 168.766C186.334 168.697 186.252 168.609 186.191 168.506C186.13 168.403 186.092 168.289 186.08 168.17C186.067 168.051 186.08 167.931 186.117 167.818C186.155 167.705 186.216 167.601 186.297 167.513C186.688 166.995 187.099 166.483 187.53 165.992C187.6 165.894 187.69 165.813 187.793 165.754C187.897 165.694 188.013 165.657 188.132 165.646C188.251 165.634 188.371 165.649 188.484 165.687C188.598 165.726 188.701 165.788 188.789 165.87C189.193 166.187 189.603 166.49 189.98 166.84C190.358 167.19 190.58 167.109 190.869 166.739C191.913 165.392 193.024 164.167 194.027 162.827C197.098 158.747 202.107 158.444 205.757 160.302C207.343 161.052 208.753 162.13 209.893 163.465C211.033 164.799 211.876 166.36 212.369 168.045C212.678 169.082 212.483 169.392 211.426 169.634C210.753 169.776 210.079 169.89 209.406 170.045C209.287 170.087 209.16 170.102 209.035 170.09C208.91 170.078 208.788 170.038 208.68 169.974C208.571 169.91 208.478 169.823 208.407 169.719C208.336 169.615 208.288 169.496 208.268 169.372C207.78 167.936 206.948 166.641 205.844 165.601C203.346 163.312 200.101 163.312 198.094 165.864C197.084 167.15 196.034 168.402 195.004 169.668C194.424 170.382 194.424 170.388 195.111 170.947L200.107 174.987C200.855 175.593 200.895 175.977 200.296 176.738C200.047 177.054 199.784 177.371 199.528 177.687C198.855 178.468 198.505 178.509 197.73 177.883C196.034 176.536 194.323 175.142 192.647 173.735C192.196 173.358 191.974 173.391 191.57 173.849C189.523 176.403 187.46 178.942 185.382 181.465C185.018 181.896 184.984 182.138 185.469 182.542C188.118 184.661 190.75 186.802 193.367 188.965C193.812 189.336 194.041 189.275 194.398 188.838C195.071 187.982 195.744 187.148 196.417 186.319C197.091 185.491 197.522 185.511 198.235 186.144C198.949 186.777 199.777 187.148 200.255 188.003C200.363 188.198 200.404 188.272 200.255 188.44C198.626 190.46 197.01 192.44 195.367 194.426C194.896 194.999 194.458 194.999 193.832 194.487L185.166 187.511Z" fill="#DBB048"/>
<path d="M7.06475 92.74C7.01089 92.8747 6.90316 92.8747 6.81562 92.9083C6.35659 93.0768 5.90705 93.2701 5.46897 93.4874C4.93769 93.748 4.50702 94.1763 4.24351 94.7061C4.01311 95.1611 3.80854 95.6286 3.63078 96.1066C3.63078 96.1672 3.63078 96.2615 3.52305 96.2682C3.41532 96.275 3.42878 96.1672 3.40185 96.0999C3.22678 95.6959 3.05845 95.2852 2.88339 94.8812C2.59823 94.2194 2.07062 93.6917 1.4088 93.4066L0.432473 92.9824C0.26697 92.9351 0.111705 92.8575 -0.0253906 92.7535C0.808493 92.4904 1.58844 92.0799 2.27739 91.5415C2.83034 90.8379 3.25019 90.0392 3.51632 89.1848C3.7794 90.0425 4.1995 90.8439 4.75524 91.5482C5.44362 92.0866 6.22706 92.4909 7.06475 92.74Z" fill="#459D5D"/>
<path d="M224.463 31.7703C224.409 31.9049 224.301 31.9049 224.214 31.9386C223.765 32.1052 223.326 32.2985 222.901 32.5177C222.368 32.7757 221.936 33.2047 221.675 33.7364C221.441 34.1894 221.236 34.6573 221.062 35.1369C221.062 35.1975 221.022 35.285 220.955 35.2918C220.887 35.2985 220.86 35.1975 220.827 35.1302C220.652 34.7262 220.49 34.3154 220.308 33.9114C220.03 33.2452 219.5 32.7155 218.834 32.4369L217.857 32.0127C217.695 31.9624 217.543 31.885 217.406 31.7837C218.239 31.5188 219.019 31.1085 219.709 30.5717C220.262 29.8681 220.682 29.0695 220.948 28.2151C221.212 29.0749 221.637 29.8768 222.2 30.5785C222.874 31.1124 223.641 31.5165 224.463 31.7703Z" fill="#459D5D"/>
<path d="M242.149 44.8866C242.095 45.028 241.988 45.0212 241.9 45.0549C241.452 45.2267 241.014 45.4222 240.587 45.6407C240.054 45.8988 239.623 46.3278 239.362 46.8594C239.127 47.3102 238.922 47.7758 238.749 48.2532C238.749 48.3205 238.708 48.4081 238.641 48.4148C238.574 48.4215 238.54 48.3138 238.513 48.2532C238.338 47.8425 238.176 47.4385 237.995 47.0278C237.715 46.3637 237.185 45.8363 236.52 45.5599L235.544 45.129C235.379 45.0831 235.224 45.0078 235.086 44.9068C235.922 44.6438 236.704 44.2333 237.395 43.6948C237.945 42.9887 238.364 42.1908 238.634 41.3381C238.896 42.1963 239.316 42.9979 239.873 43.7015C240.552 44.2348 241.323 44.6367 242.149 44.8866Z" fill="#459D5D"/>
<path d="M188.135 150.646C187.899 151.003 187.59 150.929 187.334 150.963C185.954 151.147 184.585 151.405 183.233 151.737C181.566 152.125 180.073 153.05 178.984 154.37C178.032 155.494 177.148 156.674 176.338 157.905C176.237 158.066 176.136 158.315 175.934 158.289C175.732 158.262 175.725 157.945 175.692 157.743C175.47 156.484 175.261 155.218 175.018 153.966C174.658 151.911 173.517 150.074 171.834 148.842L169.356 147.004C168.925 146.763 168.541 146.446 168.225 146.068C170.736 145.556 173.335 145.515 175.517 144.162C177.698 142.809 178.883 140.479 180.553 138.331C181.052 141.024 181.119 143.63 182.492 145.805C183.866 147.98 186.142 149.172 188.135 150.646Z" fill="white"/>
<path d="M39.405 17.9132L42.0983 19.7514C42.2127 19.8118 42.3458 19.8267 42.4707 19.7929C42.5957 19.7592 42.7032 19.6794 42.7716 19.5696C42.829 19.4545 42.8421 19.3225 42.8086 19.1984C42.7751 19.0743 42.6973 18.9668 42.5898 18.8962L39.8965 17.058C39.7824 16.9959 39.6488 16.9802 39.5234 17.014C39.398 17.0479 39.2905 17.1288 39.2232 17.2398C39.1643 17.3546 39.1503 17.4871 39.1839 17.6116C39.2176 17.7361 39.2964 17.8437 39.405 17.9132Z" fill="#00A33A"/>
<path d="M40.1304 20.1957C40.9588 18.7338 41.9117 17.3461 42.9786 16.048C43.0678 15.9523 43.1164 15.8256 43.1141 15.6948C43.1118 15.564 43.0588 15.4392 42.9662 15.3466C42.8737 15.2541 42.7489 15.2011 42.6181 15.1988C42.4872 15.1965 42.3606 15.2451 42.2649 15.3343C41.1382 16.7043 40.1312 18.1685 39.2551 19.7109C39.1881 19.827 39.17 19.9649 39.2048 20.0943C39.2395 20.2238 39.3242 20.3341 39.4403 20.4011C39.5564 20.468 39.6943 20.4861 39.8237 20.4514C39.9531 20.4167 40.0635 20.332 40.1304 20.2159V20.1957Z" fill="#00A33A"/>
<path d="M53.8058 33.7834C53.9397 33.7834 54.0682 33.7302 54.1629 33.6355C54.2576 33.5408 54.3108 33.4124 54.3108 33.2784C54.3108 33.1445 54.2576 33.0161 54.1629 32.9213C54.0682 32.8266 53.9397 32.7734 53.8058 32.7734C53.6718 32.7734 53.5434 32.8266 53.4487 32.9213C53.354 33.0161 53.3008 33.1445 53.3008 33.2784C53.3008 33.4124 53.354 33.5408 53.4487 33.6355C53.5434 33.7302 53.6718 33.7834 53.8058 33.7834Z" fill="#00A33A"/>
<path d="M57.8136 29.5146C57.9475 29.5146 58.076 29.4614 58.1707 29.3667C58.2654 29.272 58.3186 29.1436 58.3186 29.0096C58.3186 28.8757 58.2654 28.7473 58.1707 28.6525C58.076 28.5578 57.9475 28.5046 57.8136 28.5046C57.6797 28.5046 57.5512 28.5578 57.4565 28.6525C57.3618 28.7473 57.3086 28.8757 57.3086 29.0096C57.3086 29.1436 57.3618 29.272 57.4565 29.3667C57.5512 29.4614 57.6797 29.5146 57.8136 29.5146Z" fill="#00A33A"/>
<path d="M62.8963 35.1771H62.6202C62.5522 35.1758 62.4849 35.192 62.425 35.2242C62.3639 35.2447 62.3086 35.2793 62.2634 35.3252C62.2154 35.37 62.1786 35.4253 62.1556 35.4868C62.1288 35.5484 62.115 35.6149 62.1152 35.6821V35.8167C62.1362 35.9013 62.1805 35.9783 62.2432 36.0389L62.3442 36.1197C62.4216 36.1655 62.5102 36.1888 62.6 36.1871H62.8694C62.9371 36.1941 63.0053 36.1799 63.0646 36.1467C63.1273 36.1261 63.1831 36.0888 63.2262 36.0389C63.2751 35.9962 63.3102 35.94 63.3272 35.8773C63.36 35.8176 63.3763 35.7502 63.3744 35.6821V35.5474C63.3477 35.4652 63.3041 35.3895 63.2464 35.3252L63.1387 35.2511C63.0642 35.2036 62.9779 35.1779 62.8896 35.1771H62.8963Z" fill="#00A33A"/>
<path d="M18.2483 84.0136C18.5161 84.0136 18.773 83.9072 18.9624 83.7178C19.1519 83.5284 19.2583 83.2715 19.2583 83.0036C19.2583 82.7358 19.1519 82.4789 18.9624 82.2895C18.773 82.1001 18.5161 81.9937 18.2483 81.9937C17.9804 81.9937 17.7235 82.1001 17.5341 82.2895C17.3447 82.4789 17.2383 82.7358 17.2383 83.0036C17.2383 83.2715 17.3447 83.5284 17.5341 83.7178C17.7235 83.9072 17.9804 84.0136 18.2483 84.0136Z" fill="#00A33A"/>
<path d="M199.238 9.17986C200.272 9.28613 201.316 9.19473 202.316 8.91053C202.444 8.87439 202.553 8.78899 202.618 8.67294C202.684 8.5569 202.701 8.41963 202.666 8.29107C202.629 8.16251 202.544 8.05321 202.429 7.98653C202.313 7.91985 202.176 7.90107 202.046 7.93421C201.608 8.06713 201.156 8.15291 200.7 8.19007C200.216 8.23718 199.729 8.23718 199.245 8.19007C199.111 8.19007 198.983 8.24328 198.888 8.33798C198.793 8.43269 198.74 8.56114 198.74 8.69507C198.745 8.82741 198.8 8.95297 198.894 9.04661C198.987 9.14026 199.113 9.19507 199.245 9.20006L199.238 9.17986Z" fill="#00A33A"/>
<path d="M200.055 6.27795L200.378 10.5536C200.378 10.6875 200.431 10.816 200.526 10.9107C200.621 11.0054 200.749 11.0586 200.883 11.0586C201.017 11.0586 201.145 11.0054 201.24 10.9107C201.335 10.816 201.388 10.6875 201.388 10.5536L201.065 6.27795C201.06 6.14561 201.005 6.02005 200.911 5.9264C200.818 5.83276 200.692 5.77795 200.56 5.77295C200.426 5.77469 200.299 5.82846 200.205 5.92279C200.11 6.01712 200.056 6.14455 200.055 6.27795Z" fill="#00A33A"/>
<path d="M211.534 11.8598C211.668 11.8598 211.797 11.8066 211.891 11.7119C211.986 11.6172 212.039 11.4888 212.039 11.3548C212.039 11.2209 211.986 11.0925 211.891 10.9978C211.797 10.9031 211.668 10.8499 211.534 10.8499C211.4 10.8499 211.272 10.9031 211.177 10.9978C211.082 11.0925 211.029 11.2209 211.029 11.3548C211.029 11.4888 211.082 11.6172 211.177 11.7119C211.272 11.8066 211.4 11.8598 211.534 11.8598Z" fill="#00A33A"/>
<path d="M213.675 17.4753C213.809 17.4753 213.937 17.4221 214.032 17.3274C214.127 17.2327 214.18 17.1043 214.18 16.9703C214.18 16.8364 214.127 16.7079 214.032 16.6132C213.937 16.5185 213.809 16.4653 213.675 16.4653C213.541 16.4653 213.413 16.5185 213.318 16.6132C213.223 16.7079 213.17 16.8364 213.17 16.9703C213.17 17.1043 213.223 17.2327 213.318 17.3274C213.413 17.4221 213.541 17.4753 213.675 17.4753Z" fill="#00A33A"/>
<path d="M215.276 14.5329C215.41 14.5329 215.539 14.4797 215.634 14.385C215.728 14.2903 215.781 14.1619 215.781 14.0279C215.781 13.894 215.728 13.7656 215.634 13.6709C215.539 13.5762 215.41 13.5229 215.276 13.5229C215.143 13.5229 215.014 13.5762 214.919 13.6709C214.825 13.7656 214.771 13.894 214.771 14.0279C214.771 14.1619 214.825 14.2903 214.919 14.385C215.014 14.4797 215.143 14.5329 215.276 14.5329Z" fill="#00A33A"/>
<path d="M221.87 18.1286L222.139 18.3979C222.185 18.4438 222.24 18.4784 222.301 18.4989C222.362 18.5297 222.428 18.5457 222.496 18.5457C222.564 18.5457 222.631 18.5297 222.692 18.4989C222.753 18.4784 222.808 18.4438 222.853 18.3979L222.934 18.2969C222.979 18.2192 223.002 18.1308 223.001 18.0411V17.9064C222.98 17.8218 222.936 17.7448 222.873 17.6842L222.604 17.4149C222.561 17.3661 222.505 17.3309 222.442 17.3139C222.383 17.2811 222.315 17.2648 222.247 17.2668C222.179 17.2655 222.112 17.2817 222.052 17.3139C221.991 17.3344 221.936 17.369 221.89 17.4149L221.816 17.5159C221.769 17.5931 221.744 17.6814 221.742 17.7717V17.9064C221.766 17.9899 221.81 18.0663 221.87 18.1286Z" fill="#00A33A"/>
<path d="M246.823 82.2294H246.554C246.488 82.2274 246.423 82.2437 246.365 82.2765C246.302 82.2953 246.244 82.3301 246.197 82.3776C246.151 82.4228 246.117 82.4781 246.096 82.5391C246.064 82.5991 246.048 82.6664 246.049 82.7344V82.8691C246.073 82.9526 246.116 83.0289 246.177 83.0913L246.285 83.1721C246.36 83.2176 246.446 83.2409 246.534 83.2394H246.803C246.871 83.2464 246.939 83.2323 246.998 83.199C247.061 83.1784 247.117 83.1412 247.16 83.0913C247.211 83.0489 247.248 82.9928 247.268 82.9297C247.298 82.8694 247.312 82.8019 247.308 82.7344V82.5997C247.284 82.5164 247.24 82.4401 247.18 82.3776L247.079 82.3035C247.002 82.2557 246.914 82.2301 246.823 82.2294Z" fill="#00A33A"/>
<path d="M245.22 87.5217C245.354 87.5217 245.482 87.4685 245.577 87.3738C245.672 87.2791 245.725 87.1506 245.725 87.0167C245.725 86.8828 245.672 86.7543 245.577 86.6596C245.482 86.5649 245.354 86.5117 245.22 86.5117C245.086 86.5117 244.957 86.5649 244.863 86.6596C244.768 86.7543 244.715 86.8828 244.715 87.0167C244.715 87.1506 244.768 87.2791 244.863 87.3738C244.957 87.4685 245.086 87.5217 245.22 87.5217Z" fill="#00A33A"/>
<path d="M248.161 87.2524C248.295 87.2524 248.424 87.1992 248.518 87.1045C248.613 87.0098 248.666 86.8814 248.666 86.7474C248.666 86.6135 248.613 86.485 248.518 86.3903C248.424 86.2956 248.295 86.2424 248.161 86.2424C248.027 86.2424 247.899 86.2956 247.804 86.3903C247.709 86.485 247.656 86.6135 247.656 86.7474C247.656 86.8814 247.709 87.0098 247.804 87.1045C247.899 87.1992 248.027 87.2524 248.161 87.2524Z" fill="#00A33A"/>
<path d="M222.495 140.721C222.629 140.721 222.758 140.668 222.852 140.574C222.947 140.479 223 140.35 223 140.216C223 140.082 222.947 139.954 222.852 139.859C222.758 139.765 222.629 139.711 222.495 139.711C222.361 139.711 222.233 139.765 222.138 139.859C222.043 139.954 221.99 140.082 221.99 140.216C221.99 140.35 222.043 140.479 222.138 140.574C222.233 140.668 222.361 140.721 222.495 140.721Z" fill="#00A33A"/>
<path d="M226.239 143.125C226.373 143.125 226.502 143.072 226.596 142.977C226.691 142.883 226.744 142.754 226.744 142.62C226.744 142.486 226.691 142.358 226.596 142.263C226.502 142.168 226.373 142.115 226.239 142.115C226.105 142.115 225.977 142.168 225.882 142.263C225.788 142.358 225.734 142.486 225.734 142.62C225.734 142.754 225.788 142.883 225.882 142.977C225.977 143.072 226.105 143.125 226.239 143.125Z" fill="#00A33A"/>
<path d="M226.239 145.529C226.373 145.529 226.502 145.476 226.596 145.381C226.691 145.286 226.744 145.158 226.744 145.024C226.744 144.89 226.691 144.761 226.596 144.667C226.502 144.572 226.373 144.519 226.239 144.519C226.105 144.519 225.977 144.572 225.882 144.667C225.788 144.761 225.734 144.89 225.734 145.024C225.734 145.158 225.788 145.286 225.882 145.381C225.977 145.476 226.105 145.529 226.239 145.529Z" fill="#00A33A"/>
<path d="M230.913 140.681L233.855 139.886C233.984 139.85 234.092 139.765 234.158 139.649C234.224 139.533 234.241 139.395 234.205 139.267C234.169 139.138 234.084 139.029 233.968 138.962C233.853 138.896 233.715 138.877 233.586 138.91L230.643 139.711C230.515 139.747 230.406 139.833 230.341 139.949C230.275 140.065 230.258 140.202 230.293 140.331C230.331 140.458 230.417 140.566 230.532 140.631C230.648 140.696 230.784 140.714 230.913 140.681Z" fill="#00A33A"/>
<path d="M231.854 138.486C232.121 139.756 232.221 141.055 232.151 142.351C232.151 142.485 232.204 142.613 232.299 142.708C232.393 142.803 232.522 142.856 232.656 142.856C232.79 142.856 232.918 142.803 233.013 142.708C233.108 142.613 233.161 142.485 233.161 142.351C233.226 140.964 233.115 139.575 232.831 138.217C232.795 138.088 232.709 137.98 232.593 137.914C232.477 137.848 232.34 137.831 232.211 137.867C232.084 137.904 231.975 137.99 231.909 138.105C231.843 138.22 231.823 138.357 231.854 138.486Z" fill="#00A33A"/>
<path d="M224.636 133.503C224.77 133.503 224.898 133.45 224.993 133.355C225.088 133.261 225.141 133.132 225.141 132.998C225.141 132.864 225.088 132.736 224.993 132.641C224.898 132.547 224.77 132.493 224.636 132.493C224.502 132.493 224.373 132.547 224.279 132.641C224.184 132.736 224.131 132.864 224.131 132.998C224.131 133.132 224.184 133.261 224.279 133.355C224.373 133.45 224.502 133.503 224.636 133.503Z" fill="#00A33A"/>
<path d="M57.145 189.901L60.6328 189.14C60.6968 189.123 60.7568 189.094 60.8092 189.053C60.8616 189.012 60.9054 188.962 60.938 188.904C60.9706 188.846 60.9913 188.783 60.9991 188.717C61.0068 188.651 61.0013 188.585 60.9829 188.521C60.9468 188.393 60.8614 188.284 60.7453 188.218C60.6293 188.153 60.492 188.136 60.3635 188.171L56.8756 188.925C56.7462 188.961 56.6362 189.046 56.5699 189.163C56.5036 189.28 56.4864 189.418 56.5221 189.548C56.5579 189.677 56.6435 189.787 56.7603 189.853C56.8771 189.92 57.0155 189.937 57.145 189.901Z" fill="white"/>
<path d="M57.8585 187.403L58.5318 191.161C58.549 191.225 58.5786 191.285 58.6191 191.338C58.6595 191.39 58.71 191.434 58.7675 191.468C58.825 191.501 58.8886 191.522 58.9544 191.531C59.0203 191.539 59.0871 191.535 59.1513 191.517C59.2791 191.478 59.3869 191.391 59.4521 191.275C59.5174 191.158 59.535 191.021 59.5014 190.891L58.8281 187.134C58.8109 187.07 58.7812 187.01 58.7408 186.957C58.7003 186.905 58.6499 186.86 58.5923 186.827C58.5348 186.794 58.4713 186.773 58.4054 186.764C58.3396 186.755 58.2727 186.76 58.2086 186.777C58.0808 186.816 57.973 186.903 57.9077 187.02C57.8425 187.137 57.8248 187.274 57.8585 187.403Z" fill="white"/>
<path d="M63.192 187.531V187.801C63.1883 187.868 63.2022 187.935 63.2324 187.996C63.253 188.058 63.2902 188.114 63.3401 188.157C63.3849 188.205 63.4402 188.242 63.5017 188.265C63.563 188.293 63.6297 188.307 63.697 188.306H63.8316C63.915 188.282 63.9913 188.238 64.0538 188.178L64.1346 188.077C64.1772 187.998 64.2003 187.91 64.202 187.821V187.551C64.2032 187.483 64.187 187.416 64.1548 187.356C64.1338 187.295 64.0993 187.24 64.0538 187.195C64.0083 187.149 63.9531 187.115 63.8922 187.094C63.8323 187.061 63.765 187.045 63.697 187.046H63.5623C63.4788 187.07 63.4025 187.114 63.3401 187.174L63.2593 187.275C63.2145 187.353 63.1913 187.441 63.192 187.531Z" fill="white"/>
<path d="M65.3136 191.517C65.4475 191.517 65.576 191.464 65.6707 191.369C65.7654 191.275 65.8186 191.146 65.8186 191.012C65.8186 190.878 65.7654 190.75 65.6707 190.655C65.576 190.561 65.4475 190.507 65.3136 190.507C65.1797 190.507 65.0512 190.561 64.9565 190.655C64.8618 190.75 64.8086 190.878 64.8086 191.012C64.8086 191.146 64.8618 191.275 64.9565 191.369C65.0512 191.464 65.1797 191.517 65.3136 191.517Z" fill="white"/>
<path d="M69.0441 189.376C69.178 189.376 69.3064 189.323 69.4011 189.228C69.4958 189.134 69.5491 189.005 69.5491 188.871C69.5491 188.737 69.4958 188.609 69.4011 188.514C69.3064 188.419 69.178 188.366 69.0441 188.366C68.9101 188.366 68.7817 188.419 68.687 188.514C68.5923 188.609 68.5391 188.737 68.5391 188.871C68.5391 189.005 68.5923 189.134 68.687 189.228C68.7817 189.323 68.9101 189.376 69.0441 189.376Z" fill="white"/>
<path d="M138.032 186.198C138.901 187.04 139.91 187.724 141.015 188.218C141.131 188.286 141.269 188.305 141.399 188.271C141.529 188.237 141.64 188.152 141.708 188.036C141.776 187.92 141.795 187.782 141.761 187.652C141.727 187.522 141.642 187.41 141.526 187.343C141.001 187.111 140.496 186.834 140.018 186.514L139.668 186.265L139.594 186.205L139.419 186.07C139.19 185.881 138.974 185.686 138.746 185.484C138.699 185.435 138.644 185.395 138.582 185.367C138.52 185.34 138.453 185.325 138.385 185.324C138.317 185.322 138.25 185.335 138.187 185.36C138.124 185.386 138.067 185.423 138.019 185.471C137.971 185.519 137.933 185.576 137.908 185.639C137.882 185.702 137.87 185.77 137.871 185.837C137.872 185.905 137.887 185.972 137.915 186.034C137.942 186.096 137.982 186.152 138.032 186.198Z" fill="white"/>
<path d="M138.667 188.905L141.03 185.936C141.12 185.837 141.171 185.709 141.171 185.575C141.171 185.442 141.12 185.313 141.03 185.215C140.934 185.124 140.806 185.073 140.673 185.073C140.54 185.073 140.413 185.124 140.316 185.215L137.953 188.191C137.862 188.288 137.811 188.415 137.811 188.548C137.811 188.681 137.862 188.809 137.953 188.905C138.048 189 138.176 189.053 138.31 189.053C138.444 189.053 138.572 189 138.667 188.905Z" fill="white"/>
<path d="M155.949 191.672C156.319 191.693 156.688 191.628 157.028 191.482C157.368 191.336 157.67 191.113 157.909 190.83C158.345 190.279 158.66 189.641 158.831 188.959H156.885C156.961 189.391 157.126 189.804 157.37 190.169C157.614 190.535 157.931 190.845 158.302 191.081C158.673 191.316 159.088 191.472 159.523 191.538C159.957 191.604 160.4 191.579 160.824 191.463L160.292 189.517C159.448 189.72 158.68 190.165 158.084 190.797C157.519 191.55 157.078 192.389 156.778 193.281L158.73 193.82C158.872 193.33 158.9 192.814 158.812 192.311C158.725 191.808 158.524 191.332 158.225 190.918C157.914 190.517 157.49 190.219 157.007 190.063C156.758 189.996 156.503 189.955 156.246 189.942C156.192 189.942 155.882 189.942 156.131 189.942C156.077 189.942 155.761 189.827 155.976 189.942C155.744 189.812 155.47 189.778 155.213 189.846C154.956 189.913 154.735 190.078 154.596 190.305C154.461 190.537 154.424 190.812 154.492 191.071C154.56 191.329 154.729 191.551 154.96 191.686C155.387 191.867 155.843 191.97 156.306 191.989C156.522 191.989 156.158 191.928 156.374 191.989C156.374 191.989 156.616 192.063 156.475 191.989C156.333 191.915 156.555 192.042 156.582 192.063C156.609 192.083 156.63 192.063 156.529 192.016C156.559 192.037 156.586 192.062 156.609 192.09C156.697 192.17 156.717 192.177 156.609 192.09C156.657 192.147 156.698 192.211 156.731 192.278L156.784 192.379C156.784 192.446 156.784 192.426 156.784 192.312C156.784 192.312 156.852 192.541 156.858 192.568C156.919 192.824 156.858 192.393 156.858 192.655C156.858 192.743 156.858 192.83 156.858 192.918C156.858 193.005 156.858 193.187 156.858 193.052C156.858 192.918 156.858 192.992 156.858 193.093L156.818 193.268C156.752 193.521 156.784 193.79 156.91 194.021C157.035 194.251 157.243 194.425 157.491 194.507C157.746 194.572 158.015 194.539 158.246 194.414C158.477 194.289 158.652 194.082 158.737 193.834C158.737 193.746 158.798 193.658 158.831 193.578C158.939 193.295 158.751 193.753 158.872 193.483C158.993 193.214 159.02 193.147 159.107 192.985C159.195 192.824 159.262 192.689 159.343 192.547L159.478 192.319L159.572 192.177C159.498 192.278 159.639 192.096 159.66 192.076C159.68 192.056 159.774 191.968 159.835 191.908C159.68 192.063 159.835 191.908 159.888 191.908C159.955 191.862 160.025 191.822 160.097 191.787L160.313 191.686C160.158 191.753 160.313 191.686 160.373 191.686L160.831 191.524C160.965 191.495 161.091 191.439 161.203 191.359C161.314 191.279 161.408 191.178 161.479 191.06C161.55 190.943 161.597 190.813 161.616 190.677C161.634 190.541 161.626 190.403 161.59 190.271C161.553 190.139 161.491 190.015 161.405 189.908C161.32 189.801 161.214 189.712 161.093 189.648C160.972 189.583 160.84 189.543 160.703 189.531C160.567 189.519 160.429 189.535 160.299 189.578H160.185C160.326 189.578 160.104 189.578 160.07 189.578H159.862C159.747 189.578 160.03 189.618 159.862 189.578L159.66 189.531C159.612 189.531 159.437 189.437 159.626 189.531C159.565 189.531 159.296 189.403 159.276 189.329L159.114 189.167C159.114 189.167 159.02 189.033 159.006 189.006L158.912 188.837C158.804 188.629 158.912 188.959 158.912 188.837C158.912 188.716 158.838 188.568 158.818 188.427C158.76 188.214 158.634 188.026 158.459 187.892C158.283 187.758 158.069 187.686 157.848 187.686C157.632 187.695 157.424 187.77 157.251 187.902C157.079 188.033 156.951 188.214 156.885 188.42C156.818 188.635 156.751 188.844 156.67 189.053C156.757 188.831 156.616 189.154 156.596 189.194C156.542 189.292 156.484 189.386 156.421 189.477C156.562 189.282 156.353 189.538 156.313 189.571C156.232 189.639 156.273 189.605 156.313 189.571L156.178 189.652C156.077 189.699 156.084 189.699 156.178 189.652L156.03 189.693C156.165 189.693 156.178 189.693 156.064 189.693H155.909C155.641 189.693 155.384 189.799 155.195 189.988C155.006 190.178 154.899 190.435 154.899 190.703C154.906 190.968 155.015 191.221 155.202 191.409C155.39 191.597 155.643 191.706 155.909 191.713L155.949 191.672Z" fill="white"/>
<path d="M155.352 188.649C155.62 188.649 155.877 188.542 156.066 188.353C156.255 188.164 156.362 187.907 156.362 187.639C156.362 187.371 156.255 187.114 156.066 186.925C155.877 186.735 155.62 186.629 155.352 186.629C155.084 186.629 154.827 186.735 154.638 186.925C154.448 187.114 154.342 187.371 154.342 187.639C154.342 187.907 154.448 188.164 154.638 188.353C154.827 188.542 155.084 188.649 155.352 188.649Z" fill="white"/>
<path d="M134.996 182.192V182.313C134.994 182.381 135.011 182.449 135.043 182.508C135.062 182.57 135.097 182.626 135.144 182.67C135.187 182.72 135.243 182.757 135.306 182.778C135.365 182.811 135.434 182.825 135.501 182.818H135.636C135.721 182.795 135.798 182.748 135.858 182.683L135.939 182.582C135.985 182.505 136.008 182.416 136.006 182.326V182.205C136.006 182.138 135.993 182.072 135.966 182.01C135.943 181.949 135.906 181.893 135.858 181.848C135.813 181.803 135.758 181.768 135.697 181.747C135.637 181.715 135.569 181.699 135.501 181.7H135.367C135.283 181.724 135.207 181.768 135.144 181.828L135.064 181.929C135.022 182.008 134.999 182.096 134.996 182.185V182.192Z" fill="white"/>
<path d="M135.683 184.723H135.622C135.555 184.723 135.489 184.737 135.427 184.764C135.366 184.787 135.31 184.824 135.265 184.872C135.22 184.917 135.185 184.972 135.164 185.033C135.132 185.093 135.116 185.16 135.117 185.228V185.363C135.138 185.448 135.183 185.525 135.245 185.585L135.346 185.666C135.425 185.708 135.513 185.731 135.602 185.733H135.663C135.731 185.735 135.798 185.719 135.858 185.686C135.919 185.666 135.974 185.631 136.02 185.585C136.067 185.541 136.104 185.485 136.127 185.424C136.157 185.363 136.171 185.296 136.168 185.228V185.094C136.147 185.009 136.102 184.932 136.04 184.872L135.939 184.791C135.861 184.745 135.773 184.722 135.683 184.723Z" fill="white"/>
<path d="M132.646 183.222V183.35C132.639 183.415 132.653 183.481 132.687 183.538C132.705 183.604 132.743 183.662 132.794 183.707C132.837 183.755 132.893 183.791 132.956 183.808C133.016 183.84 133.083 183.857 133.151 183.855H133.286C133.368 183.828 133.444 183.784 133.508 183.727L133.582 183.619C133.63 183.545 133.655 183.458 133.656 183.37V183.242C133.658 183.176 133.641 183.111 133.609 183.053C133.59 182.99 133.555 182.932 133.508 182.885C133.461 182.838 133.403 182.803 133.34 182.784C133.283 182.751 133.217 182.735 133.151 182.737H133.017C132.933 182.761 132.857 182.805 132.794 182.865L132.714 182.973C132.668 183.048 132.645 183.134 132.646 183.222Z" fill="white"/>
<path d="M133.669 189.894L133.609 189.713C133.595 189.646 133.562 189.585 133.514 189.538C133.479 189.483 133.43 189.439 133.373 189.41C133.32 189.371 133.257 189.35 133.191 189.349C133.125 189.332 133.055 189.332 132.989 189.349L132.868 189.403C132.79 189.444 132.727 189.507 132.686 189.585L132.632 189.706C132.612 189.795 132.612 189.887 132.632 189.975L132.693 190.157C132.711 190.22 132.743 190.277 132.787 190.325C132.82 190.381 132.87 190.426 132.929 190.453C132.983 190.493 133.049 190.514 133.117 190.514C133.183 190.534 133.253 190.534 133.319 190.514L133.434 190.46C133.513 190.421 133.577 190.357 133.615 190.278L133.669 190.164C133.689 190.075 133.689 189.983 133.669 189.894Z" fill="white"/>
<path d="M111.618 200.466C111.752 200.466 111.881 200.413 111.975 200.318C112.07 200.223 112.123 200.095 112.123 199.961C112.123 199.827 112.07 199.698 111.975 199.604C111.881 199.509 111.752 199.456 111.618 199.456C111.484 199.456 111.356 199.509 111.261 199.604C111.166 199.698 111.113 199.827 111.113 199.961C111.113 200.095 111.166 200.223 111.261 200.318C111.356 200.413 111.484 200.466 111.618 200.466Z" fill="white"/>
<path d="M114.346 203.112L114.494 203.253C114.537 203.303 114.593 203.341 114.655 203.361C114.715 203.395 114.783 203.409 114.851 203.402C114.918 203.409 114.987 203.395 115.046 203.361C115.109 203.341 115.164 203.303 115.207 203.253L115.288 203.152C115.335 203.075 115.358 202.987 115.356 202.897V202.762C115.329 202.678 115.283 202.602 115.221 202.54L115.073 202.398C115.032 202.346 114.975 202.308 114.911 202.291C114.852 202.257 114.784 202.243 114.716 202.25C114.648 202.243 114.58 202.257 114.521 202.291C114.458 202.311 114.402 202.348 114.359 202.398L114.285 202.499C114.236 202.576 114.211 202.665 114.211 202.755V202.883C114.236 202.968 114.28 203.046 114.339 203.112H114.346Z" fill="white"/>
</g>
</g>
<defs>
<clipPath id="clip0_379_31458">
<rect width="250" height="212" fill="white"/>
</clipPath>
<clipPath id="clip1_379_31458">
<rect width="250" height="212.857" fill="white"/>
</clipPath>
</defs>
</svg>
