<svg width="250" height="212" viewBox="0 0 250 212" fill="none" xmlns="http://www.w3.org/2000/svg">
<path d="M167.291 108.714C165.778 107.81 164.496 106.941 163.71 105.558C162.598 103.463 162.198 101.063 162.569 98.7203C163.113 94.1755 165.075 90.4936 169.247 88.3247C170.699 87.5488 172.317 87.1345 173.963 87.117C175.609 87.0995 177.235 87.4793 178.703 88.2242C181.505 89.5421 183.278 93.7796 182.687 97.3728C182.302 100.255 181.137 102.977 179.318 105.245C178.627 106.078 177.681 106.616 176.954 107.514C178.384 107.343 179.809 107.597 181.197 107.201C181.623 107.077 181.735 106.711 181.788 106.338C182.314 102.952 182.811 99.5595 183.36 96.1731C183.792 93.5254 184.288 90.8896 184.749 88.2478C184.838 87.7337 185.198 87.6155 185.636 87.6155C187.113 87.6155 188.591 87.6155 190.074 87.6155C190.329 87.6091 190.579 87.6883 190.783 87.8404C190.988 87.9925 191.136 88.2088 191.203 88.4547C192.284 91.0196 193.384 93.5786 194.477 96.1376C194.648 96.6022 194.907 97.0296 195.239 97.3965C195.409 96.5958 195.537 95.7871 195.624 94.9734C195.834 92.8046 196.169 90.6498 196.628 88.5197C196.629 88.3828 196.66 88.2477 196.717 88.1236C196.775 87.9995 196.859 87.8894 196.964 87.8007C197.068 87.7121 197.19 87.647 197.322 87.6099C197.454 87.5728 197.592 87.5647 197.728 87.5859H202.071C202.704 87.5859 202.958 87.8755 202.964 88.5138C202.886 89.6856 202.706 90.8483 202.426 91.9888C201.734 96.5041 200.943 101.002 200.192 105.511C200.127 105.93 199.967 106.474 200.629 106.533C201.291 106.592 201.22 106.072 201.315 105.623C201.87 101.87 202.337 98.0997 203.035 94.3942C203.354 92.6212 203.549 90.8482 203.744 89.0752C203.88 87.8341 204.069 87.5918 205.275 87.5918C209.608 87.5918 213.942 87.5918 218.276 87.5918C219.458 87.5918 219.547 87.7278 219.376 88.9039C219.252 89.7372 219.151 90.5705 219.021 91.4038C218.82 92.6744 218.596 92.8635 217.313 92.8694C215.091 92.8694 212.869 92.8694 210.647 92.8694C209.843 92.8694 209.086 94.3233 209.524 95.0147C209.742 95.3575 210.115 95.2807 210.44 95.2866C212.213 95.2866 213.944 95.2866 215.694 95.2866C216.876 95.2866 217.029 95.4935 216.823 96.6754C216.669 97.5383 216.539 98.4071 216.456 99.2758C216.47 99.4611 216.441 99.6471 216.372 99.8195C216.303 99.992 216.195 100.146 216.057 100.271C215.919 100.395 215.754 100.486 215.575 100.537C215.397 100.588 215.209 100.597 215.026 100.564C213.253 100.529 211.48 100.564 209.677 100.564C209.293 100.564 208.779 100.44 208.655 100.966C208.501 101.61 208.176 102.272 208.401 102.934C208.525 103.289 208.992 103.159 209.317 103.159C211.64 103.159 213.962 103.159 216.285 103.159C217.349 103.159 217.585 103.531 217.349 104.542C216.61 107.763 216.793 106.982 219.677 107.307C219.677 107.307 219.724 107.266 219.837 107.166C218.901 106.164 218.274 104.915 218.028 103.566C217.739 102.237 218.093 101.728 219.441 101.723C220.788 101.717 222 101.723 223.276 101.723C223.867 101.723 224.346 101.847 224.517 102.503C224.771 103.513 225.534 103.773 226.45 103.732C226.917 103.732 227.384 103.608 227.851 103.537C228.07 103.513 228.276 103.416 228.434 103.262C228.593 103.107 228.695 102.905 228.725 102.686C228.772 102.469 228.743 102.243 228.641 102.046C228.54 101.848 228.373 101.692 228.17 101.604C227.212 101.15 226.204 100.809 225.167 100.588C223.992 100.291 222.867 99.8231 221.828 99.199C219.506 97.6388 219.275 95.6057 219.854 93.2299C220.912 88.8979 224.24 87.6273 227.472 87.32C229.013 87.1313 230.576 87.2396 232.076 87.6391C233.265 87.9851 234.305 88.7173 235.032 89.7201C235.759 90.7228 236.131 91.9391 236.089 93.1767C236.054 93.8387 235.776 94.1755 235.108 94.1755C233.725 94.1755 232.348 94.1755 230.971 94.1755C230.723 94.1729 230.481 94.1006 230.272 93.9668C230.063 93.833 229.895 93.6433 229.789 93.4191C229.519 92.9932 229.116 92.6685 228.643 92.4954C228.169 92.3222 227.652 92.3104 227.171 92.4616C226.734 92.5858 226.326 92.7631 226.261 93.2831C226.239 93.5032 226.292 93.7241 226.409 93.9112C226.527 94.0984 226.703 94.2412 226.911 94.3174C228.223 95.0384 229.73 95.1861 231.101 95.7239C232.129 96.0367 233.09 96.5355 233.938 97.1955C236.52 99.524 235.539 103.478 234.015 105.469C232.881 106.874 231.385 107.943 229.689 108.56C230.912 109.01 232.088 108.98 233.205 109.216C236.911 110.02 240.634 110.753 244.286 111.799C245.669 112.201 247.046 112.656 248.423 113.087C248.586 113.124 248.746 113.174 248.902 113.235C249.144 113.359 249.446 113.525 249.386 113.826C249.327 114.128 248.961 114.057 248.707 114.003C246.201 113.495 243.707 112.94 241.195 112.473C238.831 112.041 236.503 111.699 234.156 111.291C230.108 110.629 226.024 110.292 221.941 109.943C217.583 109.549 213.218 109.384 208.844 109.447C204.902 109.482 200.96 109.352 197.024 109.506C192.887 109.671 188.709 110.014 184.554 110.392C180.535 110.753 176.552 111.362 172.575 111.959C169.324 112.449 166.074 113.111 162.877 113.814C159.561 114.535 156.24 115.262 152.995 116.231C149.615 117.236 146.222 118.194 142.907 119.423C139 120.877 135.082 122.295 131.276 123.985C128.392 125.268 125.496 126.55 122.712 128.051C122.215 128.332 121.652 128.477 121.081 128.471C117.813 128.471 114.551 128.471 111.283 128.471C110.822 128.471 110.101 128.713 109.971 128.081C109.841 127.449 110.562 127.307 110.94 127.064C114.45 125.008 118.032 123.087 121.731 121.373C126.128 119.334 130.667 117.674 135.224 116.054C138.043 115.055 140.956 114.334 143.829 113.501C144.697 113.253 145.602 112.999 146.459 112.821C146.644 112.813 146.825 112.764 146.988 112.677C147.152 112.59 147.294 112.467 147.405 112.318C147.515 112.17 147.591 111.998 147.626 111.816C147.662 111.634 147.657 111.447 147.611 111.267C147.597 111.07 147.597 110.873 147.611 110.676C147.611 109.388 147.676 109.335 148.976 109.258C151.181 109.128 153.161 107.869 153.568 106.22C153.876 104.985 154.047 103.708 154.248 102.449C154.981 97.8752 155.714 93.295 156.411 88.7147C156.535 87.9287 156.884 87.6037 157.67 87.6214C159.082 87.6214 160.501 87.6568 161.913 87.6214C162.752 87.6214 163.095 87.9583 162.983 88.8034C162.735 90.4345 162.475 92.0598 162.215 93.6791C161.653 97.2251 161.115 100.718 160.501 104.228C160.28 105.964 159.815 107.659 159.118 109.264C159.017 109.465 158.787 109.683 158.946 109.908C159.106 110.132 159.384 109.985 159.608 109.949L167.291 108.714ZM176.115 96.2499C175.908 95.4344 176.115 94.4769 175.524 93.6909C175.239 93.2893 174.855 92.9678 174.41 92.7575C173.965 92.5472 173.473 92.4552 172.982 92.4902C172.491 92.5252 172.017 92.6862 171.606 92.9576C171.195 93.229 170.861 93.6016 170.636 94.0396C169.365 96.1716 168.852 98.6712 169.182 101.132C169.324 102.278 169.773 103.235 170.991 103.537C171.567 103.68 172.172 103.654 172.734 103.462C173.296 103.27 173.79 102.921 174.159 102.455C175.766 100.682 175.855 98.478 176.115 96.2499ZM189.4 98.7912C189.312 98.8976 189.247 98.939 189.235 98.9921C188.78 101.398 188.685 103.856 188.136 106.25C188.041 106.64 188.301 106.841 188.656 106.841C189.838 106.841 191.02 106.829 192.202 106.805C192.704 106.805 192.834 106.569 192.621 106.084C191.534 103.655 190.482 101.244 189.4 98.8148V98.7912Z" fill="#3476D6"/>
<path d="M141.312 98.7204C140.514 101.084 139.64 103.389 138.948 105.759C138.103 108.62 138.168 108.643 135.196 108.643C134.35 108.643 133.511 108.643 132.672 108.643C132.536 108.654 132.399 108.636 132.271 108.59C132.143 108.544 132.026 108.471 131.929 108.376C131.831 108.28 131.755 108.165 131.706 108.038C131.657 107.911 131.636 107.775 131.644 107.639C131.431 104.487 131.208 101.335 130.976 98.1826C130.769 95.3753 130.739 92.5504 130.32 89.7609C130.273 89.4299 130.267 89.0931 130.243 88.7562C130.196 88.0115 130.503 87.6156 131.295 87.6274C132.743 87.6274 134.185 87.6274 135.633 87.6274C136.425 87.6274 136.626 87.9702 136.614 88.7621C136.561 92.1544 136.614 95.5526 136.614 99.1223C137.382 97.7571 137.601 96.3564 138.074 95.0562C138.842 92.9404 139.528 90.7892 140.189 88.6439C140.231 88.3263 140.395 88.0375 140.647 87.8397C140.899 87.6419 141.219 87.5508 141.537 87.586C142.577 87.6215 143.623 87.586 144.669 87.586C145.916 87.586 145.981 87.6688 146.005 88.898C146.064 91.723 146.129 94.546 146.2 97.367C146.2 97.5916 146.129 97.8398 146.454 98.0939C146.974 96.4391 147.482 94.8316 147.979 93.2182C148.475 91.6048 148.966 90.0032 149.439 88.3898C149.507 88.1271 149.671 87.8993 149.898 87.7508C150.125 87.6022 150.4 87.5435 150.668 87.586C152.08 87.586 153.499 87.586 154.911 87.586C155.975 87.586 156.093 87.7811 155.721 88.8035C154.243 92.6981 152.766 96.581 151.277 100.476C150.408 102.769 149.545 105.068 148.706 107.373C148.617 107.764 148.387 108.108 148.06 108.34C147.732 108.573 147.331 108.676 146.933 108.631C145.686 108.572 144.439 108.631 143.198 108.631C141.957 108.631 141.643 108.295 141.608 107.053C141.555 105.405 141.608 103.756 141.572 102.107C141.572 100.996 141.572 99.8906 141.572 98.7795L141.312 98.7204Z" fill="#3476D6"/>
<path d="M94.1153 108.637C93.0397 108.637 91.9582 108.637 90.8825 108.637C89.8069 108.637 89.6119 108.271 89.7833 107.248C90.2265 104.672 90.5989 102.077 91.0362 99.4945C91.4972 96.7523 91.769 93.9864 92.3423 91.2619C92.503 90.3691 92.6076 89.467 92.6555 88.5611C92.6421 88.4245 92.6602 88.2866 92.7083 88.1581C92.7565 88.0296 92.8334 87.9138 92.9333 87.8196C93.0331 87.7255 93.1533 87.6555 93.2844 87.6149C93.4155 87.5744 93.5542 87.5645 93.6898 87.5859C96.6802 87.5859 99.6884 87.4441 102.667 87.6687C105.947 87.9228 108.305 89.2053 109.452 92.9876C109.778 94.2293 109.816 95.529 109.564 96.7877C109.328 98.858 108.767 100.878 107.903 102.775C106.071 106.32 103.134 108.093 99.2451 108.448C97.5398 108.603 95.8274 108.666 94.1153 108.637ZM102.98 96.0313C103.258 93.1649 101.373 92.9404 99.1801 92.9049C99.0777 92.8981 98.975 92.913 98.8788 92.9488C98.7826 92.9845 98.695 93.0402 98.6219 93.1123C98.5487 93.1843 98.4917 93.271 98.4544 93.3666C98.4172 93.4623 98.4007 93.5648 98.4059 93.6673C98.3 94.6985 98.1343 95.7226 97.9095 96.7345C97.6554 98.5903 97.3717 100.446 97.0407 102.29C96.9225 102.916 97.0407 103.153 97.6967 103.2C98.573 103.307 99.4604 103.13 100.229 102.696C100.998 102.262 101.608 101.594 101.97 100.789C102.665 99.3005 103.012 97.6737 102.986 96.0313H102.98Z" fill="#3476D6"/>
<path d="M109.806 100.31C109.669 97.1197 110.657 93.9824 112.596 91.4453C113.558 90.1638 114.798 89.1173 116.223 88.3843C117.648 87.6514 119.221 87.2511 120.822 87.2137C123.712 87.0542 126.177 87.852 128.062 90.1687C129.068 91.4425 129.669 92.9884 129.788 94.6071C130.014 96.5246 129.836 98.4684 129.265 100.313C128.694 102.157 127.743 103.862 126.472 105.316C125.562 106.426 124.429 107.333 123.147 107.978C121.864 108.622 120.46 108.99 119.026 109.057C117.788 109.206 116.533 109.132 115.32 108.838C113.712 108.419 112.293 107.47 111.29 106.145C110.287 104.819 109.761 103.195 109.795 101.534C109.8 101.12 109.806 100.712 109.806 100.31ZM123.198 96.451C123.19 95.858 123.146 95.2659 123.068 94.678C122.702 92.7986 121.018 92.0067 119.315 92.8696C118.649 93.1979 118.091 93.7107 117.708 94.347C116.665 96.1217 116.137 98.1518 116.183 100.21C116.183 102.03 116.969 103.301 118.057 103.567C119.593 103.945 121.159 103.194 122.04 101.539C122.852 99.9693 123.251 98.218 123.198 96.451Z" fill="#3476D6"/>
<path d="M52.2144 32.6234C61.3335 32.6234 70.4466 32.6234 79.5657 32.6234C79.9765 32.5941 80.3875 32.6778 80.7542 32.8653C81.1208 33.0528 81.4292 33.337 81.646 33.6872C83.419 36.2285 85.322 38.7166 87.1423 41.2461C87.5323 41.7898 87.7805 41.8371 88.1765 41.2461C90.0263 38.6752 91.9116 36.128 93.7555 33.5631C93.9463 33.2544 94.2178 33.0038 94.5407 32.8382C94.8636 32.6725 95.2256 32.5983 95.5876 32.6234C97.7861 32.6825 99.9846 32.6234 102.189 32.6234C102.467 32.6234 102.81 32.5289 102.981 32.8303C103.152 33.1317 102.857 33.3681 102.697 33.5868C100.223 36.9988 97.7408 40.4029 95.2507 43.7992C94.3347 45.0462 93.4423 46.305 92.5085 47.5343C92.148 48.007 92.3371 48.338 92.6208 48.7162L99.9078 58.6627C100.818 59.9077 101.726 61.1567 102.632 62.4096C102.821 62.6756 103.129 62.9474 102.928 63.3197C102.727 63.6921 102.384 63.5916 102.077 63.5916C99.825 63.5916 97.5733 63.5916 95.3157 63.5916C95.0559 63.6041 94.7974 63.5471 94.5668 63.4266C94.3362 63.3062 94.1419 63.1265 94.0037 62.9061C92.0948 60.2466 90.1622 57.5871 88.2415 54.9631C87.7569 54.2952 87.5796 54.2952 87.095 54.9631C85.1506 57.6285 83.2003 60.282 81.2737 62.9651C81.1402 63.1719 80.9532 63.3388 80.7327 63.448C80.5121 63.5572 80.2661 63.6048 80.0207 63.5857C77.4499 63.5857 74.885 63.5857 72.3378 63.5857H24.8217C24.5085 63.5857 24.1894 63.5857 23.8762 63.5857C23.7194 63.5857 23.5691 63.5234 23.4583 63.4126C23.3474 63.3018 23.2852 63.1514 23.2852 62.9947C23.2852 62.7583 23.2852 62.5219 23.2852 62.2855C23.2852 52.8296 23.2852 43.3736 23.2852 33.9177C23.2852 32.6471 23.2852 32.6412 24.544 32.6412C33.7675 32.6293 42.9909 32.6234 52.2144 32.6234ZM25.3418 47.9893H25.3005C25.3005 52.2859 25.3005 56.5824 25.3005 60.8789C25.3005 61.4345 25.5959 61.5586 26.0451 61.5408C29.5911 61.4108 33.1371 61.7477 36.683 61.2749C38.6703 61.051 40.5495 60.2541 42.092 58.9813C43.6344 57.7085 44.7736 56.0147 45.3707 54.1061C46.4041 50.5185 46.5018 46.726 45.6543 43.09C44.4724 37.771 40.6132 35.1647 35.6074 34.7156C32.7588 34.4614 29.8984 34.5737 27.0439 34.5619C25.3477 34.5619 25.3595 34.5619 25.3655 36.2403C25.3576 40.1724 25.3497 44.1006 25.3418 48.0248V47.9893ZM59.3714 34.5678H57.5629C56.2391 34.5678 56.2391 34.5678 55.8254 35.8562C55.784 35.9803 55.7486 36.1103 55.7131 36.2344C54.7025 39.5617 53.7037 42.8949 52.6931 46.2282C51.2038 51.1058 49.7086 55.9816 48.2074 60.8553C48.0183 61.4463 48.2488 61.594 48.7984 61.5822C49.7381 61.5822 50.6837 61.5822 51.6293 61.5822C51.7563 61.6058 51.8867 61.6031 52.0126 61.5742C52.1385 61.5454 52.2571 61.4912 52.3612 61.4147C52.4654 61.3383 52.5527 61.2414 52.6179 61.1299C52.6831 61.0185 52.7248 60.8948 52.7404 60.7666C53.1068 59.3483 53.5796 57.9594 53.9578 56.5469C54.0087 56.2408 54.1779 55.967 54.4289 55.7846C54.6799 55.6021 54.9925 55.5257 55.2994 55.5718C57.8702 55.6132 60.4352 55.625 62.9823 55.5718C63.1572 55.547 63.3352 55.5585 63.5054 55.6054C63.6756 55.6523 63.8344 55.7337 63.9718 55.8445C64.1093 55.9554 64.2225 56.0933 64.3044 56.2497C64.3863 56.4061 64.4352 56.5777 64.448 56.7538C64.8203 58.1426 65.2399 59.5196 65.63 60.8908C65.6622 61.0982 65.7726 61.2855 65.9386 61.4141C66.1046 61.5427 66.3135 61.6028 66.5224 61.5822C67.468 61.5822 68.4136 61.5822 69.3533 61.5822C70.5707 61.5822 70.5648 61.5822 70.2043 60.4002C68.845 55.9165 67.4897 51.4329 66.1383 46.9492C64.9563 43.0663 63.7743 39.1894 62.5923 35.3006C62.5558 35.0801 62.4363 34.8818 62.2582 34.7466C62.0802 34.6115 61.8571 34.5496 61.6349 34.5737C60.8725 34.5796 60.1337 34.5678 59.3714 34.5678ZM76.9357 61.5822H77.3317C80.2394 61.5822 80.198 61.5822 81.8765 59.2182C84.3527 55.7432 86.8881 52.3095 89.4176 48.8758C89.602 48.6905 89.7088 48.442 89.7165 48.1807C89.7242 47.9194 89.6321 47.665 89.459 47.4692C88.6493 46.4054 87.8751 45.318 87.095 44.2424C85.0028 41.3643 82.893 38.492 80.8186 35.602C80.6128 35.2559 80.3132 34.9751 79.9544 34.7921C79.5957 34.6091 79.1925 34.5313 78.7915 34.5678C77.4558 34.6446 76.1202 34.5678 74.7845 34.5678C74.5068 34.5678 74.1344 34.4319 73.9808 34.7215C73.8271 35.0111 74.1581 35.2297 74.3176 35.4484C77.2253 39.4238 80.135 43.3933 83.0467 47.357C83.2306 47.5449 83.3369 47.7952 83.3446 48.0581C83.3523 48.3209 83.2607 48.577 83.088 48.7753C81.8292 50.4479 80.594 52.1381 79.3588 53.8343C77.6528 56.1982 75.9488 58.5622 74.2467 60.9262C74.1285 61.0858 73.9158 61.2572 74.0221 61.4699C74.1285 61.6827 74.3945 61.6059 74.6131 61.6059C75.3637 61.5822 76.1497 61.5822 76.9357 61.5822Z" fill="#71C5FF"/>
<path d="M29.9278 48.1549V40.4719C29.9278 38.7876 29.9278 38.7699 31.6535 38.7935C33.2433 38.7935 34.8331 38.6871 36.3815 39.1836C39.0764 40.0405 40.5184 41.9376 41.0326 44.603C41.5843 47.2448 41.4971 49.9801 40.7785 52.5814C39.9688 55.501 38.054 56.8071 35.3354 57.3094C33.9334 57.4994 32.5166 57.5568 31.1039 57.4808C30.0755 57.4808 29.9219 57.3212 29.9219 56.2988C29.9219 53.6039 29.9278 50.8794 29.9278 48.1549Z" fill="#71C5FF"/>
<path d="M59.164 51.6832C58.2775 51.6832 57.391 51.6832 56.4986 51.6832C55.6062 51.6832 55.423 51.4468 55.6771 50.578C56.5715 47.4654 57.4659 44.3548 58.3602 41.2462C58.4843 40.8207 58.5789 40.3833 58.7267 39.9637C58.8094 39.7214 58.7976 39.3136 59.1935 39.3727C59.5895 39.4318 59.5836 39.7746 59.6663 40.0346C59.9559 40.9802 60.2573 41.9376 60.4819 42.8951C61.132 45.3418 61.8373 47.7727 62.5977 50.1879C62.6586 50.3598 62.708 50.5355 62.7454 50.7139C62.8991 51.4763 62.7454 51.6832 61.989 51.7009C61.0493 51.695 60.1037 51.6832 59.164 51.6832Z" fill="#71C5FF"/>
<path d="M0 179.409C0.868764 177.382 1.54841 175.272 2.30488 173.215C5.56324 164.303 8.80584 155.387 12.0327 146.467C12.6709 144.694 13.2856 144.304 15.1413 144.304H26.4175C26.7186 144.258 27.0267 144.307 27.2981 144.446C26.0097 144.741 25.661 145.722 25.3005 146.721C21.4354 157.359 17.5664 167.997 13.6934 178.635C13.3033 179.705 13.3151 179.71 12.1804 179.71L0 179.687V179.409Z" fill="#5397D3"/>
<path d="M55.2808 132.502C54.9606 133.711 54.5558 134.896 54.0693 136.048C50.4366 146.067 46.7941 156.084 43.1418 166.1C42.6631 167.418 41.9598 167.873 40.5769 167.873H28.4023C30.0217 166.868 30.134 165.071 30.6895 163.57C34.3478 153.624 37.9469 143.66 41.5638 133.701C41.7175 133.288 41.8889 132.88 42.0484 132.472L55.2808 132.502Z" fill="#5397D3"/>
<path d="M166.118 173.871L162.938 175.266C162.253 175.568 162.182 175.526 162.182 174.787C162.182 172.955 162.182 171.123 162.182 169.291C162.182 168.281 162.182 168.281 161.171 168.393C159.325 168.618 157.452 168.44 155.681 167.873C152.419 166.827 150.805 163.984 150.51 160.946C150.375 159.766 150.407 158.572 150.604 157.4C151.278 153.819 153.654 151.49 157.271 150.994C159.576 150.742 161.901 150.726 164.209 150.947C164.841 150.982 165.515 150.828 166.118 151.159V173.871ZM162.188 159.599C162.188 157.997 162.188 156.396 162.188 154.8C162.188 154.168 161.975 153.908 161.372 153.902C160.769 153.896 160.025 153.837 159.357 153.902C156.579 154.061 154.895 155.48 154.493 158.039C154.31 159.186 154.334 160.357 154.564 161.496C155.019 163.694 156.337 164.977 158.524 165.296C159.505 165.409 160.497 165.409 161.479 165.296C162.016 165.237 162.164 164.995 162.158 164.486C162.176 162.808 162.188 161.189 162.188 159.569V159.599Z" fill="#353535"/>
<path d="M62.3855 150.852C62.2702 151.12 62.2313 151.415 62.2732 151.703C62.2732 156.762 62.2732 161.819 62.2732 166.874C62.2732 168.009 62.2732 168.009 61.0913 168.009C60.5003 168.009 59.9093 168.009 59.3183 168.009C58.7273 168.009 58.5204 167.826 58.5381 167.241C58.5736 166.265 58.5381 165.29 58.5381 164.321V146.591C58.5381 145.592 58.5381 145.587 59.5488 145.581C60.5594 145.575 61.6822 145.581 62.746 145.581C62.9918 145.56 63.2379 145.617 63.4499 145.743C63.6618 145.869 63.829 146.058 63.928 146.284C67.013 151.563 70.0921 156.839 73.1653 162.111L73.4194 162.53C73.5319 162.285 73.5689 162.011 73.5258 161.744V146.78C73.5258 145.598 73.5258 145.598 74.7669 145.598H76.6463C77.0777 145.598 77.2964 145.787 77.2845 146.225C77.2845 146.408 77.2845 146.597 77.2845 146.78V166.874C77.2845 168.009 77.2845 168.009 76.1025 168.009C75.0565 168.009 74.0104 168.009 72.9703 168.009C72.7289 168.041 72.4838 167.994 72.2709 167.876C72.0581 167.758 71.8889 167.575 71.7883 167.353C68.7506 162.01 65.699 156.674 62.6337 151.343L62.3855 150.852Z" fill="#353535"/>
<path d="M129.54 156.142C129.54 159.782 129.54 163.429 129.54 167.069C129.54 167.749 129.322 167.979 128.654 168.068C127.049 168.317 125.431 168.473 123.808 168.535C120.983 168.588 118.294 168.109 116.19 165.97C114.21 163.966 113.713 161.472 113.914 158.783C113.996 157.173 114.498 155.613 115.368 154.256C116.781 152.135 118.831 151.124 121.308 150.834C122.555 150.728 123.81 150.74 125.055 150.87C125.545 150.899 125.705 150.775 125.699 150.279C125.669 148.541 125.699 146.798 125.699 145.06C125.699 144.499 125.87 144.257 126.455 144.286C127.197 144.328 127.941 144.328 128.683 144.286C129.345 144.245 129.57 144.469 129.564 145.143C129.534 148.559 129.564 151.969 129.564 155.379L129.54 156.142ZM125.699 159.729C125.699 158.056 125.699 156.39 125.699 154.717C125.699 154.315 125.598 154.032 125.155 153.996C124.35 153.892 123.538 153.841 122.726 153.843C120.273 153.996 118.784 155.101 118.193 157.247C117.863 158.509 117.809 159.827 118.034 161.112C118.126 161.996 118.463 162.836 119.007 163.539C119.551 164.242 120.28 164.778 121.113 165.089C122.422 165.505 123.811 165.608 125.167 165.391C125.634 165.349 125.705 165.066 125.705 164.67C125.693 163.009 125.699 161.36 125.699 159.717V159.729Z" fill="#353535"/>
<path d="M95.274 161.537C95.274 163.417 95.274 165.296 95.274 167.175C95.274 167.719 95.1085 167.967 94.5411 168.021C91.8379 168.267 89.1228 168.359 86.409 168.298C85.6209 168.272 84.838 168.159 84.0746 167.961C81.161 167.246 79.9376 165.107 80.2509 162.051C80.4991 159.427 81.9647 158.062 84.7602 157.513C86.6409 157.227 88.5461 157.136 90.4455 157.241C91.3084 157.241 91.3438 157.211 91.332 156.348C91.3025 154.516 90.741 153.931 88.8676 153.807C86.6202 153.687 84.3666 153.85 82.1598 154.292C81.3797 154.434 81.3146 154.374 81.2969 153.594C81.2969 153.429 81.2969 153.269 81.2969 153.104C81.3265 150.994 81.0014 151.331 83.0699 151.029C85.7201 150.533 88.4371 150.509 91.0956 150.958C93.8497 151.484 95.2326 153.133 95.2681 155.964C95.3035 157.82 95.2681 159.676 95.2681 161.531L95.274 161.537ZM91.5921 162.719C91.5921 162.046 91.5921 161.378 91.5921 160.704C91.5921 160.219 91.4029 160.048 90.9301 160.06C90.3037 160.06 89.6772 160.06 89.0567 160.06C87.922 159.988 86.7832 160.096 85.6821 160.379C85.1909 160.491 84.7529 160.768 84.4411 161.164C84.1292 161.559 83.9623 162.05 83.9682 162.554C83.9091 164.262 84.7306 165.19 86.4859 165.444C88.0051 165.627 89.5409 165.627 91.0602 165.444C91.4443 165.408 91.5921 165.243 91.5862 164.853C91.6039 164.179 91.6039 163.464 91.6039 162.743L91.5921 162.719Z" fill="#353535"/>
<path d="M147.488 161.46C147.488 163.363 147.488 165.266 147.488 167.164C147.488 167.725 147.293 167.944 146.737 167.997C144.081 168.239 141.413 168.334 138.747 168.281C137.911 168.259 137.08 168.142 136.271 167.932C133.398 167.223 132.246 165.136 132.441 162.158C132.636 159.179 134.509 157.808 137.878 157.347C139.494 157.182 141.12 157.146 142.742 157.241C143.333 157.241 143.563 157.069 143.558 156.449C143.558 154.504 142.967 153.902 140.993 153.783C138.769 153.677 136.54 153.842 134.356 154.274C133.599 154.416 133.522 154.345 133.511 153.559C133.511 153.003 133.511 152.442 133.511 151.886C133.511 151.555 133.605 151.295 133.983 151.23C137.116 150.536 140.353 150.454 143.516 150.988C146.117 151.514 147.399 153.204 147.476 155.964V161.46H147.488ZM143.812 162.784C143.812 162.134 143.812 161.484 143.812 160.834C143.841 160.284 143.676 160.036 143.079 160.054C141.897 160.089 140.715 160.054 139.533 160.054C138.882 160.06 138.238 160.19 137.636 160.438C137.215 160.58 136.849 160.85 136.589 161.21C136.33 161.571 136.189 162.003 136.188 162.447C136.123 164.22 136.933 165.148 138.717 165.402C140.237 165.583 141.772 165.583 143.292 165.402C143.368 165.409 143.444 165.397 143.515 165.369C143.586 165.34 143.649 165.295 143.699 165.238C143.749 165.18 143.785 165.111 143.804 165.037C143.822 164.963 143.823 164.886 143.806 164.811C143.8 164.197 143.812 163.499 143.812 162.808V162.784Z" fill="#353535"/>
<path d="M28.6579 144.847C29.111 144.841 29.5547 144.977 29.9268 145.235C30.2988 145.494 30.5805 145.863 30.7323 146.289C31.5716 148.547 32.3812 150.822 33.2145 153.086C33.3169 153.371 33.3064 153.684 33.185 153.961C31.7548 157.885 30.3423 161.809 28.9003 165.727C28.7683 166.213 28.482 166.643 28.0844 166.953C27.6867 167.262 27.1994 167.433 26.6958 167.441C25.6675 167.441 24.9228 166.85 24.4619 165.668C23.6758 163.558 22.9135 161.443 22.0979 159.333C21.9622 158.987 21.9622 158.603 22.0979 158.257C23.5281 154.339 24.9406 150.409 26.3826 146.49C26.5078 145.993 26.8047 145.555 27.2209 145.254C27.6371 144.954 28.146 144.81 28.6579 144.847Z" fill="#5397D3"/>
<path d="M104.075 168.31C102.406 168.291 100.743 168.121 99.1046 167.802C98.6022 167.719 98.3717 167.524 98.4013 166.992C98.4308 166.46 98.4308 165.81 98.4013 165.184C98.3717 164.557 98.5431 164.439 99.1341 164.593C101.022 165.081 102.973 165.281 104.92 165.184C105.711 165.158 106.486 164.956 107.189 164.593C107.451 164.472 107.673 164.279 107.83 164.037C107.986 163.795 108.071 163.513 108.074 163.225C108.077 162.937 107.999 162.654 107.847 162.408C107.696 162.163 107.478 161.965 107.219 161.839C106.306 161.377 105.32 161.077 104.305 160.952C103.142 160.735 102.009 160.378 100.931 159.888C100.118 159.557 99.4283 158.98 98.9581 158.239C98.4878 157.498 98.2602 156.628 98.3067 155.751C98.286 154.838 98.5456 153.939 99.0506 153.178C99.5557 152.416 100.282 151.827 101.132 151.49C102.198 151.023 103.343 150.764 104.506 150.728C106.431 150.672 108.357 150.802 110.257 151.118C110.712 151.183 110.907 151.366 110.889 151.833C110.851 152.412 110.851 152.992 110.889 153.571C110.948 154.244 110.659 154.369 110.073 154.25C108.392 153.897 106.672 153.758 104.955 153.837C104.329 153.857 103.712 153.993 103.135 154.239C102.857 154.334 102.614 154.51 102.435 154.743C102.256 154.976 102.15 155.257 102.13 155.551C102.132 155.845 102.226 156.131 102.4 156.367C102.575 156.604 102.819 156.78 103.1 156.868C104.203 157.293 105.345 157.608 106.51 157.808C107.35 157.991 108.174 158.24 108.974 158.553C110.777 159.303 111.929 160.562 111.971 162.595C112.055 163.588 111.827 164.582 111.32 165.439C110.812 166.296 110.05 166.973 109.14 167.376C107.553 168.095 105.814 168.416 104.075 168.31Z" fill="#353535"/>
<path d="M191.707 51.033C191.601 51.3107 191.376 51.3107 191.205 51.3757C190.286 51.7212 189.386 52.1157 188.51 52.5577C187.428 53.0887 186.552 53.9611 186.016 55.0399C185.543 55.9661 185.124 56.9192 184.763 57.8944C184.721 58.0185 184.692 58.2077 184.55 58.2195C184.408 58.2313 184.349 58.0185 184.296 57.8826C183.935 57.0552 183.599 56.2219 183.232 55.3945C182.664 54.0485 181.596 52.9747 180.254 52.3982C179.592 52.1027 178.924 51.8072 178.262 51.5294C177.927 51.4295 177.611 51.2737 177.328 51.0684C178.977 50.3119 180.75 49.8864 182.056 48.5921C183.362 47.2979 183.794 45.5249 184.58 43.7874C185.354 45.5603 185.815 47.3333 187.109 48.6099C188.403 49.8864 190.1 50.3533 191.707 51.033Z" fill="#3476D6"/>
<path d="M213.084 167.684C213.031 167.843 212.907 167.843 212.818 167.879C212.322 168.072 211.839 168.295 211.37 168.547C210.781 168.849 210.311 169.34 210.034 169.941C209.778 170.463 209.553 171 209.361 171.549C209.361 171.62 209.319 171.72 209.242 171.732C209.166 171.744 209.142 171.614 209.106 171.543C208.917 171.076 208.734 170.609 208.515 170.142C208.219 169.39 207.64 168.783 206.902 168.452L205.832 167.962C205.652 167.907 205.484 167.819 205.336 167.702C206.217 167.282 207.174 167.034 207.859 166.313C208.545 165.592 208.793 164.587 209.213 163.612C209.627 164.599 209.875 165.603 210.572 166.324C211.27 167.045 212.221 167.294 213.084 167.684Z" fill="#3476D6"/>
<path d="M194.042 177.11C194.001 177.216 193.918 177.216 193.859 177.24C193.527 177.37 193.204 177.52 192.89 177.689C192.495 177.89 192.181 178.22 191.998 178.623C191.824 178.972 191.672 179.331 191.542 179.699C191.542 179.746 191.542 179.817 191.466 179.823C191.389 179.829 191.395 179.746 191.377 179.693C191.247 179.379 191.123 179.066 190.993 178.759C190.795 178.256 190.409 177.849 189.917 177.624L189.196 177.299C189.075 177.262 188.963 177.202 188.865 177.122C189.48 176.918 190.053 176.603 190.555 176.194C190.962 175.648 191.268 175.033 191.46 174.38C191.649 175.037 191.958 175.654 192.37 176.2C192.864 176.607 193.432 176.916 194.042 177.11Z" fill="#3476D6"/>
</svg>
