<svg width="250" height="212" viewBox="0 0 250 212" fill="none" xmlns="http://www.w3.org/2000/svg">
<g clip-path="url(#clip0_380_50812)">
<path d="M15.6641 143.475C16.3721 145.242 85.9335 180.099 85.9335 180.099C85.9335 180.099 108.097 194.155 122.133 186.065C136.17 177.976 153.383 166.026 153.383 166.026L160.334 171.671C162.647 173.631 164.715 175.863 166.49 178.32C166.851 178.806 167.339 179.183 167.9 179.41C169.131 179.915 170.695 179.675 171.97 176.695C174.524 170.729 174.524 151.14 174.524 151.14L207.32 127.745C207.32 127.745 217.115 120.93 205.19 116.245C193.265 111.56 113.391 83.6776 113.391 83.6776C113.391 83.6776 107.616 81.3505 104.237 83.6776C100.857 86.0047 18.2252 136.684 18.2252 136.684C18.2252 136.684 13.9588 139.215 15.6641 143.475Z" fill="#3476D5"/>
<path d="M15.6633 143.475C15.6633 143.475 14.8938 142.632 15.0477 138.156L16.1682 140.588L15.6633 143.475Z" fill="#3476D5"/>
<path d="M211.087 122.118C211.087 122.118 211.432 118.424 211.259 118.363C211.087 118.301 209.812 120.887 209.812 120.887L211.087 122.118Z" fill="#3476D5"/>
<path d="M15.4771 139.972C16.1851 141.745 85.8758 176.664 85.8758 176.664C85.8758 176.664 108.039 190.744 122.137 182.636C136.235 174.528 153.443 162.566 153.443 162.566L160.412 168.224C162.726 170.184 164.793 172.419 166.568 174.879C166.929 175.366 167.416 175.745 167.978 175.975C169.209 176.48 170.779 176.24 172.06 173.254C174.614 167.276 174.614 147.655 174.614 147.655L207.471 124.212C207.471 124.212 217.278 117.384 205.335 112.693C193.392 108.002 113.37 80.0639 113.37 80.0639C113.37 80.0639 107.589 77.7306 104.197 80.0639C100.805 82.3972 18.032 133.2 18.032 133.2C18.032 133.2 13.7718 135.73 15.4771 139.972Z" fill="#71C5FF"/>
<path opacity="0.39" d="M81.0443 154.366L28.1914 126.939L36.0224 122.131L84.0302 154.366H81.0443Z" fill="#3476D5"/>
<path opacity="0.39" d="M113.105 133.034L62.0625 106.13L71.5372 100.3L116.085 133.034H113.105Z" fill="#3476D5"/>
<g opacity="0.39">
<path d="M147.078 114.183C146.634 114.148 146.188 114.169 145.749 114.244C145.278 114.296 144.832 114.48 144.462 114.774C144.244 114.95 144.081 115.183 143.99 115.448C143.9 115.713 143.886 115.998 143.95 116.27C144.014 116.542 144.154 116.791 144.354 116.987C144.553 117.183 144.804 117.318 145.078 117.378C145.882 117.608 146.735 117.608 147.54 117.378C147.995 117.276 148.418 117.065 148.771 116.762C148.904 116.635 149.005 116.479 149.069 116.307C149.133 116.134 149.158 115.95 149.141 115.767C149.125 115.584 149.068 115.407 148.974 115.249C148.88 115.091 148.752 114.956 148.599 114.854C148.395 114.728 148.166 114.648 147.928 114.62C147.658 114.572 147.384 114.545 147.109 114.54C146.624 114.533 146.141 114.608 145.681 114.762C145.531 114.803 145.394 114.881 145.281 114.989C145.168 115.096 145.083 115.229 145.035 115.377C144.992 115.535 144.992 115.701 145.034 115.859C145.076 116.017 145.159 116.16 145.275 116.276C145.654 116.63 146.151 116.832 146.67 116.844C147.189 116.855 147.694 116.675 148.088 116.338C148.278 116.141 148.385 115.878 148.385 115.605C148.385 115.331 148.278 115.069 148.088 114.872C147.812 114.638 147.459 114.513 147.097 114.521C146.599 114.486 146.099 114.526 145.613 114.638L146.654 115.993C146.494 116.221 146.586 116.091 146.654 116.036C146.721 115.981 146.481 116.141 146.617 116.067L146.74 115.993C146.894 115.913 146.543 116.054 146.703 115.993L146.986 115.925C146.74 115.999 146.845 115.925 146.937 115.925H147.14C147.177 115.925 147.38 115.925 147.214 115.925C147.048 115.925 147.251 115.925 147.282 115.925C147.312 115.925 147.509 115.993 147.356 115.925C147.202 115.857 147.356 115.925 147.411 115.968C147.466 116.011 147.239 115.808 147.374 115.968C147.509 116.128 147.319 115.864 147.374 115.937C147.46 116.122 147.374 115.802 147.374 115.894C147.411 116.11 147.374 115.685 147.374 115.864C147.374 116.108 147.471 116.343 147.644 116.517C147.818 116.69 148.053 116.787 148.297 116.787C148.542 116.787 148.777 116.69 148.95 116.517C149.124 116.343 149.221 116.108 149.221 115.864C149.218 115.631 149.167 115.402 149.071 115.191C148.976 114.979 148.838 114.789 148.667 114.632C148.285 114.304 147.803 114.115 147.3 114.097C146.942 114.07 146.581 114.116 146.241 114.232C145.795 114.379 145.409 114.666 145.139 115.051C145.047 115.209 145.005 115.391 145.017 115.574C145.029 115.756 145.094 115.931 145.206 116.077C145.317 116.222 145.469 116.33 145.643 116.389C145.816 116.447 146.003 116.453 146.18 116.405L146.364 116.368C146.444 116.368 146.592 116.368 146.364 116.368C146.487 116.368 146.617 116.368 146.74 116.368C146.863 116.368 146.992 116.368 147.115 116.368H147.269H147.159C147.011 116.294 146.98 116.276 147.054 116.331L146.721 115.999L146.654 115.845V115.346V115.39L146.894 114.983C146.795 115.112 147.091 114.86 146.894 114.983C146.808 115.024 146.838 115.012 146.986 114.946L146.894 114.977H146.758C146.875 114.977 147.029 114.903 146.758 114.977H146.666C146.832 115.008 146.869 115.008 146.771 114.977L146.635 114.94C146.549 114.909 146.58 114.94 146.728 114.983L146.648 114.934C146.444 114.817 146.764 115.045 146.648 114.934L146.241 116.479C146.364 116.438 146.49 116.403 146.617 116.375C146.687 116.366 146.757 116.353 146.826 116.338C146.826 116.338 146.623 116.338 146.728 116.338H146.851C146.98 116.328 147.109 116.328 147.239 116.338H147.448H147.54C147.669 116.338 147.54 116.338 147.472 116.338C147.541 116.356 147.611 116.37 147.682 116.381C147.725 116.381 147.879 116.442 147.725 116.381C147.571 116.319 147.669 116.381 147.694 116.381L147.577 116.288L147.374 115.802C147.375 115.727 147.392 115.654 147.423 115.587C147.436 115.543 147.459 115.502 147.491 115.47C147.54 115.408 147.546 115.402 147.491 115.433C147.436 115.463 147.565 115.371 147.571 115.371L147.472 115.426C147.419 115.447 147.368 115.472 147.319 115.5C147.319 115.5 147.497 115.433 147.405 115.463L147.294 115.506L147.103 115.568C146.984 115.606 146.863 115.635 146.74 115.654H146.654H146.728H146.524H146.149H145.946C145.841 115.654 146.05 115.654 146.044 115.654H145.933C145.815 115.636 145.697 115.61 145.582 115.574C145.435 115.519 145.546 115.574 145.582 115.574C145.632 115.574 145.73 115.63 145.582 115.574C145.484 115.5 145.533 115.574 145.582 115.574C145.681 115.648 145.521 115.488 145.644 115.636C145.644 115.636 145.761 115.894 145.736 115.802C145.712 115.71 145.736 115.956 145.736 115.937C145.736 115.919 145.736 115.808 145.736 115.968C145.736 116.128 145.736 116.03 145.736 115.999C145.736 115.968 145.626 116.202 145.706 116.085C145.773 115.987 145.786 115.968 145.706 116.085C145.638 116.184 145.706 116.134 145.706 116.085C145.706 116.036 145.706 116.122 145.644 116.128L145.736 116.073C145.841 116.005 145.706 116.073 145.663 116.073C145.73 116.073 145.804 116.024 145.872 116.005L146.069 115.962H146.161C146.161 115.962 146.383 115.931 146.229 115.962H146.352H146.598C146.764 115.953 146.931 115.953 147.097 115.962C147.342 115.962 147.577 115.865 147.75 115.692C147.923 115.518 148.02 115.283 148.02 115.039C148.014 114.796 147.915 114.564 147.743 114.392C147.571 114.221 147.34 114.121 147.097 114.115L147.078 114.183Z" fill="#3476D5"/>
</g>
<path d="M90.8338 106.13H74.2423C72.2294 106.13 70.5977 107.762 70.5977 109.775V144.134C70.5977 146.147 72.2294 147.778 74.2423 147.778H90.8338C92.8467 147.778 94.4784 146.147 94.4784 144.134V109.775C94.4784 107.762 92.8467 106.13 90.8338 106.13Z" fill="#FFD255"/>
<path d="M84.0288 99.5366H81.043V154.366H84.0288V99.5366Z" fill="#FFD255"/>
<path d="M122.896 73.655H106.305C104.292 73.655 102.66 75.2868 102.66 77.2996V123.294C102.66 125.307 104.292 126.939 106.305 126.939H122.896C124.909 126.939 126.541 125.307 126.541 123.294V77.2996C126.541 75.2868 124.909 73.655 122.896 73.655Z" fill="#FFD255"/>
<path d="M116.091 67.5603H113.105V133.034H116.091V67.5603Z" fill="#FFD255"/>
<path d="M154.725 74.283H138.601C136.459 74.283 134.723 76.0194 134.723 78.1615V88.3134C134.723 90.4555 136.459 92.192 138.601 92.192H154.725C156.867 92.192 158.603 90.4555 158.603 88.3134V78.1615C158.603 76.0194 156.867 74.283 154.725 74.283Z" fill="#3476D5"/>
<path d="M148.154 67.1169H145.168V99.352H148.154V67.1169Z" fill="#3476D5"/>
<path d="M217.654 67.1292C217.525 67.4801 217.236 67.4801 217.039 67.5601C215.875 67.9985 214.737 68.5 213.628 69.0623C212.256 69.7351 211.144 70.8406 210.464 72.2082C209.867 73.3814 209.339 74.588 208.881 75.8221C208.826 75.9821 208.783 76.2161 208.604 76.2345C208.426 76.253 208.358 75.976 208.284 75.8098C207.835 74.757 207.404 73.7043 206.942 72.6577C206.212 70.946 204.849 69.5827 203.137 68.853L200.613 67.751C200.186 67.6218 199.787 67.4129 199.438 67.1354C201.518 66.1811 203.747 65.627 205.391 64.0079C207.035 62.3888 207.595 60.1232 208.586 57.9192C209.565 60.1478 210.15 62.4134 211.787 64.0264C213.425 65.6393 215.623 66.2427 217.654 67.1292Z" fill="#3476D5"/>
<path d="M19.3013 169.72C19.252 169.861 19.135 169.855 19.0489 169.892C18.5907 170.073 18.1427 170.279 17.7068 170.508C17.1731 170.773 16.7407 171.205 16.4755 171.739C16.2417 172.2 16.0361 172.675 15.8598 173.161C15.8598 173.223 15.8229 173.315 15.7552 173.321C15.6874 173.327 15.6567 173.223 15.6259 173.155C15.4473 172.743 15.2811 172.324 15.0964 171.924C14.8022 171.229 14.2441 170.68 13.545 170.397L12.5538 169.966C12.3856 169.918 12.2272 169.841 12.0859 169.738C12.9109 169.363 13.7974 169.123 14.4377 168.507C15.078 167.891 15.3057 166.974 15.6998 166.106C16.0815 166.986 16.3154 167.879 16.931 168.513C17.6364 169.064 18.4411 169.473 19.3013 169.72Z" fill="#3476D5"/>
<path d="M7.38744 161.618C7.3505 161.71 7.27663 161.704 7.22122 161.729C6.9254 161.841 6.63565 161.968 6.35316 162.111C6.00028 162.282 5.71438 162.565 5.54052 162.917C5.38747 163.215 5.2518 163.521 5.13419 163.834C5.13419 163.877 5.13419 163.939 5.06647 163.945C4.99875 163.951 5.00491 163.877 4.98644 163.834L4.64168 163.028C4.45479 162.59 4.10636 162.242 3.66896 162.055L3.05332 161.778C2.94741 161.745 2.84759 161.695 2.75781 161.63C3.30714 161.453 3.82163 161.183 4.27845 160.83C4.63917 160.365 4.91434 159.84 5.0911 159.279C5.26483 159.844 5.54252 160.372 5.9099 160.836C6.35051 161.185 6.8513 161.45 7.38744 161.618Z" fill="#3476D5"/>
<path d="M7.54846 111.295C7.79338 111.295 8.02827 111.198 8.20145 111.025C8.37463 110.852 8.47193 110.617 8.47193 110.372C8.47193 110.127 8.37463 109.892 8.20145 109.719C8.02827 109.546 7.79338 109.448 7.54846 109.448C7.30355 109.448 7.06866 109.546 6.89548 109.719C6.72229 109.892 6.625 110.127 6.625 110.372C6.625 110.617 6.72229 110.852 6.89548 111.025C7.06866 111.198 7.30355 111.295 7.54846 111.295Z" fill="#3476D5"/>
<path d="M14.1603 115.199H13.717C13.5928 115.191 13.4689 115.218 13.36 115.279C13.2468 115.316 13.1451 115.382 13.0644 115.469C12.9734 115.547 12.9071 115.65 12.8736 115.765C12.8161 115.875 12.7885 115.998 12.7936 116.122L12.8243 116.368C12.8676 116.522 12.9503 116.662 13.0644 116.775L13.2491 116.916C13.3905 117.001 13.5522 117.046 13.717 117.046H14.1603C14.2843 117.051 14.4074 117.023 14.5174 116.965C14.6294 116.926 14.7306 116.86 14.8129 116.775C14.9005 116.694 14.9662 116.592 15.0037 116.479C15.0607 116.369 15.0883 116.246 15.0837 116.122L15.053 115.876C15.0103 115.722 14.9274 115.581 14.8129 115.469L14.6282 115.322C14.4852 115.242 14.3242 115.199 14.1603 115.199Z" fill="#3476D5"/>
<path d="M1.39181 119.588C1.53708 119.505 1.68955 119.435 1.84738 119.379C1.62575 119.44 1.84738 119.379 1.92742 119.348L2.16136 119.262C2.46171 119.152 2.76796 119.06 3.07867 118.985L3.5404 118.893C3.63366 118.87 3.72825 118.854 3.8236 118.843H3.72509H3.86669C4.21831 118.805 4.57186 118.786 4.9256 118.788C5.17002 118.786 5.40397 118.688 5.5768 118.516C5.74963 118.343 5.84745 118.109 5.84906 117.864C5.84283 117.621 5.74353 117.39 5.57168 117.218C5.39983 117.046 5.16855 116.947 4.9256 116.941C3.37432 116.941 1.84427 117.301 0.456033 117.994C0.245524 118.119 0.0927561 118.323 0.0305859 118.56C-0.0315843 118.797 0.00180977 119.049 0.123586 119.262C0.252437 119.469 0.456125 119.618 0.692314 119.679C0.928503 119.74 1.17902 119.707 1.39181 119.588Z" fill="#3476D5"/>
<path d="M1.23085 115.962L2.09275 121.257C2.16399 121.487 2.3223 121.68 2.53392 121.795C2.74554 121.91 2.99372 121.938 3.22553 121.872C3.45207 121.796 3.64137 121.637 3.75553 121.427C3.8697 121.216 3.90028 120.971 3.84117 120.739L2.99774 115.426C2.92518 115.196 2.76568 115.003 2.55306 114.888C2.34045 114.773 2.09143 114.745 1.8588 114.811C1.62684 114.886 1.43252 115.047 1.31574 115.261C1.19896 115.476 1.16858 115.726 1.23085 115.962Z" fill="#3476D5"/>
<path d="M204.321 28.627C204.241 28.8424 204.068 28.8424 203.933 28.8917C203.219 29.1687 202.523 29.4704 201.84 29.8152C200.999 30.2278 200.319 30.9077 199.907 31.7483C199.537 32.4643 199.212 33.2024 198.934 33.9584C198.897 34.0569 198.872 34.2047 198.761 34.217C198.651 34.2293 198.608 34.0569 198.564 33.9523C198.287 33.3366 198.023 32.6594 197.746 32.0192C197.297 30.9701 196.461 30.1344 195.412 29.6859L193.861 29.0087C193.599 28.9394 193.354 28.818 193.141 28.6516C194.415 28.0667 195.794 27.722 196.791 26.7308C197.789 25.7396 198.14 24.3483 198.755 23C199.371 24.3667 199.71 25.7519 200.713 26.7431C201.717 27.7343 203.077 28.0852 204.321 28.627Z" fill="#3476D5"/>
<path d="M174.314 60.6035L181 65.4301C181.104 65.4916 181.22 65.5318 181.34 65.5485C181.461 65.5652 181.583 65.558 181.701 65.5275C181.818 65.4969 181.928 65.4434 182.025 65.3702C182.122 65.297 182.203 65.2055 182.265 65.1008C182.326 64.9961 182.367 64.8803 182.383 64.76C182.4 64.6398 182.393 64.5174 182.362 64.4C182.332 64.2825 182.278 64.1722 182.205 64.0753C182.132 63.9785 182.04 63.8971 181.935 63.8356L175.274 59.009C175.063 58.885 174.811 58.8498 174.573 58.9109C174.335 58.972 174.132 59.1246 174.006 59.3353C173.887 59.5488 173.856 59.7998 173.918 60.0361C173.98 60.2724 174.13 60.4756 174.338 60.6035H174.314Z" fill="#3476D5"/>
<path d="M176.187 65.2145L181.395 59.3228C181.568 59.1489 181.665 58.9134 181.665 58.668C181.664 58.4227 181.566 58.1876 181.392 58.0145C181.218 57.8415 180.983 57.7445 180.738 57.7451C180.492 57.7457 180.257 57.8437 180.084 58.0176L174.882 63.9093C174.708 64.0824 174.61 64.3174 174.609 64.5628C174.609 64.8081 174.706 65.0436 174.879 65.2175C175.052 65.3914 175.287 65.4894 175.532 65.49C175.778 65.4906 176.013 65.3937 176.187 65.2206V65.2145Z" fill="#3476D5"/>
<path d="M196.451 56.3062C196.696 56.3062 196.931 56.2089 197.104 56.0357C197.277 55.8625 197.374 55.6276 197.374 55.3827C197.374 55.1378 197.277 54.9029 197.104 54.7297C196.931 54.5565 196.696 54.4592 196.451 54.4592C196.206 54.4592 195.971 54.5565 195.798 54.7297C195.625 54.9029 195.527 55.1378 195.527 55.3827C195.527 55.6276 195.625 55.8625 195.798 56.0357C195.971 56.2089 196.206 56.3062 196.451 56.3062Z" fill="#3476D5"/>
<path d="M228.759 124.698H234.51C234.754 124.698 234.989 124.601 235.162 124.428C235.336 124.254 235.433 124.019 235.433 123.775C235.433 123.53 235.336 123.295 235.162 123.122C234.989 122.948 234.754 122.851 234.51 122.851H228.759C228.514 122.851 228.28 122.948 228.106 123.122C227.933 123.295 227.836 123.53 227.836 123.775C227.836 124.019 227.933 124.254 228.106 124.428C228.28 124.601 228.514 124.698 228.759 124.698Z" fill="#3476D5"/>
<path d="M230.934 122.008V127.758C230.934 128.003 231.031 128.238 231.204 128.411C231.377 128.584 231.612 128.681 231.857 128.681C232.102 128.681 232.337 128.584 232.51 128.411C232.683 128.238 232.781 128.003 232.781 127.758V122.008C232.781 121.763 232.683 121.528 232.51 121.355C232.337 121.182 232.102 121.084 231.857 121.084C231.612 121.084 231.377 121.182 231.204 121.355C231.031 121.528 230.934 121.763 230.934 122.008Z" fill="#3476D5"/>
<path d="M242.029 124.255C242.274 124.255 242.509 124.157 242.682 123.984C242.855 123.811 242.952 123.576 242.952 123.331C242.952 123.086 242.855 122.851 242.682 122.678C242.509 122.505 242.274 122.408 242.029 122.408C241.784 122.408 241.549 122.505 241.376 122.678C241.203 122.851 241.105 123.086 241.105 123.331C241.105 123.576 241.203 123.811 241.376 123.984C241.549 124.157 241.784 124.255 242.029 124.255Z" fill="#3476D5"/>
<path d="M249.107 129.125C249.352 129.125 249.587 129.027 249.76 128.854C249.933 128.681 250.031 128.446 250.031 128.201C250.031 127.956 249.933 127.721 249.76 127.548C249.587 127.375 249.352 127.278 249.107 127.278C248.862 127.278 248.627 127.375 248.454 127.548C248.281 127.721 248.184 127.956 248.184 128.201C248.184 128.446 248.281 128.681 248.454 128.854C248.627 129.027 248.862 129.125 249.107 129.125Z" fill="#3476D5"/>
</g>
<defs>
<clipPath id="clip0_380_50812">
<rect width="250" height="212" fill="white"/>
</clipPath>
</defs>
</svg>
