<svg width="234" height="54" viewBox="0 0 234 54" fill="none" xmlns="http://www.w3.org/2000/svg">
<path d="M36.0919 8.31152L15.1126 26.3902V8.32535L8.23047 14.2581V40.2619L45.3036 8.31152H36.0919Z" fill="#9C7EB7"/>
<path d="M28.9958 36.2882L36.7685 46.3127L43.5736 46.2451L29.4358 27.9805L8.229 46.2451V46.3127H17.3641L28.9958 36.2882Z" fill="#15202A"/>
<path d="M52.9549 53.4994H0.580566V1.125H52.9549V53.4994ZM2.35293 51.727H51.1826V2.89736H2.35293V51.727Z" fill="#15202A"/>
<path d="M100.591 1.85679H107.845L94.1432 31.5508H85.7441L72 1.85679H79.2538L89.9437 26.418L100.591 1.85679ZM118.299 32.1871C112.488 32.1871 109.094 29.0056 109.094 23.9152V8.94093H115.542V22.3032C115.542 25.0181 117.112 27.3512 121.099 27.3512C125.087 27.3512 126.868 24.9333 126.868 22.3032V8.94093H133.316V31.5508H126.868V28.3693C125.893 29.7267 123.135 32.1871 118.299 32.1871ZM138.424 0.244835H144.872V31.5508H138.424V0.244835ZM167.798 31.5508L160.629 22.0063L156.429 25.9089V31.5508H149.982V1.85679H156.429V18.7824L166.865 8.94093H174.712L165.041 17.934L175.264 31.5508H167.798ZM189.061 8.34705C195.551 8.34705 201.235 10.2135 201.235 16.8735V31.5508H194.788V28.539C193.812 30.0237 190.546 32.1871 185.498 32.1871C180.195 32.1871 176.547 29.9812 176.547 25.5271C176.547 20.7761 179.007 16.9583 194.788 17.934V16.8735C194.788 14.4979 193.727 12.7587 189.061 12.7587C185.158 12.7587 183.928 13.9041 183.589 15.4736H177.565C178.286 10.4681 182.868 8.34705 189.061 8.34705ZM194.788 24.9333V21.7518C186.219 21.2851 183.037 22.0911 183.037 25.315C183.037 27.436 184.607 28.2844 187.407 28.2844C190.885 28.2844 193.6 26.927 194.788 24.9333ZM221.337 8.34705C227.149 8.34705 230.542 11.4861 230.542 16.5765V31.5508H224.095V18.1885C224.095 15.4736 222.525 13.1405 218.537 13.1405C214.55 13.1405 212.768 15.5584 212.768 18.1885V31.5508H206.321V8.94093H212.768V12.1224C213.744 10.765 216.501 8.34705 221.337 8.34705Z" fill="#15202A"/>
<path d="M84.6973 46.6954C86.1341 47.1159 86.905 47.9569 86.905 49.4638C86.905 51.689 85.6435 53.0732 82.1567 53.0732H74.6048V40.8081H82.3669C85.3105 40.8081 86.4494 41.9295 86.4494 43.9445C86.4494 45.2761 85.8712 46.1347 84.6973 46.6078V46.6954ZM82.3319 42.6128H76.76V46.0296H82.3319C83.9263 46.0296 84.3994 45.3112 84.3994 44.33C84.3994 43.2787 83.8562 42.6128 82.3319 42.6128ZM82.402 51.2685C84.2768 51.2685 84.6973 50.41 84.6973 49.3587C84.6973 48.3074 84.049 47.7116 82.402 47.7116H76.76V51.2685H82.402ZM94.7418 43.4714C95.1623 43.4714 95.4076 43.4889 95.7756 43.5415V45.6791H95.7055C95.3376 45.574 94.8645 45.5039 94.2687 45.5039C91.9033 45.5039 91.0097 46.8706 91.0097 48.3249V53.0732H88.837V43.7342H91.0097V45.4864C91.4302 44.803 92.7268 43.4714 94.7418 43.4714ZM102.002 43.4714C104.735 43.4714 107.363 44.9607 107.363 48.4125C107.363 51.8643 104.735 53.3361 102.002 53.3361C99.2681 53.3361 96.6574 51.8643 96.6574 48.4125C96.6574 44.9607 99.2681 43.4714 102.002 43.4714ZM102.002 51.7416C104.507 51.7416 105.366 50.042 105.366 48.4125C105.366 46.7655 104.507 45.0659 102.002 45.0659C99.4959 45.0659 98.6374 46.7655 98.6374 48.4125C98.6374 50.042 99.4959 51.7416 102.002 51.7416ZM116.473 53.0732L113.301 48.833L111.286 50.7253V53.0732H109.114V40.8081H111.286V48.2723L116.105 43.7342H118.803L114.826 47.4313L119.031 53.0732H116.473ZM124.637 43.4714C127.598 43.4714 129.981 45.2236 129.736 49.0958H121.326C121.571 50.6903 122.71 51.7416 124.672 51.7416C126.495 51.7416 127.265 50.8655 127.581 50.1997H129.473C129 52.1096 127.178 53.3361 124.672 53.3361C122.009 53.3361 119.381 51.8117 119.381 48.4125C119.381 45.0659 121.956 43.4714 124.637 43.4714ZM121.378 47.5189H127.809C127.528 46.0471 126.512 45.0659 124.637 45.0659C122.903 45.0659 121.711 46.0471 121.378 47.5189ZM137.417 43.4714C137.837 43.4714 138.082 43.4889 138.45 43.5415V45.6791H138.38C138.012 45.574 137.539 45.5039 136.943 45.5039C134.578 45.5039 133.684 46.8706 133.684 48.3249V53.0732H131.512V43.7342H133.684V45.4864C134.105 44.803 135.402 43.4714 137.417 43.4714ZM151.278 45.9945C154.748 46.4676 156.833 46.9932 156.833 49.3762C156.833 51.689 155.098 53.3361 150.805 53.3361C146.232 53.3361 144.41 51.6365 144.41 49.4287H146.723C146.793 50.7078 148.23 51.5138 150.875 51.5138C153.153 51.5138 154.59 50.9531 154.59 49.639C154.59 48.1672 152.558 48.2898 149.141 47.7292C146.197 47.2561 144.83 46.3099 144.83 44.3124C144.83 42.1748 146.39 40.5628 150.437 40.5628C154.643 40.5628 156.237 42.4727 156.237 44.2248H154.029C153.924 43.3312 152.996 42.3851 150.385 42.3851C147.651 42.3851 147.003 43.2086 147.003 44.1547C147.003 45.4864 148.65 45.6266 151.278 45.9945ZM163.224 43.4714C165.958 43.4714 168.586 44.9607 168.586 48.4125C168.586 51.8643 165.958 53.3361 163.224 53.3361C160.491 53.3361 157.88 51.8643 157.88 48.4125C157.88 44.9607 160.491 43.4714 163.224 43.4714ZM163.224 51.7416C165.73 51.7416 166.589 50.042 166.589 48.4125C166.589 46.7655 165.73 45.0659 163.224 45.0659C160.719 45.0659 159.86 46.7655 159.86 48.4125C159.86 50.042 160.719 51.7416 163.224 51.7416ZM170.336 40.1423H172.492V53.0732H170.336V40.1423ZM182.281 43.7342H184.436V53.0732H182.281V51.6365C181.843 52.2497 180.651 53.3361 178.706 53.3361C176.271 53.3361 174.939 51.9519 174.939 49.7792V43.7342H177.094V49.1309C177.094 50.7078 177.953 51.5839 179.653 51.5839C181.352 51.5839 182.281 50.6027 182.281 49.1309V43.7342ZM192.809 45.3813H189.988V49.5864C189.988 51.1634 190.619 51.6014 192.809 51.3736V53.0557C192.494 53.1433 192.021 53.2134 191.583 53.2134C188.744 53.2134 187.833 52.057 187.833 49.5864V45.3813H186.011V43.7342H187.833V41.3162H189.988V43.7342H192.809V45.3813ZM194.908 53.0732V43.7342H197.063V53.0732H194.908ZM195.977 42.4376C195.311 42.4376 194.838 42.0522 194.838 41.3863C194.838 40.7205 195.311 40.335 195.977 40.335C196.66 40.335 197.133 40.7205 197.133 41.3863C197.133 42.0522 196.66 42.4376 195.977 42.4376ZM204.154 43.4714C206.887 43.4714 209.515 44.9607 209.515 48.4125C209.515 51.8643 206.887 53.3361 204.154 53.3361C201.42 53.3361 198.81 51.8643 198.81 48.4125C198.81 44.9607 201.42 43.4714 204.154 43.4714ZM204.154 51.7416C206.659 51.7416 207.518 50.042 207.518 48.4125C207.518 46.7655 206.659 45.0659 204.154 45.0659C201.648 45.0659 200.79 46.7655 200.79 48.4125C200.79 50.042 201.648 51.7416 204.154 51.7416ZM216.995 43.4714C219.431 43.4714 220.763 44.8556 220.763 47.0283V53.0732H218.607V47.6766C218.607 46.0996 217.749 45.2236 216.049 45.2236C214.35 45.2236 213.421 46.2048 213.421 47.6766V53.0732H211.266V43.7342H213.421V45.171C213.859 44.5577 215.051 43.4714 216.995 43.4714ZM228.133 47.6065C230.779 48.0621 232.268 48.4125 232.268 50.2523C232.268 52.4249 230.463 53.3361 227.344 53.3361C224.506 53.3361 222.333 52.3549 222.333 50.2347H224.558C224.558 51.251 225.557 51.7066 227.52 51.7066C229.429 51.7066 230.113 51.2335 230.113 50.5326C230.113 49.4988 228.553 49.4813 226.17 49.0433C223.752 48.5877 222.684 48.027 222.684 46.3625C222.684 44.4877 224.436 43.4714 227.187 43.4714C230.183 43.4714 231.795 44.6629 231.795 46.3975H229.78C229.78 45.8018 229.149 45.0659 227.152 45.0659C225.277 45.0659 224.629 45.539 224.629 46.2573C224.629 47.2035 226.468 47.3262 228.133 47.6065Z" fill="#15202A"/>
</svg>
