<svg width="321" height="56" viewBox="0 0 321 56" fill="none" xmlns="http://www.w3.org/2000/svg">
<path d="M20.7868 0.948242H0V21.7175H20.7868V0.948242Z" fill="#FF0000"/>
<path d="M54.6794 0.948242H33.8926V21.7175H54.6794V0.948242Z" fill="#CC0000"/>
<path d="M20.7868 34.812H0V55.5813H20.7868V34.812Z" fill="#660000"/>
<path d="M54.6794 34.812H33.8926V55.5813H54.6794V34.812Z" fill="#990000"/>
<path d="M139.287 12.4167C139.287 20.8659 132.502 23.9183 126.138 23.9183C119.773 23.9183 112.955 20.8659 112.955 12.4167C112.955 3.96741 119.762 0.948242 126.138 0.948242C132.513 0.948242 139.287 4.00059 139.287 12.4167ZM134.118 12.4167C134.118 8.10357 131.628 4.7858 126.138 4.7858C120.648 4.7858 118.157 8.09251 118.157 12.4167C118.157 16.7408 120.648 20.0697 126.138 20.0697C131.628 20.0697 134.118 16.7629 134.118 12.4167Z" fill="white"/>
<path d="M177.108 1.39111V23.4543H172.027V6.02493L164.611 23.4543H159.785L152.37 6.02493V23.4543H147.289V1.39111H155.203L162.176 18.3449L169.183 1.39111H177.097H177.108Z" fill="white"/>
<path d="M218.039 1.39111V23.4543H212.959V6.02493L205.543 23.4543H200.717L193.301 6.02493V23.4543H188.221V1.39111H196.135L203.108 18.3449L210.114 1.39111H218.028H218.039Z" fill="white"/>
<path d="M248.866 1.39111V14.5295C248.866 22.2488 243.885 23.9188 237.797 23.9188C231.709 23.9188 226.729 22.2488 226.729 14.5295V4.08957L231.809 1.39111V14.2198C231.809 18.732 234.023 20.0812 237.797 20.0812C241.571 20.0812 243.785 18.7209 243.785 14.2198V4.08957L248.866 1.39111Z" fill="white"/>
<path d="M283.157 1.39111V23.4543H277.445L265.204 7.69488V23.4543H260.123V1.39111H265.801L278.043 17.1837V1.39111H283.157Z" fill="white"/>
<path d="M301.829 1.39111V23.4543H296.749V4.08957L301.829 1.39111Z" fill="white"/>
<path d="M131.34 54.9065L126.514 47.1872H118.202V54.9065H112.955V32.0913H127.045C133.244 32.0913 136.443 35.0552 136.443 39.6558C136.443 43.239 134.749 45.3956 131.75 46.4351L137.195 54.9065H131.362H131.34ZM118.191 43.2058H126.835C130.034 43.2058 131.074 41.547 131.074 39.6558C131.074 37.7647 130.1 36.139 126.835 36.139H118.191V43.2058Z" fill="white"/>
<path d="M167.356 50.4386H154.827L152.868 54.9065H147.289L157.86 32.0913H164.313L174.85 54.9065H169.271L167.345 50.4386H167.356ZM165.596 46.4351L161.092 36.0726L156.587 46.4351H165.585H165.596Z" fill="white"/>
<path d="M212.373 43.4932C212.373 52.5839 205.721 54.8953 198.604 54.8953H188.232V32.0801H198.604C205.71 32.0801 212.373 34.3915 212.373 43.4821V43.4932ZM206.994 43.4932C206.994 37.6318 203.54 36.1278 198.083 36.1278H193.512V50.8587H198.083C203.529 50.8587 206.994 49.3878 206.994 43.4932Z" fill="white"/>
<path d="M278.519 54.9065L273.693 47.1872H265.38V54.9065H260.134V32.0913H274.224C280.422 32.0913 283.621 35.0552 283.621 39.6558C283.621 43.239 281.928 45.3956 278.928 46.4351L284.374 54.9065H278.541H278.519ZM265.369 43.2058H274.014C277.213 43.2058 278.253 41.547 278.253 39.6558C278.253 37.7647 277.279 36.139 274.014 36.139H265.369V43.2058Z" fill="white"/>
<path d="M247.737 55.1829H226.817V31.7373H247.394L245.236 35.8956H232.208V41.0824H246.453L244.295 45.2075H232.208V51.0357H245.568L247.726 55.1939L247.737 55.1829Z" fill="white"/>
<path d="M102.539 35.9288H93.6509V55.2161H88.2494V35.9288H79.3613L81.5197 31.7705H102.517V35.9288H102.539Z" fill="white"/>
<path d="M92.4004 20.0807C87.0986 20.0807 85.0509 16.7077 85.0509 12.4277C85.0509 8.1478 87.0986 4.79686 92.4004 4.79686C95.0015 4.79686 96.7172 5.60418 97.8462 6.8207H103.701C101.587 2.68454 97.0492 0.948242 92.4004 0.948242C86.0249 0.948242 79.8486 4.1333 79.8486 12.4167C79.8486 20.7 86.036 23.9183 92.4004 23.9183C97.0492 23.9183 101.587 22.182 103.701 18.0458H97.8462C96.7172 19.2623 95.0015 20.0697 92.4004 20.0697V20.0807Z" fill="white"/>
<path d="M310.319 41.3145C306.313 40.7616 302.527 40.6289 302.527 38.4834C302.527 36.924 303.634 35.6522 308.338 35.6522C312.511 35.6522 314.404 37.101 314.625 38.7156L319.196 36.3047C318.012 33.5399 314.736 31.6377 308.405 31.6377C300.026 31.6377 297.48 35.0882 297.48 38.8373C297.48 42.5863 299.439 44.3116 305.671 45.3511C311.902 46.3907 315.422 46.1695 315.422 48.5141C315.422 50.2393 313.596 51.3784 309.257 51.3784C304.918 51.3784 302.372 50.173 302.239 47.7952L297.303 50.4384C298.653 53.5129 302.538 55.3819 308.803 55.3819C316.927 55.3819 321.001 52.7387 321.001 47.7842C321.001 42.8296 316.628 42.1771 310.33 41.3035L310.319 41.3145Z" fill="white"/>
<path d="M28.8782 11.144H20.7871V12.9909H28.8782V11.144Z" fill="white"/>
<path d="M27.8379 15.5793L33.9256 12.0624L27.8379 8.55664V15.5793Z" fill="white"/>
<path d="M45.2049 21.6958H43.3564V29.7801H45.2049V21.6958Z" fill="white"/>
<path d="M40.7656 28.751L44.2744 34.8336L47.7942 28.751H40.7656Z" fill="white"/>
<path d="M33.9124 44.2671H25.8213V46.114H33.9124V44.2671Z" fill="white"/>
<path d="M26.8514 41.6797L20.7637 45.1855L26.8514 48.7023V41.6797Z" fill="white"/>
<path d="M11.3123 26.75H9.46387V34.8343H11.3123V26.75Z" fill="white"/>
<path d="M13.9016 27.7784L10.3929 21.6958L6.87305 27.7784H13.9016Z" fill="white"/>
</svg>
