<svg width="306" height="71" viewBox="0 0 306 71" fill="none" xmlns="http://www.w3.org/2000/svg">
<path d="M46.576 11.0786L19.0598 34.7905V11.0967L10.0332 18.8781V52.9845L58.6581 11.0786H46.576Z" fill="#9C7EB7"/>
<path d="M37.2689 47.7719L47.4634 60.9199L56.389 60.8313L37.8459 36.8755L10.0312 60.8313V60.9199H22.0128L37.2689 47.7719Z" fill="#15202A"/>
<path d="M68.6939 70.3467H0V1.65283H68.6939V70.3467ZM2.32462 68.0221H66.3693V3.97745H2.32462V68.0221Z" fill="#15202A"/>
<path d="M131.174 2.30845H140.688L122.717 41.2549H111.7L93.6738 2.30845H103.188L117.209 34.5227L131.174 2.30845ZM154.4 42.0894C146.777 42.0894 142.326 37.9166 142.326 31.2401V11.6H150.783V29.1258C150.783 32.6867 152.842 35.7467 158.072 35.7467C163.302 35.7467 165.639 32.5754 165.639 29.1258V11.6H174.096V41.2549H165.639V37.0821C164.359 38.8625 160.743 42.0894 154.4 42.0894ZM180.795 0.194211H189.252V41.2549H180.795V0.194211ZM219.322 41.2549L209.919 28.7364L204.411 33.8551V41.2549H195.954V2.30845H204.411V24.5079L218.098 11.6H228.391L215.705 23.3952L229.114 41.2549H219.322ZM247.21 10.821C255.723 10.821 263.178 13.2691 263.178 22.0042V41.2549H254.721V37.3046C253.442 39.2519 249.157 42.0894 242.537 42.0894C235.582 42.0894 230.797 39.1963 230.797 33.3543C230.797 27.1229 234.024 22.1155 254.721 23.3952V22.0042C254.721 18.8885 253.33 16.6074 247.21 16.6074C242.091 16.6074 240.478 18.1096 240.033 20.1682H232.132C233.078 13.6029 239.087 10.821 247.21 10.821ZM254.721 32.5754V28.4026C243.482 27.7905 239.31 28.8477 239.31 33.0761C239.31 35.858 241.368 36.9708 245.04 36.9708C249.603 36.9708 253.163 35.1904 254.721 32.5754ZM289.544 10.821C297.166 10.821 301.617 14.9382 301.617 21.6148V41.2549H293.16V23.729C293.16 20.1682 291.101 17.1081 285.871 17.1081C280.641 17.1081 278.305 20.2794 278.305 23.729V41.2549H269.848V11.6H278.305V15.7728C279.584 13.9924 283.201 10.821 289.544 10.821Z" fill="#15202A"/>
<path d="M110.088 61.3795C111.973 61.931 112.984 63.0341 112.984 65.0105C112.984 67.9291 111.329 69.7446 106.756 69.7446H96.8513V53.6578H107.032C110.893 53.6578 112.387 55.1286 112.387 57.7714C112.387 59.518 111.628 60.6441 110.088 61.2646V61.3795ZM106.986 56.0248H99.6779V60.5062H106.986C109.077 60.5062 109.698 59.5639 109.698 58.277C109.698 56.8981 108.985 56.0248 106.986 56.0248ZM107.078 67.3776C109.537 67.3776 110.088 66.2515 110.088 64.8726C110.088 63.4937 109.238 62.7124 107.078 62.7124H99.6779V67.3776H107.078ZM123.263 57.1509C123.814 57.1509 124.136 57.1739 124.619 57.2428V60.0466H124.527C124.044 59.9087 123.424 59.8167 122.642 59.8167C119.54 59.8167 118.368 61.6093 118.368 63.5167V69.7446H115.518V57.4956H118.368V59.7938C118.919 58.8975 120.62 57.1509 123.263 57.1509ZM132.785 57.1509C136.37 57.1509 139.817 59.1043 139.817 63.6316C139.817 68.1589 136.37 70.0893 132.785 70.0893C129.199 70.0893 125.775 68.1589 125.775 63.6316C125.775 59.1043 129.199 57.1509 132.785 57.1509ZM132.785 67.9981C136.071 67.9981 137.197 65.7689 137.197 63.6316C137.197 61.4714 136.071 59.2422 132.785 59.2422C129.498 59.2422 128.372 61.4714 128.372 63.6316C128.372 65.7689 129.498 67.9981 132.785 67.9981ZM151.765 69.7446L147.605 64.1832L144.962 66.6651V69.7446H142.113V53.6578H144.962V63.4478L151.282 57.4956H154.821L149.604 62.3447L155.12 69.7446H151.765ZM162.473 57.1509C166.357 57.1509 169.483 59.449 169.161 64.5279H158.13C158.452 66.6192 159.945 67.9981 162.519 67.9981C164.909 67.9981 165.921 66.849 166.334 65.9757H168.816C168.196 68.4807 165.806 70.0893 162.519 70.0893C159.026 70.0893 155.579 68.09 155.579 63.6316C155.579 59.2422 158.957 57.1509 162.473 57.1509ZM158.199 62.4596H166.633C166.265 60.5292 164.932 59.2422 162.473 59.2422C160.198 59.2422 158.636 60.5292 158.199 62.4596ZM179.235 57.1509C179.786 57.1509 180.108 57.1739 180.591 57.2428V60.0466H180.499C180.016 59.9087 179.396 59.8167 178.614 59.8167C175.512 59.8167 174.34 61.6093 174.34 63.5167V69.7446H171.49V57.4956H174.34V59.7938C174.891 58.8975 176.592 57.1509 179.235 57.1509ZM197.416 60.4602C201.966 61.0807 204.701 61.7701 204.701 64.8956C204.701 67.9291 202.426 70.0893 196.795 70.0893C190.797 70.0893 188.407 67.8602 188.407 64.9645H191.441C191.533 66.6422 193.417 67.6993 196.887 67.6993C199.875 67.6993 201.759 66.9639 201.759 65.2403C201.759 63.3099 199.093 63.4708 194.612 62.7354C190.751 62.1149 188.959 60.8739 188.959 58.254C188.959 55.4503 191.004 53.336 196.313 53.336C201.828 53.336 203.92 55.841 203.92 58.1391H201.024C200.886 56.9671 199.668 55.7261 196.244 55.7261C192.659 55.7261 191.808 56.8062 191.808 58.0472C191.808 59.7938 193.969 59.9776 197.416 60.4602ZM213.084 57.1509C216.669 57.1509 220.116 59.1043 220.116 63.6316C220.116 68.1589 216.669 70.0893 213.084 70.0893C209.499 70.0893 206.075 68.1589 206.075 63.6316C206.075 59.1043 209.499 57.1509 213.084 57.1509ZM213.084 67.9981C216.37 67.9981 217.497 65.7689 217.497 63.6316C217.497 61.4714 216.37 59.2422 213.084 59.2422C209.798 59.2422 208.672 61.4714 208.672 63.6316C208.672 65.7689 209.798 67.9981 213.084 67.9981ZM222.412 52.7845H225.239V69.7446H222.412V52.7845ZM238.078 57.4956H240.905V69.7446H238.078V67.8602C237.504 68.6645 235.941 70.0893 233.39 70.0893C230.196 70.0893 228.449 68.2738 228.449 65.4242V57.4956H231.276V64.5739C231.276 66.6422 232.402 67.7912 234.631 67.7912C236.86 67.7912 238.078 66.5043 238.078 64.5739V57.4956ZM251.887 59.6559H248.187V65.1714C248.187 67.2397 249.015 67.8142 251.887 67.5155V69.7216C251.474 69.8366 250.853 69.9285 250.279 69.9285C246.556 69.9285 245.361 68.4117 245.361 65.1714V59.6559H242.971V57.4956H245.361V54.3242H248.187V57.4956H251.887V59.6559ZM254.64 69.7446V57.4956H257.466V69.7446H254.64ZM256.042 55.795C255.168 55.795 254.548 55.2894 254.548 54.4162C254.548 53.5429 255.168 53.0373 256.042 53.0373C256.938 53.0373 257.558 53.5429 257.558 54.4162C257.558 55.2894 256.938 55.795 256.042 55.795ZM266.767 57.1509C270.352 57.1509 273.799 59.1043 273.799 63.6316C273.799 68.1589 270.352 70.0893 266.767 70.0893C263.182 70.0893 259.758 68.1589 259.758 63.6316C259.758 59.1043 263.182 57.1509 266.767 57.1509ZM266.767 67.9981C270.053 67.9981 271.179 65.7689 271.179 63.6316C271.179 61.4714 270.053 59.2422 266.767 59.2422C263.481 59.2422 262.354 61.4714 262.354 63.6316C262.354 65.7689 263.481 67.9981 266.767 67.9981ZM283.61 57.1509C286.804 57.1509 288.551 58.9664 288.551 61.8161V69.7446H285.724V62.6664C285.724 60.5981 284.598 59.449 282.369 59.449C280.14 59.449 278.922 60.736 278.922 62.6664V69.7446H276.095V57.4956H278.922V59.3801C279.496 58.5758 281.059 57.1509 283.61 57.1509ZM298.218 62.5745C301.688 63.172 303.641 63.6316 303.641 66.0447C303.641 68.8943 301.274 70.0893 297.183 70.0893C293.46 70.0893 290.611 68.8024 290.611 66.0217H293.529C293.529 67.3546 294.839 67.9521 297.413 67.9521C299.918 67.9521 300.814 67.3316 300.814 66.4124C300.814 65.0565 298.769 65.0335 295.644 64.4589C292.472 63.8614 291.07 63.126 291.07 60.9428C291.07 58.4838 293.369 57.1509 296.977 57.1509C300.906 57.1509 303.021 58.7136 303.021 60.9888H300.378C300.378 60.2074 299.55 59.2422 296.931 59.2422C294.472 59.2422 293.621 59.8627 293.621 60.8049C293.621 62.0459 296.034 62.2068 298.218 62.5745Z" fill="#15202A"/>
</svg>
