<svg width="250" height="212" viewBox="0 0 250 212" fill="none" xmlns="http://www.w3.org/2000/svg">
<g clip-path="url(#clip0_379_31451)">
<path d="M16.9406 125.882C16.8615 126.106 16.6837 126.099 16.5453 126.152C15.8228 126.427 15.1148 126.739 14.4244 127.087C13.5679 127.513 12.8739 128.207 12.4483 129.063C12.0794 129.795 11.7517 130.548 11.4668 131.316C11.4273 131.415 11.401 131.56 11.2956 131.573C11.1902 131.586 11.1375 131.415 11.0914 131.31C10.8081 130.651 10.5447 129.992 10.2548 129.334C9.80269 128.263 8.95244 127.411 7.88355 126.956L6.30927 126.297C6.04067 126.208 5.79222 126.067 5.57812 125.882C6.89551 125.289 8.27876 124.94 9.28656 123.906C10.2944 122.872 10.6566 121.482 11.2626 120.112C11.8686 121.495 12.2375 122.905 13.2387 123.912C14.2399 124.92 15.6759 125.335 16.9406 125.882Z" fill="#725DC6"/>
<path d="M35.7412 195.446C35.616 195.769 35.3526 195.769 35.1484 195.848C34.0774 196.254 33.0286 196.715 32.0064 197.231C30.7378 197.854 29.7098 198.877 29.0818 200.143C28.5314 201.225 28.0432 202.338 27.6195 203.476C27.5668 203.627 27.5339 203.838 27.3692 203.858C27.2045 203.878 27.1387 203.621 27.0728 203.463C26.6512 202.494 26.256 201.519 25.8279 200.558C25.163 198.966 23.9034 197.697 22.317 197.021L19.9853 196C19.5931 195.891 19.2246 195.71 18.8984 195.466C20.8218 194.583 22.8967 194.063 24.3985 192.574C25.9003 191.086 26.4273 188.985 27.3495 186.949C28.2519 189.004 28.792 191.099 30.307 192.588C31.822 194.076 33.8573 194.63 35.7412 195.446Z" fill="#725DC6"/>
<path d="M243.184 33.507C243.099 33.731 242.921 33.7244 242.782 33.7771C242.06 34.0522 241.352 34.3644 240.661 34.7124C239.803 35.1353 239.108 35.83 238.685 36.6885C238.312 37.4191 237.982 38.1713 237.697 38.9412C237.658 39.04 237.638 39.1849 237.526 39.1981C237.414 39.2113 237.368 39.04 237.322 38.9346C237.045 38.2759 236.775 37.6172 236.485 36.9585C236.033 35.8884 235.183 35.0358 234.114 34.5807L232.54 33.922C232.275 33.8489 232.027 33.7259 231.809 33.5597C233.126 32.9669 234.509 32.6178 235.517 31.5836C236.525 30.5495 236.894 29.1596 237.493 27.7896C238.099 29.1728 238.468 30.5824 239.469 31.5902C240.47 32.598 241.913 32.9603 243.184 33.507Z" fill="#FFD255"/>
<path d="M189.319 154.937C222.831 154.937 249.998 127.77 249.998 94.2583C249.998 60.7464 222.831 33.5796 189.319 33.5796C155.807 33.5796 128.641 60.7464 128.641 94.2583C128.641 127.77 155.807 154.937 189.319 154.937Z" fill="#FFD255"/>
<path d="M189.369 55.7378C189.593 55.8366 189.678 56.054 189.79 56.245L196.601 67.5481C201.559 75.7818 206.523 84.0132 211.494 92.2425C211.922 92.9605 212.337 93.685 212.811 94.3833C213.088 94.818 213.042 95.042 212.568 95.3384C208.616 97.6438 204.692 99.9602 200.797 102.288C197.2 104.413 193.608 106.543 190.021 108.677C189.831 108.819 189.599 108.896 189.362 108.896C189.125 108.896 188.894 108.819 188.703 108.677C181.238 104.25 173.773 99.8372 166.308 95.4372C165.517 94.9695 165.524 94.9629 165.998 94.1659C173.411 81.8703 180.819 69.5747 188.222 57.2791C188.479 56.851 188.73 56.4228 188.993 56.0013C189.105 55.9091 189.171 55.7444 189.369 55.7378Z" fill="white"/>
<path d="M165.821 99.4749C166.842 100.074 167.869 100.667 168.89 101.273C175.381 105.107 181.867 108.947 188.348 112.794C188.629 113.003 188.97 113.116 189.32 113.116C189.67 113.116 190.011 113.003 190.291 112.794C197.609 108.453 204.967 104.145 212.318 99.7976C212.502 99.6922 212.667 99.5078 212.977 99.5276C212.977 99.8042 212.786 99.9755 212.654 100.186L193.657 126.87L189.824 132.284C189.349 132.943 189.33 132.943 188.849 132.284L178.079 117.134L166.223 100.463C166.032 100.193 165.841 99.9162 165.656 99.6395L165.821 99.4749Z" fill="white"/>
<path d="M50.1265 106.253C77.8106 106.253 100.253 83.8106 100.253 56.1265C100.253 28.4424 77.8106 6 50.1265 6C22.4424 6 0 28.4424 0 56.1265C0 83.8106 22.4424 106.253 50.1265 106.253Z" fill="#725DC6"/>
<path d="M39.7384 61.0404L37.7624 61.5872L33.527 62.7399C33.4611 62.7399 33.3755 62.8255 33.3228 62.7399C33.2701 62.6542 33.3228 62.6147 33.3689 62.5488C33.8519 61.3983 34.3306 60.2412 34.8048 59.0775C34.828 59.0147 34.8667 58.9587 34.9174 58.9149C34.9681 58.8712 35.0291 58.841 35.0947 58.8272L40.5947 57.3254C40.6713 57.3131 40.7422 57.2773 40.7976 57.2231C40.8531 57.1688 40.8903 57.0987 40.9043 57.0224C41.8045 53.887 42.7091 50.7517 43.6181 47.6163L46.1673 38.7635L47.4254 34.4029C47.4795 34.1703 47.6145 33.9644 47.8063 33.8221C47.9982 33.6797 48.2343 33.6101 48.4727 33.6257C50.4488 33.6257 52.4248 33.6257 54.4009 33.6257C54.7961 33.6257 55.1913 33.6257 55.5931 33.6257C55.7635 33.6161 55.9335 33.6491 56.0879 33.7217C56.2422 33.7943 56.3761 33.9042 56.4774 34.0414C56.5787 34.1787 56.6443 34.339 56.6681 34.5079C56.692 34.6768 56.6734 34.849 56.6141 35.0089C56.3045 36.0101 55.9554 36.985 55.659 37.9994C54.8818 40.441 54.1023 42.8847 53.3207 45.3306C52.6093 47.5702 51.8935 49.8097 51.1733 52.0493C50.923 52.8331 50.6727 53.617 50.429 54.4008C50.429 54.4535 50.3565 54.5194 50.429 54.5721C50.5015 54.6248 50.5476 54.5721 50.6003 54.5721L55.7644 53.1559L56.6471 52.9254C56.6998 52.9254 56.759 52.8727 56.8051 52.9254C56.8512 52.9781 56.8051 53.0242 56.8051 53.0703C56.3572 54.1637 55.8896 55.244 55.4878 56.3637C55.4331 56.5203 55.3379 56.6596 55.2117 56.7672C55.0855 56.8749 54.933 56.947 54.7698 56.9763C52.9781 57.444 51.1931 57.9512 49.4014 58.432C49.3201 58.4496 49.2454 58.4899 49.1859 58.5482C49.1265 58.6065 49.0847 58.6804 49.0655 58.7614C48.0072 62.0197 46.9533 65.2912 45.9038 68.5759C45.7325 69.1226 45.5547 69.6693 45.3768 70.216C45.3044 70.4466 45.3044 70.4532 45.5481 70.4532C46.9379 70.4532 48.3212 70.4532 49.711 70.4532C52.0296 70.4532 54.3219 70.4532 56.6668 70.5058C58.4321 70.5058 60.1974 70.5058 61.9363 70.5058C63.2537 70.5058 64.5052 70.5059 65.7963 70.5388C65.9783 70.5258 66.1606 70.56 66.3255 70.6381C66.4904 70.7162 66.6324 70.8355 66.7377 70.9846C66.843 71.1336 66.9081 71.3073 66.9267 71.4888C66.9452 71.6703 66.9166 71.8536 66.8436 72.0208L65.737 75.2418C65.3813 76.276 65.0322 77.3167 64.6897 78.3509C64.6753 78.4275 64.6312 78.4954 64.5671 78.5398C64.503 78.5841 64.424 78.6015 64.3472 78.588C62.3711 78.5419 60.395 78.588 58.4189 78.5419C56.4429 78.4958 54.3548 78.5419 52.326 78.5024C50.5278 78.4628 48.7296 78.5024 46.9314 78.4563C44.9553 78.4167 42.9792 78.4563 41.0031 78.4167C39.027 78.3772 37.051 78.4167 35.1144 78.3772C34.706 78.3772 34.7126 78.3772 34.8246 77.9754C35.5228 75.6612 36.21 73.3163 36.8863 70.9406L39.6923 61.2183C39.7112 61.16 39.7266 61.1006 39.7384 61.0404Z" fill="white"/>
<path d="M112.779 205.834C149.947 205.834 180.078 175.703 180.078 138.535C180.078 101.367 149.947 71.2368 112.779 71.2368C75.6111 71.2368 45.4805 101.367 45.4805 138.535C45.4805 175.703 75.6111 205.834 112.779 205.834Z" fill="#9AC67F"/>
<path d="M129.834 134.893C131.133 135.198 132.396 135.64 133.602 136.21C136.895 137.837 138.509 140.584 139.003 144.115C139.258 146.013 139.216 147.94 138.878 149.825C138.035 154.772 135.031 157.842 130.466 159.594C127.687 160.577 124.794 161.201 121.857 161.451C121.106 161.537 120.895 161.833 120.935 162.564C121.093 165.344 121.172 168.124 121.33 170.897C121.376 171.707 121.159 172.043 120.296 172.043C118.82 172.043 117.345 172.122 115.87 172.234C115.119 172.293 114.855 172.056 114.835 171.299C114.75 168.486 114.585 165.68 114.506 162.874C114.506 162.169 114.249 161.972 113.584 162.024C112.629 162.103 111.674 162.103 110.719 162.136C109.638 162.182 109.619 162.202 109.671 163.309C109.79 165.944 109.915 168.578 110.027 171.213C110.086 172.498 110.073 172.491 108.802 172.53C107.386 172.583 105.969 172.616 104.553 172.728C103.802 172.787 103.598 172.491 103.572 171.806C103.473 169.026 103.341 166.253 103.223 163.473C103.177 162.38 103.137 162.321 102.083 162.367C98.6711 162.503 95.2591 162.648 91.847 162.802C90.5297 162.867 90.5297 162.881 90.6812 161.484C90.9117 159.64 91.1488 157.802 91.3399 155.958C91.4057 155.299 91.6494 155.049 92.3213 155.055C93.474 155.055 94.6333 154.99 95.7926 154.917C97.5777 154.799 98.3088 154.008 98.2298 152.236C97.8477 143.208 97.4569 134.179 97.0573 125.151C97.0669 124.756 96.9979 124.364 96.8541 123.996C96.7104 123.629 96.4949 123.294 96.2202 123.01C95.9454 122.727 95.617 122.501 95.2541 122.346C94.8912 122.191 94.501 122.11 94.1064 122.108C92.8057 122.051 91.5026 122.086 90.2069 122.213C88.7512 122.312 88.7512 122.312 88.6919 120.896C88.6326 119.479 88.5668 118.057 88.5009 116.64C88.4482 115.389 88.4482 115.389 89.6799 115.323C93.0327 115.178 96.392 115.066 99.7448 114.875C101.121 114.796 101.108 115.119 101.062 113.452C100.944 110.739 100.845 108.018 100.7 105.298C100.7 104.639 100.865 104.481 101.457 104.461C103.051 104.422 104.645 104.369 106.233 104.25C106.99 104.198 107.162 104.507 107.181 105.192C107.274 107.965 107.425 110.745 107.524 113.525C107.524 114.111 107.702 114.348 108.341 114.276C109.408 114.164 110.475 114.105 111.549 114.098C112.207 114.098 112.372 113.795 112.339 113.182C112.207 110.548 112.102 107.913 111.99 105.278C111.931 104.007 111.931 104.007 113.241 103.961L117.233 103.796C118.399 103.75 118.406 103.75 118.452 104.87C118.57 107.59 118.709 110.31 118.781 113.031C118.781 113.841 119.077 114.105 119.888 114.137C122.415 114.205 124.915 114.67 127.298 115.514C132.449 117.411 135.018 121.442 134.669 126.903C134.616 128.413 134.203 129.888 133.464 131.206C132.725 132.524 131.681 133.646 130.42 134.478L129.834 134.893ZM120.948 153.033C121.7 152.826 122.425 152.532 123.109 152.157C125.23 151.018 126.619 149.391 126.481 146.842C126.457 145.686 126.078 144.567 125.394 143.635C124.71 142.704 123.756 142.006 122.661 141.638C121.393 141.141 120.063 140.818 118.709 140.676C115.619 140.421 112.514 140.437 109.428 140.722C108.907 140.755 108.815 140.979 108.835 141.427C109.019 145.502 109.195 149.577 109.362 153.652C109.362 154.166 109.612 154.39 110.119 154.364C113.617 154.206 117.121 154.146 120.948 153.033ZM122.476 126.099C122.317 125.466 122.028 124.873 121.628 124.357C121.228 123.841 120.725 123.414 120.151 123.102C119.334 122.625 118.444 122.284 117.516 122.094C114.559 121.475 111.588 121.686 108.611 121.903C108.064 121.943 108.038 122.233 108.057 122.654C108.224 126.264 108.38 129.876 108.525 133.49C108.525 134.05 108.782 134.274 109.322 134.241C110.251 134.195 111.18 134.195 112.102 134.122C114.552 133.925 116.983 133.674 119.282 132.66C122.041 131.428 123.3 128.958 122.476 126.099Z" fill="white"/>
</g>
<defs>
<clipPath id="clip0_379_31451">
<rect width="250" height="200" fill="white" transform="translate(0 6)"/>
</clipPath>
</defs>
</svg>
