<svg width="250" height="212" viewBox="0 0 250 212" fill="none" xmlns="http://www.w3.org/2000/svg">
<g clip-path="url(#clip0_379_31456)">
<g clip-path="url(#clip1_379_31456)">
<path d="M0 58.0616C0 58.0616 14.2274 41.2612 73.3065 30.9108C132.386 20.5604 126.351 -1 126.351 -1C126.351 -1 157.396 82.2242 169.039 135.251C169.039 135.251 134.111 158.963 94.44 167.589C54.7694 176.214 50.8748 182.272 50.8748 182.272C50.8748 182.272 14.2274 115.427 0 58.0616Z" fill="#FFD255"/>
<path d="M24.9622 85.0367C30.1141 81.9141 32.7221 76.312 35.8272 71.4058C37.371 68.9614 39.1429 66.4294 41.5287 64.7336C42.7801 63.8447 44.4058 63.0611 45.9788 63.3009C47.5518 63.5406 48.3764 64.7687 48.7155 66.1779C49.0527 67.9953 48.9565 69.8665 48.4348 71.6397C47.9214 73.686 47.0439 75.6232 45.8443 77.3587H47.3647C46.3004 75.312 47.0372 73.0431 48.2126 71.2128C49.6225 69.1968 51.4269 67.4879 53.5165 66.1896C56.107 64.4353 63.9721 59.6753 64.1125 66.0142C64.1531 69.0952 63.5038 72.1462 62.212 74.9436L63.8142 75.6161C64.558 71.6599 66.144 67.91 68.4646 64.6208C70.7852 61.3316 73.7862 58.58 77.2639 56.5527C78.7375 55.7106 81.4918 53.8686 82.9771 55.4942C84.2694 56.9035 83.9536 59.1198 83.8776 60.8507C83.7841 62.9383 84.018 65.1721 85.7547 66.5756C86.5365 67.1727 87.4456 67.5815 88.4111 67.7701C89.3766 67.9588 90.3726 67.9222 91.3217 67.6633C93.4386 67.1428 95.3215 65.7803 96.8887 64.3067C98.3769 62.9028 99.634 61.2726 100.614 59.4765C102.622 55.8689 103.469 51.7299 103.04 47.6233C102.836 45.869 102.456 43.5884 100.66 42.7054C98.7073 41.7405 96.8653 43.1849 95.7952 44.7404C94.5254 46.6945 93.6549 48.8807 93.2339 51.1728C92.7665 53.4532 92.8185 55.8096 93.3859 58.0672C94.4034 61.8507 97.2045 65.2306 100.988 66.4879C102.75 67.0509 104.636 67.0968 106.423 66.62C108.21 66.1432 109.822 65.1638 111.069 63.7979C111.674 63.1038 112.158 62.3131 112.502 61.4589C112.935 60.418 111.239 59.9677 110.812 60.9911C109.549 64.0318 105.865 65.6341 102.725 65.1312C99.2161 64.5464 96.4092 61.6226 95.304 58.3245C93.9415 54.2779 94.9005 49.553 97.0875 45.9801C97.4875 45.2032 98.1389 44.5849 98.9354 44.2258C99.7833 43.9509 100.386 44.5766 100.725 45.2842C101.473 46.8455 101.473 48.8922 101.397 50.5822C101.202 54.3052 99.8985 57.885 97.6547 60.8624C95.6081 63.564 91.772 67.1253 88.0704 65.8505C86.0413 65.1488 85.5968 63.2483 85.6495 61.3068C85.6962 59.4941 85.9418 57.6871 85.2811 55.9504C84.6203 54.2136 83.3104 53.0265 81.4567 53.0791C79.603 53.1318 77.568 54.3189 75.9482 55.2896C69.5823 59.1516 64.888 65.2515 62.785 72.394C62.5238 73.2946 62.3091 74.2081 62.1418 75.1307C61.9781 76.0313 63.3113 76.7739 63.7441 75.8032C65.1036 72.8683 65.8327 69.681 65.8843 66.4469C65.8843 65.0435 65.7264 63.5582 64.7908 62.4471C64.3995 62.0123 63.9242 61.6611 63.3936 61.4149C62.8629 61.1687 62.2879 61.0325 61.7032 61.0144C58.9197 60.8332 56.1479 62.4705 53.8732 63.8681C51.3177 65.4411 48.8676 67.289 47.1016 69.7158C45.3356 72.1426 44.3882 75.3588 45.8677 78.2066C45.9472 78.336 46.0586 78.4429 46.1912 78.517C46.3237 78.5912 46.4731 78.6301 46.625 78.6301C46.7769 78.6301 46.9262 78.5912 47.0588 78.517C47.1914 78.4429 47.3027 78.336 47.3822 78.2066C49.5167 75.0957 50.9493 71.0549 50.6628 67.2481C50.54 65.64 50.078 63.9617 48.8617 62.8214C48.224 62.2567 47.4587 61.8553 46.6316 61.6516C45.8046 61.4479 44.9404 61.448 44.1134 61.6518C40.8562 62.3068 38.33 64.9909 36.3945 67.4995C34.4589 70.0082 32.8859 72.9496 31.1666 75.6863C29.3012 78.692 27.1727 81.61 24.0968 83.4754C23.1319 84.0602 24.0149 85.5806 24.9856 84.9899L24.9622 85.0367Z" fill="#F4E5C2"/>
<path d="M37.3313 112.199C43.6351 114.538 50.5471 109.708 54.389 105.048C55.388 103.844 56.2729 102.55 57.0322 101.182C57.8099 99.7614 58.5643 98.1708 58.3537 96.5042C58.2727 95.8091 57.988 95.1535 57.5354 94.6198C57.0828 94.086 56.4825 93.698 55.81 93.5044C54.196 93.0833 53.0557 94.2412 52.3014 95.5043C50.629 98.2118 50.0559 101.726 51.471 104.668C52.7049 107.223 55.5001 109.1 58.3888 108.761C61.4296 108.434 63.6517 106.118 65.6049 103.983C67.9087 101.409 70.5006 99.1072 73.3297 97.1241C76.0839 95.2353 79.8907 92.8553 83.2707 94.6564C86.8729 96.5744 85.1186 100.96 83.1538 103.428L84.6215 103.814C84.1128 100.808 86.1536 98.1241 88.5044 96.5042C90.6388 95.0365 93.8959 93.5804 96.5098 94.5745C97.0448 94.7551 97.5012 95.1144 97.8022 95.592C98.1706 96.1768 98.3519 96.9194 99.001 97.3171C100.404 98.1825 101.989 96.5393 102.954 95.668C105.365 93.4749 107.185 90.7096 108.246 87.6275C109 85.4404 110.076 81.4582 107.62 79.8793C107.056 79.5337 106.384 79.4071 105.732 79.5235C105.08 79.6398 104.493 79.9911 104.083 80.5108C103.231 81.6014 102.794 82.9586 102.849 84.3411C102.915 87.7844 104.226 91.0873 106.539 93.6389C108.673 95.9779 112.065 97.6504 115.205 96.3639C118.439 95.0306 119.982 91.4694 121.205 88.4403C122.766 84.5867 123.953 80.2945 122.655 76.1602C122.6 75.9789 122.488 75.8201 122.336 75.7072C122.184 75.5944 121.999 75.5334 121.81 75.5334C121.62 75.5334 121.436 75.5944 121.284 75.7072C121.132 75.8201 121.02 75.9789 120.965 76.1602C120.62 77.2677 120.621 78.4543 120.968 79.5612C121.316 80.668 121.993 81.6424 122.909 82.354C123.825 83.0655 124.937 83.4803 126.095 83.5428C127.254 83.6053 128.404 83.3125 129.391 82.7037C129.583 82.5823 129.721 82.3911 129.775 82.1705C129.828 81.9498 129.795 81.7169 129.68 81.5207C129.566 81.3244 129.38 81.1802 129.161 81.1184C128.943 81.0566 128.709 81.0819 128.508 81.1892C127.822 81.6218 127.019 81.8322 126.209 81.7918C125.399 81.7513 124.622 81.4619 123.982 80.9631C123.342 80.4643 122.872 79.7803 122.636 79.0044C122.399 78.2286 122.408 77.3987 122.661 76.628H120.971C122.006 79.9085 121.24 83.3002 120.099 86.4462C119.17 89.0017 118.088 91.9314 116.006 93.7909C113.702 95.8493 110.632 95.0248 108.521 93.1184C106.254 91.0103 104.868 88.1239 104.638 85.0369C104.55 83.8674 104.603 82.5107 105.439 81.5927C106.275 80.6746 107.036 81.4465 107.258 82.3587C107.55 83.5692 107.211 84.8849 106.889 86.0486C106.506 87.4316 105.952 88.7615 105.24 90.0075C104.533 91.2546 103.677 92.4112 102.691 93.4518C102.208 93.9621 101.699 94.4462 101.165 94.902C100.931 95.095 100.691 95.2821 100.451 95.4575C100.071 95.7323 99.9541 96.013 99.7027 95.592C99.459 95.0764 99.1673 94.585 98.8314 94.1242C98.4504 93.7052 97.989 93.3672 97.4747 93.1301C96.3525 92.652 95.1251 92.4746 93.9135 92.6155C88.2763 93.1477 81.838 98.1124 82.8906 104.311C82.9312 104.458 83.0096 104.593 83.1181 104.701C83.2267 104.808 83.3615 104.886 83.5093 104.926C83.6571 104.965 83.8127 104.965 83.9606 104.926C84.1085 104.887 84.2436 104.81 84.3525 104.703C86.1068 102.516 87.6389 99.6152 86.9372 96.7323C86.2823 94.0365 83.6859 92.5044 81.0486 92.329C77.9201 92.1243 74.9962 93.8728 72.5051 95.5686C69.8626 97.3646 67.4269 99.4473 65.2423 101.779C63.4471 103.703 61.5992 106.206 58.9385 106.919C56.2778 107.632 53.6756 105.855 52.7868 103.41C52.2938 102.016 52.2387 100.504 52.6289 99.0772C52.809 98.3658 53.074 97.6786 53.4183 97.0305C53.7224 96.4458 54.161 95.4984 54.8101 95.2294C55.0551 95.1682 55.3128 95.1805 55.5509 95.2647C55.789 95.3489 55.9971 95.5014 56.1492 95.7031C56.3731 95.9894 56.5272 96.324 56.5993 96.6803C56.6714 97.0366 56.6594 97.4048 56.5644 97.7556C56.2837 99.2059 55.3948 100.592 54.5937 101.814C52.7873 104.587 50.4062 106.941 47.6116 108.714C44.6877 110.545 41.1382 111.767 37.7816 110.515C36.7232 110.123 36.2671 111.813 37.3196 112.205L37.3313 112.199Z" fill="#F4E5C2"/>
<path d="M48.2067 143.215C52.4126 142.818 56.3451 140.955 59.3173 137.952C62.4047 134.789 64.1841 130.577 64.2995 126.158C64.3652 123.566 63.8706 120.991 62.8493 118.608C62.5862 117.977 61.6388 118.1 61.3348 118.608C55.9841 127.637 57.4227 140.169 64.8902 147.607C66.9427 149.648 69.5215 151.116 72.4921 150.683C75.4628 150.25 77.9071 148.081 79.5094 145.613C80.3085 144.339 81.0009 143.001 81.5794 141.613C82.2701 140.087 82.8811 138.525 83.4098 136.935C84.3045 134.075 84.6612 130.912 83.591 128.047C82.7314 125.754 80.3573 122.567 77.4919 123.474C74.9248 124.292 74.7669 127.707 75.7902 129.742C76.3473 130.734 77.1171 131.589 78.0443 132.247C78.9715 132.906 80.033 133.35 81.1525 133.549C82.3757 133.763 83.6306 133.708 84.8303 133.388C86.0299 133.067 87.1455 132.49 88.0996 131.695C90.1735 129.977 91.7822 127.765 92.7777 125.263C93.7368 123.029 94.3391 120.585 95.7834 118.585C96.4099 117.656 97.337 116.97 98.409 116.644C99.7949 116.362 101.236 116.637 102.421 117.41C104.76 118.784 106.754 121.532 106.362 124.362C106.198 125.626 105.573 126.783 104.608 127.614C103.771 128.304 102.04 129.023 101.415 127.725C100.198 125.216 102 122.228 104.064 120.813C105.322 119.993 106.704 119.383 108.157 119.006C109.519 118.588 110.917 118.297 112.332 118.135C113.476 117.943 114.65 118.096 115.706 118.573C116.876 119.24 117.25 120.55 117.016 121.836C116.697 123.197 116.134 124.488 115.356 125.649C115.271 125.814 115.24 126.001 115.268 126.184C115.295 126.367 115.38 126.537 115.509 126.669C115.638 126.802 115.806 126.89 115.988 126.922C116.171 126.954 116.358 126.928 116.525 126.848C119.037 125.524 121.058 123.431 122.292 120.874C123.527 118.318 123.909 115.434 123.384 112.644C123.186 111.626 121.718 111.93 121.665 112.878C121.379 117.977 126.297 121.848 131.162 121.205C133.498 120.869 135.653 119.759 137.282 118.052C138.911 116.344 139.919 114.139 140.144 111.79C140.345 109.26 139.794 106.727 138.559 104.51C137.624 102.755 135.261 99.1707 132.864 100.27C131.817 100.75 131.162 101.995 130.811 103.036C130.456 104.136 130.366 105.304 130.548 106.445C130.726 107.641 131.162 108.783 131.827 109.793C132.491 110.803 133.368 111.656 134.396 112.293C140.039 115.866 146.793 112.954 151.722 109.58C152.646 108.942 151.769 107.422 150.839 108.065C147.138 110.603 142.688 112.965 138.056 111.907C137.061 111.72 136.113 111.334 135.27 110.772C134.427 110.211 133.706 109.485 133.15 108.638C132.651 107.843 132.342 106.943 132.246 106.009C132.151 105.075 132.272 104.132 132.6 103.252C132.757 102.859 132.976 102.494 133.25 102.171C133.735 101.621 134.226 101.96 134.7 102.375C135.461 103.068 136.121 103.865 136.659 104.744C137.747 106.475 138.353 108.465 138.413 110.509C138.48 112.416 137.924 114.292 136.828 115.854C135.733 117.415 134.158 118.578 132.343 119.164C131.362 119.503 130.319 119.619 129.287 119.506C128.256 119.393 127.262 119.052 126.379 118.509C125.431 117.918 124.656 117.087 124.132 116.1C123.608 115.113 123.355 114.006 123.396 112.889L121.642 113.117C122.07 115.536 121.713 118.028 120.624 120.23C119.536 122.432 117.771 124.228 115.59 125.357L116.788 126.555C118.139 124.327 119.613 121.292 118.186 118.749C116.858 116.41 113.929 116.158 111.52 116.492C106.362 117.193 99.3915 119.661 99.2394 125.906C99.2043 127.181 99.5552 128.742 100.584 129.584C101.614 130.427 103.116 130.321 104.292 129.813C105.478 129.244 106.47 128.339 107.146 127.211C107.822 126.083 108.151 124.782 108.093 123.468C107.894 118.275 101.432 112.48 96.3273 115.649C94.2689 116.93 93.2046 119.246 92.345 121.409C91.3801 123.836 90.5556 126.281 88.9124 128.362C87.3979 130.28 85.1582 132 82.6086 131.964C80.5035 131.964 78.1936 130.795 77.2405 128.859C76.7785 127.912 76.6557 126.555 77.3048 125.655C78.2287 124.386 79.8485 125.579 80.5912 126.421C82.5443 128.631 82.7256 131.894 82.1408 134.649C81.7476 136.321 81.2055 137.955 80.521 139.531C79.9567 140.957 79.3064 142.348 78.5737 143.695C77.141 146.25 74.8429 148.8 71.7202 149.046C68.7964 149.268 66.4866 147.063 64.7557 144.981C63.1172 142.98 61.8569 140.698 61.0365 138.245C59.3368 133.273 59.3739 127.872 61.1418 122.924C61.58 121.747 62.1241 120.611 62.7674 119.532H61.2529C62.801 123.3 62.8741 127.513 61.4576 131.333C60.3898 134.085 58.5823 136.488 56.2347 138.277C53.887 140.067 51.0906 141.173 48.1541 141.473C47.043 141.584 47.0313 143.338 48.1541 143.227L48.2067 143.215Z" fill="#F4E5C2"/>
<path d="M209.92 68.9635L195.926 62.2405L190.325 73.8999L204.319 80.6229L209.92 68.9635Z" fill="#CC271F"/>
<path d="M230.606 166.344C246.798 132.639 232.254 92.0237 198.122 75.6262C163.989 59.2287 123.194 73.2588 107.002 106.963C90.8097 140.668 105.353 181.284 139.486 197.681C173.618 214.079 214.414 200.048 230.606 166.344Z" fill="#EA3223"/>
<path d="M218.991 160.765C232.14 133.395 220.328 100.413 192.609 87.0959C164.89 73.7794 131.759 85.1719 118.611 112.542C105.462 139.912 117.274 172.895 144.993 186.211C172.712 199.528 205.842 188.135 218.991 160.765Z" fill="white"/>
<path d="M208.431 73.684C216.113 72.1239 221.091 64.7093 219.55 57.1228C218.009 49.5364 210.533 44.651 202.852 46.211C195.17 47.771 190.192 55.1857 191.733 62.7721C193.274 70.3586 200.75 75.244 208.431 73.684Z" fill="#EA3223"/>
<path d="M170.027 137.222L188.155 134.76L187.079 134.175C188.059 138.191 188.808 142.26 189.324 146.361C189.326 146.495 189.359 146.627 189.419 146.747C189.479 146.866 189.566 146.971 189.672 147.053C189.778 147.134 189.902 147.191 190.033 147.218C190.164 147.245 190.299 147.242 190.429 147.209L213.884 142.116C214.99 141.876 214.522 140.186 213.417 140.426L189.967 145.519L191.079 146.361C190.542 142.087 189.761 137.846 188.739 133.66C188.667 133.445 188.516 133.265 188.316 133.157C188.117 133.048 187.884 133.019 187.663 133.076L169.536 135.537C169.317 135.605 169.134 135.755 169.024 135.956C168.915 136.157 168.889 136.393 168.951 136.613C169.016 136.835 169.165 137.022 169.365 137.137C169.566 137.251 169.803 137.284 170.027 137.227V137.222Z" fill="#3476D6"/>
<path d="M208.136 139.087L215.738 141.426L215.346 139.958C213.554 141.881 211.928 143.953 210.486 146.151C209.866 147.098 211.387 147.975 212.001 147.034C213.361 144.958 214.894 143.002 216.585 141.186C216.691 141.076 216.767 140.941 216.805 140.794C216.843 140.646 216.843 140.491 216.804 140.344C216.766 140.197 216.69 140.062 216.584 139.952C216.478 139.843 216.346 139.762 216.2 139.718L208.598 137.379C207.522 137.04 207.06 138.736 208.136 139.069V139.087Z" fill="#3476D6"/>
<path d="M164.97 128.614L164.596 116.918C164.592 116.766 164.548 116.616 164.47 116.485C164.391 116.354 164.281 116.245 164.148 116.169C164.015 116.093 163.866 116.052 163.713 116.05C163.56 116.048 163.409 116.085 163.275 116.158C161.47 116.953 159.592 117.568 157.667 117.994L158.778 118.836L157.942 108.843C157.848 107.726 156.094 107.72 156.187 108.843L157.023 118.836C157.026 118.971 157.06 119.102 157.121 119.222C157.181 119.342 157.268 119.446 157.375 119.528C157.482 119.609 157.605 119.665 157.737 119.693C157.868 119.72 158.004 119.717 158.134 119.684C160.206 119.216 162.226 118.543 164.163 117.673L162.842 116.918L163.216 128.614C163.251 129.742 165.005 129.748 164.97 128.614Z" fill="#3476D6"/>
<path d="M153.916 112.375C155.379 111.029 156.709 109.544 157.887 107.942L156.512 108.118C157.759 109.219 159.164 110.126 160.682 110.808C160.884 110.917 161.121 110.945 161.344 110.887C161.566 110.828 161.758 110.687 161.881 110.492C161.989 110.294 162.017 110.063 161.96 109.845C161.902 109.627 161.763 109.44 161.571 109.322C160.183 108.715 158.895 107.901 157.752 106.907C157.656 106.815 157.54 106.745 157.413 106.704C157.287 106.662 157.152 106.649 157.02 106.666C156.888 106.682 156.761 106.729 156.649 106.801C156.537 106.873 156.442 106.969 156.372 107.083C155.281 108.56 154.051 109.931 152.7 111.176C151.869 111.942 153.115 113.182 153.939 112.416L153.916 112.375Z" fill="#3476D6"/>
<path d="M178.139 140.706C180.406 135.483 178.065 129.435 172.91 127.198C167.755 124.961 161.738 127.382 159.471 132.605C157.205 137.828 159.546 143.876 164.701 146.113C169.856 148.35 175.872 145.929 178.139 140.706Z" fill="#EA3223"/>
<path d="M189.751 92.3525L188.289 95.7968C188.179 96.0029 188.148 96.2419 188.201 96.4693C188.265 96.6891 188.409 96.877 188.605 96.9956C188.806 97.1094 189.044 97.1401 189.268 97.0811C189.492 97.0222 189.684 96.8782 189.803 96.6798L191.271 93.2355C191.378 93.0285 191.409 92.7905 191.359 92.563C191.295 92.3432 191.151 92.1553 190.955 92.0367C190.753 91.9226 190.514 91.8917 190.289 91.9506C190.064 92.0096 189.871 92.1537 189.751 92.3525Z" fill="url(#paint0_linear_379_31456)"/>
<path d="M120.931 119.503L123.129 120.562C123.336 120.671 123.575 120.702 123.802 120.649C124.022 120.586 124.21 120.442 124.328 120.246C124.387 120.144 124.425 120.032 124.44 119.916C124.455 119.799 124.447 119.681 124.416 119.568C124.387 119.458 124.336 119.356 124.267 119.266C124.198 119.177 124.111 119.102 124.012 119.047L121.814 117.989C121.609 117.876 121.368 117.845 121.141 117.901C120.92 117.963 120.732 118.107 120.615 118.304C120.556 118.405 120.519 118.516 120.503 118.632C120.488 118.747 120.496 118.865 120.527 118.977C120.556 119.087 120.606 119.19 120.676 119.281C120.745 119.371 120.832 119.447 120.931 119.503Z" fill="url(#paint1_linear_379_31456)"/>
<path d="M149.051 180.547L148.039 183.313C148.004 183.425 147.993 183.543 148.004 183.66C148.016 183.777 148.051 183.89 148.108 183.993C148.164 184.096 148.24 184.187 148.332 184.26C148.424 184.332 148.53 184.386 148.643 184.417C148.756 184.449 148.875 184.457 148.991 184.442C149.107 184.427 149.219 184.388 149.321 184.329C149.422 184.269 149.51 184.19 149.58 184.096C149.651 184.002 149.701 183.895 149.729 183.781L150.741 181.015C150.803 180.795 150.776 180.559 150.667 180.358C150.558 180.157 150.374 180.007 150.156 179.939C149.936 179.88 149.701 179.908 149.501 180.017C149.301 180.125 149.15 180.307 149.08 180.524L149.051 180.547Z" fill="url(#paint2_linear_379_31456)"/>
<path d="M213.013 157.244L215.505 158.414C215.709 158.53 215.95 158.561 216.177 158.501C216.397 158.442 216.586 158.299 216.703 158.104C216.816 157.901 216.846 157.662 216.787 157.438C216.728 157.213 216.585 157.02 216.388 156.899L213.896 155.729C213.69 155.613 213.447 155.582 213.218 155.642C213.052 155.688 212.904 155.783 212.791 155.913C212.679 156.044 212.607 156.204 212.585 156.375C212.563 156.546 212.592 156.719 212.669 156.874C212.745 157.029 212.865 157.157 213.013 157.244Z" fill="url(#paint3_linear_379_31456)"/>
<path d="M138.928 95.8025L141.033 98.1416C141.198 98.3045 141.421 98.3957 141.653 98.3957C141.885 98.3957 142.107 98.3045 142.272 98.1416C142.431 97.9743 142.52 97.7524 142.52 97.5218C142.52 97.2911 142.431 97.0692 142.272 96.9019L140.167 94.5628C140.001 94.4014 139.779 94.311 139.547 94.311C139.316 94.311 139.093 94.4014 138.928 94.5628C138.768 94.7311 138.68 94.954 138.68 95.1856C138.68 95.4172 138.768 95.6401 138.928 95.8084V95.8025Z" fill="url(#paint4_linear_379_31456)"/>
<path d="M161.133 86.2416C160.9 87.2472 160.829 88.2836 160.923 89.3116C160.927 89.5434 161.019 89.765 161.18 89.9314C161.345 90.096 161.568 90.1885 161.8 90.1887C162.032 90.1857 162.253 90.0923 162.417 89.9285C162.581 89.7646 162.674 89.5433 162.677 89.3116C162.613 88.6321 162.625 87.9476 162.712 87.2707L162.677 87.5047C162.718 87.2357 162.765 86.9725 162.823 86.7094C162.881 86.4846 162.85 86.2462 162.735 86.0443C162.621 85.8424 162.432 85.693 162.209 85.6275C161.985 85.5698 161.748 85.6016 161.547 85.7162C161.346 85.8309 161.198 86.0193 161.133 86.2416Z" fill="url(#paint5_linear_379_31456)"/>
<path d="M210.17 109.112L208.036 109.995C207.818 110.062 207.631 110.205 207.51 110.398C207.393 110.599 207.36 110.838 207.42 111.063C207.479 111.288 207.625 111.48 207.825 111.597C207.927 111.657 208.039 111.696 208.156 111.711C208.272 111.726 208.391 111.717 208.504 111.685L210.638 110.802C210.855 110.734 211.039 110.591 211.159 110.398C211.275 110.198 211.307 109.96 211.249 109.735C211.191 109.511 211.047 109.319 210.849 109.199C210.748 109.138 210.636 109.099 210.519 109.084C210.402 109.069 210.283 109.078 210.17 109.112Z" fill="url(#paint6_linear_379_31456)"/>
<path d="M216.364 134.713L217.1 134.795L216.866 134.765C217.451 134.847 218.071 134.958 218.667 135.087C218.889 135.141 219.123 135.107 219.32 134.992C219.517 134.877 219.661 134.689 219.722 134.469C219.783 134.249 219.755 134.014 219.646 133.814C219.536 133.614 219.353 133.464 219.135 133.397C218.221 133.196 217.295 133.05 216.364 132.959C216.248 132.957 216.134 132.98 216.027 133.024C215.921 133.068 215.824 133.133 215.744 133.216C215.579 133.38 215.487 133.603 215.486 133.836C215.485 133.951 215.508 134.065 215.552 134.172C215.596 134.278 215.661 134.375 215.744 134.456C215.916 134.608 216.134 134.698 216.364 134.713Z" fill="url(#paint7_linear_379_31456)"/>
<path d="M118.125 145.385L121.417 144.332C121.531 144.304 121.639 144.254 121.733 144.184C121.827 144.114 121.906 144.025 121.965 143.924C122.025 143.823 122.063 143.711 122.078 143.594C122.093 143.478 122.085 143.36 122.054 143.246C122.023 143.133 121.969 143.028 121.896 142.936C121.823 142.844 121.732 142.767 121.629 142.711C121.526 142.655 121.413 142.619 121.296 142.608C121.18 142.596 121.062 142.608 120.95 142.642L117.657 143.695C117.439 143.762 117.256 143.912 117.147 144.112C117.037 144.312 117.01 144.547 117.071 144.767C117.132 144.987 117.276 145.174 117.473 145.29C117.669 145.405 117.904 145.439 118.125 145.385Z" fill="url(#paint8_linear_379_31456)"/>
<path d="M127.31 166.472C127.67 166.092 128.062 165.742 128.479 165.425L128.304 165.565C128.606 165.332 128.922 165.117 129.251 164.922C129.447 164.804 129.591 164.616 129.654 164.396C129.703 164.228 129.7 164.049 129.645 163.882C129.591 163.716 129.487 163.57 129.348 163.463C129.209 163.356 129.041 163.294 128.867 163.284C128.692 163.274 128.518 163.317 128.368 163.408C127.528 163.905 126.762 164.52 126.093 165.232C125.932 165.398 125.84 165.62 125.836 165.852C125.839 166.084 125.931 166.306 126.093 166.472C126.258 166.635 126.481 166.728 126.713 166.729C126.945 166.726 127.167 166.634 127.333 166.472H127.31Z" fill="url(#paint9_linear_379_31456)"/>
<path d="M174.262 184.073C174.186 185.258 174.469 186.438 175.075 187.459C175.194 187.657 175.386 187.801 175.61 187.86C175.834 187.919 176.072 187.889 176.274 187.775C176.472 187.653 176.615 187.46 176.674 187.236C176.732 187.011 176.702 186.773 176.59 186.57C176.474 186.383 176.372 186.188 176.286 185.985L176.373 186.196C176.197 185.77 176.076 185.324 176.011 184.868L176.046 185.097C176.001 184.759 175.991 184.418 176.017 184.079C176.017 183.846 175.924 183.623 175.76 183.459C175.595 183.294 175.372 183.202 175.139 183.202C174.909 183.208 174.689 183.302 174.526 183.465C174.363 183.629 174.268 183.848 174.262 184.079V184.073Z" fill="url(#paint10_linear_379_31456)"/>
<path d="M194.985 175.81L196.482 177.939C196.598 178.136 196.787 178.281 197.008 178.342C197.228 178.404 197.464 178.378 197.665 178.269C197.866 178.16 198.016 177.976 198.084 177.758C198.116 177.645 198.125 177.526 198.11 177.409C198.095 177.293 198.056 177.18 197.996 177.079L196.482 174.921C196.36 174.729 196.173 174.586 195.955 174.518C195.728 174.458 195.487 174.49 195.283 174.606C195.085 174.722 194.94 174.911 194.879 175.132C194.847 175.245 194.838 175.364 194.853 175.48C194.868 175.597 194.907 175.709 194.967 175.81H194.985Z" fill="url(#paint11_linear_379_31456)"/>
<path d="M216.527 62.3479C216.48 62.4648 216.387 62.4648 216.311 62.4941C215.924 62.6392 215.545 62.8052 215.176 62.9911C214.718 63.217 214.346 63.5867 214.118 64.0437C213.916 64.4333 213.74 64.8357 213.591 65.2483C213.591 65.301 213.556 65.3828 213.498 65.3887C213.439 65.3945 213.416 65.301 213.393 65.2483C213.24 64.8975 213.094 64.5408 212.942 64.1957C212.701 63.6222 212.246 63.1651 211.673 62.9209C211.393 62.7981 211.089 62.6812 210.825 62.5525C210.684 62.5125 210.551 62.4471 210.434 62.3596C211.155 62.1354 211.829 61.7806 212.422 61.3128C212.897 60.7057 213.259 60.0185 213.492 59.2837C213.716 60.0238 214.079 60.7145 214.562 61.3187C215.148 61.7807 215.814 62.1297 216.527 62.3479Z" fill="white"/>
<path d="M208.482 66.8916C208.482 66.9501 208.412 66.9501 208.377 66.9618C208.19 67.0321 208.006 67.1122 207.827 67.2015C207.606 67.3125 207.426 67.4906 207.313 67.7103C207.218 67.9004 207.134 68.0956 207.061 68.2951C207.061 68.2951 207.061 68.3594 207.015 68.3652C206.968 68.3711 206.974 68.3243 206.962 68.2951C206.892 68.1255 206.822 67.9559 206.746 67.7863C206.625 67.519 206.405 67.3093 206.132 67.2015L205.722 67.0203C205.654 67.0024 205.59 66.9705 205.535 66.9267C205.882 66.8161 206.206 66.6459 206.494 66.4238C206.725 66.1277 206.901 65.7931 207.015 65.4355C207.123 65.7943 207.297 66.1295 207.529 66.4238C207.815 66.638 208.138 66.7967 208.482 66.8916Z" fill="white"/>
<path d="M161.525 25.0047C161.478 25.1216 161.378 25.1216 161.302 25.1509C160.904 25.3019 160.513 25.4737 160.133 25.6655C159.666 25.8989 159.288 26.2789 159.057 26.7473C158.849 27.1485 158.668 27.5626 158.513 27.987C158.513 28.0396 158.484 28.1215 158.419 28.1273C158.355 28.1332 158.332 28.0396 158.308 27.9812C158.156 27.6186 158.004 27.256 157.846 26.8993C157.598 26.3118 157.13 25.8441 156.542 25.5953L155.677 25.2152C155.531 25.1745 155.394 25.107 155.273 25.0164C156.008 24.7811 156.695 24.4167 157.303 23.9404C157.887 23.3849 158.057 22.6071 158.402 21.8528C158.632 22.6158 159.005 23.3282 159.501 23.9521C160.104 24.426 160.79 24.783 161.525 25.0047Z" fill="#EA3223"/>
<path d="M249.999 101.136C249.952 101.258 249.859 101.258 249.783 101.288C249.384 101.439 248.994 101.61 248.613 101.802C248.142 102.031 247.761 102.412 247.531 102.884C247.325 103.284 247.144 103.696 246.988 104.118C246.988 104.176 246.953 104.258 246.888 104.264C246.824 104.27 246.806 104.176 246.783 104.118C246.625 103.755 246.479 103.393 246.321 103.036C246.071 102.45 245.604 101.982 245.017 101.732L244.152 101.352C244.006 101.311 243.869 101.244 243.748 101.153C244.487 100.919 245.178 100.555 245.789 100.077C246.374 99.5216 246.543 98.7439 246.882 97.9895C247.115 98.7497 247.488 99.4597 247.982 100.083C248.582 100.558 249.266 100.915 249.999 101.136Z" fill="#EA3223"/>
<path d="M244.708 89.5982C244.643 89.7619 244.509 89.7619 244.409 89.797C243.867 90.0033 243.337 90.2375 242.819 90.4987C242.18 90.8138 241.663 91.3293 241.345 91.9665C241.064 92.5145 240.816 93.0788 240.603 93.6565C240.603 93.7325 240.556 93.8377 240.474 93.8494C240.392 93.8611 240.357 93.7266 240.322 93.6506C240.117 93.1594 239.913 92.6682 239.696 92.177C239.356 91.3903 238.729 90.7629 237.942 90.4227L236.772 89.9081C236.573 89.855 236.387 89.7636 236.223 89.6391C237.193 89.1947 238.246 88.9315 239 88.1772C239.755 87.4228 240.029 86.3644 240.497 85.3352C240.953 86.3702 241.228 87.4287 241.988 88.183C242.749 88.9374 243.754 89.183 244.708 89.5982Z" fill="#EA3223"/>
<path d="M170.101 21.999C170.072 22.075 170.008 22.075 169.955 22.0926C169.692 22.1978 169.434 22.3089 169.183 22.4376C168.871 22.5896 168.618 22.8404 168.464 23.151C168.328 23.4163 168.209 23.6897 168.107 23.9697C168.107 24.0048 168.107 24.0574 168.043 24.0632C167.978 24.0691 167.99 24.0048 167.973 23.9697C167.867 23.7299 167.768 23.4902 167.668 23.2504C167.501 22.8631 167.191 22.5552 166.803 22.3908L166.218 22.1393C166.121 22.1114 166.03 22.0658 165.949 22.0048C166.437 21.8498 166.895 21.6103 167.3 21.2973C167.625 20.8833 167.873 20.4137 168.031 19.9114C168.178 20.4169 168.425 20.888 168.756 21.2973C169.157 21.6129 169.613 21.8509 170.101 21.999Z" fill="#EA3223"/>
<path d="M7.71827 125.31C7.71827 125.392 7.62471 125.392 7.57793 125.409C7.31257 125.508 7.05292 125.621 6.80018 125.748C6.48715 125.905 6.2359 126.163 6.08677 126.479C5.95161 126.746 5.83059 127.019 5.72421 127.298C5.72421 127.339 5.72421 127.392 5.66573 127.392C5.60726 127.392 5.60726 127.333 5.58972 127.298C5.4903 127.058 5.39089 126.819 5.28564 126.585C5.1225 126.193 4.81146 125.882 4.42018 125.719L3.83541 125.468C3.74034 125.442 3.65104 125.398 3.57227 125.339C4.0602 125.181 4.51717 124.939 4.92308 124.626C5.24442 124.212 5.48992 123.745 5.64819 123.246C5.80272 123.748 6.04853 124.218 6.3733 124.632C6.77507 124.94 7.23134 125.17 7.71827 125.31Z" fill="#00E8E1"/>
</g>
</g>
<defs>
<linearGradient id="paint0_linear_379_31456" x1="188.476" y1="95.8202" x2="191.084" y2="93.2121" gradientUnits="userSpaceOnUse">
<stop stop-color="#FF49A1"/>
<stop offset="0.03" stop-color="#FF4394"/>
<stop offset="0.13" stop-color="#FE316D"/>
<stop offset="0.23" stop-color="#FE224B"/>
<stop offset="0.35" stop-color="#FE1630"/>
<stop offset="0.47" stop-color="#FD0C1B"/>
<stop offset="0.6" stop-color="#FD050C"/>
<stop offset="0.76" stop-color="#FD0103"/>
<stop offset="1" stop-color="#FD0000"/>
</linearGradient>
<linearGradient id="paint1_linear_379_31456" x1="121.989" y1="119.755" x2="122.954" y2="118.796" gradientUnits="userSpaceOnUse">
<stop stop-color="#FF49A1"/>
<stop offset="0.03" stop-color="#FF4394"/>
<stop offset="0.13" stop-color="#FE316D"/>
<stop offset="0.23" stop-color="#FE224B"/>
<stop offset="0.35" stop-color="#FE1630"/>
<stop offset="0.47" stop-color="#FD0C1B"/>
<stop offset="0.6" stop-color="#FD050C"/>
<stop offset="0.76" stop-color="#FD0103"/>
<stop offset="1" stop-color="#FD0000"/>
</linearGradient>
<linearGradient id="paint2_linear_379_31456" x1="148.361" y1="183.196" x2="150.419" y2="181.132" gradientUnits="userSpaceOnUse">
<stop stop-color="#FF49A1"/>
<stop offset="0.03" stop-color="#FF4394"/>
<stop offset="0.13" stop-color="#FE316D"/>
<stop offset="0.23" stop-color="#FE224B"/>
<stop offset="0.35" stop-color="#FE1630"/>
<stop offset="0.47" stop-color="#FD0C1B"/>
<stop offset="0.6" stop-color="#FD050C"/>
<stop offset="0.76" stop-color="#FD0103"/>
<stop offset="1" stop-color="#FD0000"/>
</linearGradient>
<linearGradient id="paint3_linear_379_31456" x1="214.183" y1="157.601" x2="215.218" y2="156.566" gradientUnits="userSpaceOnUse">
<stop stop-color="#FF49A1"/>
<stop offset="0.03" stop-color="#FF4394"/>
<stop offset="0.13" stop-color="#FE316D"/>
<stop offset="0.23" stop-color="#FE224B"/>
<stop offset="0.35" stop-color="#FE1630"/>
<stop offset="0.47" stop-color="#FD0C1B"/>
<stop offset="0.6" stop-color="#FD050C"/>
<stop offset="0.76" stop-color="#FD0103"/>
<stop offset="1" stop-color="#FD0000"/>
</linearGradient>
<linearGradient id="paint4_linear_379_31456" x1="140.337" y1="96.6095" x2="140.863" y2="96.0832" gradientUnits="userSpaceOnUse">
<stop stop-color="#FF49A1"/>
<stop offset="0.03" stop-color="#FF4394"/>
<stop offset="0.13" stop-color="#FE316D"/>
<stop offset="0.23" stop-color="#FE224B"/>
<stop offset="0.35" stop-color="#FE1630"/>
<stop offset="0.47" stop-color="#FD0C1B"/>
<stop offset="0.6" stop-color="#FD050C"/>
<stop offset="0.76" stop-color="#FD0103"/>
<stop offset="1" stop-color="#FD0000"/>
</linearGradient>
<linearGradient id="paint5_linear_379_31456" x1="160.97" y1="88.8028" x2="162.747" y2="87.0251" gradientUnits="userSpaceOnUse">
<stop stop-color="#FF49A1"/>
<stop offset="0.03" stop-color="#FF4394"/>
<stop offset="0.13" stop-color="#FE316D"/>
<stop offset="0.23" stop-color="#FE224B"/>
<stop offset="0.35" stop-color="#FE1630"/>
<stop offset="0.47" stop-color="#FD0C1B"/>
<stop offset="0.6" stop-color="#FD050C"/>
<stop offset="0.76" stop-color="#FD0103"/>
<stop offset="1" stop-color="#FD0000"/>
</linearGradient>
<linearGradient id="paint6_linear_379_31456" x1="208.504" y1="111.229" x2="210.17" y2="109.562" gradientUnits="userSpaceOnUse">
<stop stop-color="#FF49A1"/>
<stop offset="0.03" stop-color="#FF4394"/>
<stop offset="0.13" stop-color="#FE316D"/>
<stop offset="0.23" stop-color="#FE224B"/>
<stop offset="0.35" stop-color="#FE1630"/>
<stop offset="0.47" stop-color="#FD0C1B"/>
<stop offset="0.6" stop-color="#FD050C"/>
<stop offset="0.76" stop-color="#FD0103"/>
<stop offset="1" stop-color="#FD0000"/>
</linearGradient>
<linearGradient id="paint7_linear_379_31456" x1="216.954" y1="134.73" x2="218.352" y2="133.333" gradientUnits="userSpaceOnUse">
<stop stop-color="#FF49A1"/>
<stop offset="0.03" stop-color="#FF4394"/>
<stop offset="0.13" stop-color="#FE316D"/>
<stop offset="0.23" stop-color="#FE224B"/>
<stop offset="0.35" stop-color="#FE1630"/>
<stop offset="0.47" stop-color="#FD0C1B"/>
<stop offset="0.6" stop-color="#FD050C"/>
<stop offset="0.76" stop-color="#FD0103"/>
<stop offset="1" stop-color="#FD0000"/>
</linearGradient>
<linearGradient id="paint8_linear_379_31456" x1="118.341" y1="145.192" x2="120.698" y2="142.835" gradientUnits="userSpaceOnUse">
<stop stop-color="#FF49A1"/>
<stop offset="0.03" stop-color="#FF4394"/>
<stop offset="0.13" stop-color="#FE316D"/>
<stop offset="0.23" stop-color="#FE224B"/>
<stop offset="0.35" stop-color="#FE1630"/>
<stop offset="0.47" stop-color="#FD0C1B"/>
<stop offset="0.6" stop-color="#FD050C"/>
<stop offset="0.76" stop-color="#FD0103"/>
<stop offset="1" stop-color="#FD0000"/>
</linearGradient>
<linearGradient id="paint9_linear_379_31456" x1="126.783" y1="165.957" x2="128.731" y2="164.004" gradientUnits="userSpaceOnUse">
<stop stop-color="#FF49A1"/>
<stop offset="0.03" stop-color="#FF4394"/>
<stop offset="0.13" stop-color="#FE316D"/>
<stop offset="0.23" stop-color="#FE224B"/>
<stop offset="0.35" stop-color="#FE1630"/>
<stop offset="0.47" stop-color="#FD0C1B"/>
<stop offset="0.6" stop-color="#FD050C"/>
<stop offset="0.76" stop-color="#FD0103"/>
<stop offset="1" stop-color="#FD0000"/>
</linearGradient>
<linearGradient id="paint10_linear_379_31456" x1="174.718" y1="186.307" x2="176.174" y2="184.845" gradientUnits="userSpaceOnUse">
<stop stop-color="#FF49A1"/>
<stop offset="0.03" stop-color="#FF4394"/>
<stop offset="0.13" stop-color="#FE316D"/>
<stop offset="0.23" stop-color="#FE224B"/>
<stop offset="0.35" stop-color="#FE1630"/>
<stop offset="0.47" stop-color="#FD0C1B"/>
<stop offset="0.6" stop-color="#FD050C"/>
<stop offset="0.76" stop-color="#FD0103"/>
<stop offset="1" stop-color="#FD0000"/>
</linearGradient>
<linearGradient id="paint11_linear_379_31456" x1="196.119" y1="176.816" x2="196.856" y2="176.073" gradientUnits="userSpaceOnUse">
<stop stop-color="#FF49A1"/>
<stop offset="0.03" stop-color="#FF4394"/>
<stop offset="0.13" stop-color="#FE316D"/>
<stop offset="0.23" stop-color="#FE224B"/>
<stop offset="0.35" stop-color="#FE1630"/>
<stop offset="0.47" stop-color="#FD0C1B"/>
<stop offset="0.6" stop-color="#FD050C"/>
<stop offset="0.76" stop-color="#FD0103"/>
<stop offset="1" stop-color="#FD0000"/>
</linearGradient>
<clipPath id="clip0_379_31456">
<rect width="250" height="212" fill="white"/>
</clipPath>
<clipPath id="clip1_379_31456">
<rect width="250" height="212.857" fill="white" transform="translate(0 -1)"/>
</clipPath>
</defs>
</svg>
