<svg width="250" height="212" viewBox="0 0 250 212" fill="none" xmlns="http://www.w3.org/2000/svg">
<g clip-path="url(#clip0_379_31457)">
<path d="M248.016 45.3921L187.61 43.3503C187.251 43.3368 186.895 43.4181 186.578 43.5861C186.261 43.754 185.993 44.0026 185.803 44.3069C185.612 44.6111 185.505 44.9602 185.493 45.319C185.48 45.6777 185.562 46.0334 185.731 46.3503L194.017 61.8888L6.61555 161.809C3.6968 163.375 1.51716 166.033 0.553527 169.202C-0.410107 172.371 -0.0792764 175.793 1.47364 178.719C2.24542 180.168 3.29527 181.45 4.56315 182.493C5.83102 183.535 7.29204 184.318 8.86262 184.796C10.4332 185.273 12.0825 185.436 13.7163 185.276C15.35 185.116 16.936 184.635 18.3837 183.861L205.785 83.9283L214.196 99.6797C214.365 99.9969 214.614 100.264 214.918 100.454C215.223 100.645 215.572 100.751 215.931 100.763C216.29 100.775 216.646 100.692 216.962 100.523C217.279 100.354 217.546 100.104 217.735 99.7987L249.676 48.511C249.865 48.2072 249.971 47.859 249.983 47.5014C249.995 47.1438 249.913 46.7892 249.745 46.4733C249.577 46.1574 249.329 45.8913 249.025 45.7015C248.722 45.5117 248.374 45.405 248.016 45.3921Z" fill="#EA3223"/>
<path d="M25.916 39.3046C25.916 39.3046 65.0911 14.5157 108.274 28.7577C151.458 42.9998 178.94 24.2734 178.94 24.2734C178.94 24.2734 187.082 152.214 183.011 188.564C183.011 188.564 129.274 196.174 105.03 184.869C80.7861 173.564 41.1977 198.472 41.1977 198.472C41.1977 198.472 31.2458 151.844 25.916 39.3046Z" fill="#9AC67F"/>
<path d="M78.2449 119.402C76.4036 118.268 73.8608 118.087 72.0947 119.433C71.2806 120.037 70.6934 120.898 70.4276 121.876C70.1618 122.854 70.2327 123.893 70.6291 124.826C71.4183 126.479 73.1343 127.187 74.7564 127.838C76.3786 128.49 78.2136 129.335 77.8879 131.327C77.7885 131.869 77.5023 132.36 77.079 132.713C76.6557 133.067 76.1221 133.261 75.5706 133.262C74.9586 133.222 74.3614 133.056 73.817 132.774C73.5164 132.636 72.5644 132.329 72.5644 131.922C72.4391 130.732 70.554 130.719 70.6855 131.922C70.817 133.124 71.6312 133.801 72.6771 134.295C73.7245 134.888 74.9204 135.166 76.1218 135.097C76.6807 135.024 77.2194 134.841 77.7064 134.557C78.1934 134.273 78.6188 133.895 78.9578 133.445C79.2967 132.994 79.5423 132.481 79.6801 131.934C79.818 131.388 79.8453 130.819 79.7606 130.262C79.4474 128.145 77.6938 127.037 75.8775 126.273C74.4871 125.69 72.2763 125.076 72.1197 123.26C72.0946 122.712 72.2338 122.169 72.5195 121.7C72.8051 121.231 73.2242 120.859 73.723 120.63C74.3058 120.403 74.9348 120.32 75.5564 120.389C76.1781 120.457 76.7739 120.675 77.293 121.024C78.3263 121.65 79.2721 120.035 78.2387 119.402H78.2449Z" fill="white"/>
<path d="M83.5684 118.901C86.295 118.294 89.0698 117.93 91.8606 117.811C93.0631 117.761 93.0694 115.882 91.8606 115.932C88.9097 116.062 85.9757 116.45 83.0924 117.091C82.8602 117.166 82.6657 117.328 82.5491 117.542C82.4326 117.757 82.4029 118.008 82.4661 118.243C82.5376 118.481 82.6979 118.682 82.9137 118.804C83.1294 118.927 83.3841 118.961 83.6248 118.901H83.5684Z" fill="white"/>
<path d="M86.7622 117.974L88.1212 133.168C88.2277 134.364 90.1066 134.377 90.0001 133.168L88.6411 117.974C88.5346 116.784 86.6557 116.772 86.7622 117.974Z" fill="white"/>
<path d="M97.5338 117.974C97.8219 122.4 97.943 126.832 97.8971 131.27C97.8971 131.52 97.9961 131.758 98.1722 131.935C98.3484 132.111 98.5874 132.21 98.8365 132.21C99.0857 132.21 99.3246 132.111 99.5008 131.935C99.677 131.758 99.776 131.52 99.776 131.27C99.8261 126.836 99.705 122.404 99.4127 117.974C99.3313 116.772 97.4524 116.765 97.5338 117.974Z" fill="white"/>
<path d="M98.9107 118.669C99.1487 118.531 99.3929 118.412 99.6372 118.3C99.8632 118.194 100.095 118.102 100.332 118.024C100.595 117.936 100.865 117.861 101.134 117.799C101.366 117.738 101.603 117.696 101.842 117.673C102.104 117.655 102.368 117.655 102.631 117.673H102.825C102.668 117.673 102.781 117.673 102.825 117.673C102.982 117.673 103.107 117.73 103.245 117.774C103.305 117.787 103.364 117.805 103.42 117.83L103.527 117.867L103.627 117.918L103.79 118.005C103.989 118.113 104.165 118.257 104.309 118.431L104.435 118.581C104.435 118.544 104.36 118.475 104.435 118.625C104.51 118.776 104.56 118.838 104.616 118.951C104.673 119.064 104.685 119.12 104.616 118.989C104.616 119.045 104.66 119.108 104.679 119.164C104.722 119.301 104.755 119.442 104.779 119.584C104.81 119.74 104.779 119.452 104.779 119.615C104.776 119.663 104.776 119.711 104.779 119.759C104.779 119.884 104.779 120.016 104.779 120.141C104.779 120.141 104.742 120.529 104.779 120.379C104.753 120.542 104.718 120.703 104.673 120.861C104.556 121.319 104.342 121.746 104.046 122.114C104.122 122.02 104.015 122.145 104.009 122.158L103.877 122.302C103.777 122.408 103.67 122.509 103.558 122.602C103.338 122.791 103.098 122.957 102.844 123.097C101.686 123.706 100.394 124.016 99.0861 123.999C98.8384 124.004 98.6022 124.104 98.4271 124.279C98.2519 124.455 98.1514 124.691 98.1466 124.938C98.1483 125.187 98.2478 125.425 98.4236 125.601C98.5994 125.777 98.8374 125.876 99.0861 125.878C102.074 125.803 105.349 124.694 106.42 121.619C106.657 120.971 106.746 120.279 106.682 119.592C106.618 118.905 106.403 118.241 106.051 117.648C105.644 117.064 105.101 116.588 104.47 116.261C103.838 115.933 103.136 115.765 102.424 115.769C100.832 115.776 99.2711 116.209 97.9024 117.022C96.8439 117.611 97.7896 119.233 98.8481 118.65L98.9107 118.669Z" fill="white"/>
<path d="M102.3 125.796C103.391 128.221 104.659 130.561 106.095 132.799C106.158 132.905 106.24 132.998 106.339 133.073C106.437 133.147 106.55 133.201 106.669 133.233C106.789 133.264 106.913 133.271 107.036 133.254C107.158 133.237 107.276 133.196 107.382 133.134C107.489 133.071 107.582 132.988 107.656 132.89C107.731 132.791 107.785 132.679 107.816 132.559C107.847 132.44 107.855 132.315 107.838 132.193C107.821 132.071 107.78 131.953 107.717 131.847C106.281 129.611 105.013 127.273 103.922 124.851C103.796 124.636 103.591 124.479 103.35 124.416C103.109 124.353 102.853 124.387 102.638 124.513C102.436 124.642 102.289 124.842 102.227 125.073C102.164 125.305 102.19 125.552 102.3 125.765V125.796Z" fill="white"/>
<path d="M112.107 117.335C111.977 121.667 112.081 126.004 112.42 130.325C112.514 131.521 114.393 131.533 114.299 130.325C113.96 126.004 113.855 121.667 113.986 117.335C114.024 116.126 112.145 116.133 112.107 117.335Z" fill="white"/>
<path d="M120.388 115.757C120.78 120.819 120.842 125.9 120.576 130.97C120.513 132.179 122.392 132.172 122.455 130.97C122.721 125.9 122.658 120.819 122.267 115.757C122.173 114.555 120.294 114.548 120.388 115.757Z" fill="white"/>
<path d="M128.267 116.69L124.584 119.922C123.657 120.736 121.828 121.801 122.192 123.272C122.448 123.935 122.841 124.537 123.344 125.039L124.835 126.917L127.966 130.932C128.143 131.106 128.382 131.204 128.63 131.204C128.878 131.204 129.117 131.106 129.294 130.932C129.464 130.753 129.559 130.515 129.559 130.268C129.559 130.021 129.464 129.784 129.294 129.604C127.578 127.412 125.818 125.252 124.146 123.022C124.008 122.834 123.97 122.928 124.146 122.753L124.841 122.126L126.357 120.805L129.563 117.993C130.478 117.191 129.144 115.87 128.235 116.659L128.267 116.69Z" fill="white"/>
<path d="M135.513 117.993C137.504 117.528 139.553 117.353 141.594 117.473C141.843 117.473 142.082 117.374 142.258 117.198C142.435 117.022 142.534 116.783 142.534 116.534C142.534 116.284 142.435 116.045 142.258 115.869C142.082 115.693 141.843 115.594 141.594 115.594C139.383 115.476 137.167 115.674 135.012 116.183C134.778 116.255 134.582 116.415 134.465 116.63C134.348 116.844 134.318 117.096 134.384 117.331C134.449 117.566 134.603 117.767 134.814 117.891C135.025 118.014 135.275 118.051 135.513 117.993Z" fill="white"/>
<path d="M136.834 123.661L141.588 123.091C141.835 123.085 142.07 122.984 142.245 122.809C142.42 122.634 142.521 122.399 142.527 122.151C142.527 121.694 142.114 121.149 141.588 121.212L136.834 121.782C136.587 121.788 136.352 121.889 136.177 122.064C136.002 122.239 135.901 122.474 135.895 122.721C135.895 123.185 136.308 123.723 136.834 123.661Z" fill="white"/>
<path d="M134.322 117.655L134.579 123.191C134.66 124.939 134.629 126.742 134.842 128.477C134.854 128.825 134.955 129.164 135.135 129.462C135.315 129.76 135.567 130.007 135.869 130.181C136.608 130.556 137.473 130.306 138.249 130.181L143.729 129.241C143.963 129.169 144.159 129.009 144.276 128.795C144.393 128.58 144.423 128.329 144.357 128.093C144.292 127.858 144.138 127.657 143.927 127.533C143.716 127.41 143.466 127.373 143.228 127.431L138.663 128.239L137.523 128.433C137.271 128.519 137.005 128.555 136.74 128.54C136.74 128.54 136.859 128.903 136.74 128.446C136.72 128.374 136.709 128.301 136.708 128.227C136.665 127.832 136.671 127.425 136.652 127.03L136.22 117.686C136.164 116.477 134.285 116.471 134.341 117.686L134.322 117.655Z" fill="white"/>
<path d="M81.5393 145.92C82.7532 150.327 83.4509 154.86 83.6186 159.429C83.6624 160.631 85.5413 160.638 85.4975 159.429C85.3258 154.693 84.6049 149.994 83.3493 145.425C83.2739 145.196 83.1137 145.005 82.9015 144.891C82.6894 144.777 82.4416 144.749 82.2093 144.813C81.977 144.876 81.778 145.026 81.6533 145.232C81.5286 145.438 81.4878 145.684 81.5393 145.92Z" fill="white"/>
<path d="M83.2963 145.989C84.0997 145.6 84.9386 145.289 85.8015 145.062C86.5484 144.799 87.3468 144.718 88.1314 144.824C89.3839 145.124 90.0103 146.703 90.0791 147.874C90.127 149.212 89.6937 150.523 88.8579 151.569C88.1501 152.433 86.7723 153.404 85.6136 152.821C84.455 152.239 83.5844 153.905 84.6679 154.444C87.6992 155.966 90.6867 153.091 91.5948 150.366C92.5405 147.529 91.5322 143.308 88.0562 142.92C87.0685 142.863 86.0787 142.99 85.1376 143.295C84.1749 143.564 83.2396 143.922 82.3443 144.366C82.1306 144.493 81.9753 144.699 81.9121 144.939C81.8488 145.179 81.8826 145.435 82.0061 145.65C82.1345 145.854 82.3345 146.001 82.5665 146.064C82.7985 146.126 83.0456 146.1 83.2587 145.989H83.2963Z" fill="white"/>
<path d="M95.3867 144.523L97.0777 158.846C97.2092 160.018 98.9566 160.099 98.9566 158.846V157.788C98.9566 157.539 98.8576 157.3 98.6815 157.124C98.5053 156.947 98.2663 156.849 98.0172 156.849C97.768 156.849 97.5291 156.947 97.3529 157.124C97.1767 157.3 97.0777 157.539 97.0777 157.788V158.846H98.9566L97.2656 144.523C97.2578 144.276 97.1563 144.042 96.9818 143.867C96.8073 143.693 96.5728 143.591 96.3262 143.583C96.077 143.583 95.8381 143.682 95.6619 143.859C95.4857 144.035 95.3867 144.274 95.3867 144.523Z" fill="white"/>
<path d="M96.6504 144.736C97.5135 144.247 98.4966 144.01 99.4876 144.053C99.6762 144.08 99.8611 144.128 100.039 144.197C100.109 144.227 100.178 144.26 100.245 144.298L100.433 144.417C100.433 144.417 100.559 144.517 100.483 144.454C100.561 144.518 100.634 144.587 100.703 144.661C100.703 144.661 100.865 144.867 100.803 144.78C100.859 144.861 100.916 144.949 100.966 145.037L101.035 145.168L101.078 145.268C101.366 146.003 101.366 146.819 101.078 147.554C100.785 148.313 100.273 148.967 99.6066 149.433C98.806 150.027 97.8201 150.315 96.8258 150.247C96.5767 150.247 96.3377 150.346 96.1615 150.523C95.9853 150.699 95.8864 150.938 95.8864 151.187C95.8864 151.436 95.9853 151.675 96.1615 151.851C96.3377 152.027 96.5767 152.126 96.8258 152.126C98.0962 152.177 99.3512 151.834 100.419 151.145C101.488 150.455 102.317 149.453 102.794 148.275C103.709 145.989 102.794 142.926 100.233 142.268C98.6734 141.867 97.0701 142.4 95.6734 143.082C95.5669 143.145 95.4738 143.228 95.3993 143.326C95.3248 143.425 95.2704 143.537 95.2393 143.657C95.2082 143.776 95.2009 143.901 95.2179 144.023C95.2349 144.145 95.2758 144.263 95.3383 144.37C95.4009 144.476 95.4837 144.569 95.5822 144.644C95.6807 144.718 95.793 144.773 95.9125 144.804C96.032 144.835 96.1565 144.842 96.2788 144.825C96.4011 144.808 96.5189 144.767 96.6254 144.705L96.6504 144.736Z" fill="white"/>
<path d="M100.052 150.541L103.377 155.182L105.018 157.475C105.238 157.872 105.555 158.209 105.939 158.452C106.198 158.595 106.503 158.632 106.789 158.553C107.074 158.475 107.318 158.288 107.467 158.032C108.093 156.999 106.478 156.059 105.845 157.086L105.807 157.149L106.146 156.811H106.089L106.559 156.685C106.766 156.685 106.954 156.936 106.772 156.685C106.59 156.435 106.54 156.36 106.421 156.203L105.732 155.239L104.392 153.36L101.674 149.558C101.543 149.349 101.337 149.198 101.099 149.135C100.86 149.072 100.607 149.103 100.39 149.22C100.175 149.347 100.018 149.554 99.9547 149.795C99.8914 150.037 99.9263 150.294 100.052 150.51V150.541Z" fill="white"/>
<path d="M108.756 144.066L110.81 155.483C110.877 155.722 111.036 155.925 111.251 156.048C111.467 156.171 111.722 156.204 111.962 156.141C112.195 156.064 112.39 155.902 112.506 155.686C112.622 155.471 112.652 155.219 112.589 154.982L110.534 143.565C110.462 143.331 110.302 143.135 110.088 143.018C109.873 142.901 109.622 142.871 109.386 142.937C109.151 143.002 108.95 143.156 108.826 143.367C108.703 143.578 108.666 143.828 108.724 144.066H108.756Z" fill="white"/>
<path d="M123.38 141.98C121.677 141.792 119.886 141.886 118.608 143.183C117.589 144.369 116.984 145.855 116.886 147.416C116.504 150.548 117.293 154.406 120.468 155.859C121.221 156.243 122.059 156.428 122.903 156.396C123.747 156.364 124.569 156.117 125.291 155.677C126.293 155.013 125.353 153.385 124.345 154.055C123.772 154.394 123.11 154.55 122.447 154.503C121.783 154.456 121.15 154.208 120.631 153.792C120.054 153.317 119.585 152.726 119.253 152.057C118.922 151.387 118.736 150.655 118.708 149.909C118.519 148.381 118.735 146.83 119.334 145.412C119.599 144.794 120.077 144.292 120.681 143.997C121.557 143.726 122.487 143.678 123.387 143.859C123.636 143.859 123.875 143.76 124.051 143.584C124.227 143.408 124.326 143.169 124.326 142.92C124.32 142.672 124.219 142.437 124.044 142.262C123.869 142.087 123.634 141.986 123.387 141.98H123.38Z" fill="white"/>
<path d="M130.604 143.358C132.624 143.433 134.647 143.346 136.654 143.095C136.901 143.09 137.137 142.99 137.313 142.815C137.488 142.639 137.588 142.403 137.593 142.156C137.593 141.698 137.173 141.153 136.654 141.216C134.647 141.467 132.624 141.555 130.604 141.479C130.354 141.479 130.115 141.578 129.939 141.754C129.763 141.931 129.664 142.169 129.664 142.419C129.664 142.668 129.763 142.907 129.939 143.083C130.115 143.259 130.354 143.358 130.604 143.358Z" fill="white"/>
<path d="M130.36 148.644C132.338 148.975 134.37 148.758 136.234 148.018C136.465 147.94 136.657 147.778 136.773 147.564C136.89 147.351 136.921 147.101 136.86 146.865C136.792 146.626 136.632 146.423 136.415 146.3C136.199 146.177 135.943 146.144 135.702 146.208C135.279 146.377 134.846 146.519 134.405 146.634C134.211 146.684 134.023 146.721 133.829 146.759L133.447 146.828H133.309C132.893 146.868 132.475 146.887 132.057 146.884C131.831 146.884 131.6 146.884 131.374 146.853H131.08C130.967 146.853 130.954 146.853 131.042 146.853H130.848C130.612 146.791 130.362 146.822 130.148 146.938C129.934 147.054 129.772 147.248 129.696 147.479C129.629 147.716 129.657 147.969 129.774 148.185C129.891 148.402 130.087 148.564 130.322 148.638L130.36 148.644Z" fill="white"/>
<path d="M129.375 143.339L129.813 148.463C129.964 150.185 130.039 151.926 130.264 153.636C130.281 154.004 130.428 154.354 130.68 154.624C130.931 154.893 131.27 155.065 131.636 155.108C132.458 155.122 133.279 155.048 134.085 154.888L139.214 154.318C139.462 154.314 139.698 154.213 139.873 154.038C140.048 153.863 140.149 153.627 140.154 153.379C140.152 153.13 140.052 152.892 139.877 152.716C139.701 152.541 139.463 152.441 139.214 152.44L134.83 152.928L132.525 153.185C132.394 153.185 132.124 153.185 132.024 153.241C131.924 153.298 131.88 153.329 132.162 153.523L132.131 153.391C132.123 153.064 132.094 152.738 132.043 152.414L131.266 143.339C131.16 142.143 129.281 142.131 129.388 143.339H129.375Z" fill="white"/>
<path d="M80.9802 52.2878C81.8204 57.678 81.8984 63.1596 81.2119 68.5716C80.9927 70.3065 80.0971 73.4505 82.6274 73.9452C83.7547 74.1645 84.9008 73.4505 85.8904 73.0121L89.7359 71.3085C90.8382 70.8138 89.8799 69.1979 88.7839 69.6864L85.4896 71.1206C85.0699 71.3085 83.2537 72.4108 82.8403 72.0037C82.6274 71.7908 82.7276 71.1707 82.7589 70.914C82.8153 70.3566 82.9217 69.8054 82.9969 69.248C83.1556 68.1123 83.2808 66.9724 83.3727 65.8284C83.724 61.1411 83.5286 56.4289 82.7902 51.7868C82.6023 50.5968 80.7923 51.1041 80.9802 52.2878Z" fill="#1E3515"/>
<path d="M95.3539 69.3106C96.0729 63.9002 97.1526 58.5439 98.5856 53.2774L97.0136 53.7095C97.7486 54.4521 98.212 55.4207 98.3288 56.459C98.5856 57.8118 98.7171 59.1959 98.905 60.5675L100.07 69.3357C100.076 69.5829 100.177 69.8181 100.352 69.993C100.527 70.1678 100.762 70.2688 101.009 70.2751C101.258 70.2719 101.495 70.1719 101.67 69.9964C101.846 69.8209 101.946 69.5838 101.949 69.3357L100.659 59.6782C100.333 57.2356 100.339 54.1792 98.3664 52.3943C98.2488 52.2811 98.104 52.2001 97.9461 52.1591C97.7881 52.118 97.6222 52.1182 97.4644 52.1597C97.3065 52.2012 97.162 52.2826 97.0447 52.3961C96.9274 52.5095 96.8412 52.6513 96.7944 52.8077C95.3283 58.2393 94.2277 63.7631 93.5001 69.342C93.4312 69.8493 93.9761 70.2751 94.4395 70.2814C94.6867 70.2751 94.922 70.1741 95.0968 69.9992C95.2716 69.8244 95.3726 69.5891 95.379 69.342L95.3539 69.3106Z" fill="#1E3515"/>
<path d="M94.7477 64.3566C96.799 64.5377 98.8656 64.426 100.885 64.0247C101.12 63.9508 101.317 63.7886 101.433 63.5723C101.55 63.356 101.578 63.1027 101.512 62.866C101.435 62.6347 101.274 62.4411 101.059 62.3248C100.845 62.2085 100.595 62.178 100.359 62.2397C98.5028 62.5967 96.6048 62.6874 94.7227 62.509C94.474 62.5107 94.236 62.6102 94.0602 62.786C93.8843 62.9618 93.7848 63.1998 93.7832 63.4485C93.7895 63.6956 93.8906 63.9309 94.0654 64.1057C94.2402 64.2806 94.4755 64.3816 94.7227 64.3879L94.7477 64.3566Z" fill="#1E3515"/>
<path d="M113.052 51.3044C111.998 50.9228 110.854 50.8644 109.766 51.1366C108.678 51.4089 107.696 51.9993 106.946 52.8325C106.237 53.6852 105.777 54.717 105.617 55.8143C105.457 56.9116 105.602 58.0319 106.038 59.0517C106.528 60.2164 107.159 61.3165 107.917 62.3272C108.673 63.2846 109.244 64.3741 109.602 65.5402C109.746 66.0149 109.758 66.5203 109.634 67.001C109.51 67.4816 109.256 67.9188 108.9 68.2646C108.305 68.7531 107.197 68.6779 106.94 67.8512C106.583 66.6988 104.767 67.1873 105.13 68.346C105.297 68.8201 105.576 69.2471 105.943 69.5908C106.309 69.9345 106.754 70.1848 107.238 70.3206C107.722 70.4563 108.231 70.4735 108.724 70.3708C109.216 70.268 109.676 70.0482 110.065 69.7301C112.013 68.1644 111.8 65.465 110.798 63.4295C109.658 61.106 107.24 59.0893 107.428 56.2834C107.479 55.7006 107.665 55.1378 107.972 54.6396C108.279 54.1414 108.698 53.7218 109.195 53.414C109.693 53.1062 110.255 52.9189 110.838 52.8669C111.42 52.8149 112.007 52.8996 112.551 53.1144C113.691 53.5277 114.18 51.7115 113.052 51.3044Z" fill="#1E3515"/>
<path d="M115.965 54.1165L125.359 52.9829C125.606 52.9751 125.84 52.8736 126.015 52.6991C126.189 52.5246 126.291 52.2901 126.299 52.0435C126.299 51.7943 126.2 51.5553 126.024 51.3792C125.847 51.203 125.608 51.104 125.359 51.104L115.965 52.2376C115.718 52.2439 115.482 52.345 115.308 52.5198C115.133 52.6946 115.032 52.9299 115.025 53.1771C115.029 53.4252 115.129 53.6623 115.304 53.8378C115.48 54.0132 115.717 54.1133 115.965 54.1165Z" fill="#1E3515"/>
<path d="M119.793 53.7785L120.144 62.7346C120.206 64.2001 120.219 65.6782 120.319 67.1187C120.315 67.3856 120.38 67.649 120.507 67.8836C120.634 68.1183 120.82 68.3164 121.045 68.4589C121.167 68.5329 121.303 68.5813 121.445 68.6011C121.586 68.621 121.73 68.6119 121.867 68.5744C122.005 68.5369 122.134 68.4718 122.245 68.383C122.357 68.2943 122.45 68.1837 122.517 68.0581C122.643 67.8422 122.677 67.5853 122.613 67.3439C122.549 67.1025 122.392 66.8965 122.176 66.7711C121.96 66.6457 121.703 66.6112 121.462 66.6752C121.22 66.7392 121.014 66.8965 120.889 67.1124L120.845 67.2001L121.653 66.7366C122.104 67.1312 122.279 67.1187 122.185 66.7366V66.461L122.129 65.6093L122.06 63.9558L121.922 60.5112L121.659 53.7597C121.609 52.5572 119.73 52.5509 119.78 53.7597L119.793 53.7785Z" fill="#1E3515"/>
<path d="M75.7829 81.179C76.9977 85.5839 77.6935 90.1156 77.8559 94.682C77.8998 95.8908 79.7787 95.8971 79.7348 94.682C79.5684 89.9466 78.8495 85.2467 77.5929 80.678C77.5208 80.4445 77.3605 80.2484 77.1461 80.1311C76.9318 80.0139 76.6802 79.9847 76.4447 80.0499C76.2092 80.1151 76.0084 80.2695 75.8848 80.4803C75.7613 80.6911 75.7247 80.9417 75.7829 81.179Z" fill="#1E3515"/>
<path d="M77.5483 81.2667C78.3505 80.8753 79.1897 80.5648 80.0535 80.3398C80.8004 80.0775 81.5988 79.996 82.3833 80.1018C83.6359 80.3961 84.2622 81.9807 84.3311 83.1519C84.3791 84.4881 83.9457 85.7972 83.1098 86.8408C82.3958 87.7051 81.018 88.6758 79.8656 88.0934C78.7132 87.5109 77.8364 89.1706 78.9199 89.7155C81.9449 91.2374 84.9386 88.3564 85.8467 85.6383C86.7925 82.8011 85.7841 78.5799 82.3081 78.1916C81.3203 78.1312 80.3299 78.2587 79.3896 78.5674C78.4269 78.8356 77.4916 79.1942 76.5963 79.6383C76.3826 79.765 76.2273 79.9707 76.164 80.211C76.1007 80.4512 76.1345 80.7067 76.2581 80.9222C76.3874 81.1243 76.5874 81.2709 76.819 81.3334C77.0506 81.396 77.2972 81.3699 77.5107 81.2604L77.5483 81.2667Z" fill="#1E3515"/>
<path d="M89.6113 79.7573L91.2773 94.1058C91.4151 95.2708 93.1562 95.3584 93.1562 94.1058V93.0474C93.1562 92.7982 93.0572 92.5593 92.881 92.3831C92.7048 92.2069 92.4659 92.1079 92.2167 92.1079C91.9676 92.1079 91.7286 92.2069 91.5524 92.3831C91.3763 92.5593 91.2773 92.7982 91.2773 93.0474V94.1058H93.1562L91.4902 79.7573C91.4839 79.5102 91.3829 79.2749 91.2081 79.1001C91.0332 78.9252 90.7979 78.8242 90.5508 78.8179C90.3016 78.8179 90.0627 78.9169 89.8865 79.093C89.7103 79.2692 89.6113 79.5082 89.6113 79.7573Z" fill="#1E3515"/>
<path d="M90.8698 80.014C91.735 79.5249 92.7202 79.2884 93.7132 79.3314C93.9011 79.3586 94.0857 79.4048 94.2643 79.4691L94.471 79.5756L94.6589 79.6946L94.709 79.7322C94.7866 79.7961 94.8598 79.8652 94.9282 79.9389C94.9282 79.9389 95.0911 80.1393 95.0284 80.0579C95.0851 80.1385 95.1374 80.2221 95.185 80.3084L95.2602 80.4462C95.2602 80.4462 95.3478 80.6466 95.304 80.5401C95.5921 81.2749 95.5921 82.0913 95.304 82.8261C94.9763 83.6734 94.3877 84.3945 93.6233 84.8853C92.8589 85.3762 91.9582 85.6113 91.0514 85.5568C90.8028 85.5584 90.5648 85.6579 90.3889 85.8337C90.2131 86.0096 90.1136 86.2476 90.112 86.4962C90.1168 86.7439 90.2173 86.98 90.3925 87.1552C90.5676 87.3303 90.8038 87.4309 91.0514 87.4357C92.3209 87.4816 93.5739 87.1369 94.6413 86.4481C95.7086 85.7593 96.5389 84.7596 97.0201 83.5839C97.9345 81.2979 97.0201 78.2353 94.4585 77.5715C92.899 77.1769 91.2894 77.7092 89.899 78.3919C89.6853 78.5186 89.53 78.7243 89.4667 78.9645C89.4035 79.2048 89.4373 79.4603 89.5608 79.6758C89.6897 79.8871 89.8954 80.0403 90.1347 80.1033C90.374 80.1664 90.6285 80.1344 90.8447 80.014H90.8698Z" fill="#1E3515"/>
<path d="M94.2761 85.7948L97.6017 90.4419L99.2426 92.7342C99.4643 93.1308 99.7805 93.4664 100.163 93.7112C100.423 93.8531 100.727 93.8887 101.012 93.8104C101.297 93.7321 101.541 93.5461 101.691 93.2916C102.318 92.2582 100.702 91.3125 100.069 92.3459L100.032 92.4085L100.364 92.0703H100.307L100.783 91.9388C100.99 91.9388 101.172 92.1893 100.99 91.9388L100.646 91.4565L99.9566 90.492L98.6163 88.6131L95.8982 84.8115C95.767 84.601 95.5603 84.4486 95.3204 84.3857C95.0804 84.3228 94.8256 84.3542 94.608 84.4733C94.4024 84.5995 94.2533 84.8 94.1915 85.0332C94.1297 85.2664 94.16 85.5144 94.2761 85.7259V85.7948Z" fill="#1E3515"/>
<path d="M102.976 79.3251L105.037 90.7426C105.109 90.9766 105.27 91.1731 105.486 91.2901C105.701 91.4071 105.954 91.4354 106.189 91.3689C106.421 91.2924 106.614 91.1307 106.731 90.9166C106.847 90.7026 106.877 90.4522 106.816 90.2165L104.761 78.7991C104.686 78.5654 104.524 78.3699 104.308 78.2532C104.092 78.1365 103.839 78.1077 103.603 78.1728C103.365 78.2442 103.164 78.4045 103.042 78.6203C102.919 78.8361 102.885 79.0908 102.945 79.3314L102.976 79.3251Z" fill="#1E3515"/>
<path d="M117.613 77.2396C115.909 77.0517 114.118 77.1457 112.84 78.4421C111.817 79.626 111.212 81.1138 111.118 82.6759C110.73 85.8074 111.525 89.6591 114.701 91.1122C115.453 91.497 116.291 91.683 117.135 91.6523C117.979 91.6216 118.801 91.3753 119.523 90.9368C120.525 90.2729 119.586 88.6445 118.571 89.3147C118 89.6534 117.339 89.8097 116.676 89.7627C116.014 89.7157 115.381 89.4676 114.863 89.0516C114.287 88.577 113.817 87.9855 113.486 87.3162C113.154 86.6469 112.969 85.9149 112.941 85.1686C112.748 83.6386 112.964 82.0847 113.567 80.6655C113.834 80.0503 114.311 79.5505 114.914 79.2563C115.789 78.982 116.72 78.9346 117.619 79.1185C117.868 79.1185 118.107 79.0195 118.283 78.8434C118.46 78.6672 118.559 78.4282 118.559 78.1791C118.559 77.9299 118.46 77.691 118.283 77.5148C118.107 77.3386 117.868 77.2396 117.619 77.2396H117.613Z" fill="#1E3515"/>
<path d="M124.828 78.6173C126.849 78.6926 128.872 78.6046 130.878 78.3543C131.125 78.348 131.361 78.2469 131.535 78.0721C131.71 77.8973 131.811 77.662 131.818 77.4149C131.818 76.9577 131.398 76.4128 130.878 76.4754C128.872 76.7257 126.849 76.8137 124.828 76.7384C124.579 76.7384 124.34 76.8374 124.164 77.0136C123.988 77.1898 123.889 77.4287 123.889 77.6779C123.893 77.9255 123.994 78.1617 124.169 78.3369C124.344 78.512 124.58 78.6125 124.828 78.6173Z" fill="#1E3515"/>
<path d="M124.582 83.9033C126.561 84.2279 128.591 84.0115 130.457 83.277C130.689 83.1992 130.882 83.0363 130.999 82.8212C131.115 82.6061 131.145 82.3549 131.083 82.1183C131.016 81.8794 130.857 81.6766 130.642 81.5535C130.426 81.4305 130.171 81.3972 129.931 81.4607C129.507 81.6356 129.072 81.78 128.628 81.8929L128.058 82.0181L127.67 82.0808C127.476 82.0808 127.751 82.0808 127.532 82.0808C127.116 82.1262 126.698 82.1472 126.279 82.1434C126.048 82.1434 125.822 82.1434 125.597 82.1058H125.302H125.259H125.064C124.828 82.0454 124.577 82.0764 124.363 82.1924C124.148 82.3085 123.985 82.5012 123.906 82.7321C123.842 82.9687 123.872 83.2206 123.988 83.4361C124.105 83.6516 124.299 83.8143 124.532 83.8908L124.582 83.9033Z" fill="#1E3515"/>
<path d="M123.6 78.5987L124.038 83.7218C124.182 85.4378 124.263 87.179 124.489 88.8888C124.506 89.2576 124.653 89.6086 124.904 89.8793C125.155 90.15 125.494 90.3227 125.861 90.3668C126.682 90.381 127.503 90.3075 128.309 90.1476L133.439 89.5777C133.686 89.5713 133.921 89.4703 134.096 89.2955C134.271 89.1207 134.372 88.8854 134.378 88.6382C134.377 88.3896 134.277 88.1516 134.101 87.9758C133.925 87.7999 133.687 87.7004 133.439 87.6988L129.055 88.1873L126.75 88.4441C126.581 88.4343 126.412 88.4512 126.249 88.4942C126.055 88.4942 126.105 88.5819 126.38 88.7823L126.349 88.6508C126.344 88.3236 126.317 87.9972 126.268 87.6737L125.491 78.5987C125.385 77.4024 123.506 77.3899 123.612 78.5987H123.6Z" fill="#1E3515"/>
<path d="M161.027 63.8616C160.984 63.9744 160.89 63.9744 160.821 63.9994C160.449 64.1397 160.085 64.3007 159.731 64.4817C159.291 64.6972 158.935 65.0516 158.716 65.49C158.527 65.8669 158.357 66.2537 158.209 66.6487C158.209 66.6988 158.178 66.7739 158.121 66.7802C158.065 66.7865 158.04 66.6988 158.015 66.6487C157.871 66.3105 157.733 65.9723 157.583 65.6341C157.358 65.073 156.922 64.623 156.368 64.3815L155.554 64.0307C155.417 63.9926 155.29 63.9289 155.178 63.8429C155.858 63.6225 156.495 63.2833 157.057 62.8408C157.513 62.2563 157.861 61.5944 158.084 60.8867C158.3 61.5976 158.646 62.2623 159.105 62.847C159.674 63.3059 160.327 63.6504 161.027 63.8616Z" fill="white"/>
<path d="M56.6879 143.051C56.6504 143.164 56.5564 143.164 56.4875 143.189C56.114 143.33 55.7481 143.491 55.3915 143.671C54.9535 143.887 54.5991 144.241 54.3831 144.679C54.1817 145.052 54.008 145.44 53.8633 145.838C53.8633 145.888 53.8633 145.963 53.7694 145.97C53.6754 145.976 53.6942 145.888 53.6692 145.832C53.5251 145.494 53.3873 145.155 53.237 144.823C53.0057 144.274 52.57 143.836 52.022 143.602L51.2078 143.251C51.0738 143.208 50.9471 143.145 50.832 143.063C51.513 142.841 52.1491 142.5 52.7109 142.055C53.178 141.484 53.5405 140.836 53.7819 140.139C53.9968 140.848 54.3431 141.511 54.8028 142.093C55.3676 142.524 56.0065 142.849 56.6879 143.051Z" fill="white"/>
<path d="M66.0126 151.807C65.9562 151.951 65.8372 151.951 65.7495 151.982C65.2672 152.166 64.7948 152.375 64.3341 152.609C63.7672 152.888 63.3074 153.346 63.0251 153.911C62.7885 154.398 62.5794 154.898 62.3988 155.408C62.3988 155.477 62.3612 155.571 62.2861 155.577C62.2109 155.583 62.1859 155.471 62.1546 155.402C61.9667 154.97 61.7913 154.531 61.5971 154.099C61.2981 153.387 60.7314 152.82 60.0189 152.521L58.9416 152.039C58.7656 151.987 58.6001 151.904 58.4531 151.794C59.3174 151.4 60.2506 151.168 60.9207 150.498C61.5909 149.828 61.8351 148.888 62.2485 147.993C62.6556 148.92 62.8748 149.872 63.5763 150.498C64.2993 151.083 65.1257 151.527 66.0126 151.807Z" fill="white"/>
<path d="M199.164 18.5865C199.082 18.7995 198.907 18.7995 198.775 18.8496C198.054 19.1155 197.347 19.4207 196.658 19.764C195.842 20.1832 195.183 20.8556 194.78 21.6805C194.416 22.394 194.094 23.128 193.815 23.8788C193.778 23.979 193.759 24.1168 193.646 24.1293C193.533 24.1418 193.496 23.9727 193.452 23.8725C193.176 23.2462 192.913 22.6199 192.631 21.956C192.189 20.9142 191.361 20.0839 190.32 19.6387L188.78 18.9686C188.518 18.9004 188.27 18.7882 188.047 18.6366C189.299 18.0542 190.684 17.716 191.673 16.7577C192.663 15.7995 193.013 14.3903 193.621 13.05C194.21 14.4029 194.567 15.7807 195.562 16.764C196.558 17.7473 197.911 18.0479 199.164 18.5865Z" fill="url(#paint0_linear_379_31457)"/>
<path d="M171.362 18.7057C171.331 18.7871 171.262 18.7871 171.212 18.8059C170.938 18.9106 170.671 19.0297 170.41 19.1629C170.09 19.3162 169.83 19.5718 169.671 19.8894C169.531 20.1642 169.405 20.4464 169.295 20.7349C169.295 20.7725 169.295 20.8288 169.233 20.8351C169.17 20.8414 169.176 20.7725 169.158 20.7349C169.051 20.4844 168.951 20.2401 168.844 19.9959C168.673 19.5926 168.352 19.2715 167.949 19.1002L167.322 18.8372C167.223 18.8106 167.13 18.766 167.047 18.7057C167.561 18.5628 168.045 18.3272 168.475 18.0105C168.812 17.5851 169.066 17.1009 169.226 16.5825C169.388 17.1002 169.643 17.5841 169.978 18.0105C170.393 18.3254 170.862 18.561 171.362 18.7057Z" fill="url(#paint1_linear_379_31457)"/>
<path d="M13.8483 148.112C13.817 148.193 13.7544 148.193 13.698 148.212C13.4262 148.315 13.1606 148.434 12.9026 148.569C12.5786 148.725 12.3162 148.985 12.1573 149.308C12.0162 149.581 11.8928 149.864 11.7878 150.153C11.7878 150.191 11.7878 150.247 11.7189 150.253C11.65 150.26 11.6626 150.191 11.6438 150.153C11.5373 149.909 11.4371 149.658 11.3306 149.414C11.1594 149.011 10.8383 148.69 10.435 148.519L9.84002 148.262C9.74176 148.23 9.64886 148.184 9.56445 148.124C10.0722 147.963 10.5473 147.713 10.9674 147.385C11.2995 146.957 11.5538 146.473 11.7189 145.957C11.8748 146.479 12.13 146.966 12.4705 147.391C12.8802 147.716 13.3477 147.961 13.8483 148.112Z" fill="url(#paint2_linear_379_31457)"/>
</g>
<defs>
<linearGradient id="paint0_linear_379_31457" x1="188.047" y1="18.5677" x2="199.145" y2="18.5677" gradientUnits="userSpaceOnUse">
<stop stop-color="#FF49A1"/>
<stop offset="0.03" stop-color="#FF4394"/>
<stop offset="0.13" stop-color="#FE316D"/>
<stop offset="0.23" stop-color="#FE224B"/>
<stop offset="0.35" stop-color="#FE1630"/>
<stop offset="0.47" stop-color="#FD0C1B"/>
<stop offset="0.6" stop-color="#FD050C"/>
<stop offset="0.76" stop-color="#FD0103"/>
<stop offset="1" stop-color="#FD0000"/>
</linearGradient>
<linearGradient id="paint1_linear_379_31457" x1="167.078" y1="18.6994" x2="171.362" y2="18.6994" gradientUnits="userSpaceOnUse">
<stop stop-color="#FF49A1"/>
<stop offset="0.03" stop-color="#FF4394"/>
<stop offset="0.13" stop-color="#FE316D"/>
<stop offset="0.23" stop-color="#FE224B"/>
<stop offset="0.35" stop-color="#FE1630"/>
<stop offset="0.47" stop-color="#FD0C1B"/>
<stop offset="0.6" stop-color="#FD050C"/>
<stop offset="0.76" stop-color="#FD0103"/>
<stop offset="1" stop-color="#FD0000"/>
</linearGradient>
<linearGradient id="paint2_linear_379_31457" x1="9.56445" y1="148.105" x2="13.8483" y2="148.105" gradientUnits="userSpaceOnUse">
<stop stop-color="#FF49A1"/>
<stop offset="0.03" stop-color="#FF4394"/>
<stop offset="0.13" stop-color="#FE316D"/>
<stop offset="0.23" stop-color="#FE224B"/>
<stop offset="0.35" stop-color="#FE1630"/>
<stop offset="0.47" stop-color="#FD0C1B"/>
<stop offset="0.6" stop-color="#FD050C"/>
<stop offset="0.76" stop-color="#FD0103"/>
<stop offset="1" stop-color="#FD0000"/>
</linearGradient>
<clipPath id="clip0_379_31457">
<rect width="250" height="185.556" fill="white" transform="translate(0 13)"/>
</clipPath>
</defs>
</svg>
